<svg xmlns="http://www.w3.org/2000/svg" xmlns:xlink="http://www.w3.org/1999/xlink" viewBox="0 0 1920 252"><defs><style>.cls-1{fill:url(#Безымянный_градиент_17);}.cls-2{fill:#07060a;}.cls-3{fill:#ff0;}.cls-4{fill:red;}.cls-5{fill:lime;}.cls-6{fill:#f0f;}</style><linearGradient id="Безымянный_градиент_17" x1="274.93" y1="117" x2="274.93" y2="72" gradientUnits="userSpaceOnUse"><stop offset="0" stop-color="#7f47dd" stop-opacity="0.25"/><stop offset="1" stop-color="#00ae17" stop-opacity="0"/></linearGradient></defs><g id="Layer_2" data-name="Layer 2"><g id="Background_elements" data-name="Background elements"><g id="_1" data-name="1"><rect class="cls-1" x="189.3" y="72" width="171.27" height="45"/><path id="_1-2" data-name="1" class="cls-2" d="M1911,90V54h-18V90h-27v54h-27.05V126a18,18,0,0,0-18-18v9h-9v-9a18,18,0,0,0-18,18v18h-54.08V126h9v-9h-9v-9h9V99h-9V81a9,9,0,0,0-9-9h-9v9h9V99h-9v9h9v36h-27V117a9,9,0,0,0-9-9h-27V90a9,9,0,0,0-9-9h-18a18,18,0,0,0-18,18v36h-27v18h-9V135h-9V90h-9v45h-9V117h-9v18h-9V63h-9v72h-9V99h-9v9h-9v9h-9v9h-9v9h-9v18h-54.08V135h-36.06V108a9,9,0,0,0-9-9h-18a9,9,0,0,0-9,9v27h-36v18h-18V108H1189.86v36h-9V90a27,27,0,0,0-27,27v27h-9v-9a27,27,0,0,0-27-27v36h-9V99h-9V81h-45.07V99h-9V63h-9V99h-9V27h-9V99h-9v90H892.39A63.06,63.06,0,0,0,830,243H792.1a36.06,36.06,0,0,0-34.92-27H703.1V153h-9V135h9V117h-9v-9h-18v9h-9v18h9v9H531.83V63h-9a18,18,0,0,0-36.06,0h-18V81h-9V72h-9V36h-9V72h-9V54h-9V72h-9v36.5H369.58V63H180.28V81H135.71V63H54.08V36h-9V63H27V45h9V36H27V18h9V9H27V0H18V9H9v9h9V63H0V252H1920V90ZM234.37,108h-9V81h9Zm18,0h-9V81h9Zm18,0h-9V81h9Zm18,0h-9V81h9Zm18,0h-9V81h9Zm18,0h-9V81h9Zm261.41,54h90.14v9H585.92Zm-54.09,0h36.06v27h-18v-9h-18Zm0,27h9v9h-9Zm0,27v-9h18v-9h18v18Zm45.07,0V189h27v27ZM613,216V189h27v27Zm36,0V189h27v27Zm667.05,18h-18v-9h18Zm0-36h-18V180h18Zm45.07-90h18v9h-18Zm0,27v-9h18v9Zm117.18,99h-54.08v-9h54.08Zm0-36h-54.08V180h54.08Zm171.27-63V90h9v45Zm18,0V117h9v18Zm18,0V117h9v18Z"/><rect class="cls-3" x="1018.59" y="18" width="9.01" height="9"/><rect class="cls-3" x="45.07" y="27" width="9.01" height="9"/><rect class="cls-4" x="1036.62" y="54" width="9.01" height="9"/><rect class="cls-5" x="441.69" y="27" width="9.01" height="9"/><rect class="cls-5" x="1550.42" y="108" width="9.01" height="9"/><rect class="cls-6" x="423.66" y="45" width="9.01" height="9"/><rect class="cls-6" x="1568.45" y="81" width="9.01" height="9"/></g></g></g></svg>