<svg xmlns="http://www.w3.org/2000/svg" xmlns:xlink="http://www.w3.org/1999/xlink" viewBox="0 0 1920 549"><defs><style>.cls-1{fill:#1a1423;}.cls-2{fill:#d8aa90;}.cls-3{fill:#d3d096;}.cls-4{fill:#a48cbd;}.cls-5{fill:#d9c899;}.cls-6{fill:#a28eb9;}.cls-7{fill:#92b393;}.cls-8{fill:#96c6b9;}.cls-9{fill:url(#Безымянный_градиент_14);}.cls-10{fill:url(#Безымянный_градиент_14-2);}.cls-11{fill:url(#Безымянный_градиент_14-3);}.cls-12{fill:url(#Безымянный_градиент_21);}.cls-13{fill:url(#Безымянный_градиент_14-4);}.cls-14{fill:url(#Безымянный_градиент_17);}.cls-15{fill:url(#Безымянный_градиент_17-2);}.cls-16{fill:#ff0;}.cls-17{fill:red;}.cls-18{fill:lime;}.cls-19{fill:#f0f;}</style><linearGradient id="Безымянный_градиент_14" x1="1721.69" y1="549" x2="1721.69" y2="99" gradientUnits="userSpaceOnUse"><stop offset="0" stop-color="#7f47dd" stop-opacity="0.25"/><stop offset="1" stop-color="#fbae17" stop-opacity="0"/></linearGradient><linearGradient id="Безымянный_градиент_14-2" x1="1509.86" x2="1509.86" y2="234" xlink:href="#Безымянный_градиент_14"/><linearGradient id="Безымянный_градиент_14-3" x1="946.48" x2="946.48" y2="342" xlink:href="#Безымянный_градиент_14"/><linearGradient id="Безымянный_градиент_21" x1="220.85" y1="378" x2="220.85" y2="153" gradientUnits="userSpaceOnUse"><stop offset="0" stop-color="#feff00" stop-opacity="0.25"/><stop offset="1" stop-color="#fbae17" stop-opacity="0"/></linearGradient><linearGradient id="Безымянный_градиент_14-4" x1="1117.75" x2="1117.75" y2="216" xlink:href="#Безымянный_градиент_14"/><linearGradient id="Безымянный_градиент_17" x1="1320.56" y1="549" x2="1320.56" y2="270" gradientUnits="userSpaceOnUse"><stop offset="0" stop-color="#7f47dd" stop-opacity="0.25"/><stop offset="1" stop-color="#00ae17" stop-opacity="0"/></linearGradient><linearGradient id="Безымянный_градиент_17-2" x1="635.49" x2="635.49" y2="108" xlink:href="#Безымянный_градиент_17"/></defs><g id="Layer_2" data-name="Layer 2"><g id="Background_elements" data-name="Background elements"><g id="_2" data-name="2"><path id="_2-2" data-name="2" class="cls-1" d="M1856.9,279V234h-18V189h-9v27h-9V153h-9v63h-9v63h-27V81h18a27,27,0,0,0-27-27V45a45.07,45.07,0,0,0-90.14,0v9a27,27,0,0,0-27,27h18V279h-54.09V207h-54.08v9h-18V198h-63.1v18h-18v-9H1406.2v99h-36.06V261h-9v-9h9V144h0a18,18,0,0,0-18-18V54h-9v90h-9V108h-9V72h-9v36h-9V18h-9V90a18,18,0,0,0-18,18h-9V252h9v9h-9v54h-9V288h-27v-9h9V261a27,27,0,0,0-54.08,0v18h9v9h-27v27h-9V198h-36.06v9h-18v-9h-36V477H991.55V324H955.49v9h-18v-9H901.41V477h-63.1V459a27,27,0,0,0-27-27V405h-9v27h-9V396h-9v36h0a45,45,0,0,0-45.08,45H685.07V288h18V225h-18v-9h-9v-9h9v-9h18V135h-18V99h-9V63h-9V18h-9V81h-9V99h-9V81h-9V36h-9V81h-9V63h-9V81h-9V99h-9v36h-18v63h18v9h9v9h-9v9h-18v63h18V477H504.79V387H342.54V333a27,27,0,0,0-27.05-27V207h-18v9h-36V189h-9a18,18,0,0,0-18-18V117h-9v54h-9V90h-9v81h-9V144h-9v27a18,18,0,0,0-18,18h-18a18,18,0,0,0-18-18V126h-9v45a18,18,0,0,0-18,18h-27V387H0V549H1920V279ZM685.07,234h9v18h-9Zm0,27h9v18h-9Zm0-117h9v18h-9Zm0,27h9v18h-9Zm-99.15,18h-9V171h9Zm0-27h-9V144h9ZM297.46,306h-36V261h36Zm0-54h-36v-9h36Zm0-18h-36v-9h36Zm288.46,45h-9V261h9Zm0-27h-9V234h9ZM802.25,477V459h9v18ZM1712.68,81h-18V54h18Zm36,0h-18V54h18Z"/><g id="lights_2" data-name="lights 2"><rect class="cls-2" x="1081.69" y="216" width="18.03" height="9"/><rect class="cls-3" x="1081.69" y="234" width="18.03" height="9"/><rect class="cls-4" x="1081.69" y="252" width="18.03" height="9"/><rect class="cls-4" x="1081.69" y="270" width="18.03" height="9"/><rect class="cls-2" x="1081.69" y="288" width="18.03" height="9"/><rect class="cls-2" x="1081.69" y="306" width="18.03" height="9"/><rect class="cls-2" x="1135.77" y="252" width="18.03" height="9"/><rect class="cls-2" x="1135.77" y="270" width="18.03" height="9"/><rect class="cls-3" x="1135.77" y="288" width="18.03" height="9"/><rect class="cls-4" x="1135.77" y="306" width="18.03" height="9"/><rect class="cls-4" x="1135.77" y="324" width="18.03" height="9"/><rect class="cls-4" x="1135.77" y="342" width="18.03" height="9"/><rect class="cls-4" x="1108.73" y="234" width="18.03" height="9"/><rect class="cls-2" x="1108.73" y="252" width="18.03" height="9"/><rect class="cls-4" x="1108.73" y="270" width="18.03" height="9"/><rect class="cls-3" x="1108.73" y="288" width="18.03" height="9"/><rect class="cls-3" x="1108.73" y="306" width="18.03" height="9"/><rect class="cls-4" x="1108.73" y="324" width="18.03" height="9"/><rect class="cls-4" x="910.42" y="342" width="18.03" height="9"/><rect class="cls-4" x="910.42" y="360" width="18.03" height="9"/><rect class="cls-5" x="910.42" y="378" width="18.03" height="9"/><rect class="cls-5" x="910.42" y="396" width="18.03" height="9"/><rect class="cls-5" x="910.42" y="414" width="18.03" height="9"/><rect class="cls-2" x="910.42" y="432" width="18.03" height="9"/><rect class="cls-5" x="964.51" y="342" width="18.03" height="9"/><rect class="cls-5" x="937.46" y="360" width="18.03" height="9"/><rect class="cls-2" x="937.46" y="378" width="18.03" height="9"/><rect class="cls-4" x="937.46" y="396" width="18.03" height="9"/><rect class="cls-5" x="937.46" y="414" width="18.03" height="9"/><rect class="cls-5" x="937.46" y="432" width="18.03" height="9"/><rect class="cls-2" x="937.46" y="450" width="18.03" height="9"/><rect class="cls-4" x="964.51" y="360" width="18.03" height="9"/><rect class="cls-2" x="964.51" y="378" width="18.03" height="9"/><rect class="cls-4" x="964.51" y="396" width="18.03" height="9"/><rect class="cls-2" x="964.51" y="414" width="18.03" height="9"/><rect class="cls-5" x="964.51" y="432" width="18.03" height="9"/><path class="cls-6" d="M1320.51,162h.1a31.5,31.5,0,0,1,31.5,31.5V207a0,0,0,0,1,0,0H1289a0,0,0,0,1,0,0V193.5a31.5,31.5,0,0,1,31.5-31.5Z"/><path class="cls-7" d="M1298,216h45.07a0,0,0,0,1,0,0v4.5a22.5,22.5,0,0,1-22.5,22.5h-.07a22.5,22.5,0,0,1-22.5-22.5V216A0,0,0,0,1,1298,216Z"/><rect class="cls-8" x="603.94" y="225" width="27.04" height="9"/><rect class="cls-8" x="640" y="225" width="27.04" height="9"/><rect class="cls-8" x="621.97" y="252" width="45.07" height="9"/><rect class="cls-8" x="603.94" y="252" width="9.01" height="9"/><rect class="cls-8" x="603.94" y="279" width="45.07" height="9"/><rect class="cls-8" x="658.03" y="279" width="9.01" height="9"/><rect class="cls-8" x="603.94" y="306" width="27.04" height="9"/><rect class="cls-8" x="640" y="306" width="27.04" height="9"/><rect class="cls-8" x="621.97" y="333" width="45.07" height="9"/><rect class="cls-8" x="603.94" y="333" width="9.01" height="9"/><rect class="cls-8" x="603.94" y="108" width="27.04" height="9"/><rect class="cls-8" x="603.94" y="135" width="45.07" height="9"/><rect class="cls-8" x="1424.23" y="234" width="45.07" height="9"/><rect class="cls-5" x="1424.23" y="252" width="45.07" height="9"/><rect class="cls-8" x="1424.23" y="270" width="45.07" height="9"/><rect class="cls-2" x="1424.23" y="288" width="45.07" height="9"/><rect class="cls-2" x="1424.23" y="306" width="45.07" height="9"/><rect class="cls-8" x="1424.23" y="324" width="45.07" height="9"/><rect class="cls-8" x="1280" y="270" width="45.07" height="9"/><rect class="cls-8" x="1316.06" y="288" width="45.07" height="9"/><rect class="cls-8" x="1280" y="306" width="45.07" height="9"/><rect class="cls-8" x="1334.08" y="306" width="27.04" height="9"/><rect class="cls-8" x="1280" y="288" width="27.04" height="9"/><rect class="cls-8" x="1334.08" y="270" width="27.04" height="9"/><rect class="cls-6" x="1487.32" y="270" width="45.07" height="9"/><rect class="cls-5" x="1487.32" y="288" width="45.07" height="9"/><rect class="cls-5" x="1487.32" y="306" width="45.07" height="9"/><rect class="cls-2" x="1487.32" y="324" width="45.07" height="9"/><rect class="cls-8" x="1487.32" y="342" width="45.07" height="9"/><rect class="cls-5" x="1550.42" y="270" width="45.07" height="9"/><rect class="cls-2" x="1550.42" y="288" width="45.07" height="9"/><rect class="cls-8" x="1550.42" y="306" width="45.07" height="9"/><rect class="cls-8" x="1550.42" y="324" width="45.07" height="9"/><rect class="cls-6" x="1487.32" y="252" width="45.07" height="9"/><rect class="cls-2" x="1550.42" y="252" width="45.07" height="9"/><rect class="cls-2" x="1487.32" y="234" width="45.07" height="9"/><rect class="cls-8" x="1739.72" y="99" width="18.03" height="18" rx="9"/><rect class="cls-8" x="1712.68" y="99" width="18.03" height="18" rx="9"/><rect class="cls-8" x="1685.63" y="99" width="18.03" height="18" rx="9"/><rect class="cls-5" x="1739.72" y="126" width="18.03" height="18" rx="9"/><rect class="cls-2" x="1712.68" y="126" width="18.03" height="18" rx="9"/><rect class="cls-8" x="1685.63" y="126" width="18.03" height="18" rx="9"/><rect class="cls-5" x="1739.72" y="153" width="18.03" height="18" rx="9"/><rect class="cls-6" x="1712.68" y="153" width="18.03" height="18" rx="9"/><rect class="cls-2" x="1739.72" y="180" width="18.03" height="18" rx="9"/><rect class="cls-6" x="1739.72" y="207" width="18.03" height="18" rx="9"/><rect class="cls-8" x="1712.68" y="180" width="18.03" height="18" rx="9"/><rect class="cls-5" x="1685.63" y="153" width="18.03" height="18" rx="9"/><rect class="cls-6" x="1550.42" y="234" width="45.07" height="9"/><rect class="cls-8" x="658.03" y="135" width="9.01" height="9"/><rect class="cls-8" x="603.94" y="162" width="27.04" height="9"/><rect class="cls-8" x="640" y="162" width="27.04" height="9"/><rect class="cls-8" x="621.97" y="189" width="45.07" height="9"/><rect class="cls-8" x="603.94" y="189" width="9.01" height="9"/><rect class="cls-8" x="603.94" y="360" width="45.07" height="9"/><rect class="cls-8" x="603.94" y="405" width="9.01" height="63"/><rect class="cls-8" x="630.99" y="387" width="9.01" height="81"/><rect class="cls-8" x="658.03" y="396" width="9.01" height="72"/><rect class="cls-8" x="658.03" y="360" width="9.01" height="9"/><rect class="cls-9" x="1685.63" y="99" width="72.11" height="450"/><rect class="cls-10" x="1424.23" y="234" width="171.27" height="315"/><rect class="cls-11" x="910.42" y="342" width="72.11" height="207"/><rect class="cls-12" x="72.11" y="153" width="297.46" height="225"/><rect class="cls-13" x="1081.69" y="216" width="72.11" height="333"/><rect class="cls-14" x="1280" y="270" width="81.13" height="279"/><rect class="cls-15" x="594.93" y="108" width="81.13" height="441"/><rect class="cls-16" x="658.03" y="9" width="9.01" height="9"/><rect class="cls-16" x="1316.06" y="63" width="9.01" height="9"/><rect class="cls-17" x="603.94" y="54" width="9.01" height="9"/><rect class="cls-17" x="1829.86" y="180" width="9.01" height="9"/><rect class="cls-17" x="1298.03" y="9" width="9.01" height="9"/><rect class="cls-18" x="126.2" y="117" width="9.01" height="9"/><rect class="cls-18" x="802.25" y="396" width="9.01" height="9"/><rect class="cls-19" x="1811.83" y="144" width="9.01" height="9"/><rect class="cls-17" x="207.32" y="81" width="9.01" height="9"/><ellipse class="cls-17" cx="157.75" cy="283.5" rx="55.09" ry="55"/><path class="cls-16" d="M157.75,232a51.5,51.5,0,1,1-51.6,51.5,51.61,51.61,0,0,1,51.6-51.5m0-7a58.5,58.5,0,1,0,58.59,58.5A58.55,58.55,0,0,0,157.75,225Z"/><polygon class="cls-17" points="167.26 288.66 167.26 271.34 182.28 262.68 197.31 271.34 197.31 288.66 182.28 297.32 167.26 288.66"/><path class="cls-16" d="M182.28,265l13,7.51v15l-13,7.51-13-7.51v-15l13-7.51m0-4.62-17,9.82v19.62l17,9.82,17-9.82V270.19l-17-9.82Z"/></g></g></g></g></svg>