<svg xmlns="http://www.w3.org/2000/svg" xmlns:xlink="http://www.w3.org/1999/xlink" viewBox="0 0 1791 945"><defs><style>.cls-1{fill:#150025;}.cls-2{fill:url(#Безымянный_градиент_103);}.cls-3{fill:url(#Безымянный_градиент_103-2);}.cls-4{fill:url(#Безымянный_градиент_103-3);}.cls-5{fill:#f3c7d9;}.cls-6{fill:#c5639e;}.cls-7{fill:url(#Безымянный_градиент_17);}.cls-8{fill:url(#Безымянный_градиент_14);}.cls-9{fill:url(#Безымянный_градиент_14-2);}</style><linearGradient id="Безымянный_градиент_103" x1="1657.05" y1="234" x2="1762.95" y2="234" gradientUnits="userSpaceOnUse"><stop offset="0" stop-color="#d86fff"/><stop offset="1" stop-color="#7ffdff"/></linearGradient><linearGradient id="Безымянный_градиент_103-2" x1="1657.05" y1="264.32" x2="1762.95" y2="264.32" xlink:href="#Безымянный_градиент_103"/><linearGradient id="Безымянный_градиент_103-3" x1="1657.05" y1="203.68" x2="1762.95" y2="203.68" xlink:href="#Безымянный_градиент_103"/><linearGradient id="Безымянный_градиент_17" x1="270" y1="432" x2="405" y2="432" gradientUnits="userSpaceOnUse"><stop offset="0" stop-color="#7f47dd" stop-opacity="0.25"/><stop offset="1" stop-color="#00ae17" stop-opacity="0"/></linearGradient><linearGradient id="Безымянный_градиент_14" x1="21" y1="103.25" x2="162" y2="103.25" gradientUnits="userSpaceOnUse"><stop offset="0" stop-color="#7f47dd" stop-opacity="0.25"/><stop offset="1" stop-color="#fbae17" stop-opacity="0"/></linearGradient><linearGradient id="Безымянный_градиент_14-2" x1="1106.5" y1="101.32" x2="1260.5" y2="101.32" xlink:href="#Безымянный_градиент_14"/></defs><g id="Layer_2" data-name="Layer 2"><g id="Background_elements" data-name="Background elements"><g id="_4" data-name="4"><polygon class="cls-1" points="999 356 999 275 981 275 972 275 972 194 963 194 963 275 945 275 945 293 936 293 936 275 918 275 918 239 909 239 909 275 900 275 900 293 891 293 891 275 882 275 882 257 873 257 873 176 864 176 864 257 855 257 855 203 846 203 846 257 837 257 837 275 828 275 828 293 828 945 981 945 981 581 999 581 999 401 981 401 981 356 999 356"/><path class="cls-1" d="M432,189V162H414V135H396V108H378V81H360V54H342V9h4.5A4.49,4.49,0,0,0,351,4.5h0A4.49,4.49,0,0,0,346.5,0h-18A4.49,4.49,0,0,0,324,4.5h0A4.49,4.49,0,0,0,328.5,9H333V54H315V81H297v27H279v27H261v27H243v27h9v27h-9v36h9v36h-9v36h9v36h-9V945H432V360h-9V324h9V288h-9V252h9V216h-9V189Z"/><path class="cls-1" d="M1521,216V153a54,54,0,0,0-54-54v27h-9V90h9V81h-9V63h-9V81h-9V36h-9V90h9v36h-9V99a54,54,0,0,0-54,54v63h-27v99h27v81h-27v99h27V603h-9V945h162V603h-9V495h27V396h-27V315h27V216Zm-63-72h9v76.76a44.38,44.38,0,0,0-8.94-2.85s-.06,0-.06-.07Zm-27,0h9v73.84s0,.07-.06.07a44.38,44.38,0,0,0-8.94,2.85Zm-63,90h9v9h31.21a44.45,44.45,0,0,0-3.08,9H1368Zm0,63V270h36.72a44.59,44.59,0,0,0,2.61,9H1377v18Zm0,117h9v9h30.76a44.38,44.38,0,0,0-2.85,8.94s0,.06-.07.06H1368Zm0,63V450h36.84s.07,0,.07.06a44.38,44.38,0,0,0,2.85,8.94H1377v18Zm162,0h-9V459h-30.76a44.38,44.38,0,0,0,2.85-8.94s0-.06.07-.06H1530Zm0-63v18h-36.84s-.07,0-.07-.06a44.38,44.38,0,0,0-2.85-8.94H1521v-9Zm0-117h-9V279h-30.33a44.59,44.59,0,0,0,2.61-9H1530Zm0-45h-37.13a44.45,44.45,0,0,0-3.08-9H1521v-9h9Z"/><g id="Solana"><path class="cls-1" d="M1791,236.86c0-46.32-36.26-83.86-81-83.86s-81,37.54-81,83.86c0,32.92,18.33,61.4,45,75.12v8.74h18V330h9V945h18V330h9v-9.32h18V312C1772.67,298.26,1791,269.78,1791,236.86Z"/><path class="cls-2" d="M1758.46,245.37h-87.74a4.51,4.51,0,0,1-3.74-2l-9.17-13.76a4.49,4.49,0,0,1,3.73-7h87.74a4.51,4.51,0,0,1,3.74,2l9.17,13.76A4.49,4.49,0,0,1,1758.46,245.37Z"/><path class="cls-3" d="M1661.54,275.68h87.74a4.52,4.52,0,0,0,3.74-2l9.17-13.77a4.48,4.48,0,0,0-3.73-7h-87.74a4.51,4.51,0,0,0-3.74,2l-9.17,13.76A4.48,4.48,0,0,0,1661.54,275.68Z"/><path class="cls-4" d="M1661.54,215.05h87.74a4.51,4.51,0,0,0,3.74-2l9.17-13.76a4.48,4.48,0,0,0-3.73-7h-87.74a4.52,4.52,0,0,0-3.74,2l-9.17,13.77A4.48,4.48,0,0,0,1661.54,215.05Z"/></g><g id="lights_4" data-name="lights 4"><rect class="cls-5" x="279" y="189" width="9" height="27"/><rect class="cls-5" x="306" y="189" width="9" height="27"/><rect class="cls-5" x="333" y="189" width="9" height="27"/><rect class="cls-5" x="360" y="189" width="9" height="27"/><rect class="cls-6" x="387" y="189" width="9" height="27"/><rect class="cls-5" x="279" y="252" width="9" height="27"/><rect class="cls-5" x="306" y="252" width="9" height="27"/><rect class="cls-6" x="333" y="252" width="9" height="27"/><rect class="cls-6" x="360" y="252" width="9" height="27"/><rect class="cls-5" x="387" y="252" width="9" height="27"/><rect class="cls-6" x="279" y="324" width="9" height="27"/><rect class="cls-5" x="306" y="324" width="9" height="27"/><rect class="cls-5" x="333" y="324" width="9" height="27"/><rect class="cls-5" x="360" y="324" width="9" height="27"/><rect class="cls-5" x="387" y="324" width="9" height="27"/><rect class="cls-6" x="846" y="320" width="9" height="27"/><rect class="cls-5" x="873" y="320" width="9" height="27"/><rect class="cls-5" x="900" y="320" width="9" height="27"/><rect class="cls-5" x="1422" y="243" width="10.8" height="36" rx="5.4"/><rect class="cls-6" x="1443.6" y="243" width="10.8" height="36" rx="5.4"/><rect class="cls-5" x="1465.2" y="243" width="10.8" height="36" rx="5.4"/><rect class="cls-5" x="1422" y="423" width="10.8" height="36" rx="5.4"/><rect class="cls-5" x="1443.6" y="423" width="10.8" height="36" rx="5.4"/><rect class="cls-6" x="1465.2" y="423" width="10.8" height="36" rx="5.4"/><rect class="cls-6" x="927" y="320" width="9" height="27"/><rect class="cls-5" x="873" y="410" width="9" height="27"/><rect class="cls-6" x="927" y="455" width="9" height="27"/><rect class="cls-6" x="954" y="455" width="9" height="27"/><rect class="cls-6" x="954" y="410" width="9" height="27"/><rect class="cls-5" x="927" y="410" width="9" height="27"/><rect class="cls-5" x="954" y="320" width="9" height="27"/><rect class="cls-6" x="900" y="365" width="9" height="27"/><rect class="cls-5" x="954" y="365" width="9" height="27"/><rect class="cls-5" x="846" y="455" width="9" height="27"/><rect class="cls-5" x="873" y="455" width="9" height="27"/><rect class="cls-5" x="900" y="500" width="9" height="27"/><rect class="cls-5" x="900" y="545" width="9" height="27"/><rect class="cls-6" x="927" y="545" width="9" height="27"/><rect class="cls-5" x="954" y="500" width="9" height="27"/><rect class="cls-7" x="270" y="378" width="135" height="108" rx="16"/><rect class="cls-5" x="1395" y="297" width="108" height="108" rx="54"/><rect class="cls-6" x="1413" y="315" width="72" height="72" rx="36"/></g><g id="L"><rect class="cls-5" x="63" y="144" width="27" height="18"/><path class="cls-1" d="M180,99h-9.35C166.93,73.77,132.25,54,90,54,52.93,54,21.69,69.23,12.07,90h0A12.08,12.08,0,0,0,0,102.07v2.86A12.08,12.08,0,0,0,12.07,117h0c6.27,13.53,21.69,24.69,41.93,30.84V162h0a9,9,0,0,0,9,9h63a9,9,0,0,0,9-9h0V144.66c19.79-8.1,33.4-21.38,35.65-36.66H180a9,9,0,0,0,9,9h0V90h0A9,9,0,0,0,180,99ZM63,162V150.29l9,1.53V162Zm27,0H81v-9.23l9,.3Z"/><ellipse class="cls-8" cx="91.5" cy="103.25" rx="70.5" ry="40.25"/></g><g id="R"><rect class="cls-5" x="1179" y="153" width="36" height="18"/><path class="cls-1" d="M1081.14,98.71h10.54C1095.87,70.28,1135,48,1182.57,48c41.78,0,77,17.16,87.82,40.57h0A13.61,13.61,0,0,1,1284,102.18v3.21A13.61,13.61,0,0,1,1270.39,119h0c-7.06,15.24-24.44,27.83-47.25,34.76v16h0A10.14,10.14,0,0,1,1213,179.86h-71a10.14,10.14,0,0,1-10.14-10.15h0V150.17c-22.3-9.12-37.64-24.09-40.18-41.31h-10.54A10.14,10.14,0,0,1,1071,119h0V88.57h0A10.14,10.14,0,0,1,1081.14,98.71Zm131.86,71V156.52l-10.13,1.71a0,0,0,0,0,0,0v11.45Zm-30.43,0h10.14v-10.4h0l-10.14.34Z"/><ellipse class="cls-9" cx="1183.5" cy="101.32" rx="77" ry="42.18"/></g></g></g></g></svg>