<svg xmlns="http://www.w3.org/2000/svg" xmlns:xlink="http://www.w3.org/1999/xlink" viewBox="0 0 1494 1080"><defs><style>.cls-1{fill:url(#Безымянный_градиент_50);}.cls-2{fill:#1e1528;}.cls-3{fill:#1b4332;}.cls-4{fill:#2d6a4f;}.cls-5{fill:#372549;}.cls-6{fill:#07060a;}.cls-7{fill:#1a1423;}.cls-8{fill:#302030;}.cls-9{fill:#352034;}.cls-10{fill:#120d19;}.cls-11{fill:#00509d;}.cls-12{fill:#efdce5;}.cls-13{fill:#361b42;}.cls-14{fill:#9a37a0;}.cls-15{opacity:0.25;}.cls-16{fill:url(#Новый_образец_градиентной_зал_2);}.cls-17{fill:#03071e;}.cls-18{fill:#594763;}.cls-19{fill:#70587c;}.cls-20{fill:#483a51;}.cls-21{fill:#774c60;}.cls-22{fill:#4f3341;}</style><linearGradient id="Безымянный_градиент_50" x1="747" y1="864" x2="747" y2="81" gradientUnits="userSpaceOnUse"><stop offset="0"/><stop offset="0.05" stop-color="#0b080f"/><stop offset="0.12" stop-color="#140f1a"/><stop offset="0.22" stop-color="#191321"/><stop offset="0.5" stop-color="#1a1423"/><stop offset="0.78" stop-color="#191321"/><stop offset="0.88" stop-color="#140f1a"/><stop offset="0.95" stop-color="#0b080f"/><stop offset="1"/></linearGradient><linearGradient id="Новый_образец_градиентной_зал_2" x1="747" y1="1" x2="747" y2="1080" gradientUnits="userSpaceOnUse"><stop offset="0"/><stop offset="0.05" stop-color="#15111f"/><stop offset="0.11" stop-color="#2e2544"/><stop offset="0.18" stop-color="#423663"/><stop offset="0.25" stop-color="#52437b"/><stop offset="0.32" stop-color="#5d4c8c"/><stop offset="0.4" stop-color="#645196"/><stop offset="0.5" stop-color="#665399"/><stop offset="0.6" stop-color="#645196"/><stop offset="0.68" stop-color="#5d4c8c"/><stop offset="0.75" stop-color="#52437b"/><stop offset="0.82" stop-color="#423663"/><stop offset="0.89" stop-color="#2e2544"/><stop offset="0.95" stop-color="#15111f"/><stop offset="1"/></linearGradient></defs><g id="Layer_2" data-name="Layer 2"><g id="Final_Inside" data-name="Final Inside"><g id="_2_-_Collection-_Inside" data-name="2 - Collection- Inside"><g id="Collection_room" data-name="Collection room"><path id="Wall" class="cls-1" d="M54,81V864H1440V81ZM476.71,702H171V153H476.71Z"/><g id="Window"><rect class="cls-2" x="171" y="153" width="306" height="18"/><rect class="cls-2" x="189" y="639" width="270" height="18"/><rect class="cls-3" x="189" y="225" width="270" height="36"/><rect class="cls-4" x="189" y="261" width="270" height="36"/><rect class="cls-3" x="189" y="297" width="270" height="36"/><path class="cls-5" d="M459,171H171V702H477V171Zm0,486H189V369H459Zm0-324H189V225H459Z"/><rect class="cls-2" x="189" y="324" width="270" height="9"/></g><g id="Floor"><rect class="cls-6" x="54" y="864" width="1386" height="27"/><g id="floor-2" data-name="floor"><rect class="cls-7" x="108" y="945" width="108" height="27"/><rect class="cls-2" x="216" y="945" width="108" height="27"/><rect class="cls-2" x="54" y="945" width="54" height="27"/><rect class="cls-7" x="324" y="945" width="108" height="27"/><rect class="cls-2" x="432" y="945" width="108" height="27"/><rect class="cls-7" x="540" y="945" width="108" height="27"/><rect class="cls-2" x="648" y="945" width="108" height="27"/><rect class="cls-7" x="756" y="945" width="108" height="27"/><rect class="cls-2" x="864" y="945" width="108" height="27"/><rect class="cls-7" x="972" y="945" width="108" height="27"/><rect class="cls-2" x="1080" y="945" width="108" height="27"/><rect class="cls-7" x="1188" y="945" width="108" height="27"/><rect class="cls-2" x="1296" y="945" width="108" height="27"/><rect class="cls-7" x="1404" y="945" width="36" height="27"/><rect class="cls-8" x="1251" y="918" width="108" height="27"/><rect class="cls-8" x="171" y="918" width="108" height="27"/><rect class="cls-8" x="54" y="918" width="9" height="27"/><rect class="cls-9" x="279" y="918" width="108" height="27"/><rect class="cls-9" x="63" y="918" width="108" height="27"/><rect class="cls-8" x="387" y="918" width="108" height="27"/><rect class="cls-9" x="495" y="918" width="108" height="27"/><rect class="cls-8" x="603" y="918" width="108" height="27"/><rect class="cls-9" x="711" y="918" width="108" height="27"/><rect class="cls-8" x="819" y="918" width="108" height="27"/><rect class="cls-9" x="927" y="918" width="108" height="27"/><rect class="cls-8" x="1035" y="918" width="108" height="27"/><rect class="cls-9" x="1143" y="918" width="108" height="27"/><rect class="cls-9" x="1359" y="918" width="81" height="27"/><rect class="cls-8" x="1251" y="999" width="108" height="27"/><rect class="cls-8" x="171" y="999" width="108" height="27"/><rect class="cls-8" x="54" y="999" width="9" height="27"/><rect class="cls-9" x="279" y="999" width="108" height="27"/><rect class="cls-9" x="63" y="999" width="108" height="27"/><rect class="cls-8" x="387" y="999" width="108" height="27"/><rect class="cls-9" x="495" y="999" width="108" height="27"/><rect class="cls-8" x="603" y="999" width="108" height="27"/><rect class="cls-9" x="711" y="999" width="108" height="27"/><rect class="cls-8" x="819" y="999" width="108" height="27"/><rect class="cls-9" x="927" y="999" width="108" height="27"/><rect class="cls-8" x="1035" y="999" width="108" height="27"/><rect class="cls-9" x="1143" y="999" width="108" height="27"/><rect class="cls-9" x="1359" y="999" width="81" height="27"/><rect class="cls-2" x="126" y="891" width="108" height="27"/><rect class="cls-7" x="234" y="891" width="108" height="27"/><rect class="cls-7" x="54" y="891" width="72" height="27"/><rect class="cls-2" x="342" y="891" width="108" height="27"/><rect class="cls-7" x="450" y="891" width="108" height="27"/><rect class="cls-2" x="558" y="891" width="108" height="27"/><rect class="cls-7" x="666" y="891" width="108" height="27"/><rect class="cls-2" x="774" y="891" width="108" height="27"/><rect class="cls-7" x="882" y="891" width="108" height="27"/><rect class="cls-2" x="990" y="891" width="108" height="27"/><rect class="cls-2" x="1206" y="891" width="108" height="27"/><rect class="cls-2" x="1422" y="891" width="18" height="27"/><rect class="cls-7" x="1314" y="891" width="108" height="27"/><rect class="cls-7" x="1098" y="891" width="108" height="27"/><rect class="cls-2" x="126" y="972" width="108" height="27"/><rect class="cls-7" x="234" y="972" width="108" height="27"/><rect class="cls-7" x="54" y="972" width="72" height="27"/><rect class="cls-2" x="342" y="972" width="108" height="27"/><rect class="cls-7" x="450" y="972" width="108" height="27"/><rect class="cls-2" x="558" y="972" width="108" height="27"/><rect class="cls-7" x="666" y="972" width="108" height="27"/><rect class="cls-2" x="774" y="972" width="108" height="27"/><rect class="cls-7" x="882" y="972" width="108" height="27"/><rect class="cls-2" x="990" y="972" width="108" height="27"/><rect class="cls-2" x="1206" y="972" width="108" height="27"/><rect class="cls-2" x="1422" y="972" width="18" height="27"/><rect class="cls-7" x="1314" y="972" width="108" height="27"/><rect class="cls-7" x="1098" y="972" width="108" height="27"/></g></g><g id="shelf"><rect class="cls-10" x="652.5" y="202.5" width="576" height="801" transform="translate(337.5 1543.5) rotate(-90)"/><path class="cls-2" d="M522,297V963h837V297Zm819,648H540V801h801Zm0-162H540V639h801Zm0-162H540V477h801Zm0-162H540V315h801Z"/><rect class="cls-5" x="913.5" y="517.5" width="54" height="801" transform="translate(22.5 1858.5) rotate(-90)"/><rect class="cls-5" x="913.5" y="355.5" width="54" height="801" transform="translate(184.5 1696.5) rotate(-90)"/><rect class="cls-5" x="913.5" y="193.5" width="54" height="801" transform="translate(346.5 1534.5) rotate(-90)"/><rect class="cls-5" x="913.5" y="31.5" width="54" height="801" transform="translate(508.5 1372.5) rotate(-90)"/><rect class="cls-5" x="913.5" y="-148.5" width="54" height="837" transform="translate(670.5 1210.5) rotate(-90)"/></g><g id="Wire"><rect class="cls-3" x="990" y="297" width="9" height="162"/><rect class="cls-3" x="864" y="459" width="9" height="162"/><rect class="cls-3" x="864" y="783" width="9" height="162"/><rect class="cls-3" x="990" y="945" width="9" height="18"/><rect class="cls-3" x="990" y="621" width="9" height="162"/><rect class="cls-4" x="864" y="450" width="126" height="9"/><polygon class="cls-4" points="999 288 999 297 729 297 729 243 738 243 738 288 999 288"/><rect class="cls-4" x="873" y="612" width="126" height="9"/><rect class="cls-4" x="864" y="774" width="126" height="9"/><rect class="cls-4" x="873" y="936" width="126" height="9"/><polygon class="cls-4" points="1440 972 1440 981 990 981 990 963 999 963 999 972 1440 972"/></g><g id="table"><polygon class="cls-2" points="504 828 504 963 468 963 468 846 297 846 297 963 261 963 261 828 504 828"/><rect class="cls-5" x="261" y="765" width="243" height="63"/><rect class="cls-10" x="306" y="846" width="36" height="90"/><rect class="cls-10" x="423" y="846" width="36" height="90"/></g><g id="pencil"><rect class="cls-11" x="289.65" y="785.41" width="9" height="27" transform="translate(-360.05 254.11) rotate(-30)"/><rect class="cls-12" x="280.65" y="778.82" width="9" height="9" transform="translate(-353.46 247.52) rotate(-30)"/><path class="cls-6" d="M298.65,810h9a0,0,0,0,1,0,0v4.5a4.5,4.5,0,0,1-4.5,4.5h0a4.5,4.5,0,0,1-4.5-4.5V810A0,0,0,0,1,298.65,810Z" transform="translate(-366.64 260.7) rotate(-30)"/></g><g id="paper"><rect class="cls-12" x="396" y="774" width="99" height="45"/><rect class="cls-6" x="405" y="783" width="27" height="9"/><rect class="cls-6" x="459" y="801" width="27" height="9"/><rect class="cls-6" x="459" y="783" width="18" height="9"/><rect class="cls-6" x="432" y="801" width="18" height="9"/><rect class="cls-6" x="405" y="801" width="18" height="9"/><rect class="cls-6" x="441" y="783" width="9" height="9"/></g><g id="BNC"><rect class="cls-13" x="333" y="738" width="9" height="63"/><rect class="cls-13" x="324" y="612" width="9" height="99"/><rect class="cls-13" x="351" y="738" width="9" height="63"/><rect class="cls-13" x="387" y="738" width="9" height="63"/><rect class="cls-14" x="324" y="711" width="99" height="27"/><rect class="cls-13" x="423" y="711" width="9" height="36"/><rect class="cls-6" x="423" y="747" width="9" height="9"/><rect class="cls-6" x="405" y="801" width="9" height="9"/><rect class="cls-6" x="387" y="801" width="9" height="9"/><rect class="cls-6" x="351" y="801" width="9" height="9"/><rect class="cls-6" x="333" y="801" width="9" height="9"/><rect class="cls-14" x="288" y="585" width="54" height="27"/><rect class="cls-13" x="333" y="567" width="9" height="18"/><rect class="cls-13" x="315" y="567" width="9" height="18"/><rect class="cls-13" x="405" y="738" width="9" height="63"/></g><g id="chair"><polygon class="cls-2" points="117 765 117 954 135 954 135 864 225 864 225 954 243 954 243 846 135 846 135 765 117 765"/><rect class="cls-10" x="144" y="864" width="18" height="63" transform="translate(306 1791) rotate(180)"/><rect class="cls-10" x="198" y="864" width="18" height="63"/><rect class="cls-5" x="135" y="801" width="108" height="45" transform="translate(378 1647) rotate(180)"/><rect class="cls-5" x="117" y="720" width="18" height="45" transform="translate(252 1485) rotate(180)"/></g></g><g id="Maket"><g id="Transparent" class="cls-15"><path class="cls-16" d="M54,1V1080H1440V1ZM1395,981H99V126H1395Z"/><g id="_3" data-name="3"><polygon class="cls-17" points="567 54 594 99 576 126 612 99 585 54 567 54"/><polygon class="cls-17" points="306 1053 333 972 333 1017 378 1053 306 1053"/></g><path class="cls-7" d="M1386,126H99V981H1395V126Zm0,846H108V135H1386Z"/></g><g id="Not_transparent" data-name="Not transparent"><rect class="cls-18" x="1440" width="18" height="1079"/><rect class="cls-18" x="36" width="18" height="1079"/><rect class="cls-2" x="18" y="1026" width="1458" height="9"/><rect class="cls-7" width="1494" height="81"/><rect class="cls-5" x="18" y="1035" width="1458" height="45"/><rect class="cls-6" y="1071" width="1494" height="9"/></g><g id="Bricks_transparent" data-name="Bricks transparent" class="cls-15"><rect class="cls-19" x="666" y="981" width="171" height="36"/><rect class="cls-5" x="558" y="981" width="99" height="36"/><g id="Side"><rect class="cls-19" x="18" y="855" width="72" height="72"/><rect class="cls-20" x="18" y="846" width="72" height="9"/><rect class="cls-5" x="27" y="405" width="54" height="72"/><rect class="cls-2" x="27" y="396" width="54" height="9"/><rect class="cls-21" x="18" y="135" width="54" height="72"/><rect class="cls-22" x="18" y="126" width="54" height="9"/><rect class="cls-19" x="1404" y="522" width="72" height="72" transform="translate(2880 1116) rotate(180)"/><rect class="cls-20" x="1404" y="513" width="72" height="9"/><rect class="cls-19" x="1404" y="702" width="72" height="72" transform="translate(2880 1476) rotate(180)"/><rect class="cls-20" x="1404" y="693" width="72" height="9"/><rect class="cls-22" x="1377" y="90" width="99" height="9"/><polygon class="cls-21" points="1377 99 1377 126 1395 126 1395 171 1476 171 1476 99 1377 99"/><rect class="cls-2" x="1395" y="180" width="72" height="9"/><rect class="cls-5" x="1395" y="189" width="72" height="72"/><rect class="cls-5" x="1395" y="612" width="72" height="72"/><rect class="cls-2" x="1395" y="603" width="72" height="9"/><rect class="cls-21" x="1395" y="855" width="81" height="72"/><rect class="cls-22" x="1395" y="846" width="81" height="9"/><polygon class="cls-5" points="1395 945 1395 981 1314 981 1314 1017 1467 1017 1467 945 1395 945"/><rect class="cls-2" x="1395" y="936" width="72" height="9"/><polygon class="cls-5" points="99 981 99 945 27 945 27 1017 144 1017 144 981 99 981"/><rect class="cls-2" x="27" y="936" width="72" height="9"/><rect class="cls-19" x="18" y="315" width="81" height="72"/><rect class="cls-20" x="18" y="306" width="81" height="9"/><rect class="cls-5" x="27" y="225" width="72" height="72"/><rect class="cls-2" x="27" y="216" width="72" height="9"/></g></g></g></g></g></g></svg>