<svg xmlns="http://www.w3.org/2000/svg" xmlns:xlink="http://www.w3.org/1999/xlink" viewBox="0 0 1494 1080"><defs><style>.cls-1{fill:url(#Новый_образец_градиентной_зал_2);}.cls-2{fill:#594763;}.cls-3{fill:#07060a;}.cls-4{fill:#1a1423;}.cls-5{fill:#372549;}.cls-6{fill:#1e1528;}.cls-7{fill:#70587c;}.cls-8{fill:#774c60;}.cls-9{fill:#483a51;}.cls-10{fill:#4f3341;}.cls-11{fill:#1b4332;}.cls-12{fill:#2d6a4f;}</style><linearGradient id="Новый_образец_градиентной_зал_2" x1="747" y1="1" x2="747" y2="1080" gradientUnits="userSpaceOnUse"><stop offset="0"/><stop offset="0.05" stop-color="#15111f"/><stop offset="0.11" stop-color="#2e2544"/><stop offset="0.18" stop-color="#423663"/><stop offset="0.25" stop-color="#52437b"/><stop offset="0.32" stop-color="#5d4c8c"/><stop offset="0.4" stop-color="#645196"/><stop offset="0.5" stop-color="#665399"/><stop offset="0.6" stop-color="#645196"/><stop offset="0.68" stop-color="#5d4c8c"/><stop offset="0.75" stop-color="#52437b"/><stop offset="0.82" stop-color="#423663"/><stop offset="0.89" stop-color="#2e2544"/><stop offset="0.95" stop-color="#15111f"/><stop offset="1"/></linearGradient></defs><g id="Layer_2" data-name="Layer 2"><g id="Final_outside" data-name="Final outside"><g id="_2_-_Collection_-_Outside" data-name="2 - Collection - Outside"><g id="level"><g id="wall"><path class="cls-1" d="M54,1V1080H1440V1ZM476.71,900H171V351H476.71Zm423,0H594V351H899.71Zm423,0H1017V351h305.71Z"/><rect class="cls-2" x="1440" y="1" width="18" height="1079"/><rect class="cls-2" x="36" y="1" width="18" height="1079"/><g id="_3" data-name="3"><polygon class="cls-3" points="567 54 594 99 576 126 612 99 585 54 567 54"/><polygon class="cls-3" points="954 270 909 333 963 369 936 459 981 360 927 333 954 270"/><polygon class="cls-3" points="306 1053 333 972 333 1017 378 1053 306 1053"/></g><rect class="cls-4" width="1494" height="81"/><rect class="cls-5" x="18" y="1035" width="1458" height="45"/><rect class="cls-6" x="18" y="1026" width="1458" height="9"/><rect class="cls-3" y="1071" width="1494" height="9"/></g><g id="Bricks"><rect class="cls-5" x="27" y="225" width="162" height="72"/><rect class="cls-5" x="405" y="162" width="162" height="72" transform="translate(972 396) rotate(180)"/><rect class="cls-5" x="711" y="162" width="162" height="72" transform="translate(1584 396) rotate(180)"/><rect class="cls-5" x="1314" y="189" width="153" height="72"/><rect class="cls-5" x="1314" y="945" width="153" height="72"/><rect class="cls-7" x="18" y="315" width="99" height="72"/><rect class="cls-8" x="18" y="135" width="54" height="72"/><rect class="cls-7" x="1404" y="702" width="72" height="72" transform="translate(2880 1476) rotate(180)"/><rect class="cls-7" x="1404" y="522" width="72" height="72" transform="translate(2880 1116) rotate(180)"/><rect class="cls-5" x="27" y="405" width="54" height="72"/><rect class="cls-5" x="27" y="945" width="117" height="72"/><rect class="cls-7" x="666" y="945" width="171" height="72" transform="translate(1503 1962) rotate(180)"/><rect class="cls-9" x="666" y="936" width="171" height="9" transform="translate(1503 1881) rotate(180)"/><rect class="cls-6" x="558" y="936" width="99" height="9" transform="translate(1215 1881) rotate(180)"/><rect class="cls-7" x="18" y="855" width="72" height="72"/><rect class="cls-8" x="513" y="252" width="126" height="72" transform="translate(1152 576) rotate(180)"/><rect class="cls-10" x="513" y="243" width="126" height="9" transform="translate(1152 495) rotate(180)"/><rect class="cls-6" x="405" y="153" width="162" height="9" transform="translate(972 315) rotate(180)"/><rect class="cls-6" x="711" y="153" width="162" height="9" transform="translate(1584 315) rotate(180)"/><rect class="cls-9" x="576" y="153" width="126" height="9" transform="translate(1278 315) rotate(180)"/><rect class="cls-6" x="648" y="243" width="99" height="9" transform="translate(1395 495) rotate(180)"/><rect class="cls-7" x="576" y="162" width="126" height="72" transform="translate(1278 396) rotate(180)"/><rect class="cls-5" x="648" y="252" width="99" height="72" transform="translate(1395 576) rotate(180)"/><rect class="cls-5" x="558" y="945" width="99" height="72" transform="translate(1215 1962) rotate(180)"/><rect class="cls-5" x="1377" y="612" width="90" height="72" transform="translate(2844 1296) rotate(180)"/><rect class="cls-8" x="1377" y="99" width="99" height="72"/><rect class="cls-10" x="1377" y="90" width="99" height="9"/><rect class="cls-6" x="1314" y="180" width="153" height="9"/><rect class="cls-6" x="1377" y="603" width="90" height="9"/><rect class="cls-6" x="1314" y="936" width="153" height="9"/><rect class="cls-9" x="18" y="846" width="72" height="9"/><rect class="cls-6" x="27" y="396" width="54" height="9"/><rect class="cls-9" x="18" y="306" width="99" height="9"/><rect class="cls-10" x="18" y="126" width="54" height="9"/><rect class="cls-6" x="27" y="216" width="162" height="9"/><rect class="cls-6" x="27" y="936" width="117" height="9"/><rect class="cls-9" x="1404" y="513" width="72" height="9"/><rect class="cls-9" x="1404" y="693" width="72" height="9"/><rect class="cls-10" x="1377" y="846" width="99" height="9"/><rect class="cls-8" x="1377" y="855" width="99" height="72"/></g></g><g id="Window"><rect class="cls-6" x="1017" y="351" width="306" height="18"/><rect class="cls-6" x="1035" y="837" width="270" height="18"/><rect class="cls-11" x="1035" y="567" width="270" height="36"/><rect class="cls-12" x="1035" y="531" width="270" height="36"/><rect class="cls-11" x="1035" y="495" width="270" height="36"/><rect class="cls-12" x="1035" y="459" width="270" height="36"/><rect class="cls-11" x="1035" y="423" width="270" height="36"/><path class="cls-5" d="M1305,369H1017V900h306V369Zm0,486H1035V639h270Zm0-252H1035V423h270Z"/><rect class="cls-6" x="1035" y="594" width="270" height="9"/></g><g id="Window-2" data-name="Window"><rect class="cls-6" x="171" y="351" width="306" height="18"/><rect class="cls-6" x="189" y="837" width="270" height="18"/><rect class="cls-11" x="189" y="711" width="270" height="36"/><rect class="cls-12" x="189" y="675" width="270" height="36"/><rect class="cls-11" x="189" y="639" width="270" height="36"/><rect class="cls-12" x="189" y="603" width="270" height="36"/><rect class="cls-11" x="189" y="567" width="270" height="36"/><rect class="cls-12" x="189" y="531" width="270" height="36"/><rect class="cls-11" x="189" y="495" width="270" height="36"/><rect class="cls-12" x="189" y="459" width="270" height="36"/><rect class="cls-11" x="189" y="423" width="270" height="36"/><path class="cls-5" d="M459,369H171V900H477V369Zm0,486H189V783H459Zm0-108H189V423H459Z"/><rect class="cls-6" x="189" y="738" width="270" height="9"/></g><g id="Window-3" data-name="Window"><rect class="cls-6" x="594" y="351" width="306" height="18"/><rect class="cls-6" x="612" y="837" width="270" height="18"/><rect class="cls-11" x="612" y="495" width="270" height="36"/><rect class="cls-12" x="612" y="459" width="270" height="36"/><rect class="cls-11" x="612" y="423" width="270" height="36"/><path class="cls-5" d="M882,369H594V900H900V369Zm0,486H612V567H882Zm0-324H612V423H882Z"/><rect class="cls-6" x="612" y="522" width="270" height="9"/></g></g></g></g></svg>