<svg xmlns="http://www.w3.org/2000/svg" xmlns:xlink="http://www.w3.org/1999/xlink" viewBox="0 0 1719 1080"><defs><style>.cls-1{fill:#110b11;}.cls-2{fill:#352034;}.cls-10,.cls-3,.cls-5{fill:none;stroke-width:5px;}.cls-3,.cls-5{stroke:#352034;}.cls-3{stroke-miterlimit:10;}.cls-4{fill:#302030;}.cls-5{stroke-linecap:round;}.cls-10,.cls-5{stroke-linejoin:round;}.cls-6{fill:#502f4c;}.cls-7{fill:#f86624;}.cls-8{fill:#70587c;}.cls-9{fill:#594763;}.cls-10{stroke:#502f4c;stroke-linecap:square;}.cls-11{fill:url(#Новый_образец_градиентной_зал_2);}.cls-12{fill:#07060a;}.cls-13{fill:#1a1423;}.cls-14{fill:#372549;}.cls-15{fill:#1e1528;}.cls-16{fill:#774c60;}.cls-17{fill:#483a51;}.cls-18{fill:#4f3341;}.cls-19{fill:#1b4332;}.cls-20{fill:#2d6a4f;}</style><linearGradient id="Новый_образец_градиентной_зал_2" x1="900" y1="1" x2="900" y2="1080" gradientUnits="userSpaceOnUse"><stop offset="0"/><stop offset="0.05" stop-color="#15111f"/><stop offset="0.11" stop-color="#2e2544"/><stop offset="0.18" stop-color="#423663"/><stop offset="0.25" stop-color="#52437b"/><stop offset="0.32" stop-color="#5d4c8c"/><stop offset="0.4" stop-color="#645196"/><stop offset="0.5" stop-color="#665399"/><stop offset="0.6" stop-color="#645196"/><stop offset="0.68" stop-color="#5d4c8c"/><stop offset="0.75" stop-color="#52437b"/><stop offset="0.82" stop-color="#423663"/><stop offset="0.89" stop-color="#2e2544"/><stop offset="0.95" stop-color="#15111f"/><stop offset="1"/></linearGradient></defs><g id="Layer_2" data-name="Layer 2"><g id="Final_outside" data-name="Final outside"><g id="_2_-_Collection_-_Outside" data-name="2 - Collection - Outside"><g id="Side_billboard" data-name="Side billboard"><g id="top"><rect class="cls-1" x="162" y="522" width="81" height="9"/><rect class="cls-1" x="162" y="486" width="90" height="9"/><polygon class="cls-2" points="243 495 243 495 162 495 162 504 243 504 243 531 162 531 162 540 243 540 243 540 252 540 252 495 243 495"/><line class="cls-3" x1="243" y1="531" x2="216" y2="504"/><line class="cls-3" x1="243" y1="504" x2="216" y2="531"/><line class="cls-3" x1="216" y1="531" x2="189" y2="504"/><line class="cls-3" x1="216" y1="504" x2="189" y2="531"/><line class="cls-3" x1="189" y1="531" x2="162" y2="504"/><line class="cls-3" x1="189" y1="504" x2="162" y2="531"/></g><g id="bot"><rect class="cls-1" x="162" y="720" width="81" height="9"/><rect class="cls-1" x="162" y="684" width="90" height="9"/><polygon class="cls-2" points="243 693 243 693 162 693 162 702 243 702 243 729 162 729 162 738 243 738 243 738 252 738 252 693 243 693"/><line class="cls-3" x1="243" y1="729" x2="216" y2="702"/><line class="cls-3" x1="243" y1="702" x2="216" y2="729"/><line class="cls-3" x1="216" y1="729" x2="189" y2="702"/><line class="cls-3" x1="216" y1="702" x2="189" y2="729"/><line class="cls-3" x1="189" y1="729" x2="162" y2="702"/><line class="cls-3" x1="189" y1="702" x2="162" y2="729"/></g><rect class="cls-1" x="126" y="306" width="36" height="9"/><rect class="cls-1" x="135" y="927" width="18" height="9"/><rect class="cls-4" y="306" width="126" height="9"/><line class="cls-5" x1="134.5" y1="522.5" x2="152.5" y2="504.5"/><line class="cls-5" x1="134.5" y1="504.5" x2="152.5" y2="522.5"/><line class="cls-5" x1="134.5" y1="540.5" x2="152.5" y2="522.5"/><line class="cls-5" x1="134.5" y1="522.5" x2="152.5" y2="540.5"/><line class="cls-5" x1="134.5" y1="558.5" x2="152.5" y2="540.5"/><line class="cls-5" x1="134.5" y1="540.5" x2="152.5" y2="558.5"/><line class="cls-5" x1="134.5" y1="576.5" x2="152.5" y2="558.5"/><line class="cls-5" x1="134.5" y1="558.5" x2="152.5" y2="576.5"/><line class="cls-5" x1="134.5" y1="594.5" x2="152.5" y2="576.5"/><line class="cls-5" x1="134.5" y1="576.5" x2="152.5" y2="594.5"/><line class="cls-5" x1="134.5" y1="612.5" x2="152.5" y2="594.5"/><line class="cls-5" x1="134.5" y1="594.5" x2="152.5" y2="612.5"/><line class="cls-5" x1="134.5" y1="413.5" x2="152.5" y2="395.5"/><line class="cls-5" x1="134.5" y1="395.5" x2="152.5" y2="413.5"/><line class="cls-5" x1="134.5" y1="431.5" x2="152.5" y2="413.5"/><line class="cls-5" x1="134.5" y1="413.5" x2="152.5" y2="431.5"/><line class="cls-5" x1="134.5" y1="449.5" x2="152.5" y2="431.5"/><line class="cls-5" x1="134.5" y1="431.5" x2="152.5" y2="449.5"/><line class="cls-5" x1="134.5" y1="467.5" x2="152.5" y2="449.5"/><line class="cls-5" x1="134.5" y1="449.5" x2="152.5" y2="467.5"/><line class="cls-5" x1="135.5" y1="359.5" x2="153.5" y2="341.5"/><line class="cls-5" x1="135.5" y1="341.5" x2="153.5" y2="359.5"/><line class="cls-5" x1="135.5" y1="377.5" x2="153.5" y2="359.5"/><line class="cls-5" x1="135.5" y1="359.5" x2="153.5" y2="377.5"/><line class="cls-5" x1="135.5" y1="395.5" x2="153.5" y2="377.5"/><line class="cls-5" x1="135.5" y1="377.5" x2="153.5" y2="395.5"/><line class="cls-5" x1="134.5" y1="485.5" x2="152.5" y2="467.5"/><line class="cls-5" x1="134.5" y1="467.5" x2="152.5" y2="485.5"/><line class="cls-5" x1="134.5" y1="503.5" x2="152.5" y2="485.5"/><line class="cls-5" x1="134.5" y1="485.5" x2="152.5" y2="503.5"/><line class="cls-5" x1="134.5" y1="630.5" x2="152.5" y2="612.5"/><line class="cls-5" x1="134.5" y1="612.5" x2="152.5" y2="630.5"/><line class="cls-5" x1="134.5" y1="648.5" x2="152.5" y2="630.5"/><line class="cls-5" x1="134.5" y1="630.5" x2="152.5" y2="648.5"/><line class="cls-5" x1="134.5" y1="666.5" x2="152.5" y2="648.5"/><line class="cls-5" x1="134.5" y1="648.5" x2="152.5" y2="666.5"/><line class="cls-5" x1="134.5" y1="684.5" x2="152.5" y2="666.5"/><line class="cls-5" x1="134.5" y1="666.5" x2="152.5" y2="684.5"/><line class="cls-5" x1="134.5" y1="702.5" x2="152.5" y2="684.5"/><line class="cls-5" x1="134.5" y1="684.5" x2="152.5" y2="702.5"/><line class="cls-5" x1="134.5" y1="720.5" x2="152.5" y2="702.5"/><line class="cls-5" x1="134.5" y1="702.5" x2="152.5" y2="720.5"/><line class="cls-5" x1="134.5" y1="738.5" x2="152.5" y2="720.5"/><line class="cls-5" x1="134.5" y1="720.5" x2="152.5" y2="738.5"/><line class="cls-5" x1="134.5" y1="756.5" x2="152.5" y2="738.5"/><line class="cls-5" x1="134.5" y1="738.5" x2="152.5" y2="756.5"/><line class="cls-5" x1="134.5" y1="774.5" x2="152.5" y2="756.5"/><line class="cls-5" x1="134.5" y1="756.5" x2="152.5" y2="774.5"/><line class="cls-5" x1="134.5" y1="792.5" x2="152.5" y2="774.5"/><line class="cls-5" x1="134.5" y1="774.5" x2="152.5" y2="792.5"/><line class="cls-5" x1="134.5" y1="810.5" x2="152.5" y2="792.5"/><line class="cls-5" x1="134.5" y1="792.5" x2="152.5" y2="810.5"/><line class="cls-5" x1="134.5" y1="828.5" x2="152.5" y2="810.5"/><line class="cls-5" x1="134.5" y1="810.5" x2="152.5" y2="828.5"/><line class="cls-5" x1="134.5" y1="846.5" x2="152.5" y2="828.5"/><line class="cls-5" x1="134.5" y1="828.5" x2="152.5" y2="846.5"/><line class="cls-5" x1="134.5" y1="864.5" x2="152.5" y2="846.5"/><line class="cls-5" x1="134.5" y1="846.5" x2="152.5" y2="864.5"/><line class="cls-5" x1="134.5" y1="882.5" x2="152.5" y2="864.5"/><line class="cls-5" x1="134.5" y1="864.5" x2="152.5" y2="882.5"/><line class="cls-5" x1="134.5" y1="900.5" x2="152.5" y2="882.5"/><line class="cls-5" x1="134.5" y1="882.5" x2="152.5" y2="900.5"/><line class="cls-5" x1="134.5" y1="918.5" x2="152.5" y2="900.5"/><line class="cls-5" x1="134.5" y1="900.5" x2="152.5" y2="918.5"/><path class="cls-6" d="M0,315V945H126V315ZM117,936H9V324H117Z"/><path class="cls-2" d="M126,315v9h.07V936H126v9h36V315Zm27,621H135.07V324H153Z"/><rect class="cls-7" x="9" y="324" width="108" height="612" transform="translate(126 1260) rotate(180)"/></g><g id="Air"><rect class="cls-2" x="1611" y="333" width="27" height="36"/><rect class="cls-2" x="1611" y="432" width="27" height="36"/><rect class="cls-8" x="1638" y="297" width="72" height="207"/><rect class="cls-9" x="1638" y="270" width="72" height="27"/><rect class="cls-2" x="1710" y="270" width="9" height="27"/><rect x="1656" y="315" width="54" height="171"/><path class="cls-6" d="M1710,297v18h-63V495h63v9h9V297Zm0,189h-54V324h54Z"/><line class="cls-10" x1="1656.5" y1="485.5" x2="1674.5" y2="467.5"/><line class="cls-10" x1="1655.5" y1="468.5" x2="1673.5" y2="486.5"/><line class="cls-10" x1="1674.5" y1="485.5" x2="1692.5" y2="467.5"/><line class="cls-10" x1="1674.5" y1="467.5" x2="1692.5" y2="485.5"/><line class="cls-10" x1="1692.5" y1="485.5" x2="1710.5" y2="467.5"/><line class="cls-10" x1="1692.5" y1="467.5" x2="1710.5" y2="485.5"/><line class="cls-10" x1="1692.5" y1="467.5" x2="1710.5" y2="449.5"/><line class="cls-10" x1="1692.5" y1="449.5" x2="1710.5" y2="467.5"/><line class="cls-10" x1="1692.5" y1="449.5" x2="1710.5" y2="431.5"/><line class="cls-10" x1="1692.5" y1="431.5" x2="1710.5" y2="449.5"/><line class="cls-10" x1="1692.5" y1="431.5" x2="1710.5" y2="413.5"/><line class="cls-10" x1="1692.5" y1="413.5" x2="1710.5" y2="431.5"/><line class="cls-10" x1="1692.5" y1="413.5" x2="1710.5" y2="395.5"/><line class="cls-10" x1="1692.5" y1="395.5" x2="1710.5" y2="413.5"/><line class="cls-10" x1="1692.5" y1="395.5" x2="1710.5" y2="377.5"/><line class="cls-10" x1="1692.5" y1="377.5" x2="1710.5" y2="395.5"/><line class="cls-10" x1="1692.5" y1="377.5" x2="1710.5" y2="359.5"/><line class="cls-10" x1="1692.5" y1="359.5" x2="1710.5" y2="377.5"/><line class="cls-10" x1="1692.5" y1="359.5" x2="1710.5" y2="341.5"/><line class="cls-10" x1="1692.5" y1="341.5" x2="1710.5" y2="359.5"/><line class="cls-10" x1="1692.5" y1="341.5" x2="1710.5" y2="323.5"/><line class="cls-10" x1="1692.5" y1="323.5" x2="1710.5" y2="341.5"/><line class="cls-10" x1="1673.5" y1="467.5" x2="1691.5" y2="449.5"/><line class="cls-10" x1="1673.5" y1="449.5" x2="1691.5" y2="467.5"/><line class="cls-10" x1="1673.5" y1="449.5" x2="1691.5" y2="431.5"/><line class="cls-10" x1="1673.5" y1="431.5" x2="1691.5" y2="449.5"/><line class="cls-10" x1="1673.5" y1="431.5" x2="1691.5" y2="413.5"/><line class="cls-10" x1="1673.5" y1="413.5" x2="1691.5" y2="431.5"/><line class="cls-10" x1="1673.5" y1="413.5" x2="1691.5" y2="395.5"/><line class="cls-10" x1="1673.5" y1="395.5" x2="1691.5" y2="413.5"/><line class="cls-10" x1="1673.5" y1="395.5" x2="1691.5" y2="377.5"/><line class="cls-10" x1="1673.5" y1="377.5" x2="1691.5" y2="395.5"/><line class="cls-10" x1="1673.5" y1="377.5" x2="1691.5" y2="359.5"/><line class="cls-10" x1="1673.5" y1="359.5" x2="1691.5" y2="377.5"/><line class="cls-10" x1="1673.5" y1="359.5" x2="1691.5" y2="341.5"/><line class="cls-10" x1="1673.5" y1="341.5" x2="1691.5" y2="359.5"/><line class="cls-10" x1="1673.5" y1="341.5" x2="1691.5" y2="323.5"/><line class="cls-10" x1="1673.5" y1="323.5" x2="1691.5" y2="341.5"/><line class="cls-10" x1="1655.5" y1="467.5" x2="1673.5" y2="449.5"/><line class="cls-10" x1="1655.5" y1="449.5" x2="1673.5" y2="467.5"/><line class="cls-10" x1="1655.5" y1="449.5" x2="1673.5" y2="431.5"/><line class="cls-10" x1="1655.5" y1="431.5" x2="1673.5" y2="449.5"/><line class="cls-10" x1="1655.5" y1="431.5" x2="1673.5" y2="413.5"/><line class="cls-10" x1="1655.5" y1="413.5" x2="1673.5" y2="431.5"/><line class="cls-10" x1="1655.5" y1="413.5" x2="1673.5" y2="395.5"/><line class="cls-10" x1="1655.5" y1="395.5" x2="1673.5" y2="413.5"/><line class="cls-10" x1="1655.5" y1="395.5" x2="1673.5" y2="377.5"/><line class="cls-10" x1="1655.5" y1="377.5" x2="1673.5" y2="395.5"/><line class="cls-10" x1="1655.5" y1="377.5" x2="1673.5" y2="359.5"/><line class="cls-10" x1="1655.5" y1="359.5" x2="1673.5" y2="377.5"/><line class="cls-10" x1="1655.5" y1="359.5" x2="1673.5" y2="341.5"/><line class="cls-10" x1="1655.5" y1="341.5" x2="1673.5" y2="359.5"/><line class="cls-10" x1="1655.5" y1="341.5" x2="1673.5" y2="323.5"/><line class="cls-10" x1="1655.5" y1="323.5" x2="1673.5" y2="341.5"/><rect class="cls-1" x="1611" y="324" width="27" height="9"/><rect class="cls-1" x="1611" y="423" width="27" height="9"/></g><g id="level"><g id="wall"><path class="cls-11" d="M207,1V1080H1593V1ZM629.71,900H324V351H629.71Zm423,0H747V351h305.71Zm423,0H1170V351h305.71Z"/><rect class="cls-9" x="1593" y="1" width="18" height="1079"/><rect class="cls-9" x="189" y="1" width="18" height="1079"/><g id="_3" data-name="3"><polygon class="cls-12" points="720 54 747 99 729 126 765 99 738 54 720 54"/><polygon class="cls-12" points="1107 270 1062 333 1116 369 1089 459 1134 360 1080 333 1107 270"/><polygon class="cls-12" points="459 1053 486 972 486 1017 531 1053 459 1053"/></g><rect class="cls-13" x="153" width="1494" height="81"/><rect class="cls-14" x="171" y="1035" width="1458" height="45"/><rect class="cls-15" x="171" y="1026" width="1458" height="9"/><rect class="cls-12" x="153" y="1071" width="1494" height="9"/></g><g id="Bricks"><rect class="cls-14" x="180" y="225" width="162" height="72"/><rect class="cls-14" x="558" y="162" width="162" height="72" transform="translate(1278 396) rotate(180)"/><rect class="cls-14" x="864" y="162" width="162" height="72" transform="translate(1890 396) rotate(180)"/><rect class="cls-14" x="1467" y="189" width="153" height="72"/><rect class="cls-14" x="1467" y="945" width="153" height="72"/><rect class="cls-8" x="171" y="315" width="99" height="72"/><rect class="cls-16" x="171" y="135" width="54" height="72"/><rect class="cls-8" x="1557" y="702" width="72" height="72" transform="translate(3186 1476) rotate(180)"/><rect class="cls-8" x="1557" y="522" width="72" height="72" transform="translate(3186 1116) rotate(180)"/><rect class="cls-14" x="180" y="405" width="54" height="72"/><rect class="cls-14" x="180" y="945" width="117" height="72"/><rect class="cls-8" x="819" y="945" width="171" height="72" transform="translate(1809 1962) rotate(180)"/><rect class="cls-17" x="819" y="936" width="171" height="9" transform="translate(1809 1881) rotate(180)"/><rect class="cls-15" x="711" y="936" width="99" height="9" transform="translate(1521 1881) rotate(180)"/><rect class="cls-8" x="171" y="855" width="72" height="72"/><rect class="cls-16" x="666" y="252" width="126" height="72" transform="translate(1458 576) rotate(180)"/><rect class="cls-18" x="666" y="243" width="126" height="9" transform="translate(1458 495) rotate(180)"/><rect class="cls-15" x="558" y="153" width="162" height="9" transform="translate(1278 315) rotate(180)"/><rect class="cls-15" x="864" y="153" width="162" height="9" transform="translate(1890 315) rotate(180)"/><rect class="cls-17" x="729" y="153" width="126" height="9" transform="translate(1584 315) rotate(180)"/><rect class="cls-15" x="801" y="243" width="99" height="9" transform="translate(1701 495) rotate(180)"/><rect class="cls-8" x="729" y="162" width="126" height="72" transform="translate(1584 396) rotate(180)"/><rect class="cls-14" x="801" y="252" width="99" height="72" transform="translate(1701 576) rotate(180)"/><rect class="cls-14" x="711" y="945" width="99" height="72" transform="translate(1521 1962) rotate(180)"/><rect class="cls-14" x="1530" y="612" width="90" height="72" transform="translate(3150 1296) rotate(180)"/><rect class="cls-16" x="1530" y="99" width="99" height="72"/><rect class="cls-18" x="1530" y="90" width="99" height="9"/><rect class="cls-15" x="1467" y="180" width="153" height="9"/><rect class="cls-15" x="1530" y="603" width="90" height="9"/><rect class="cls-15" x="1467" y="936" width="153" height="9"/><rect class="cls-17" x="171" y="846" width="72" height="9"/><rect class="cls-15" x="180" y="396" width="54" height="9"/><rect class="cls-17" x="171" y="306" width="99" height="9"/><rect class="cls-18" x="171" y="126" width="54" height="9"/><rect class="cls-15" x="180" y="216" width="162" height="9"/><rect class="cls-15" x="180" y="936" width="117" height="9"/><rect class="cls-17" x="1557" y="513" width="72" height="9"/><rect class="cls-17" x="1557" y="693" width="72" height="9"/><rect class="cls-18" x="1530" y="846" width="99" height="9"/><rect class="cls-16" x="1530" y="855" width="99" height="72"/></g></g><g id="Window"><rect class="cls-15" x="1170" y="351" width="306" height="18"/><rect class="cls-15" x="1188" y="837" width="270" height="18"/><rect class="cls-19" x="1188" y="567" width="270" height="36"/><rect class="cls-20" x="1188" y="531" width="270" height="36"/><rect class="cls-19" x="1188" y="495" width="270" height="36"/><rect class="cls-20" x="1188" y="459" width="270" height="36"/><rect class="cls-19" x="1188" y="423" width="270" height="36"/><path class="cls-14" d="M1458,369H1170V900h306V369Zm0,486H1188V639h270Zm0-252H1188V423h270Z"/><rect class="cls-15" x="1188" y="594" width="270" height="9"/></g><g id="Window-2" data-name="Window"><rect class="cls-15" x="324" y="351" width="306" height="18"/><rect class="cls-15" x="342" y="837" width="270" height="18"/><rect class="cls-19" x="342" y="711" width="270" height="36"/><rect class="cls-20" x="342" y="675" width="270" height="36"/><rect class="cls-19" x="342" y="639" width="270" height="36"/><rect class="cls-20" x="342" y="603" width="270" height="36"/><rect class="cls-19" x="342" y="567" width="270" height="36"/><rect class="cls-20" x="342" y="531" width="270" height="36"/><rect class="cls-19" x="342" y="495" width="270" height="36"/><rect class="cls-20" x="342" y="459" width="270" height="36"/><rect class="cls-19" x="342" y="423" width="270" height="36"/><path class="cls-14" d="M612,369H324V900H630V369Zm0,486H342V783H612Zm0-108H342V423H612Z"/><rect class="cls-15" x="342" y="738" width="270" height="9"/></g><g id="Window-3" data-name="Window"><rect class="cls-15" x="747" y="351" width="306" height="18"/><rect class="cls-15" x="765" y="837" width="270" height="18"/><rect class="cls-19" x="765" y="495" width="270" height="36"/><rect class="cls-20" x="765" y="459" width="270" height="36"/><rect class="cls-19" x="765" y="423" width="270" height="36"/><path class="cls-14" d="M1035,369H747V900h306V369Zm0,486H765V567h270Zm0-324H765V423h270Z"/><rect class="cls-15" x="765" y="522" width="270" height="9"/></g></g></g></g></svg>