<svg xmlns="http://www.w3.org/2000/svg" xmlns:xlink="http://www.w3.org/1999/xlink" viewBox="0 0 1719 1080"><defs><style>.cls-1{fill:#110b11;}.cls-2{fill:#352034;}.cls-10,.cls-3,.cls-5{fill:none;stroke-width:5px;}.cls-3,.cls-5{stroke:#352034;}.cls-3{stroke-miterlimit:10;}.cls-4{fill:#302030;}.cls-5{stroke-linecap:round;}.cls-10,.cls-5{stroke-linejoin:round;}.cls-6{fill:#502f4c;}.cls-7{fill:#f86624;}.cls-8{fill:#70587c;}.cls-9{fill:#594763;}.cls-10{stroke:#502f4c;stroke-linecap:square;}.cls-11{fill:url(#Безымянный_градиент_50);}.cls-12{fill:#1e1528;}.cls-13{fill:#1b4332;}.cls-14{fill:#2d6a4f;}.cls-15{fill:#372549;}.cls-16{fill:#07060a;}.cls-17{fill:#1a1423;}.cls-18{fill:#120d19;}.cls-19{fill:#00509d;}.cls-20{fill:#efdce5;}.cls-21{fill:#361b42;}.cls-22{fill:#9a37a0;}.cls-23{opacity:0.25;}.cls-24{fill:url(#Новый_образец_градиентной_зал_2);}.cls-25{fill:#03071e;}.cls-26{fill:#483a51;}.cls-27{fill:#774c60;}.cls-28{fill:#4f3341;}</style><linearGradient id="Безымянный_градиент_50" x1="900" y1="864" x2="900" y2="81" gradientUnits="userSpaceOnUse"><stop offset="0"/><stop offset="0.05" stop-color="#0b080f"/><stop offset="0.12" stop-color="#140f1a"/><stop offset="0.22" stop-color="#191321"/><stop offset="0.5" stop-color="#1a1423"/><stop offset="0.78" stop-color="#191321"/><stop offset="0.88" stop-color="#140f1a"/><stop offset="0.95" stop-color="#0b080f"/><stop offset="1"/></linearGradient><linearGradient id="Новый_образец_градиентной_зал_2" x1="900" y1="1" x2="900" y2="1080" gradientUnits="userSpaceOnUse"><stop offset="0"/><stop offset="0.05" stop-color="#15111f"/><stop offset="0.11" stop-color="#2e2544"/><stop offset="0.18" stop-color="#423663"/><stop offset="0.25" stop-color="#52437b"/><stop offset="0.32" stop-color="#5d4c8c"/><stop offset="0.4" stop-color="#645196"/><stop offset="0.5" stop-color="#665399"/><stop offset="0.6" stop-color="#645196"/><stop offset="0.68" stop-color="#5d4c8c"/><stop offset="0.75" stop-color="#52437b"/><stop offset="0.82" stop-color="#423663"/><stop offset="0.89" stop-color="#2e2544"/><stop offset="0.95" stop-color="#15111f"/><stop offset="1"/></linearGradient></defs><g id="Layer_2" data-name="Layer 2"><g id="Final_Inside" data-name="Final Inside"><g id="_2_-_Collection-_Inside" data-name="2 - Collection- Inside"><g id="Side_billboard" data-name="Side billboard"><g id="top"><rect class="cls-1" x="162" y="522" width="81" height="9"/><rect class="cls-1" x="162" y="486" width="90" height="9"/><polygon class="cls-2" points="243 495 243 495 162 495 162 504 243 504 243 531 162 531 162 540 243 540 243 540 252 540 252 495 243 495"/><line class="cls-3" x1="243" y1="531" x2="216" y2="504"/><line class="cls-3" x1="243" y1="504" x2="216" y2="531"/><line class="cls-3" x1="216" y1="531" x2="189" y2="504"/><line class="cls-3" x1="216" y1="504" x2="189" y2="531"/><line class="cls-3" x1="189" y1="531" x2="162" y2="504"/><line class="cls-3" x1="189" y1="504" x2="162" y2="531"/></g><g id="bot"><rect class="cls-1" x="162" y="720" width="81" height="9"/><rect class="cls-1" x="162" y="684" width="90" height="9"/><polygon class="cls-2" points="243 693 243 693 162 693 162 702 243 702 243 729 162 729 162 738 243 738 243 738 252 738 252 693 243 693"/><line class="cls-3" x1="243" y1="729" x2="216" y2="702"/><line class="cls-3" x1="243" y1="702" x2="216" y2="729"/><line class="cls-3" x1="216" y1="729" x2="189" y2="702"/><line class="cls-3" x1="216" y1="702" x2="189" y2="729"/><line class="cls-3" x1="189" y1="729" x2="162" y2="702"/><line class="cls-3" x1="189" y1="702" x2="162" y2="729"/></g><rect class="cls-1" x="126" y="306" width="36" height="9"/><rect class="cls-1" x="135" y="927" width="18" height="9"/><rect class="cls-4" y="306" width="126" height="9"/><line class="cls-5" x1="134.5" y1="522.5" x2="152.5" y2="504.5"/><line class="cls-5" x1="134.5" y1="504.5" x2="152.5" y2="522.5"/><line class="cls-5" x1="134.5" y1="540.5" x2="152.5" y2="522.5"/><line class="cls-5" x1="134.5" y1="522.5" x2="152.5" y2="540.5"/><line class="cls-5" x1="134.5" y1="558.5" x2="152.5" y2="540.5"/><line class="cls-5" x1="134.5" y1="540.5" x2="152.5" y2="558.5"/><line class="cls-5" x1="134.5" y1="576.5" x2="152.5" y2="558.5"/><line class="cls-5" x1="134.5" y1="558.5" x2="152.5" y2="576.5"/><line class="cls-5" x1="134.5" y1="594.5" x2="152.5" y2="576.5"/><line class="cls-5" x1="134.5" y1="576.5" x2="152.5" y2="594.5"/><line class="cls-5" x1="134.5" y1="612.5" x2="152.5" y2="594.5"/><line class="cls-5" x1="134.5" y1="594.5" x2="152.5" y2="612.5"/><line class="cls-5" x1="134.5" y1="413.5" x2="152.5" y2="395.5"/><line class="cls-5" x1="134.5" y1="395.5" x2="152.5" y2="413.5"/><line class="cls-5" x1="134.5" y1="431.5" x2="152.5" y2="413.5"/><line class="cls-5" x1="134.5" y1="413.5" x2="152.5" y2="431.5"/><line class="cls-5" x1="134.5" y1="449.5" x2="152.5" y2="431.5"/><line class="cls-5" x1="134.5" y1="431.5" x2="152.5" y2="449.5"/><line class="cls-5" x1="134.5" y1="467.5" x2="152.5" y2="449.5"/><line class="cls-5" x1="134.5" y1="449.5" x2="152.5" y2="467.5"/><line class="cls-5" x1="135.5" y1="359.5" x2="153.5" y2="341.5"/><line class="cls-5" x1="135.5" y1="341.5" x2="153.5" y2="359.5"/><line class="cls-5" x1="135.5" y1="377.5" x2="153.5" y2="359.5"/><line class="cls-5" x1="135.5" y1="359.5" x2="153.5" y2="377.5"/><line class="cls-5" x1="135.5" y1="395.5" x2="153.5" y2="377.5"/><line class="cls-5" x1="135.5" y1="377.5" x2="153.5" y2="395.5"/><line class="cls-5" x1="134.5" y1="485.5" x2="152.5" y2="467.5"/><line class="cls-5" x1="134.5" y1="467.5" x2="152.5" y2="485.5"/><line class="cls-5" x1="134.5" y1="503.5" x2="152.5" y2="485.5"/><line class="cls-5" x1="134.5" y1="485.5" x2="152.5" y2="503.5"/><line class="cls-5" x1="134.5" y1="630.5" x2="152.5" y2="612.5"/><line class="cls-5" x1="134.5" y1="612.5" x2="152.5" y2="630.5"/><line class="cls-5" x1="134.5" y1="648.5" x2="152.5" y2="630.5"/><line class="cls-5" x1="134.5" y1="630.5" x2="152.5" y2="648.5"/><line class="cls-5" x1="134.5" y1="666.5" x2="152.5" y2="648.5"/><line class="cls-5" x1="134.5" y1="648.5" x2="152.5" y2="666.5"/><line class="cls-5" x1="134.5" y1="684.5" x2="152.5" y2="666.5"/><line class="cls-5" x1="134.5" y1="666.5" x2="152.5" y2="684.5"/><line class="cls-5" x1="134.5" y1="702.5" x2="152.5" y2="684.5"/><line class="cls-5" x1="134.5" y1="684.5" x2="152.5" y2="702.5"/><line class="cls-5" x1="134.5" y1="720.5" x2="152.5" y2="702.5"/><line class="cls-5" x1="134.5" y1="702.5" x2="152.5" y2="720.5"/><line class="cls-5" x1="134.5" y1="738.5" x2="152.5" y2="720.5"/><line class="cls-5" x1="134.5" y1="720.5" x2="152.5" y2="738.5"/><line class="cls-5" x1="134.5" y1="756.5" x2="152.5" y2="738.5"/><line class="cls-5" x1="134.5" y1="738.5" x2="152.5" y2="756.5"/><line class="cls-5" x1="134.5" y1="774.5" x2="152.5" y2="756.5"/><line class="cls-5" x1="134.5" y1="756.5" x2="152.5" y2="774.5"/><line class="cls-5" x1="134.5" y1="792.5" x2="152.5" y2="774.5"/><line class="cls-5" x1="134.5" y1="774.5" x2="152.5" y2="792.5"/><line class="cls-5" x1="134.5" y1="810.5" x2="152.5" y2="792.5"/><line class="cls-5" x1="134.5" y1="792.5" x2="152.5" y2="810.5"/><line class="cls-5" x1="134.5" y1="828.5" x2="152.5" y2="810.5"/><line class="cls-5" x1="134.5" y1="810.5" x2="152.5" y2="828.5"/><line class="cls-5" x1="134.5" y1="846.5" x2="152.5" y2="828.5"/><line class="cls-5" x1="134.5" y1="828.5" x2="152.5" y2="846.5"/><line class="cls-5" x1="134.5" y1="864.5" x2="152.5" y2="846.5"/><line class="cls-5" x1="134.5" y1="846.5" x2="152.5" y2="864.5"/><line class="cls-5" x1="134.5" y1="882.5" x2="152.5" y2="864.5"/><line class="cls-5" x1="134.5" y1="864.5" x2="152.5" y2="882.5"/><line class="cls-5" x1="134.5" y1="900.5" x2="152.5" y2="882.5"/><line class="cls-5" x1="134.5" y1="882.5" x2="152.5" y2="900.5"/><line class="cls-5" x1="134.5" y1="918.5" x2="152.5" y2="900.5"/><line class="cls-5" x1="134.5" y1="900.5" x2="152.5" y2="918.5"/><path class="cls-6" d="M0,315V945H126V315ZM117,936H9V324H117Z"/><path class="cls-2" d="M126,315v9h.07V936H126v9h36V315Zm27,621H135.07V324H153Z"/><rect class="cls-7" x="9" y="324" width="108" height="612" transform="translate(126 1260) rotate(180)"/></g><g id="Air"><rect class="cls-2" x="1611" y="333" width="27" height="36"/><rect class="cls-2" x="1611" y="432" width="27" height="36"/><rect class="cls-8" x="1638" y="297" width="72" height="207"/><rect class="cls-9" x="1638" y="270" width="72" height="27"/><rect class="cls-2" x="1710" y="270" width="9" height="27"/><rect x="1656" y="315" width="54" height="171"/><path class="cls-6" d="M1710,297v18h-63V495h63v9h9V297Zm0,189h-54V324h54Z"/><line class="cls-10" x1="1656.5" y1="485.5" x2="1674.5" y2="467.5"/><line class="cls-10" x1="1655.5" y1="468.5" x2="1673.5" y2="486.5"/><line class="cls-10" x1="1674.5" y1="485.5" x2="1692.5" y2="467.5"/><line class="cls-10" x1="1674.5" y1="467.5" x2="1692.5" y2="485.5"/><line class="cls-10" x1="1692.5" y1="485.5" x2="1710.5" y2="467.5"/><line class="cls-10" x1="1692.5" y1="467.5" x2="1710.5" y2="485.5"/><line class="cls-10" x1="1692.5" y1="467.5" x2="1710.5" y2="449.5"/><line class="cls-10" x1="1692.5" y1="449.5" x2="1710.5" y2="467.5"/><line class="cls-10" x1="1692.5" y1="449.5" x2="1710.5" y2="431.5"/><line class="cls-10" x1="1692.5" y1="431.5" x2="1710.5" y2="449.5"/><line class="cls-10" x1="1692.5" y1="431.5" x2="1710.5" y2="413.5"/><line class="cls-10" x1="1692.5" y1="413.5" x2="1710.5" y2="431.5"/><line class="cls-10" x1="1692.5" y1="413.5" x2="1710.5" y2="395.5"/><line class="cls-10" x1="1692.5" y1="395.5" x2="1710.5" y2="413.5"/><line class="cls-10" x1="1692.5" y1="395.5" x2="1710.5" y2="377.5"/><line class="cls-10" x1="1692.5" y1="377.5" x2="1710.5" y2="395.5"/><line class="cls-10" x1="1692.5" y1="377.5" x2="1710.5" y2="359.5"/><line class="cls-10" x1="1692.5" y1="359.5" x2="1710.5" y2="377.5"/><line class="cls-10" x1="1692.5" y1="359.5" x2="1710.5" y2="341.5"/><line class="cls-10" x1="1692.5" y1="341.5" x2="1710.5" y2="359.5"/><line class="cls-10" x1="1692.5" y1="341.5" x2="1710.5" y2="323.5"/><line class="cls-10" x1="1692.5" y1="323.5" x2="1710.5" y2="341.5"/><line class="cls-10" x1="1673.5" y1="467.5" x2="1691.5" y2="449.5"/><line class="cls-10" x1="1673.5" y1="449.5" x2="1691.5" y2="467.5"/><line class="cls-10" x1="1673.5" y1="449.5" x2="1691.5" y2="431.5"/><line class="cls-10" x1="1673.5" y1="431.5" x2="1691.5" y2="449.5"/><line class="cls-10" x1="1673.5" y1="431.5" x2="1691.5" y2="413.5"/><line class="cls-10" x1="1673.5" y1="413.5" x2="1691.5" y2="431.5"/><line class="cls-10" x1="1673.5" y1="413.5" x2="1691.5" y2="395.5"/><line class="cls-10" x1="1673.5" y1="395.5" x2="1691.5" y2="413.5"/><line class="cls-10" x1="1673.5" y1="395.5" x2="1691.5" y2="377.5"/><line class="cls-10" x1="1673.5" y1="377.5" x2="1691.5" y2="395.5"/><line class="cls-10" x1="1673.5" y1="377.5" x2="1691.5" y2="359.5"/><line class="cls-10" x1="1673.5" y1="359.5" x2="1691.5" y2="377.5"/><line class="cls-10" x1="1673.5" y1="359.5" x2="1691.5" y2="341.5"/><line class="cls-10" x1="1673.5" y1="341.5" x2="1691.5" y2="359.5"/><line class="cls-10" x1="1673.5" y1="341.5" x2="1691.5" y2="323.5"/><line class="cls-10" x1="1673.5" y1="323.5" x2="1691.5" y2="341.5"/><line class="cls-10" x1="1655.5" y1="467.5" x2="1673.5" y2="449.5"/><line class="cls-10" x1="1655.5" y1="449.5" x2="1673.5" y2="467.5"/><line class="cls-10" x1="1655.5" y1="449.5" x2="1673.5" y2="431.5"/><line class="cls-10" x1="1655.5" y1="431.5" x2="1673.5" y2="449.5"/><line class="cls-10" x1="1655.5" y1="431.5" x2="1673.5" y2="413.5"/><line class="cls-10" x1="1655.5" y1="413.5" x2="1673.5" y2="431.5"/><line class="cls-10" x1="1655.5" y1="413.5" x2="1673.5" y2="395.5"/><line class="cls-10" x1="1655.5" y1="395.5" x2="1673.5" y2="413.5"/><line class="cls-10" x1="1655.5" y1="395.5" x2="1673.5" y2="377.5"/><line class="cls-10" x1="1655.5" y1="377.5" x2="1673.5" y2="395.5"/><line class="cls-10" x1="1655.5" y1="377.5" x2="1673.5" y2="359.5"/><line class="cls-10" x1="1655.5" y1="359.5" x2="1673.5" y2="377.5"/><line class="cls-10" x1="1655.5" y1="359.5" x2="1673.5" y2="341.5"/><line class="cls-10" x1="1655.5" y1="341.5" x2="1673.5" y2="359.5"/><line class="cls-10" x1="1655.5" y1="341.5" x2="1673.5" y2="323.5"/><line class="cls-10" x1="1655.5" y1="323.5" x2="1673.5" y2="341.5"/><rect class="cls-1" x="1611" y="324" width="27" height="9"/><rect class="cls-1" x="1611" y="423" width="27" height="9"/></g><g id="Collection_room" data-name="Collection room"><path id="Wall" class="cls-11" d="M207,81V864H1593V81ZM629.71,702H324V153H629.71Z"/><g id="Window"><rect class="cls-12" x="324" y="153" width="306" height="18"/><rect class="cls-12" x="342" y="639" width="270" height="18"/><rect class="cls-13" x="342" y="225" width="270" height="36"/><rect class="cls-14" x="342" y="261" width="270" height="36"/><rect class="cls-13" x="342" y="297" width="270" height="36"/><path class="cls-15" d="M612,171H324V702H630V171Zm0,486H342V369H612Zm0-324H342V225H612Z"/><rect class="cls-12" x="342" y="324" width="270" height="9"/></g><g id="Floor"><rect class="cls-16" x="207" y="864" width="1386" height="27"/><g id="floor-2" data-name="floor"><rect class="cls-17" x="261" y="945" width="108" height="27"/><rect class="cls-12" x="369" y="945" width="108" height="27"/><rect class="cls-12" x="207" y="945" width="54" height="27"/><rect class="cls-17" x="477" y="945" width="108" height="27"/><rect class="cls-12" x="585" y="945" width="108" height="27"/><rect class="cls-17" x="693" y="945" width="108" height="27"/><rect class="cls-12" x="801" y="945" width="108" height="27"/><rect class="cls-17" x="909" y="945" width="108" height="27"/><rect class="cls-12" x="1017" y="945" width="108" height="27"/><rect class="cls-17" x="1125" y="945" width="108" height="27"/><rect class="cls-12" x="1233" y="945" width="108" height="27"/><rect class="cls-17" x="1341" y="945" width="108" height="27"/><rect class="cls-12" x="1449" y="945" width="108" height="27"/><rect class="cls-17" x="1557" y="945" width="36" height="27"/><rect class="cls-4" x="1404" y="918" width="108" height="27"/><rect class="cls-4" x="324" y="918" width="108" height="27"/><rect class="cls-4" x="207" y="918" width="9" height="27"/><rect class="cls-2" x="432" y="918" width="108" height="27"/><rect class="cls-2" x="216" y="918" width="108" height="27"/><rect class="cls-4" x="540" y="918" width="108" height="27"/><rect class="cls-2" x="648" y="918" width="108" height="27"/><rect class="cls-4" x="756" y="918" width="108" height="27"/><rect class="cls-2" x="864" y="918" width="108" height="27"/><rect class="cls-4" x="972" y="918" width="108" height="27"/><rect class="cls-2" x="1080" y="918" width="108" height="27"/><rect class="cls-4" x="1188" y="918" width="108" height="27"/><rect class="cls-2" x="1296" y="918" width="108" height="27"/><rect class="cls-2" x="1512" y="918" width="81" height="27"/><rect class="cls-4" x="1404" y="999" width="108" height="27"/><rect class="cls-4" x="324" y="999" width="108" height="27"/><rect class="cls-4" x="207" y="999" width="9" height="27"/><rect class="cls-2" x="432" y="999" width="108" height="27"/><rect class="cls-2" x="216" y="999" width="108" height="27"/><rect class="cls-4" x="540" y="999" width="108" height="27"/><rect class="cls-2" x="648" y="999" width="108" height="27"/><rect class="cls-4" x="756" y="999" width="108" height="27"/><rect class="cls-2" x="864" y="999" width="108" height="27"/><rect class="cls-4" x="972" y="999" width="108" height="27"/><rect class="cls-2" x="1080" y="999" width="108" height="27"/><rect class="cls-4" x="1188" y="999" width="108" height="27"/><rect class="cls-2" x="1296" y="999" width="108" height="27"/><rect class="cls-2" x="1512" y="999" width="81" height="27"/><rect class="cls-12" x="279" y="891" width="108" height="27"/><rect class="cls-17" x="387" y="891" width="108" height="27"/><rect class="cls-17" x="207" y="891" width="72" height="27"/><rect class="cls-12" x="495" y="891" width="108" height="27"/><rect class="cls-17" x="603" y="891" width="108" height="27"/><rect class="cls-12" x="711" y="891" width="108" height="27"/><rect class="cls-17" x="819" y="891" width="108" height="27"/><rect class="cls-12" x="927" y="891" width="108" height="27"/><rect class="cls-17" x="1035" y="891" width="108" height="27"/><rect class="cls-12" x="1143" y="891" width="108" height="27"/><rect class="cls-12" x="1359" y="891" width="108" height="27"/><rect class="cls-12" x="1575" y="891" width="18" height="27"/><rect class="cls-17" x="1467" y="891" width="108" height="27"/><rect class="cls-17" x="1251" y="891" width="108" height="27"/><rect class="cls-12" x="279" y="972" width="108" height="27"/><rect class="cls-17" x="387" y="972" width="108" height="27"/><rect class="cls-17" x="207" y="972" width="72" height="27"/><rect class="cls-12" x="495" y="972" width="108" height="27"/><rect class="cls-17" x="603" y="972" width="108" height="27"/><rect class="cls-12" x="711" y="972" width="108" height="27"/><rect class="cls-17" x="819" y="972" width="108" height="27"/><rect class="cls-12" x="927" y="972" width="108" height="27"/><rect class="cls-17" x="1035" y="972" width="108" height="27"/><rect class="cls-12" x="1143" y="972" width="108" height="27"/><rect class="cls-12" x="1359" y="972" width="108" height="27"/><rect class="cls-12" x="1575" y="972" width="18" height="27"/><rect class="cls-17" x="1467" y="972" width="108" height="27"/><rect class="cls-17" x="1251" y="972" width="108" height="27"/></g></g><g id="shelf"><rect class="cls-18" x="805.5" y="202.5" width="576" height="801" transform="translate(490.5 1696.5) rotate(-90)"/><path class="cls-12" d="M675,297V963h837V297Zm819,648H693V801h801Zm0-162H693V639h801Zm0-162H693V477h801Zm0-162H693V315h801Z"/><rect class="cls-15" x="1066.5" y="517.5" width="54" height="801" transform="translate(175.5 2011.5) rotate(-90)"/><rect class="cls-15" x="1066.5" y="355.5" width="54" height="801" transform="translate(337.5 1849.5) rotate(-90)"/><rect class="cls-15" x="1066.5" y="193.5" width="54" height="801" transform="translate(499.5 1687.5) rotate(-90)"/><rect class="cls-15" x="1066.5" y="31.5" width="54" height="801" transform="translate(661.5 1525.5) rotate(-90)"/><rect class="cls-15" x="1066.5" y="-148.5" width="54" height="837" transform="translate(823.5 1363.5) rotate(-90)"/></g><g id="Wire"><rect class="cls-13" x="1143" y="297" width="9" height="162"/><rect class="cls-13" x="1017" y="459" width="9" height="162"/><rect class="cls-13" x="1017" y="783" width="9" height="162"/><rect class="cls-13" x="1143" y="945" width="9" height="18"/><rect class="cls-13" x="1143" y="621" width="9" height="162"/><rect class="cls-14" x="1017" y="450" width="126" height="9"/><polygon class="cls-14" points="1152 288 1152 297 882 297 882 243 891 243 891 288 1152 288"/><rect class="cls-14" x="1026" y="612" width="126" height="9"/><rect class="cls-14" x="1017" y="774" width="126" height="9"/><rect class="cls-14" x="1026" y="936" width="126" height="9"/><polygon class="cls-14" points="1593 972 1593 981 1143 981 1143 963 1152 963 1152 972 1593 972"/></g><g id="table"><polygon class="cls-12" points="657 828 657 963 621 963 621 846 450 846 450 963 414 963 414 828 657 828"/><rect class="cls-15" x="414" y="765" width="243" height="63"/><rect class="cls-18" x="459" y="846" width="36" height="90"/><rect class="cls-18" x="576" y="846" width="36" height="90"/></g><g id="pencil"><rect class="cls-19" x="442.65" y="785.41" width="9" height="27" transform="translate(-339.55 330.61) rotate(-30)"/><rect class="cls-20" x="433.65" y="778.82" width="9" height="9" transform="translate(-332.96 324.02) rotate(-30)"/><path class="cls-16" d="M451.65,810h9a0,0,0,0,1,0,0v4.5a4.5,4.5,0,0,1-4.5,4.5h0a4.5,4.5,0,0,1-4.5-4.5V810A0,0,0,0,1,451.65,810Z" transform="translate(-346.14 337.2) rotate(-30)"/></g><g id="paper"><rect class="cls-20" x="549" y="774" width="99" height="45"/><rect class="cls-16" x="558" y="783" width="27" height="9"/><rect class="cls-16" x="612" y="801" width="27" height="9"/><rect class="cls-16" x="612" y="783" width="18" height="9"/><rect class="cls-16" x="585" y="801" width="18" height="9"/><rect class="cls-16" x="558" y="801" width="18" height="9"/><rect class="cls-16" x="594" y="783" width="9" height="9"/></g><g id="BNC"><rect class="cls-21" x="486" y="738" width="9" height="63"/><rect class="cls-21" x="477" y="612" width="9" height="99"/><rect class="cls-21" x="504" y="738" width="9" height="63"/><rect class="cls-21" x="540" y="738" width="9" height="63"/><rect class="cls-22" x="477" y="711" width="99" height="27"/><rect class="cls-21" x="576" y="711" width="9" height="36"/><rect class="cls-16" x="576" y="747" width="9" height="9"/><rect class="cls-16" x="558" y="801" width="9" height="9"/><rect class="cls-16" x="540" y="801" width="9" height="9"/><rect class="cls-16" x="504" y="801" width="9" height="9"/><rect class="cls-16" x="486" y="801" width="9" height="9"/><rect class="cls-22" x="441" y="585" width="54" height="27"/><rect class="cls-21" x="486" y="567" width="9" height="18"/><rect class="cls-21" x="468" y="567" width="9" height="18"/><rect class="cls-21" x="558" y="738" width="9" height="63"/></g><g id="chair"><polygon class="cls-12" points="270 765 270 954 288 954 288 864 378 864 378 954 396 954 396 846 288 846 288 765 270 765"/><rect class="cls-18" x="297" y="864" width="18" height="63" transform="translate(612 1791) rotate(180)"/><rect class="cls-18" x="351" y="864" width="18" height="63"/><rect class="cls-15" x="288" y="801" width="108" height="45" transform="translate(684 1647) rotate(180)"/><rect class="cls-15" x="270" y="720" width="18" height="45" transform="translate(558 1485) rotate(180)"/></g></g><g id="Maket"><g id="Transparent" class="cls-23"><path class="cls-24" d="M207,1V1080H1593V1ZM1548,981H252V126H1548Z"/><g id="_3" data-name="3"><polygon class="cls-25" points="720 54 747 99 729 126 765 99 738 54 720 54"/><polygon class="cls-25" points="459 1053 486 972 486 1017 531 1053 459 1053"/></g><path class="cls-17" d="M1539,126H252V981H1548V126Zm0,846H261V135H1539Z"/></g><g id="Not_transparent" data-name="Not transparent"><rect class="cls-9" x="1593" width="18" height="1079"/><rect class="cls-9" x="189" width="18" height="1079"/><rect class="cls-12" x="171" y="1026" width="1458" height="9"/><rect class="cls-17" x="153" width="1494" height="81"/><rect class="cls-15" x="171" y="1035" width="1458" height="45"/><rect class="cls-16" x="153" y="1071" width="1494" height="9"/></g><g id="Bricks_transparent" data-name="Bricks transparent" class="cls-23"><rect class="cls-8" x="819" y="981" width="171" height="36"/><rect class="cls-15" x="711" y="981" width="99" height="36"/><g id="Side"><rect class="cls-8" x="171" y="855" width="72" height="72"/><rect class="cls-26" x="171" y="846" width="72" height="9"/><rect class="cls-15" x="180" y="405" width="54" height="72"/><rect class="cls-12" x="180" y="396" width="54" height="9"/><rect class="cls-27" x="171" y="135" width="54" height="72"/><rect class="cls-28" x="171" y="126" width="54" height="9"/><rect class="cls-8" x="1557" y="522" width="72" height="72" transform="translate(3186 1116) rotate(180)"/><rect class="cls-26" x="1557" y="513" width="72" height="9"/><rect class="cls-8" x="1557" y="702" width="72" height="72" transform="translate(3186 1476) rotate(180)"/><rect class="cls-26" x="1557" y="693" width="72" height="9"/><rect class="cls-28" x="1530" y="90" width="99" height="9"/><polygon class="cls-27" points="1530 99 1530 126 1548 126 1548 171 1629 171 1629 99 1530 99"/><rect class="cls-12" x="1548" y="180" width="72" height="9"/><rect class="cls-15" x="1548" y="189" width="72" height="72"/><rect class="cls-15" x="1548" y="612" width="72" height="72"/><rect class="cls-12" x="1548" y="603" width="72" height="9"/><rect class="cls-27" x="1548" y="855" width="81" height="72"/><rect class="cls-28" x="1548" y="846" width="81" height="9"/><polygon class="cls-15" points="1548 945 1548 981 1467 981 1467 1017 1620 1017 1620 945 1548 945"/><rect class="cls-12" x="1548" y="936" width="72" height="9"/><polygon class="cls-15" points="252 981 252 945 180 945 180 1017 297 1017 297 981 252 981"/><rect class="cls-12" x="180" y="936" width="72" height="9"/><rect class="cls-8" x="171" y="315" width="81" height="72"/><rect class="cls-26" x="171" y="306" width="81" height="9"/><rect class="cls-15" x="180" y="225" width="72" height="72"/><rect class="cls-12" x="180" y="216" width="72" height="9"/></g></g></g></g></g></g></svg>