<svg xmlns="http://www.w3.org/2000/svg" xmlns:xlink="http://www.w3.org/1999/xlink" viewBox="0 0 1566 1080"><defs><style>.cls-1{fill:#352034;}.cls-2{fill:#70587c;}.cls-3{fill:#594763;}.cls-4{fill:#502f4c;}.cls-18,.cls-22,.cls-5{fill:none;stroke-linejoin:round;}.cls-5{stroke:#502f4c;stroke-linecap:square;}.cls-18,.cls-5{stroke-width:5px;}.cls-6{fill:#110b11;}.cls-7{fill:url(#Новый_образец_градиентной_зал_2);}.cls-8{fill:#07060a;}.cls-9{fill:#372549;}.cls-10{fill:#1e1528;}.cls-11{fill:#1a1423;}.cls-12{fill:#774c60;}.cls-13{fill:#4f3341;}.cls-14{fill:#483a51;}.cls-15{fill:#edf2f4;}.cls-16{fill:#6a040f;}.cls-17{fill:#370617;}.cls-18{stroke:#352034;}.cls-18,.cls-22{stroke-linecap:round;}.cls-19{fill:#302030;}.cls-20{fill:#ea3546;}.cls-21{fill:#fff;}.cls-22{stroke:#fff;stroke-width:12px;}</style><linearGradient id="Новый_образец_градиентной_зал_2" x1="747" y1="1" x2="747" y2="1080" gradientUnits="userSpaceOnUse"><stop offset="0"/><stop offset="0.05" stop-color="#15111f"/><stop offset="0.11" stop-color="#2e2544"/><stop offset="0.18" stop-color="#423663"/><stop offset="0.25" stop-color="#52437b"/><stop offset="0.32" stop-color="#5d4c8c"/><stop offset="0.4" stop-color="#645196"/><stop offset="0.5" stop-color="#665399"/><stop offset="0.6" stop-color="#645196"/><stop offset="0.68" stop-color="#5d4c8c"/><stop offset="0.75" stop-color="#52437b"/><stop offset="0.82" stop-color="#423663"/><stop offset="0.89" stop-color="#2e2544"/><stop offset="0.95" stop-color="#15111f"/><stop offset="1"/></linearGradient></defs><g id="Layer_2" data-name="Layer 2"><g id="Final_outside" data-name="Final outside"><g id="Entrance_-_Outside" data-name="Entrance - Outside"><g id="Air"><rect class="cls-1" x="1458" y="324" width="27" height="36"/><rect class="cls-1" x="1458" y="423" width="27" height="36"/><rect class="cls-2" x="1485" y="288" width="72" height="207"/><rect class="cls-3" x="1485" y="261" width="72" height="27"/><rect class="cls-1" x="1557" y="261" width="9" height="27"/><rect x="1503" y="306" width="54" height="171"/><path class="cls-4" d="M1557,288v18h-63V486h63v9h9V288Zm0,189h-54V315h54Z"/><line class="cls-5" x1="1503.5" y1="476.5" x2="1521.5" y2="458.5"/><line class="cls-5" x1="1502.5" y1="459.5" x2="1520.5" y2="477.5"/><line class="cls-5" x1="1521.5" y1="476.5" x2="1539.5" y2="458.5"/><line class="cls-5" x1="1521.5" y1="458.5" x2="1539.5" y2="476.5"/><line class="cls-5" x1="1539.5" y1="476.5" x2="1557.5" y2="458.5"/><line class="cls-5" x1="1539.5" y1="458.5" x2="1557.5" y2="476.5"/><line class="cls-5" x1="1539.5" y1="458.5" x2="1557.5" y2="440.5"/><line class="cls-5" x1="1539.5" y1="440.5" x2="1557.5" y2="458.5"/><line class="cls-5" x1="1539.5" y1="440.5" x2="1557.5" y2="422.5"/><line class="cls-5" x1="1539.5" y1="422.5" x2="1557.5" y2="440.5"/><line class="cls-5" x1="1539.5" y1="422.5" x2="1557.5" y2="404.5"/><line class="cls-5" x1="1539.5" y1="404.5" x2="1557.5" y2="422.5"/><line class="cls-5" x1="1539.5" y1="404.5" x2="1557.5" y2="386.5"/><line class="cls-5" x1="1539.5" y1="386.5" x2="1557.5" y2="404.5"/><line class="cls-5" x1="1539.5" y1="386.5" x2="1557.5" y2="368.5"/><line class="cls-5" x1="1539.5" y1="368.5" x2="1557.5" y2="386.5"/><line class="cls-5" x1="1539.5" y1="368.5" x2="1557.5" y2="350.5"/><line class="cls-5" x1="1539.5" y1="350.5" x2="1557.5" y2="368.5"/><line class="cls-5" x1="1539.5" y1="350.5" x2="1557.5" y2="332.5"/><line class="cls-5" x1="1539.5" y1="332.5" x2="1557.5" y2="350.5"/><line class="cls-5" x1="1539.5" y1="332.5" x2="1557.5" y2="314.5"/><line class="cls-5" x1="1539.5" y1="314.5" x2="1557.5" y2="332.5"/><line class="cls-5" x1="1520.5" y1="458.5" x2="1538.5" y2="440.5"/><line class="cls-5" x1="1520.5" y1="440.5" x2="1538.5" y2="458.5"/><line class="cls-5" x1="1520.5" y1="440.5" x2="1538.5" y2="422.5"/><line class="cls-5" x1="1520.5" y1="422.5" x2="1538.5" y2="440.5"/><line class="cls-5" x1="1520.5" y1="422.5" x2="1538.5" y2="404.5"/><line class="cls-5" x1="1520.5" y1="404.5" x2="1538.5" y2="422.5"/><line class="cls-5" x1="1520.5" y1="404.5" x2="1538.5" y2="386.5"/><line class="cls-5" x1="1520.5" y1="386.5" x2="1538.5" y2="404.5"/><line class="cls-5" x1="1520.5" y1="386.5" x2="1538.5" y2="368.5"/><line class="cls-5" x1="1520.5" y1="368.5" x2="1538.5" y2="386.5"/><line class="cls-5" x1="1520.5" y1="368.5" x2="1538.5" y2="350.5"/><line class="cls-5" x1="1520.5" y1="350.5" x2="1538.5" y2="368.5"/><line class="cls-5" x1="1520.5" y1="350.5" x2="1538.5" y2="332.5"/><line class="cls-5" x1="1520.5" y1="332.5" x2="1538.5" y2="350.5"/><line class="cls-5" x1="1520.5" y1="332.5" x2="1538.5" y2="314.5"/><line class="cls-5" x1="1520.5" y1="314.5" x2="1538.5" y2="332.5"/><line class="cls-5" x1="1502.5" y1="458.5" x2="1520.5" y2="440.5"/><line class="cls-5" x1="1502.5" y1="440.5" x2="1520.5" y2="458.5"/><line class="cls-5" x1="1502.5" y1="440.5" x2="1520.5" y2="422.5"/><line class="cls-5" x1="1502.5" y1="422.5" x2="1520.5" y2="440.5"/><line class="cls-5" x1="1502.5" y1="422.5" x2="1520.5" y2="404.5"/><line class="cls-5" x1="1502.5" y1="404.5" x2="1520.5" y2="422.5"/><line class="cls-5" x1="1502.5" y1="404.5" x2="1520.5" y2="386.5"/><line class="cls-5" x1="1502.5" y1="386.5" x2="1520.5" y2="404.5"/><line class="cls-5" x1="1502.5" y1="386.5" x2="1520.5" y2="368.5"/><line class="cls-5" x1="1502.5" y1="368.5" x2="1520.5" y2="386.5"/><line class="cls-5" x1="1502.5" y1="368.5" x2="1520.5" y2="350.5"/><line class="cls-5" x1="1502.5" y1="350.5" x2="1520.5" y2="368.5"/><line class="cls-5" x1="1502.5" y1="350.5" x2="1520.5" y2="332.5"/><line class="cls-5" x1="1502.5" y1="332.5" x2="1520.5" y2="350.5"/><line class="cls-5" x1="1502.5" y1="332.5" x2="1520.5" y2="314.5"/><line class="cls-5" x1="1502.5" y1="314.5" x2="1520.5" y2="332.5"/><rect class="cls-6" x="1458" y="315" width="27" height="9"/><rect class="cls-6" x="1458" y="414" width="27" height="9"/></g><g id="level"><g id="wall"><path class="cls-7" d="M54,1V1080H1440V1ZM476.71,900H171V351H476.71Zm846,0H1017V351h305.71Z"/><rect class="cls-3" x="1440" y="1" width="18" height="1079"/><rect class="cls-3" x="36" y="1" width="18" height="1079"/><g id="_1" data-name="1"><polygon class="cls-8" points="1080 72 1152 108 1116 153 1188 216 1134 153 1170 108 1251 126 1242 162 1269 117 1161 90 1143 63 1080 72"/><polygon class="cls-8" points="1170 1044 1197 1017 1179 972 1224 1017 1224 1044 1170 1044"/></g><rect class="cls-9" x="18" y="1035" width="1458" height="45"/><rect class="cls-10" x="18" y="1026" width="1458" height="9"/><rect class="cls-11" width="1494" height="81"/></g><g id="Bricks"><rect class="cls-12" x="27" y="225" width="162" height="72"/><rect class="cls-13" x="27" y="216" width="162" height="9"/><rect class="cls-2" x="1161" y="261" width="153" height="72" transform="translate(2475 594) rotate(180)"/><rect class="cls-14" x="1161" y="252" width="153" height="9" transform="translate(2475 513) rotate(180)"/><rect class="cls-12" x="855" y="261" width="162" height="72"/><rect class="cls-13" x="855" y="252" width="162" height="9"/><rect class="cls-9" x="1323" y="99" width="153" height="72"/><rect class="cls-10" x="1323" y="90" width="153" height="9"/><rect class="cls-12" x="1314" y="945" width="153" height="72"/><rect class="cls-13" x="1314" y="936" width="153" height="9"/><rect class="cls-9" x="18" y="315" width="99" height="72"/><rect class="cls-10" x="18" y="306" width="99" height="9"/><rect class="cls-9" x="18" y="135" width="54" height="72"/><rect class="cls-10" x="18" y="126" width="54" height="9"/><rect class="cls-9" x="1404" y="702" width="72" height="72" transform="translate(2880 1476) rotate(180)"/><rect class="cls-10" x="1404" y="693" width="72" height="9" transform="translate(2880 1395) rotate(180)"/><rect class="cls-9" x="1404" y="522" width="72" height="72" transform="translate(2880 1116) rotate(180)"/><rect class="cls-10" x="1404" y="513" width="72" height="9" transform="translate(2880 1035) rotate(180)"/><rect class="cls-2" x="27" y="405" width="54" height="72"/><rect class="cls-14" x="27" y="396" width="54" height="9"/><rect class="cls-12" x="27" y="945" width="117" height="72"/><rect class="cls-13" x="27" y="936" width="117" height="9"/><rect class="cls-2" x="333" y="945" width="171" height="72"/><rect class="cls-14" x="333" y="936" width="171" height="9"/><rect class="cls-9" x="18" y="855" width="72" height="72"/><rect class="cls-10" x="18" y="846" width="72" height="9"/><rect class="cls-9" x="801" y="171" width="171" height="72" transform="translate(1773 414) rotate(180)"/><rect class="cls-10" x="801" y="162" width="171" height="9" transform="translate(1773 333) rotate(180)"/><rect class="cls-9" x="1026" y="261" width="126" height="72"/><rect class="cls-10" x="1026" y="252" width="126" height="9"/><rect class="cls-2" x="981" y="171" width="99" height="72"/><rect class="cls-14" x="981" y="162" width="99" height="9"/><rect class="cls-2" x="1035" y="945" width="99" height="72"/><rect class="cls-14" x="1035" y="936" width="99" height="9"/><rect class="cls-2" x="1377" y="612" width="90" height="72" transform="translate(2844 1296) rotate(180)"/><rect class="cls-14" x="1377" y="603" width="90" height="9" transform="translate(2844 1215) rotate(180)"/><rect class="cls-12" x="1368" y="189" width="99" height="72"/><rect class="cls-13" x="1368" y="180" width="99" height="9"/><rect class="cls-9" x="1377" y="855" width="99" height="72"/><rect class="cls-10" x="1377" y="846" width="99" height="9"/></g></g><g id="Door"><rect class="cls-15" x="567" y="387" width="360" height="648"/><rect class="cls-10" x="549" y="351" width="396" height="18.89" transform="translate(1494 720.89) rotate(180)"/><path class="cls-9" d="M945,387V369.94H549v18h0V1035h18V982h54.13v35h18V982h216v35h18V982H927v-18H873.21V720.89H927v-19H873.21V460H927v-18H873.2V388h53.94V1035h18V387ZM639.18,388h216v54h-216Zm0,72h216V701.89h-216Zm-72.13-72h54.13v54H567.05Zm0,72h54.13V701.89H567.05Zm0,504V720.89h54.13V963.94Zm72.14,0V720.89h216V963.94Z"/><rect class="cls-2" x="477" y="1053" width="540" height="27" transform="translate(1494 2133) rotate(180)"/><rect class="cls-3" x="522" y="1017" width="450" height="36" transform="translate(1494 2070) rotate(180)"/><rect class="cls-9" x="522" y="1008" width="450" height="9" transform="translate(1494.01 2025) rotate(180)"/><rect class="cls-14" x="477" y="1044" width="540" height="9" transform="matrix(-1, 0, 0, -1, 1494, 2097)"/></g><g id="Window"><rect class="cls-10" x="1017" y="351" width="306" height="18"/><rect class="cls-10" x="1035" y="837" width="270" height="18"/><rect class="cls-16" x="1035" y="423" width="270" height="36"/><rect class="cls-17" x="1035" y="459" width="270" height="36"/><path class="cls-9" d="M1305,369H1017V900h306V369Zm0,486H1035V531h270Zm0-360H1035V423h270Z"/><rect class="cls-10" x="1035" y="486" width="270" height="9"/></g><g id="Window-2" data-name="Window"><rect class="cls-10" x="171" y="351" width="306" height="18"/><rect class="cls-10" x="189" y="837" width="270" height="18"/><rect class="cls-17" x="189" y="567" width="270" height="36"/><rect class="cls-16" x="189" y="531" width="270" height="36"/><rect class="cls-17" x="189" y="495" width="270" height="36"/><rect class="cls-16" x="189" y="459" width="270" height="36"/><rect class="cls-17" x="189" y="423" width="270" height="36"/><path class="cls-9" d="M459,369H171V900H477V369Zm0,486H189V639H459Zm0-252H189V423H459Z"/><rect class="cls-10" x="189" y="594" width="270" height="9"/></g><g id="Banner"><rect class="cls-6" x="252.05" y="81" width="8.95" height="45"/><rect class="cls-6" x="279.05" y="81" width="8.95" height="45"/><line class="cls-18" x1="270.5" y1="127.5" x2="288.5" y2="107.5"/><line class="cls-18" x1="270.5" y1="107.5" x2="288.5" y2="127.5"/><line class="cls-18" x1="270.5" y1="109.5" x2="288.5" y2="89.5"/><line class="cls-18" x1="270.5" y1="89.5" x2="288.5" y2="109.5"/><rect class="cls-1" x="261.05" y="81" width="9" height="45"/><rect class="cls-1" x="288.05" y="81" width="9" height="45"/><rect class="cls-6" x="765.11" y="81" width="9" height="45"/><rect class="cls-6" x="792.05" y="81" width="9" height="45"/><line class="cls-18" x1="765.5" y1="89.5" x2="782.5" y2="109.5"/><line class="cls-18" x1="765.5" y1="107.5" x2="783.5" y2="127.5"/><line class="cls-18" x1="765.5" y1="127.5" x2="783.5" y2="107.5"/><line class="cls-18" x1="765.5" y1="109.5" x2="783.5" y2="89.5"/><rect class="cls-1" x="783.11" y="81" width="9" height="45"/><rect class="cls-1" x="756.11" y="81" width="9" height="45"/><rect class="cls-19" x="198" y="126" width="9" height="216"/><rect class="cls-19" x="837" y="126" width="9" height="216"/><path class="cls-4" d="M837,135v-9H207v9h0V333h0v9H837v-9h0V135ZM819,333H225V135H819Z"/><rect class="cls-20" x="225" y="135" width="594" height="198" transform="translate(1044 468) rotate(180)"/><path class="cls-21" d="M486.52,189.53v6.88a6.88,6.88,0,0,1-6.88,6.88h0a6.89,6.89,0,0,1-6.89-6.88v-6.88H348.87v6.88a6.88,6.88,0,0,1-6.88,6.88h0a6.88,6.88,0,0,1-6.88-6.88v-6.88H335a13.77,13.77,0,0,1,13.76-13.77h55.17v-6.88a6.88,6.88,0,0,1,6.88-6.88h0a6.89,6.89,0,0,1,6.89,6.88v6.88h54.95a13.77,13.77,0,0,1,13.76,13.77h.11Z"/><rect class="cls-21" x="431.22" y="274.63" width="32.76" height="14.93" rx="4.88" transform="translate(564.63 798.06) rotate(-135)"/><path class="cls-21" d="M481.91,299.65H417.68v-41.3h36.7a4.49,4.49,0,0,0,4.5-4.5v-4.76a4.49,4.49,0,0,0-4.5-4.5h-36.7V217.06h36.7a4.5,4.5,0,0,0,4.5-4.5v-4.77a4.5,4.5,0,0,0-4.5-4.5H367a4.5,4.5,0,0,0-4.5,4.5v4.77a4.5,4.5,0,0,0,4.5,4.5h36.88v27.53H367a4.49,4.49,0,0,0-4.5,4.5v4.76a4.49,4.49,0,0,0,4.5,4.5h36.88v41.3H339.5a4.5,4.5,0,0,0-4.5,4.5v4.76a4.5,4.5,0,0,0,4.5,4.5H481.91a4.49,4.49,0,0,0,4.5-4.5v-4.76A4.49,4.49,0,0,0,481.91,299.65Z"/><rect class="cls-21" x="646.81" y="276.63" width="32.76" height="14.93" rx="4.88" transform="translate(1333.01 16.04) rotate(135)"/><rect class="cls-21" x="571.87" y="276.63" width="32.76" height="14.93" rx="4.88" transform="translate(373.18 -332.74) rotate(45)"/><path class="cls-21" d="M697.5,260.35a4.49,4.49,0,0,0,4.5-4.5v-4.76a4.49,4.49,0,0,0-4.5-4.5H633.26V219.06H656.2a4.51,4.51,0,0,0,4.51-4.5v-4.77a4.51,4.51,0,0,0-4.51-4.5H596.38a4.51,4.51,0,0,0-4.5,4.5v4.77a4.51,4.51,0,0,0,4.5,4.5H619.5v27.53H555.09a4.49,4.49,0,0,0-4.5,4.5v4.76a4.49,4.49,0,0,0,4.5,4.5H619.5v41.3H555.09a4.49,4.49,0,0,0-4.5,4.5v4.76a4.49,4.49,0,0,0,4.5,4.5H697.5a4.49,4.49,0,0,0,4.5-4.5v-4.76a4.49,4.49,0,0,0-4.5-4.5H633.26v-41.3Z"/><path class="cls-22" d="M630.5,153.5l-27,26c-1.57,1.69-21.4,22.33-46,17"/><path class="cls-22" d="M629.5,161.5l17,18c1.57,1.69,21.4,22.33,46,17"/></g></g></g></g></svg>