<svg xmlns="http://www.w3.org/2000/svg" xmlns:xlink="http://www.w3.org/1999/xlink" viewBox="0 0 1719 1080"><defs><style>.cls-1{fill:#110b11;}.cls-2{fill:#352034;}.cls-10,.cls-3,.cls-5{fill:none;stroke-width:5px;}.cls-3,.cls-5{stroke:#352034;}.cls-3{stroke-miterlimit:10;}.cls-4{fill:#302030;}.cls-5{stroke-linecap:round;}.cls-10,.cls-5{stroke-linejoin:round;}.cls-6{fill:#502f4c;}.cls-7{fill:#43bccd;}.cls-8{fill:#70587c;}.cls-9{fill:#594763;}.cls-10{stroke:#502f4c;stroke-linecap:square;}.cls-11{fill:url(#Безымянный_градиент_50);}.cls-12{fill:#1e1528;}.cls-13{fill:#00296b;}.cls-14{fill:#00509d;}.cls-15{fill:#372549;}.cls-16{fill:#07060a;}.cls-17{fill:#1a1423;}.cls-18{fill:#efdce5;}.cls-19{fill:#ada6aa;}.cls-20{fill:#120d19;}.cls-21{fill:#1b4332;}.cls-22{fill:#2d6a4f;}.cls-23{fill:#370617;}.cls-24{fill:#6a040f;}.cls-25{fill:#6d3925;}.cls-26{fill:#f86624;}.cls-27{fill:#9a37a0;}.cls-28{fill:#361b42;}.cls-29{fill:#9f86c0;}.cls-30{opacity:0.25;}.cls-31{fill:url(#Новый_образец_градиентной_зал_2);}.cls-32{fill:#03071e;}.cls-33{fill:#483a51;}.cls-34{fill:#774c60;}.cls-35{fill:#4f3341;}</style><linearGradient id="Безымянный_градиент_50" x1="900" y1="864" x2="900" y2="81" gradientUnits="userSpaceOnUse"><stop offset="0"/><stop offset="0.05" stop-color="#0b080f"/><stop offset="0.12" stop-color="#140f1a"/><stop offset="0.22" stop-color="#191321"/><stop offset="0.5" stop-color="#1a1423"/><stop offset="0.78" stop-color="#191321"/><stop offset="0.88" stop-color="#140f1a"/><stop offset="0.95" stop-color="#0b080f"/><stop offset="1"/></linearGradient><linearGradient id="Новый_образец_градиентной_зал_2" x1="900" y1="1" x2="900" y2="1080" gradientUnits="userSpaceOnUse"><stop offset="0"/><stop offset="0.05" stop-color="#15111f"/><stop offset="0.11" stop-color="#2e2544"/><stop offset="0.18" stop-color="#423663"/><stop offset="0.25" stop-color="#52437b"/><stop offset="0.32" stop-color="#5d4c8c"/><stop offset="0.4" stop-color="#645196"/><stop offset="0.5" stop-color="#665399"/><stop offset="0.6" stop-color="#645196"/><stop offset="0.68" stop-color="#5d4c8c"/><stop offset="0.75" stop-color="#52437b"/><stop offset="0.82" stop-color="#423663"/><stop offset="0.89" stop-color="#2e2544"/><stop offset="0.95" stop-color="#15111f"/><stop offset="1"/></linearGradient></defs><g id="Layer_2" data-name="Layer 2"><g id="Final_Inside" data-name="Final Inside"><g id="_1-_FAQ_-_Inside" data-name="1- FAQ - Inside"><g id="Side_billboard" data-name="Side billboard"><g id="top"><rect class="cls-1" x="162" y="432" width="81" height="9"/><rect class="cls-1" x="162" y="396" width="90" height="9"/><polygon class="cls-2" points="243 405 243 405 162 405 162 414 243 414 243 441 162 441 162 450 243 450 243 450 252 450 252 405 243 405"/><line class="cls-3" x1="243" y1="441" x2="216" y2="414"/><line class="cls-3" x1="243" y1="414" x2="216" y2="441"/><line class="cls-3" x1="216" y1="441" x2="189" y2="414"/><line class="cls-3" x1="216" y1="414" x2="189" y2="441"/><line class="cls-3" x1="189" y1="441" x2="162" y2="414"/><line class="cls-3" x1="189" y1="414" x2="162" y2="441"/></g><g id="bot"><rect class="cls-1" x="162" y="630" width="81" height="9"/><rect class="cls-1" x="162" y="594" width="90" height="9"/><polygon class="cls-2" points="243 603 243 603 162 603 162 612 243 612 243 639 162 639 162 648 243 648 243 648 252 648 252 603 243 603"/><line class="cls-3" x1="243" y1="639" x2="216" y2="612"/><line class="cls-3" x1="243" y1="612" x2="216" y2="639"/><line class="cls-3" x1="216" y1="639" x2="189" y2="612"/><line class="cls-3" x1="216" y1="612" x2="189" y2="639"/><line class="cls-3" x1="189" y1="639" x2="162" y2="612"/><line class="cls-3" x1="189" y1="612" x2="162" y2="639"/></g><rect class="cls-1" x="126" y="216" width="36" height="9"/><rect class="cls-1" x="135" y="837" width="18" height="9"/><rect class="cls-4" y="216" width="126" height="9"/><line class="cls-5" x1="134.5" y1="432.5" x2="152.5" y2="414.5"/><line class="cls-5" x1="134.5" y1="414.5" x2="152.5" y2="432.5"/><line class="cls-5" x1="134.5" y1="450.5" x2="152.5" y2="432.5"/><line class="cls-5" x1="134.5" y1="432.5" x2="152.5" y2="450.5"/><line class="cls-5" x1="134.5" y1="468.5" x2="152.5" y2="450.5"/><line class="cls-5" x1="134.5" y1="450.5" x2="152.5" y2="468.5"/><line class="cls-5" x1="134.5" y1="486.5" x2="152.5" y2="468.5"/><line class="cls-5" x1="134.5" y1="468.5" x2="152.5" y2="486.5"/><line class="cls-5" x1="134.5" y1="504.5" x2="152.5" y2="486.5"/><line class="cls-5" x1="134.5" y1="486.5" x2="152.5" y2="504.5"/><line class="cls-5" x1="134.5" y1="522.5" x2="152.5" y2="504.5"/><line class="cls-5" x1="134.5" y1="504.5" x2="152.5" y2="522.5"/><line class="cls-5" x1="134.5" y1="323.5" x2="152.5" y2="305.5"/><line class="cls-5" x1="134.5" y1="305.5" x2="152.5" y2="323.5"/><line class="cls-5" x1="134.5" y1="341.5" x2="152.5" y2="323.5"/><line class="cls-5" x1="134.5" y1="323.5" x2="152.5" y2="341.5"/><line class="cls-5" x1="134.5" y1="359.5" x2="152.5" y2="341.5"/><line class="cls-5" x1="134.5" y1="341.5" x2="152.5" y2="359.5"/><line class="cls-5" x1="134.5" y1="377.5" x2="152.5" y2="359.5"/><line class="cls-5" x1="134.5" y1="359.5" x2="152.5" y2="377.5"/><line class="cls-5" x1="135.5" y1="269.5" x2="153.5" y2="251.5"/><line class="cls-5" x1="135.5" y1="251.5" x2="153.5" y2="269.5"/><line class="cls-5" x1="135.5" y1="287.5" x2="153.5" y2="269.5"/><line class="cls-5" x1="135.5" y1="269.5" x2="153.5" y2="287.5"/><line class="cls-5" x1="135.5" y1="305.5" x2="153.5" y2="287.5"/><line class="cls-5" x1="135.5" y1="287.5" x2="153.5" y2="305.5"/><line class="cls-5" x1="134.5" y1="395.5" x2="152.5" y2="377.5"/><line class="cls-5" x1="134.5" y1="377.5" x2="152.5" y2="395.5"/><line class="cls-5" x1="134.5" y1="413.5" x2="152.5" y2="395.5"/><line class="cls-5" x1="134.5" y1="395.5" x2="152.5" y2="413.5"/><line class="cls-5" x1="134.5" y1="540.5" x2="152.5" y2="522.5"/><line class="cls-5" x1="134.5" y1="522.5" x2="152.5" y2="540.5"/><line class="cls-5" x1="134.5" y1="558.5" x2="152.5" y2="540.5"/><line class="cls-5" x1="134.5" y1="540.5" x2="152.5" y2="558.5"/><line class="cls-5" x1="134.5" y1="576.5" x2="152.5" y2="558.5"/><line class="cls-5" x1="134.5" y1="558.5" x2="152.5" y2="576.5"/><line class="cls-5" x1="134.5" y1="594.5" x2="152.5" y2="576.5"/><line class="cls-5" x1="134.5" y1="576.5" x2="152.5" y2="594.5"/><line class="cls-5" x1="134.5" y1="612.5" x2="152.5" y2="594.5"/><line class="cls-5" x1="134.5" y1="594.5" x2="152.5" y2="612.5"/><line class="cls-5" x1="134.5" y1="630.5" x2="152.5" y2="612.5"/><line class="cls-5" x1="134.5" y1="612.5" x2="152.5" y2="630.5"/><line class="cls-5" x1="134.5" y1="648.5" x2="152.5" y2="630.5"/><line class="cls-5" x1="134.5" y1="630.5" x2="152.5" y2="648.5"/><line class="cls-5" x1="134.5" y1="666.5" x2="152.5" y2="648.5"/><line class="cls-5" x1="134.5" y1="648.5" x2="152.5" y2="666.5"/><line class="cls-5" x1="134.5" y1="684.5" x2="152.5" y2="666.5"/><line class="cls-5" x1="134.5" y1="666.5" x2="152.5" y2="684.5"/><line class="cls-5" x1="134.5" y1="702.5" x2="152.5" y2="684.5"/><line class="cls-5" x1="134.5" y1="684.5" x2="152.5" y2="702.5"/><line class="cls-5" x1="134.5" y1="720.5" x2="152.5" y2="702.5"/><line class="cls-5" x1="134.5" y1="702.5" x2="152.5" y2="720.5"/><line class="cls-5" x1="134.5" y1="738.5" x2="152.5" y2="720.5"/><line class="cls-5" x1="134.5" y1="720.5" x2="152.5" y2="738.5"/><line class="cls-5" x1="134.5" y1="756.5" x2="152.5" y2="738.5"/><line class="cls-5" x1="134.5" y1="738.5" x2="152.5" y2="756.5"/><line class="cls-5" x1="134.5" y1="774.5" x2="152.5" y2="756.5"/><line class="cls-5" x1="134.5" y1="756.5" x2="152.5" y2="774.5"/><line class="cls-5" x1="134.5" y1="792.5" x2="152.5" y2="774.5"/><line class="cls-5" x1="134.5" y1="774.5" x2="152.5" y2="792.5"/><line class="cls-5" x1="134.5" y1="810.5" x2="152.5" y2="792.5"/><line class="cls-5" x1="134.5" y1="792.5" x2="152.5" y2="810.5"/><line class="cls-5" x1="134.5" y1="828.5" x2="152.5" y2="810.5"/><line class="cls-5" x1="134.5" y1="810.5" x2="152.5" y2="828.5"/><path class="cls-6" d="M0,225V855H126V225ZM117,846H9V234H117Z"/><path class="cls-2" d="M126,225v9h.07V846H126v9h36V225Zm27,621H135.07V234H153Z"/><rect class="cls-7" x="9" y="234" width="108" height="612" transform="translate(126 1080) rotate(180)"/></g><g id="Air"><rect class="cls-2" x="1611" y="405" width="27" height="36"/><rect class="cls-2" x="1611" y="504" width="27" height="36"/><rect class="cls-8" x="1638" y="369" width="72" height="207"/><rect class="cls-9" x="1638" y="342" width="72" height="27"/><rect class="cls-2" x="1710" y="342" width="9" height="27"/><rect x="1656" y="387" width="54" height="171"/><path class="cls-6" d="M1710,369v18h-63V567h63v9h9V369Zm0,189h-54V396h54Z"/><line class="cls-10" x1="1656.5" y1="557.5" x2="1674.5" y2="539.5"/><line class="cls-10" x1="1655.5" y1="540.5" x2="1673.5" y2="558.5"/><line class="cls-10" x1="1674.5" y1="557.5" x2="1692.5" y2="539.5"/><line class="cls-10" x1="1674.5" y1="539.5" x2="1692.5" y2="557.5"/><line class="cls-10" x1="1692.5" y1="557.5" x2="1710.5" y2="539.5"/><line class="cls-10" x1="1692.5" y1="539.5" x2="1710.5" y2="557.5"/><line class="cls-10" x1="1692.5" y1="539.5" x2="1710.5" y2="521.5"/><line class="cls-10" x1="1692.5" y1="521.5" x2="1710.5" y2="539.5"/><line class="cls-10" x1="1692.5" y1="521.5" x2="1710.5" y2="503.5"/><line class="cls-10" x1="1692.5" y1="503.5" x2="1710.5" y2="521.5"/><line class="cls-10" x1="1692.5" y1="503.5" x2="1710.5" y2="485.5"/><line class="cls-10" x1="1692.5" y1="485.5" x2="1710.5" y2="503.5"/><line class="cls-10" x1="1692.5" y1="485.5" x2="1710.5" y2="467.5"/><line class="cls-10" x1="1692.5" y1="467.5" x2="1710.5" y2="485.5"/><line class="cls-10" x1="1692.5" y1="467.5" x2="1710.5" y2="449.5"/><line class="cls-10" x1="1692.5" y1="449.5" x2="1710.5" y2="467.5"/><line class="cls-10" x1="1692.5" y1="449.5" x2="1710.5" y2="431.5"/><line class="cls-10" x1="1692.5" y1="431.5" x2="1710.5" y2="449.5"/><line class="cls-10" x1="1692.5" y1="431.5" x2="1710.5" y2="413.5"/><line class="cls-10" x1="1692.5" y1="413.5" x2="1710.5" y2="431.5"/><line class="cls-10" x1="1692.5" y1="413.5" x2="1710.5" y2="395.5"/><line class="cls-10" x1="1692.5" y1="395.5" x2="1710.5" y2="413.5"/><line class="cls-10" x1="1673.5" y1="539.5" x2="1691.5" y2="521.5"/><line class="cls-10" x1="1673.5" y1="521.5" x2="1691.5" y2="539.5"/><line class="cls-10" x1="1673.5" y1="521.5" x2="1691.5" y2="503.5"/><line class="cls-10" x1="1673.5" y1="503.5" x2="1691.5" y2="521.5"/><line class="cls-10" x1="1673.5" y1="503.5" x2="1691.5" y2="485.5"/><line class="cls-10" x1="1673.5" y1="485.5" x2="1691.5" y2="503.5"/><line class="cls-10" x1="1673.5" y1="485.5" x2="1691.5" y2="467.5"/><line class="cls-10" x1="1673.5" y1="467.5" x2="1691.5" y2="485.5"/><line class="cls-10" x1="1673.5" y1="467.5" x2="1691.5" y2="449.5"/><line class="cls-10" x1="1673.5" y1="449.5" x2="1691.5" y2="467.5"/><line class="cls-10" x1="1673.5" y1="449.5" x2="1691.5" y2="431.5"/><line class="cls-10" x1="1673.5" y1="431.5" x2="1691.5" y2="449.5"/><line class="cls-10" x1="1673.5" y1="431.5" x2="1691.5" y2="413.5"/><line class="cls-10" x1="1673.5" y1="413.5" x2="1691.5" y2="431.5"/><line class="cls-10" x1="1673.5" y1="413.5" x2="1691.5" y2="395.5"/><line class="cls-10" x1="1673.5" y1="395.5" x2="1691.5" y2="413.5"/><line class="cls-10" x1="1655.5" y1="539.5" x2="1673.5" y2="521.5"/><line class="cls-10" x1="1655.5" y1="521.5" x2="1673.5" y2="539.5"/><line class="cls-10" x1="1655.5" y1="521.5" x2="1673.5" y2="503.5"/><line class="cls-10" x1="1655.5" y1="503.5" x2="1673.5" y2="521.5"/><line class="cls-10" x1="1655.5" y1="503.5" x2="1673.5" y2="485.5"/><line class="cls-10" x1="1655.5" y1="485.5" x2="1673.5" y2="503.5"/><line class="cls-10" x1="1655.5" y1="485.5" x2="1673.5" y2="467.5"/><line class="cls-10" x1="1655.5" y1="467.5" x2="1673.5" y2="485.5"/><line class="cls-10" x1="1655.5" y1="467.5" x2="1673.5" y2="449.5"/><line class="cls-10" x1="1655.5" y1="449.5" x2="1673.5" y2="467.5"/><line class="cls-10" x1="1655.5" y1="449.5" x2="1673.5" y2="431.5"/><line class="cls-10" x1="1655.5" y1="431.5" x2="1673.5" y2="449.5"/><line class="cls-10" x1="1655.5" y1="431.5" x2="1673.5" y2="413.5"/><line class="cls-10" x1="1655.5" y1="413.5" x2="1673.5" y2="431.5"/><line class="cls-10" x1="1655.5" y1="413.5" x2="1673.5" y2="395.5"/><line class="cls-10" x1="1655.5" y1="395.5" x2="1673.5" y2="413.5"/><rect class="cls-1" x="1611" y="396" width="27" height="9"/><rect class="cls-1" x="1611" y="495" width="27" height="9"/></g><g id="Air-2" data-name="Air"><rect class="cls-2" x="1611" y="657" width="27" height="36"/><rect class="cls-2" x="1611" y="756" width="27" height="36"/><rect class="cls-8" x="1638" y="621" width="72" height="207"/><rect class="cls-9" x="1638" y="594" width="72" height="27"/><rect class="cls-2" x="1710" y="594" width="9" height="27"/><rect x="1656" y="639" width="54" height="171"/><path class="cls-6" d="M1710,621v18h-63V819h63v9h9V621Zm0,189h-54V648h54Z"/><line class="cls-10" x1="1656.5" y1="809.5" x2="1674.5" y2="791.5"/><line class="cls-10" x1="1655.5" y1="792.5" x2="1673.5" y2="810.5"/><line class="cls-10" x1="1674.5" y1="809.5" x2="1692.5" y2="791.5"/><line class="cls-10" x1="1674.5" y1="791.5" x2="1692.5" y2="809.5"/><line class="cls-10" x1="1692.5" y1="809.5" x2="1710.5" y2="791.5"/><line class="cls-10" x1="1692.5" y1="791.5" x2="1710.5" y2="809.5"/><line class="cls-10" x1="1692.5" y1="791.5" x2="1710.5" y2="773.5"/><line class="cls-10" x1="1692.5" y1="773.5" x2="1710.5" y2="791.5"/><line class="cls-10" x1="1692.5" y1="773.5" x2="1710.5" y2="755.5"/><line class="cls-10" x1="1692.5" y1="755.5" x2="1710.5" y2="773.5"/><line class="cls-10" x1="1692.5" y1="755.5" x2="1710.5" y2="737.5"/><line class="cls-10" x1="1692.5" y1="737.5" x2="1710.5" y2="755.5"/><line class="cls-10" x1="1692.5" y1="737.5" x2="1710.5" y2="719.5"/><line class="cls-10" x1="1692.5" y1="719.5" x2="1710.5" y2="737.5"/><line class="cls-10" x1="1692.5" y1="719.5" x2="1710.5" y2="701.5"/><line class="cls-10" x1="1692.5" y1="701.5" x2="1710.5" y2="719.5"/><line class="cls-10" x1="1692.5" y1="701.5" x2="1710.5" y2="683.5"/><line class="cls-10" x1="1692.5" y1="683.5" x2="1710.5" y2="701.5"/><line class="cls-10" x1="1692.5" y1="683.5" x2="1710.5" y2="665.5"/><line class="cls-10" x1="1692.5" y1="665.5" x2="1710.5" y2="683.5"/><line class="cls-10" x1="1692.5" y1="665.5" x2="1710.5" y2="647.5"/><line class="cls-10" x1="1692.5" y1="647.5" x2="1710.5" y2="665.5"/><line class="cls-10" x1="1673.5" y1="791.5" x2="1691.5" y2="773.5"/><line class="cls-10" x1="1673.5" y1="773.5" x2="1691.5" y2="791.5"/><line class="cls-10" x1="1673.5" y1="773.5" x2="1691.5" y2="755.5"/><line class="cls-10" x1="1673.5" y1="755.5" x2="1691.5" y2="773.5"/><line class="cls-10" x1="1673.5" y1="755.5" x2="1691.5" y2="737.5"/><line class="cls-10" x1="1673.5" y1="737.5" x2="1691.5" y2="755.5"/><line class="cls-10" x1="1673.5" y1="737.5" x2="1691.5" y2="719.5"/><line class="cls-10" x1="1673.5" y1="719.5" x2="1691.5" y2="737.5"/><line class="cls-10" x1="1673.5" y1="719.5" x2="1691.5" y2="701.5"/><line class="cls-10" x1="1673.5" y1="701.5" x2="1691.5" y2="719.5"/><line class="cls-10" x1="1673.5" y1="701.5" x2="1691.5" y2="683.5"/><line class="cls-10" x1="1673.5" y1="683.5" x2="1691.5" y2="701.5"/><line class="cls-10" x1="1673.5" y1="683.5" x2="1691.5" y2="665.5"/><line class="cls-10" x1="1673.5" y1="665.5" x2="1691.5" y2="683.5"/><line class="cls-10" x1="1673.5" y1="665.5" x2="1691.5" y2="647.5"/><line class="cls-10" x1="1673.5" y1="647.5" x2="1691.5" y2="665.5"/><line class="cls-10" x1="1655.5" y1="791.5" x2="1673.5" y2="773.5"/><line class="cls-10" x1="1655.5" y1="773.5" x2="1673.5" y2="791.5"/><line class="cls-10" x1="1655.5" y1="773.5" x2="1673.5" y2="755.5"/><line class="cls-10" x1="1655.5" y1="755.5" x2="1673.5" y2="773.5"/><line class="cls-10" x1="1655.5" y1="755.5" x2="1673.5" y2="737.5"/><line class="cls-10" x1="1655.5" y1="737.5" x2="1673.5" y2="755.5"/><line class="cls-10" x1="1655.5" y1="737.5" x2="1673.5" y2="719.5"/><line class="cls-10" x1="1655.5" y1="719.5" x2="1673.5" y2="737.5"/><line class="cls-10" x1="1655.5" y1="719.5" x2="1673.5" y2="701.5"/><line class="cls-10" x1="1655.5" y1="701.5" x2="1673.5" y2="719.5"/><line class="cls-10" x1="1655.5" y1="701.5" x2="1673.5" y2="683.5"/><line class="cls-10" x1="1655.5" y1="683.5" x2="1673.5" y2="701.5"/><line class="cls-10" x1="1655.5" y1="683.5" x2="1673.5" y2="665.5"/><line class="cls-10" x1="1655.5" y1="665.5" x2="1673.5" y2="683.5"/><line class="cls-10" x1="1655.5" y1="665.5" x2="1673.5" y2="647.5"/><line class="cls-10" x1="1655.5" y1="647.5" x2="1673.5" y2="665.5"/><rect class="cls-1" x="1611" y="648" width="27" height="9"/><rect class="cls-1" x="1611" y="747" width="27" height="9"/></g><g id="FAQ_room" data-name="FAQ room"><path id="Wall" class="cls-11" d="M207,81V864H1593V81ZM1475.71,702H1170V153h305.71Z"/><g id="Window"><rect class="cls-12" x="1170" y="153" width="306" height="18"/><rect class="cls-12" x="1188" y="639" width="270" height="18"/><rect class="cls-13" x="1188" y="225" width="270" height="36"/><rect class="cls-14" x="1188" y="261" width="270" height="36"/><rect class="cls-13" x="1188" y="297" width="270" height="36"/><path class="cls-15" d="M1458,171H1170V702h306V171Zm0,486H1188V369h270Zm0-324H1188V225h270Z"/><rect class="cls-12" x="1188" y="324" width="270" height="9"/></g><g id="Floor"><rect class="cls-16" x="207" y="864" width="1386" height="27"/><g id="floor-2" data-name="floor"><rect class="cls-17" x="261" y="945" width="108" height="27"/><rect class="cls-12" x="369" y="945" width="108" height="27"/><rect class="cls-12" x="207" y="945" width="54" height="27"/><rect class="cls-17" x="477" y="945" width="108" height="27"/><rect class="cls-12" x="585" y="945" width="108" height="27"/><rect class="cls-17" x="693" y="945" width="108" height="27"/><rect class="cls-12" x="801" y="945" width="108" height="27"/><rect class="cls-17" x="909" y="945" width="108" height="27"/><rect class="cls-12" x="1017" y="945" width="108" height="27"/><rect class="cls-17" x="1125" y="945" width="108" height="27"/><rect class="cls-12" x="1233" y="945" width="108" height="27"/><rect class="cls-17" x="1341" y="945" width="108" height="27"/><rect class="cls-12" x="1449" y="945" width="108" height="27"/><rect class="cls-17" x="1557" y="945" width="36" height="27"/><rect class="cls-4" x="1404" y="918" width="108" height="27"/><rect class="cls-4" x="324" y="918" width="108" height="27"/><rect class="cls-4" x="207" y="918" width="9" height="27"/><rect class="cls-2" x="432" y="918" width="108" height="27"/><rect class="cls-2" x="216" y="918" width="108" height="27"/><rect class="cls-4" x="540" y="918" width="108" height="27"/><rect class="cls-2" x="648" y="918" width="108" height="27"/><rect class="cls-4" x="756" y="918" width="108" height="27"/><rect class="cls-2" x="864" y="918" width="108" height="27"/><rect class="cls-4" x="972" y="918" width="108" height="27"/><rect class="cls-2" x="1080" y="918" width="108" height="27"/><rect class="cls-4" x="1188" y="918" width="108" height="27"/><rect class="cls-2" x="1296" y="918" width="108" height="27"/><rect class="cls-2" x="1512" y="918" width="81" height="27"/><rect class="cls-4" x="1404" y="999" width="108" height="27"/><rect class="cls-4" x="324" y="999" width="108" height="27"/><rect class="cls-4" x="207" y="999" width="9" height="27"/><rect class="cls-2" x="432" y="999" width="108" height="27"/><rect class="cls-2" x="216" y="999" width="108" height="27"/><rect class="cls-4" x="540" y="999" width="108" height="27"/><rect class="cls-2" x="648" y="999" width="108" height="27"/><rect class="cls-4" x="756" y="999" width="108" height="27"/><rect class="cls-2" x="864" y="999" width="108" height="27"/><rect class="cls-4" x="972" y="999" width="108" height="27"/><rect class="cls-2" x="1080" y="999" width="108" height="27"/><rect class="cls-4" x="1188" y="999" width="108" height="27"/><rect class="cls-2" x="1296" y="999" width="108" height="27"/><rect class="cls-2" x="1512" y="999" width="81" height="27"/><rect class="cls-12" x="279" y="891" width="108" height="27"/><rect class="cls-17" x="387" y="891" width="108" height="27"/><rect class="cls-17" x="207" y="891" width="72" height="27"/><rect class="cls-12" x="495" y="891" width="108" height="27"/><rect class="cls-17" x="603" y="891" width="108" height="27"/><rect class="cls-12" x="711" y="891" width="108" height="27"/><rect class="cls-17" x="819" y="891" width="108" height="27"/><rect class="cls-12" x="927" y="891" width="108" height="27"/><rect class="cls-17" x="1035" y="891" width="108" height="27"/><rect class="cls-12" x="1143" y="891" width="108" height="27"/><rect class="cls-12" x="1359" y="891" width="108" height="27"/><rect class="cls-12" x="1575" y="891" width="18" height="27"/><rect class="cls-17" x="1467" y="891" width="108" height="27"/><rect class="cls-17" x="1251" y="891" width="108" height="27"/><rect class="cls-12" x="279" y="972" width="108" height="27"/><rect class="cls-17" x="387" y="972" width="108" height="27"/><rect class="cls-17" x="207" y="972" width="72" height="27"/><rect class="cls-12" x="495" y="972" width="108" height="27"/><rect class="cls-17" x="603" y="972" width="108" height="27"/><rect class="cls-12" x="711" y="972" width="108" height="27"/><rect class="cls-17" x="819" y="972" width="108" height="27"/><rect class="cls-12" x="927" y="972" width="108" height="27"/><rect class="cls-17" x="1035" y="972" width="108" height="27"/><rect class="cls-12" x="1143" y="972" width="108" height="27"/><rect class="cls-12" x="1359" y="972" width="108" height="27"/><rect class="cls-12" x="1575" y="972" width="18" height="27"/><rect class="cls-17" x="1467" y="972" width="108" height="27"/><rect class="cls-17" x="1251" y="972" width="108" height="27"/></g></g><g id="Whiteboard"><path class="cls-15" d="M297,198V729h818V198ZM711,720H306V207H711Z"/><rect class="cls-18" x="306" y="207" width="800" height="513"/><rect class="cls-12" x="297" y="189" width="818" height="9"/><g id="road"><rect class="cls-12" x="1044" y="216" width="45" height="495"/><rect class="cls-18" x="1062" y="225" width="9" height="27"/><rect class="cls-18" x="1062" y="270" width="9" height="27"/><rect class="cls-18" x="1062" y="315" width="9" height="27"/><rect class="cls-18" x="1062" y="360" width="9" height="27"/><rect class="cls-18" x="1062" y="405" width="9" height="27"/><rect class="cls-18" x="1062" y="450" width="9" height="27"/><rect class="cls-18" x="1062" y="495" width="9" height="27"/><rect class="cls-18" x="1062" y="540" width="9" height="27"/><rect class="cls-18" x="1062" y="585" width="9" height="27"/><rect class="cls-18" x="1062" y="630" width="9" height="27"/><rect class="cls-18" x="1062" y="675" width="9" height="27"/></g><rect class="cls-19" x="315" y="216" width="711" height="63"/><rect class="cls-19" x="315" y="288" width="711" height="63"/><rect class="cls-19" x="315" y="360" width="711" height="63"/><rect class="cls-19" x="315" y="432" width="711" height="63"/><rect class="cls-19" x="315" y="504" width="711" height="63"/><rect class="cls-19" x="315" y="576" width="711" height="63"/></g><g id="chair"><polygon class="cls-12" points="1521 765 1521 954 1503 954 1503 864 1413 864 1413 954 1395 954 1395 846 1503 846 1503 765 1521 765"/><rect class="cls-20" x="1476" y="864" width="18" height="63"/><rect class="cls-20" x="1422" y="864" width="18" height="63" transform="translate(2862 1791) rotate(180)"/><rect class="cls-15" x="1395" y="801" width="108" height="45"/><rect class="cls-15" x="1503" y="720" width="18" height="45"/></g><g id="table"><rect class="cls-20" x="1116" y="846" width="36" height="90"/><rect class="cls-20" x="1296" y="846" width="36" height="90"/><rect class="cls-15" x="1071" y="765" width="306" height="63"/><polygon class="cls-12" points="1071 828 1071 846 1071 954 1107 954 1107 846 1341 846 1341 954 1377 954 1377 846 1377 828 1071 828"/></g><g id="shelf"><rect class="cls-15" x="315" y="900" width="720" height="18"/><rect class="cls-20" x="315" y="819" width="720" height="81"/><rect class="cls-15" x="297" y="783" width="756" height="18"/><path class="cls-12" d="M1035,801H297V936h756V801ZM315,918V819h90v99Zm108,0V819h90v99Zm108,0V819H927v99Zm504,0H945V819h90Z"/></g><g id="papers"><rect class="cls-18" x="837" y="900" width="72" height="9"/><rect class="cls-19" x="837" y="891" width="72" height="9"/><rect class="cls-18" x="837" y="882" width="72" height="9"/><rect class="cls-18" x="837" y="864" width="72" height="9"/><rect class="cls-18" x="837" y="846" width="72" height="9"/><rect class="cls-19" x="837" y="873" width="72" height="9"/><rect class="cls-19" x="837" y="855" width="72" height="9"/></g><g id="papers-2" data-name="papers"><rect class="cls-18" x="630" y="900" width="36" height="9"/><rect class="cls-19" x="630" y="891" width="36" height="9"/><rect class="cls-18" x="630" y="882" width="36" height="9"/><rect class="cls-18" x="630" y="864" width="36" height="9"/><rect class="cls-19" x="630" y="873" width="36" height="9"/></g><g id="green_book" data-name="green book"><rect class="cls-21" x="540" y="828" width="18" height="81"/><rect class="cls-22" x="558" y="828" width="9" height="81"/></g><g id="green_book-2" data-name="green book"><rect class="cls-23" x="711" y="864" width="18" height="72" transform="translate(-180 1620) rotate(-90)"/><rect class="cls-24" x="715.5" y="850.5" width="9" height="72" transform="translate(-166.5 1606.5) rotate(-90)"/></g><g id="green_book-3" data-name="green book"><rect class="cls-21" x="720" y="837" width="18" height="72" transform="translate(-144 1602) rotate(-90)"/><rect class="cls-22" x="724.5" y="823.5" width="9" height="72" transform="translate(-130.5 1588.5) rotate(-90)"/></g><g id="green_book-4" data-name="green book"><rect class="cls-13" x="711" y="810" width="18" height="72" transform="translate(-126 1566) rotate(-90)"/><rect class="cls-14" x="715.5" y="796.5" width="9" height="72" transform="translate(-112.5 1552.5) rotate(-90)"/></g><g id="blue_book" data-name="blue book"><rect class="cls-13" x="567" y="828" width="18" height="81"/><rect class="cls-14" x="585" y="828" width="9" height="81"/></g><g id="red_book" data-name="red book"><rect class="cls-23" x="594" y="828" width="18" height="81"/><rect class="cls-24" x="612" y="828" width="9" height="81"/></g><g id="red_book-2" data-name="red book"><rect class="cls-25" x="801" y="828" width="18" height="81"/><rect class="cls-26" x="819" y="828" width="9" height="81"/></g><rect class="cls-14" x="450" y="882" width="27" height="27"/><rect class="cls-13" x="450" y="873" width="27" height="9"/><rect class="cls-27" x="477" y="855" width="27" height="54"/><rect class="cls-28" x="477" y="846" width="27" height="9"/><rect class="cls-25" x="324" y="837" width="72" height="72" rx="12.03"/><rect class="cls-26" x="324" y="882" width="27" height="9"/><rect class="cls-28" x="324" y="873" width="27" height="9"/><rect class="cls-26" x="378" y="864" width="18" height="9"/><rect class="cls-28" x="378" y="855" width="18" height="9"/><rect class="cls-26" x="378" y="882" width="18" height="9"/><rect class="cls-28" x="378" y="873" width="18" height="9"/><rect class="cls-26" x="342" y="837" width="36" height="9"/><polygon class="cls-28" points="369 900 369 882 360 882 360 900 342 900 342 909 360 909 369 909 378 909 378 900 369 900"/><rect class="cls-26" x="324" y="864" width="45" height="9"/><rect class="cls-28" x="324" y="855" width="45" height="9"/><rect class="cls-13" x="1134" y="684" width="72" height="72" rx="12.03" transform="translate(2340 1440) rotate(180)"/><rect class="cls-22" x="1179" y="702" width="27" height="9" transform="translate(2385 1413) rotate(180)"/><rect class="cls-21" x="1179" y="711" width="27" height="9" transform="translate(2385 1431) rotate(180)"/><rect class="cls-22" x="1134" y="720" width="18" height="9" transform="translate(2286 1449) rotate(180)"/><rect class="cls-21" x="1134" y="729" width="18" height="9" transform="translate(2286 1467) rotate(180)"/><rect class="cls-22" x="1134" y="702" width="18" height="9" transform="translate(2286 1413) rotate(180)"/><rect class="cls-21" x="1134" y="711" width="18" height="9" transform="translate(2286 1431) rotate(180)"/><rect class="cls-14" x="1152" y="747" width="36" height="9" transform="translate(2340 1503) rotate(180)"/><rect class="cls-14" x="1161" y="684" width="9" height="27" transform="translate(2331 1395) rotate(180)"/><rect class="cls-14" x="1170" y="684" width="18" height="9" transform="translate(2358 1377) rotate(180)"/><rect class="cls-14" x="1152" y="684" width="9" height="9" transform="translate(2313 1377) rotate(180)"/><rect class="cls-22" x="1161" y="720" width="45" height="9" transform="translate(2367 1449) rotate(180)"/><rect class="cls-21" x="1161" y="729" width="45" height="9" transform="translate(2367 1467) rotate(180)"/><rect class="cls-25" x="1161" y="756" width="18" height="18" transform="translate(2340 1530) rotate(180)"/><rect class="cls-26" x="1152" y="774" width="36" height="9" transform="translate(2340 1557) rotate(180)"/><g id="robot"><path class="cls-14" d="M975,864h21a12,12,0,0,1,12,12v33a0,0,0,0,1,0,0H963a0,0,0,0,1,0,0V876A12,12,0,0,1,975,864Z"/><path class="cls-13" d="M1008,891h9a0,0,0,0,1,0,0v9a9,9,0,0,1-9,9h0a9,9,0,0,1-9-9v0A9,9,0,0,1,1008,891Z" transform="translate(2016 1800) rotate(180)"/><path class="cls-18" d="M981,900h9a0,0,0,0,1,0,0v4.5a4.5,4.5,0,0,1-4.5,4.5h0a4.5,4.5,0,0,1-4.5-4.5V900A0,0,0,0,1,981,900Z" transform="translate(1971 1809) rotate(180)"/><path class="cls-13" d="M954,891h9a9,9,0,0,1,9,9v0a9,9,0,0,1-9,9h0a9,9,0,0,1-9-9v-9A0,0,0,0,1,954,891Z" transform="translate(1926 1800) rotate(-180)"/><rect class="cls-13" x="972" y="873" width="27" height="18" rx="4.5"/><rect class="cls-26" x="972" y="873" width="9" height="18" rx="4.5"/><rect class="cls-26" x="990" y="873" width="9" height="18" rx="4.5"/><rect class="cls-29" x="999" y="891" width="9" height="9" rx="4.5" transform="translate(2007 1791) rotate(-180)"/><rect class="cls-29" x="963" y="891" width="9" height="9" rx="4.5" transform="translate(1935 1791) rotate(180)"/></g><g id="pencil"><rect class="cls-14" x="1242" y="782.24" width="9" height="27" transform="translate(1928.13 2108.11) rotate(-150)"/><rect class="cls-18" x="1251" y="775.65" width="9" height="9" transform="translate(1952.72 2083.52) rotate(-150)"/><path class="cls-16" d="M1237.5,806.82h0a4.5,4.5,0,0,1,4.5,4.5v4.5a0,0,0,0,1,0,0h-9a0,0,0,0,1,0,0v-4.5A4.5,4.5,0,0,1,1237.5,806.82Z" transform="translate(1903.55 2132.7) rotate(-150)"/></g><g id="pencil-2" data-name="pencil"><rect class="cls-24" x="1100.85" y="782.24" width="9" height="27" transform="translate(2460.48 932.19) rotate(150)"/><rect class="cls-18" x="1091.85" y="775.65" width="9" height="9" transform="translate(2435.9 907.6) rotate(150)"/><path class="cls-16" d="M1114.35,806.82h0a4.5,4.5,0,0,1,4.5,4.5v4.5a0,0,0,0,1,0,0h-9a0,0,0,0,1,0,0v-4.5a4.5,4.5,0,0,1,4.5-4.5Z" transform="translate(2485.07 956.78) rotate(150)"/></g><g id="paper"><rect class="cls-18" x="1278" y="774" width="90" height="45"/><rect class="cls-16" x="1287" y="801" width="18" height="9"/><rect class="cls-16" x="1287" y="783" width="27" height="9"/><rect class="cls-16" x="1314" y="801" width="27" height="9"/><rect class="cls-16" x="1323" y="783" width="36" height="9"/><rect class="cls-16" x="1350" y="801" width="9" height="9"/></g></g><g id="Maket"><g id="Transparent" class="cls-30"><path class="cls-31" d="M207,1V1080H1593V1ZM1548,981H252V126H1548Z"/><g id="_1" data-name="1"><polygon class="cls-32" points="804.6 126 801 117 846 72 810 54 810 81 742.5 126 804.6 126"/><polygon class="cls-32" points="626.4 126 639 117 661.5 126 706.5 126 639 99 612 126 626.4 126"/><polygon class="cls-32" points="486 981 483.75 981 477 1008 531 1044 558 1044 486 999 486 981"/></g><path class="cls-17" d="M1539,126H252V981H1548V126Zm0,846H261V135H1539Z"/></g><g id="Not_transparent" data-name="Not transparent"><rect class="cls-9" x="1593" y="1" width="18" height="1079"/><rect class="cls-9" x="189" y="1" width="18" height="1079"/><rect class="cls-15" x="171" y="1035" width="1458" height="45"/><rect class="cls-16" x="153" y="1071" width="1494" height="9"/><rect class="cls-12" x="171" y="1026" width="1458" height="9"/><rect class="cls-17" x="153" width="1494" height="81"/></g><g id="Bricks_transparent" data-name="Bricks transparent" class="cls-30"><rect class="cls-8" x="1071" y="981" width="99" height="36"/><rect class="cls-15" x="891" y="981" width="171" height="36"/><g id="Side"><rect class="cls-8" x="171" y="135" width="54" height="72"/><rect class="cls-33" x="171" y="126" width="54" height="9"/><rect class="cls-8" x="171" y="675" width="54" height="72"/><rect class="cls-33" x="171" y="666" width="54" height="9"/><rect class="cls-34" x="1575" y="270" width="54" height="72"/><rect class="cls-35" x="1575" y="261" width="54" height="9"/><rect class="cls-34" x="171" y="855" width="72" height="72"/><rect class="cls-35" x="171" y="846" width="72" height="9"/><rect class="cls-33" x="1530" y="90" width="99" height="9"/><polygon class="cls-8" points="1530 99 1530 126 1548 126 1548 162 1629 162 1629 99 1530 99"/><rect class="cls-15" x="1548" y="180" width="72" height="72"/><rect class="cls-12" x="1548" y="171" width="72" height="9"/><rect class="cls-8" x="1548" y="846" width="81" height="72"/><rect class="cls-33" x="1548" y="837" width="81" height="9"/><polygon class="cls-15" points="1548 936 1548 981 1467 981 1467 1008 1620 1008 1620 936 1548 936"/><rect class="cls-12" x="1548" y="927" width="72" height="9"/><polygon class="cls-15" points="252 981 252 945 180 945 180 1017 297 1017 297 981 252 981"/><rect class="cls-12" x="180" y="936" width="72" height="9"/><rect class="cls-15" x="180" y="765" width="72" height="72"/><rect class="cls-12" x="180" y="756" width="72" height="9"/><rect class="cls-34" x="171" y="315" width="81" height="72"/><rect class="cls-35" x="171" y="306" width="81" height="9"/><rect class="cls-15" x="180" y="225" width="72" height="72"/><rect class="cls-12" x="180" y="216" width="72" height="9"/></g></g></g></g></g></g></svg>