<svg xmlns="http://www.w3.org/2000/svg" xmlns:xlink="http://www.w3.org/1999/xlink" viewBox="0 0 1494 1080"><defs><style>.cls-1{fill:url(#Безымянный_градиент_50);}.cls-2{fill:#1e1528;}.cls-3{fill:#00296b;}.cls-4{fill:#00509d;}.cls-5{fill:#372549;}.cls-6{fill:#07060a;}.cls-7{fill:#1a1423;}.cls-8{fill:#302030;}.cls-9{fill:#352034;}.cls-10{fill:#efdce5;}.cls-11{fill:#ada6aa;}.cls-12{fill:#120d19;}.cls-13{fill:#1b4332;}.cls-14{fill:#2d6a4f;}.cls-15{fill:#370617;}.cls-16{fill:#6a040f;}.cls-17{fill:#6d3925;}.cls-18{fill:#f86624;}.cls-19{fill:#9a37a0;}.cls-20{fill:#361b42;}.cls-21{fill:#9f86c0;}.cls-22{opacity:0.25;}.cls-23{fill:url(#Новый_образец_градиентной_зал_2);}.cls-24{fill:#03071e;}.cls-25{fill:#594763;}.cls-26{fill:#70587c;}.cls-27{fill:#483a51;}.cls-28{fill:#774c60;}.cls-29{fill:#4f3341;}</style><linearGradient id="Безымянный_градиент_50" x1="747" y1="864" x2="747" y2="81" gradientUnits="userSpaceOnUse"><stop offset="0"/><stop offset="0.05" stop-color="#0b080f"/><stop offset="0.12" stop-color="#140f1a"/><stop offset="0.22" stop-color="#191321"/><stop offset="0.5" stop-color="#1a1423"/><stop offset="0.78" stop-color="#191321"/><stop offset="0.88" stop-color="#140f1a"/><stop offset="0.95" stop-color="#0b080f"/><stop offset="1"/></linearGradient><linearGradient id="Новый_образец_градиентной_зал_2" x1="747" y1="1" x2="747" y2="1080" gradientUnits="userSpaceOnUse"><stop offset="0"/><stop offset="0.05" stop-color="#15111f"/><stop offset="0.11" stop-color="#2e2544"/><stop offset="0.18" stop-color="#423663"/><stop offset="0.25" stop-color="#52437b"/><stop offset="0.32" stop-color="#5d4c8c"/><stop offset="0.4" stop-color="#645196"/><stop offset="0.5" stop-color="#665399"/><stop offset="0.6" stop-color="#645196"/><stop offset="0.68" stop-color="#5d4c8c"/><stop offset="0.75" stop-color="#52437b"/><stop offset="0.82" stop-color="#423663"/><stop offset="0.89" stop-color="#2e2544"/><stop offset="0.95" stop-color="#15111f"/><stop offset="1"/></linearGradient></defs><g id="Layer_2" data-name="Layer 2"><g id="Final_Inside" data-name="Final Inside"><g id="_1-_FAQ_-_Inside" data-name="1- FAQ - Inside"><g id="FAQ_room" data-name="FAQ room"><path id="Wall" class="cls-1" d="M54,81V864H1440V81ZM1322.71,702H1017V153h305.71Z"/><g id="Window"><rect class="cls-2" x="1017" y="153" width="306" height="18"/><rect class="cls-2" x="1035" y="639" width="270" height="18"/><rect class="cls-3" x="1035" y="225" width="270" height="36"/><rect class="cls-4" x="1035" y="261" width="270" height="36"/><rect class="cls-3" x="1035" y="297" width="270" height="36"/><path class="cls-5" d="M1305,171H1017V702h306V171Zm0,486H1035V369h270Zm0-324H1035V225h270Z"/><rect class="cls-2" x="1035" y="324" width="270" height="9"/></g><g id="Floor"><rect class="cls-6" x="54" y="864" width="1386" height="27"/><g id="floor-2" data-name="floor"><rect class="cls-7" x="108" y="945" width="108" height="27"/><rect class="cls-2" x="216" y="945" width="108" height="27"/><rect class="cls-2" x="54" y="945" width="54" height="27"/><rect class="cls-7" x="324" y="945" width="108" height="27"/><rect class="cls-2" x="432" y="945" width="108" height="27"/><rect class="cls-7" x="540" y="945" width="108" height="27"/><rect class="cls-2" x="648" y="945" width="108" height="27"/><rect class="cls-7" x="756" y="945" width="108" height="27"/><rect class="cls-2" x="864" y="945" width="108" height="27"/><rect class="cls-7" x="972" y="945" width="108" height="27"/><rect class="cls-2" x="1080" y="945" width="108" height="27"/><rect class="cls-7" x="1188" y="945" width="108" height="27"/><rect class="cls-2" x="1296" y="945" width="108" height="27"/><rect class="cls-7" x="1404" y="945" width="36" height="27"/><rect class="cls-8" x="1251" y="918" width="108" height="27"/><rect class="cls-8" x="171" y="918" width="108" height="27"/><rect class="cls-8" x="54" y="918" width="9" height="27"/><rect class="cls-9" x="279" y="918" width="108" height="27"/><rect class="cls-9" x="63" y="918" width="108" height="27"/><rect class="cls-8" x="387" y="918" width="108" height="27"/><rect class="cls-9" x="495" y="918" width="108" height="27"/><rect class="cls-8" x="603" y="918" width="108" height="27"/><rect class="cls-9" x="711" y="918" width="108" height="27"/><rect class="cls-8" x="819" y="918" width="108" height="27"/><rect class="cls-9" x="927" y="918" width="108" height="27"/><rect class="cls-8" x="1035" y="918" width="108" height="27"/><rect class="cls-9" x="1143" y="918" width="108" height="27"/><rect class="cls-9" x="1359" y="918" width="81" height="27"/><rect class="cls-8" x="1251" y="999" width="108" height="27"/><rect class="cls-8" x="171" y="999" width="108" height="27"/><rect class="cls-8" x="54" y="999" width="9" height="27"/><rect class="cls-9" x="279" y="999" width="108" height="27"/><rect class="cls-9" x="63" y="999" width="108" height="27"/><rect class="cls-8" x="387" y="999" width="108" height="27"/><rect class="cls-9" x="495" y="999" width="108" height="27"/><rect class="cls-8" x="603" y="999" width="108" height="27"/><rect class="cls-9" x="711" y="999" width="108" height="27"/><rect class="cls-8" x="819" y="999" width="108" height="27"/><rect class="cls-9" x="927" y="999" width="108" height="27"/><rect class="cls-8" x="1035" y="999" width="108" height="27"/><rect class="cls-9" x="1143" y="999" width="108" height="27"/><rect class="cls-9" x="1359" y="999" width="81" height="27"/><rect class="cls-2" x="126" y="891" width="108" height="27"/><rect class="cls-7" x="234" y="891" width="108" height="27"/><rect class="cls-7" x="54" y="891" width="72" height="27"/><rect class="cls-2" x="342" y="891" width="108" height="27"/><rect class="cls-7" x="450" y="891" width="108" height="27"/><rect class="cls-2" x="558" y="891" width="108" height="27"/><rect class="cls-7" x="666" y="891" width="108" height="27"/><rect class="cls-2" x="774" y="891" width="108" height="27"/><rect class="cls-7" x="882" y="891" width="108" height="27"/><rect class="cls-2" x="990" y="891" width="108" height="27"/><rect class="cls-2" x="1206" y="891" width="108" height="27"/><rect class="cls-2" x="1422" y="891" width="18" height="27"/><rect class="cls-7" x="1314" y="891" width="108" height="27"/><rect class="cls-7" x="1098" y="891" width="108" height="27"/><rect class="cls-2" x="126" y="972" width="108" height="27"/><rect class="cls-7" x="234" y="972" width="108" height="27"/><rect class="cls-7" x="54" y="972" width="72" height="27"/><rect class="cls-2" x="342" y="972" width="108" height="27"/><rect class="cls-7" x="450" y="972" width="108" height="27"/><rect class="cls-2" x="558" y="972" width="108" height="27"/><rect class="cls-7" x="666" y="972" width="108" height="27"/><rect class="cls-2" x="774" y="972" width="108" height="27"/><rect class="cls-7" x="882" y="972" width="108" height="27"/><rect class="cls-2" x="990" y="972" width="108" height="27"/><rect class="cls-2" x="1206" y="972" width="108" height="27"/><rect class="cls-2" x="1422" y="972" width="18" height="27"/><rect class="cls-7" x="1314" y="972" width="108" height="27"/><rect class="cls-7" x="1098" y="972" width="108" height="27"/></g></g><g id="Whiteboard"><path class="cls-5" d="M144,198V729H962V198ZM558,720H153V207H558Z"/><rect class="cls-10" x="153" y="207" width="800" height="513"/><rect class="cls-2" x="144" y="189" width="818" height="9"/><g id="road"><rect class="cls-2" x="891" y="216" width="45" height="495"/><rect class="cls-10" x="909" y="225" width="9" height="27"/><rect class="cls-10" x="909" y="270" width="9" height="27"/><rect class="cls-10" x="909" y="315" width="9" height="27"/><rect class="cls-10" x="909" y="360" width="9" height="27"/><rect class="cls-10" x="909" y="405" width="9" height="27"/><rect class="cls-10" x="909" y="450" width="9" height="27"/><rect class="cls-10" x="909" y="495" width="9" height="27"/><rect class="cls-10" x="909" y="540" width="9" height="27"/><rect class="cls-10" x="909" y="585" width="9" height="27"/><rect class="cls-10" x="909" y="630" width="9" height="27"/><rect class="cls-10" x="909" y="675" width="9" height="27"/></g><rect class="cls-11" x="162" y="216" width="711" height="63"/><rect class="cls-11" x="162" y="288" width="711" height="63"/><rect class="cls-11" x="162" y="360" width="711" height="63"/><rect class="cls-11" x="162" y="432" width="711" height="63"/><rect class="cls-11" x="162" y="504" width="711" height="63"/><rect class="cls-11" x="162" y="576" width="711" height="63"/></g><g id="chair"><polygon class="cls-2" points="1368 765 1368 954 1350 954 1350 864 1260 864 1260 954 1242 954 1242 846 1350 846 1350 765 1368 765"/><rect class="cls-12" x="1323" y="864" width="18" height="63"/><rect class="cls-12" x="1269" y="864" width="18" height="63" transform="translate(2556 1791) rotate(180)"/><rect class="cls-5" x="1242" y="801" width="108" height="45"/><rect class="cls-5" x="1350" y="720" width="18" height="45"/></g><g id="table"><rect class="cls-12" x="963" y="846" width="36" height="90"/><rect class="cls-12" x="1143" y="846" width="36" height="90"/><rect class="cls-5" x="918" y="765" width="306" height="63"/><polygon class="cls-2" points="918 828 918 846 918 954 954 954 954 846 1188 846 1188 954 1224 954 1224 846 1224 828 918 828"/></g><g id="shelf"><rect class="cls-5" x="162" y="900" width="720" height="18"/><rect class="cls-12" x="162" y="819" width="720" height="81"/><rect class="cls-5" x="144" y="783" width="756" height="18"/><path class="cls-2" d="M882,801H144V936H900V801ZM162,918V819h90v99Zm108,0V819h90v99Zm108,0V819H774v99Zm504,0H792V819h90Z"/></g><g id="papers"><rect class="cls-10" x="684" y="900" width="72" height="9"/><rect class="cls-11" x="684" y="891" width="72" height="9"/><rect class="cls-10" x="684" y="882" width="72" height="9"/><rect class="cls-10" x="684" y="864" width="72" height="9"/><rect class="cls-10" x="684" y="846" width="72" height="9"/><rect class="cls-11" x="684" y="873" width="72" height="9"/><rect class="cls-11" x="684" y="855" width="72" height="9"/></g><g id="papers-2" data-name="papers"><rect class="cls-10" x="477" y="900" width="36" height="9"/><rect class="cls-11" x="477" y="891" width="36" height="9"/><rect class="cls-10" x="477" y="882" width="36" height="9"/><rect class="cls-10" x="477" y="864" width="36" height="9"/><rect class="cls-11" x="477" y="873" width="36" height="9"/></g><g id="green_book" data-name="green book"><rect class="cls-13" x="387" y="828" width="18" height="81"/><rect class="cls-14" x="405" y="828" width="9" height="81"/></g><g id="green_book-2" data-name="green book"><rect class="cls-15" x="558" y="864" width="18" height="72" transform="translate(-333 1467) rotate(-90)"/><rect class="cls-16" x="562.5" y="850.5" width="9" height="72" transform="translate(-319.5 1453.5) rotate(-90)"/></g><g id="green_book-3" data-name="green book"><rect class="cls-13" x="567" y="837" width="18" height="72" transform="translate(-297 1449) rotate(-90)"/><rect class="cls-14" x="571.5" y="823.5" width="9" height="72" transform="translate(-283.5 1435.5) rotate(-90)"/></g><g id="green_book-4" data-name="green book"><rect class="cls-3" x="558" y="810" width="18" height="72" transform="translate(-279 1413) rotate(-90)"/><rect class="cls-4" x="562.5" y="796.5" width="9" height="72" transform="translate(-265.5 1399.5) rotate(-90)"/></g><g id="blue_book" data-name="blue book"><rect class="cls-3" x="414" y="828" width="18" height="81"/><rect class="cls-4" x="432" y="828" width="9" height="81"/></g><g id="red_book" data-name="red book"><rect class="cls-15" x="441" y="828" width="18" height="81"/><rect class="cls-16" x="459" y="828" width="9" height="81"/></g><g id="red_book-2" data-name="red book"><rect class="cls-17" x="648" y="828" width="18" height="81"/><rect class="cls-18" x="666" y="828" width="9" height="81"/></g><rect class="cls-4" x="297" y="882" width="27" height="27"/><rect class="cls-3" x="297" y="873" width="27" height="9"/><rect class="cls-19" x="324" y="855" width="27" height="54"/><rect class="cls-20" x="324" y="846" width="27" height="9"/><rect class="cls-17" x="171" y="837" width="72" height="72" rx="12.03"/><rect class="cls-18" x="171" y="882" width="27" height="9"/><rect class="cls-20" x="171" y="873" width="27" height="9"/><rect class="cls-18" x="225" y="864" width="18" height="9"/><rect class="cls-20" x="225" y="855" width="18" height="9"/><rect class="cls-18" x="225" y="882" width="18" height="9"/><rect class="cls-20" x="225" y="873" width="18" height="9"/><rect class="cls-18" x="189" y="837" width="36" height="9"/><polygon class="cls-20" points="216 900 216 882 207 882 207 900 189 900 189 909 207 909 216 909 225 909 225 900 216 900"/><rect class="cls-18" x="171" y="864" width="45" height="9"/><rect class="cls-20" x="171" y="855" width="45" height="9"/><rect class="cls-3" x="981" y="684" width="72" height="72" rx="12.03" transform="translate(2034 1440) rotate(180)"/><rect class="cls-14" x="1026" y="702" width="27" height="9" transform="translate(2079 1413) rotate(180)"/><rect class="cls-13" x="1026" y="711" width="27" height="9" transform="translate(2079 1431) rotate(180)"/><rect class="cls-14" x="981" y="720" width="18" height="9" transform="translate(1980 1449) rotate(180)"/><rect class="cls-13" x="981" y="729" width="18" height="9" transform="translate(1980 1467) rotate(180)"/><rect class="cls-14" x="981" y="702" width="18" height="9" transform="translate(1980 1413) rotate(180)"/><rect class="cls-13" x="981" y="711" width="18" height="9" transform="translate(1980 1431) rotate(180)"/><rect class="cls-4" x="999" y="747" width="36" height="9" transform="translate(2034 1503) rotate(180)"/><rect class="cls-4" x="1008" y="684" width="9" height="27" transform="translate(2025 1395) rotate(180)"/><rect class="cls-4" x="1017" y="684" width="18" height="9" transform="translate(2052 1377) rotate(180)"/><rect class="cls-4" x="999" y="684" width="9" height="9" transform="translate(2007 1377) rotate(180)"/><rect class="cls-14" x="1008" y="720" width="45" height="9" transform="translate(2061 1449) rotate(180)"/><rect class="cls-13" x="1008" y="729" width="45" height="9" transform="translate(2061 1467) rotate(180)"/><rect class="cls-17" x="1008" y="756" width="18" height="18" transform="translate(2034 1530) rotate(180)"/><rect class="cls-18" x="999" y="774" width="36" height="9" transform="translate(2034 1557) rotate(180)"/><g id="robot"><path class="cls-4" d="M822,864h21a12,12,0,0,1,12,12v33a0,0,0,0,1,0,0H810a0,0,0,0,1,0,0V876A12,12,0,0,1,822,864Z"/><path class="cls-3" d="M855,891h9a0,0,0,0,1,0,0v9a9,9,0,0,1-9,9h0a9,9,0,0,1-9-9v0A9,9,0,0,1,855,891Z" transform="translate(1710 1800) rotate(180)"/><path class="cls-10" d="M828,900h9a0,0,0,0,1,0,0v4.5a4.5,4.5,0,0,1-4.5,4.5h0a4.5,4.5,0,0,1-4.5-4.5V900A0,0,0,0,1,828,900Z" transform="translate(1665 1809) rotate(180)"/><path class="cls-3" d="M801,891h9a9,9,0,0,1,9,9v0a9,9,0,0,1-9,9h0a9,9,0,0,1-9-9v-9A0,0,0,0,1,801,891Z" transform="translate(1620 1800) rotate(-180)"/><rect class="cls-3" x="819" y="873" width="27" height="18" rx="4.5"/><rect class="cls-18" x="819" y="873" width="9" height="18" rx="4.5"/><rect class="cls-18" x="837" y="873" width="9" height="18" rx="4.5"/><rect class="cls-21" x="846" y="891" width="9" height="9" rx="4.5" transform="translate(1701 1791) rotate(-180)"/><rect class="cls-21" x="810" y="891" width="9" height="9" rx="4.5" transform="translate(1629 1791) rotate(180)"/></g><g id="pencil"><rect class="cls-4" x="1089" y="782.24" width="9" height="27" transform="translate(1642.63 2031.61) rotate(-150)"/><rect class="cls-10" x="1098" y="775.65" width="9" height="9" transform="translate(1667.22 2007.02) rotate(-150)"/><path class="cls-6" d="M1084.5,806.82h0a4.5,4.5,0,0,1,4.5,4.5v4.5a0,0,0,0,1,0,0h-9a0,0,0,0,1,0,0v-4.5A4.5,4.5,0,0,1,1084.5,806.82Z" transform="translate(1618.05 2056.2) rotate(-150)"/></g><g id="pencil-2" data-name="pencil"><rect class="cls-16" x="947.85" y="782.24" width="9" height="27" transform="translate(2174.98 1008.69) rotate(150)"/><rect class="cls-10" x="938.85" y="775.65" width="9" height="9" transform="translate(2150.39 984.1) rotate(150)"/><path class="cls-6" d="M961.35,806.82h0a4.5,4.5,0,0,1,4.5,4.5v4.5a0,0,0,0,1,0,0h-9a0,0,0,0,1,0,0v-4.5A4.5,4.5,0,0,1,961.35,806.82Z" transform="translate(2199.57 1033.28) rotate(150)"/></g><g id="paper"><rect class="cls-10" x="1125" y="774" width="90" height="45"/><rect class="cls-6" x="1134" y="801" width="18" height="9"/><rect class="cls-6" x="1134" y="783" width="27" height="9"/><rect class="cls-6" x="1161" y="801" width="27" height="9"/><rect class="cls-6" x="1170" y="783" width="36" height="9"/><rect class="cls-6" x="1197" y="801" width="9" height="9"/></g></g><g id="Maket"><g id="Transparent" class="cls-22"><path class="cls-23" d="M54,1V1080H1440V1ZM1395,981H99V126H1395Z"/><g id="_1" data-name="1"><polygon class="cls-24" points="651.6 126 648 117 693 72 657 54 657 81 589.5 126 651.6 126"/><polygon class="cls-24" points="473.4 126 486 117 508.5 126 553.5 126 486 99 459 126 473.4 126"/><polygon class="cls-24" points="333 981 330.75 981 324 1008 378 1044 405 1044 333 999 333 981"/></g><path class="cls-7" d="M1386,126H99V981H1395V126Zm0,846H108V135H1386Z"/></g><g id="Not_transparent" data-name="Not transparent"><rect class="cls-25" x="1440" y="1" width="18" height="1079"/><rect class="cls-25" x="36" y="1" width="18" height="1079"/><rect class="cls-5" x="18" y="1035" width="1458" height="45"/><rect class="cls-6" y="1071" width="1494" height="9"/><rect class="cls-2" x="18" y="1026" width="1458" height="9"/><rect class="cls-7" width="1494" height="81"/></g><g id="Bricks_transparent" data-name="Bricks transparent" class="cls-22"><rect class="cls-26" x="918" y="981" width="99" height="36"/><rect class="cls-5" x="738" y="981" width="171" height="36"/><g id="Side"><rect class="cls-26" x="18" y="135" width="54" height="72"/><rect class="cls-27" x="18" y="126" width="54" height="9"/><rect class="cls-26" x="18" y="675" width="54" height="72"/><rect class="cls-27" x="18" y="666" width="54" height="9"/><rect class="cls-28" x="1422" y="270" width="54" height="72"/><rect class="cls-29" x="1422" y="261" width="54" height="9"/><rect class="cls-28" x="18" y="855" width="72" height="72"/><rect class="cls-29" x="18" y="846" width="72" height="9"/><rect class="cls-27" x="1377" y="90" width="99" height="9"/><polygon class="cls-26" points="1377 99 1377 126 1395 126 1395 162 1476 162 1476 99 1377 99"/><rect class="cls-5" x="1395" y="180" width="72" height="72"/><rect class="cls-2" x="1395" y="171" width="72" height="9"/><rect class="cls-26" x="1395" y="846" width="81" height="72"/><rect class="cls-27" x="1395" y="837" width="81" height="9"/><polygon class="cls-5" points="1395 936 1395 981 1314 981 1314 1008 1467 1008 1467 936 1395 936"/><rect class="cls-2" x="1395" y="927" width="72" height="9"/><polygon class="cls-5" points="99 981 99 945 27 945 27 1017 144 1017 144 981 99 981"/><rect class="cls-2" x="27" y="936" width="72" height="9"/><rect class="cls-5" x="27" y="765" width="72" height="72"/><rect class="cls-2" x="27" y="756" width="72" height="9"/><rect class="cls-28" x="18" y="315" width="81" height="72"/><rect class="cls-29" x="18" y="306" width="81" height="9"/><rect class="cls-5" x="27" y="225" width="72" height="72"/><rect class="cls-2" x="27" y="216" width="72" height="9"/></g></g></g></g></g></g></svg>