<svg xmlns="http://www.w3.org/2000/svg" xmlns:xlink="http://www.w3.org/1999/xlink" viewBox="0 0 1494 1080"><defs><style>.cls-1{fill:url(#Безымянный_градиент_50);}.cls-2{fill:#1e1528;}.cls-3{fill:#5e548e;}.cls-4{fill:#9f86c0;}.cls-5{fill:#372549;}.cls-6{fill:#07060a;}.cls-7{fill:#1a1423;}.cls-8{fill:#302030;}.cls-9{fill:#352034;}.cls-10{fill:#efdce5;}.cls-11{fill:#ada6aa;}.cls-12{fill:#120d19;}.cls-13{fill:#1b4332;}.cls-14{fill:#2d6a4f;}.cls-15{fill:#00296b;}.cls-16{fill:#00509d;}.cls-17{fill:#370617;}.cls-18{fill:#6a040f;}.cls-19{fill:#f86624;}.cls-20{fill:#6d3925;}.cls-21{opacity:0.25;}.cls-22{fill:url(#Новый_образец_градиентной_зал_2);}.cls-23{fill:#03071e;}.cls-24{fill:#594763;}.cls-25{fill:#70587c;}.cls-26{fill:#774c60;}.cls-27{fill:#4f3341;}.cls-28{fill:#483a51;}</style><linearGradient id="Безымянный_градиент_50" x1="747" y1="864" x2="747" y2="81" gradientUnits="userSpaceOnUse"><stop offset="0"/><stop offset="0.05" stop-color="#0b080f"/><stop offset="0.12" stop-color="#140f1a"/><stop offset="0.22" stop-color="#191321"/><stop offset="0.5" stop-color="#1a1423"/><stop offset="0.78" stop-color="#191321"/><stop offset="0.88" stop-color="#140f1a"/><stop offset="0.95" stop-color="#0b080f"/><stop offset="1"/></linearGradient><linearGradient id="Новый_образец_градиентной_зал_2" x1="747" y1="1" x2="747" y2="1080" gradientUnits="userSpaceOnUse"><stop offset="0"/><stop offset="0.05" stop-color="#15111f"/><stop offset="0.11" stop-color="#2e2544"/><stop offset="0.18" stop-color="#423663"/><stop offset="0.25" stop-color="#52437b"/><stop offset="0.32" stop-color="#5d4c8c"/><stop offset="0.4" stop-color="#645196"/><stop offset="0.5" stop-color="#665399"/><stop offset="0.6" stop-color="#645196"/><stop offset="0.68" stop-color="#5d4c8c"/><stop offset="0.75" stop-color="#52437b"/><stop offset="0.82" stop-color="#423663"/><stop offset="0.89" stop-color="#2e2544"/><stop offset="0.95" stop-color="#15111f"/><stop offset="1"/></linearGradient></defs><g id="Layer_2" data-name="Layer 2"><g id="Final_Inside" data-name="Final Inside"><g id="_3_-_Roadmap_-_Inside" data-name="3 - Roadmap - Inside"><g id="Roadmap_room" data-name="Roadmap room"><path id="Wall" class="cls-1" d="M54,81V864H1440V81ZM899.71,702H594V153H899.71Z"/><g id="Window"><rect class="cls-2" x="594" y="153" width="306" height="18"/><rect class="cls-2" x="612" y="639" width="270" height="18"/><rect class="cls-3" x="612" y="225" width="270" height="36"/><rect class="cls-4" x="612" y="261" width="270" height="36"/><rect class="cls-3" x="612" y="297" width="270" height="36"/><path class="cls-5" d="M882,171H594V702H900V171Zm0,486H612V369H882Zm0-324H612V225H882Z"/><rect class="cls-2" x="612" y="324" width="270" height="9"/></g><g id="Floor"><rect class="cls-6" x="54" y="864" width="1386" height="27"/><g id="floor-2" data-name="floor"><rect class="cls-7" x="108" y="945" width="108" height="27"/><rect class="cls-2" x="216" y="945" width="108" height="27"/><rect class="cls-2" x="54" y="945" width="54" height="27"/><rect class="cls-7" x="324" y="945" width="108" height="27"/><rect class="cls-2" x="432" y="945" width="108" height="27"/><rect class="cls-7" x="540" y="945" width="108" height="27"/><rect class="cls-2" x="648" y="945" width="108" height="27"/><rect class="cls-7" x="756" y="945" width="108" height="27"/><rect class="cls-2" x="864" y="945" width="108" height="27"/><rect class="cls-7" x="972" y="945" width="108" height="27"/><rect class="cls-2" x="1080" y="945" width="108" height="27"/><rect class="cls-7" x="1188" y="945" width="108" height="27"/><rect class="cls-2" x="1296" y="945" width="108" height="27"/><rect class="cls-7" x="1404" y="945" width="36" height="27"/><rect class="cls-8" x="1251" y="918" width="108" height="27"/><rect class="cls-8" x="171" y="918" width="108" height="27"/><rect class="cls-8" x="54" y="918" width="9" height="27"/><rect class="cls-9" x="279" y="918" width="108" height="27"/><rect class="cls-9" x="63" y="918" width="108" height="27"/><rect class="cls-8" x="387" y="918" width="108" height="27"/><rect class="cls-9" x="495" y="918" width="108" height="27"/><rect class="cls-8" x="603" y="918" width="108" height="27"/><rect class="cls-9" x="711" y="918" width="108" height="27"/><rect class="cls-8" x="819" y="918" width="108" height="27"/><rect class="cls-9" x="927" y="918" width="108" height="27"/><rect class="cls-8" x="1035" y="918" width="108" height="27"/><rect class="cls-9" x="1143" y="918" width="108" height="27"/><rect class="cls-9" x="1359" y="918" width="81" height="27"/><rect class="cls-8" x="1251" y="999" width="108" height="27"/><rect class="cls-8" x="171" y="999" width="108" height="27"/><rect class="cls-8" x="54" y="999" width="9" height="27"/><rect class="cls-9" x="279" y="999" width="108" height="27"/><rect class="cls-9" x="63" y="999" width="108" height="27"/><rect class="cls-8" x="387" y="999" width="108" height="27"/><rect class="cls-9" x="495" y="999" width="108" height="27"/><rect class="cls-8" x="603" y="999" width="108" height="27"/><rect class="cls-9" x="711" y="999" width="108" height="27"/><rect class="cls-8" x="819" y="999" width="108" height="27"/><rect class="cls-9" x="927" y="999" width="108" height="27"/><rect class="cls-8" x="1035" y="999" width="108" height="27"/><rect class="cls-9" x="1143" y="999" width="108" height="27"/><rect class="cls-9" x="1359" y="999" width="81" height="27"/><rect class="cls-2" x="126" y="891" width="108" height="27"/><rect class="cls-7" x="234" y="891" width="108" height="27"/><rect class="cls-7" x="54" y="891" width="72" height="27"/><rect class="cls-2" x="342" y="891" width="108" height="27"/><rect class="cls-7" x="450" y="891" width="108" height="27"/><rect class="cls-2" x="558" y="891" width="108" height="27"/><rect class="cls-7" x="666" y="891" width="108" height="27"/><rect class="cls-2" x="774" y="891" width="108" height="27"/><rect class="cls-7" x="882" y="891" width="108" height="27"/><rect class="cls-2" x="990" y="891" width="108" height="27"/><rect class="cls-2" x="1206" y="891" width="108" height="27"/><rect class="cls-2" x="1422" y="891" width="18" height="27"/><rect class="cls-7" x="1314" y="891" width="108" height="27"/><rect class="cls-7" x="1098" y="891" width="108" height="27"/><rect class="cls-2" x="126" y="972" width="108" height="27"/><rect class="cls-7" x="234" y="972" width="108" height="27"/><rect class="cls-7" x="54" y="972" width="72" height="27"/><rect class="cls-2" x="342" y="972" width="108" height="27"/><rect class="cls-7" x="450" y="972" width="108" height="27"/><rect class="cls-2" x="558" y="972" width="108" height="27"/><rect class="cls-7" x="666" y="972" width="108" height="27"/><rect class="cls-2" x="774" y="972" width="108" height="27"/><rect class="cls-7" x="882" y="972" width="108" height="27"/><rect class="cls-2" x="990" y="972" width="108" height="27"/><rect class="cls-2" x="1206" y="972" width="108" height="27"/><rect class="cls-2" x="1422" y="972" width="18" height="27"/><rect class="cls-7" x="1314" y="972" width="108" height="27"/><rect class="cls-7" x="1098" y="972" width="108" height="27"/></g></g><g id="Whiteboard"><path class="cls-5" d="M936,189V720h423V189Zm414,522H945V198h405Z"/><rect class="cls-10" x="945" y="198" width="405" height="513"/><rect class="cls-2" x="936" y="180" width="423" height="9"/><rect class="cls-11" x="963" y="207" width="279" height="144"/><rect class="cls-2" x="963" y="207" width="27" height="27"/><rect class="cls-11" x="963" y="360" width="279" height="144"/><rect class="cls-2" x="963" y="360" width="27" height="27"/><rect class="cls-11" x="963" y="513" width="279" height="144"/><rect class="cls-2" x="963" y="513" width="27" height="27"/><g id="road"><rect class="cls-2" x="1260" y="207" width="45" height="495"/><rect class="cls-10" x="1278" y="216" width="9" height="27"/><rect class="cls-10" x="1278" y="261" width="9" height="27"/><rect class="cls-10" x="1278" y="306" width="9" height="27"/><rect class="cls-10" x="1278" y="351" width="9" height="27"/><rect class="cls-10" x="1278" y="396" width="9" height="27"/><rect class="cls-10" x="1278" y="441" width="9" height="27"/><rect class="cls-10" x="1278" y="486" width="9" height="27"/><rect class="cls-10" x="1278" y="531" width="9" height="27"/><rect class="cls-10" x="1278" y="576" width="9" height="27"/><rect class="cls-10" x="1278" y="621" width="9" height="27"/><rect class="cls-10" x="1278" y="666" width="9" height="27"/></g></g><g id="Whiteboard-2" data-name="Whiteboard"><path class="cls-5" d="M135,189V720H558V189ZM549,711H144V198H549Z"/><rect class="cls-10" x="144" y="198" width="405" height="513"/><rect class="cls-2" x="135" y="180" width="423" height="9"/><rect class="cls-11" x="153" y="207" width="162" height="180"/><rect class="cls-2" x="153" y="207" width="27" height="27"/><rect class="cls-11" x="378" y="207" width="162" height="279"/><rect class="cls-2" x="378" y="207" width="27" height="27"/><rect class="cls-11" x="153" y="396" width="162" height="306"/><rect class="cls-2" x="153" y="396" width="27" height="27"/><rect class="cls-11" x="378" y="495" width="162" height="207"/><rect class="cls-2" x="378" y="495" width="27" height="27"/><g id="road-2" data-name="road"><rect class="cls-2" x="324" y="207" width="45" height="495"/><rect class="cls-10" x="342" y="216" width="9" height="27"/><rect class="cls-10" x="342" y="261" width="9" height="27"/><rect class="cls-10" x="342" y="306" width="9" height="27"/><rect class="cls-10" x="342" y="351" width="9" height="27"/><rect class="cls-10" x="342" y="396" width="9" height="27"/><rect class="cls-10" x="342" y="441" width="9" height="27"/><rect class="cls-10" x="342" y="486" width="9" height="27"/><rect class="cls-10" x="342" y="531" width="9" height="27"/><rect class="cls-10" x="342" y="576" width="9" height="27"/><rect class="cls-10" x="342" y="621" width="9" height="27"/><rect class="cls-10" x="342" y="666" width="9" height="27"/></g></g><g id="Shelf"><path class="cls-2" d="M144,756V936H585V756Zm306,18H567v63H450Zm-126,0H432v63H324ZM162,918V774H306V918Zm162,0V855H432v63Zm126,0V855H567v63Z"/><rect class="cls-5" x="162" y="900" width="144" height="18"/><rect class="cls-5" x="324" y="900" width="108" height="18"/><rect class="cls-5" x="324" y="819" width="108" height="18"/><rect class="cls-5" x="144" y="738" width="441" height="18"/><rect class="cls-5" x="450" y="819" width="117" height="18"/><rect class="cls-12" x="324" y="855" width="108" height="45"/><rect class="cls-12" x="450" y="855" width="117" height="45"/><rect class="cls-12" x="450" y="774" width="117" height="45"/><rect class="cls-12" x="324" y="774" width="108" height="45"/><rect class="cls-5" x="450" y="900" width="117" height="18"/><rect class="cls-12" x="162" y="774" width="144" height="126"/><g id="green_book" data-name="green book"><rect class="cls-13" x="171" y="810" width="18" height="99"/><rect class="cls-14" x="189" y="810" width="9" height="99"/></g><g id="green_book-2" data-name="green book"><rect class="cls-3" x="264.5" y="809.36" width="18" height="99" transform="translate(-212.97 100.05) rotate(-15)"/><rect class="cls-4" x="282.04" y="805.86" width="9" height="99" transform="translate(-211.62 103.31) rotate(-15)"/></g><g id="blue_book" data-name="blue book"><rect class="cls-15" x="198" y="810" width="18" height="99"/><rect class="cls-16" x="216" y="810" width="9" height="99"/></g><g id="blue_book-2" data-name="blue book"><rect class="cls-15" x="459" y="783" width="18" height="45"/><rect class="cls-16" x="477" y="783" width="9" height="45"/></g><g id="blue_book-3" data-name="blue book"><rect class="cls-13" x="486" y="783" width="18" height="45"/><rect class="cls-14" x="504" y="783" width="9" height="45"/></g><g id="blue_book-4" data-name="blue book"><rect class="cls-13" x="459" y="864" width="18" height="45"/><rect class="cls-14" x="477" y="864" width="9" height="45"/></g><g id="blue_book-5" data-name="blue book"><rect class="cls-3" x="531" y="864" width="18" height="45"/><rect class="cls-4" x="549" y="864" width="9" height="45"/></g><g id="blue_book-6" data-name="blue book"><rect class="cls-17" x="531" y="783" width="18" height="45"/><rect class="cls-18" x="549" y="783" width="9" height="45"/></g><g id="red_book" data-name="red book"><rect class="cls-17" x="225" y="810" width="18" height="99"/><rect class="cls-18" x="243" y="810" width="9" height="99"/></g><g id="robot"><path class="cls-18" d="M363,783h21a12,12,0,0,1,12,12v33a0,0,0,0,1,0,0H351a0,0,0,0,1,0,0V795A12,12,0,0,1,363,783Z"/><path class="cls-17" d="M396,810h9a0,0,0,0,1,0,0v9a9,9,0,0,1-9,9h0a9,9,0,0,1-9-9v0a9,9,0,0,1,9-9Z" transform="translate(792 1638) rotate(180)"/><path class="cls-10" d="M369,819h9a0,0,0,0,1,0,0v4.5a4.5,4.5,0,0,1-4.5,4.5h0a4.5,4.5,0,0,1-4.5-4.5V819A0,0,0,0,1,369,819Z" transform="translate(747 1647) rotate(180)"/><path class="cls-17" d="M342,810h9a9,9,0,0,1,9,9v0a9,9,0,0,1-9,9h0a9,9,0,0,1-9-9v-9A0,0,0,0,1,342,810Z" transform="translate(702 1638) rotate(180)"/><rect class="cls-17" x="360" y="792" width="27" height="18" rx="4.5"/><rect class="cls-19" x="360" y="792" width="9" height="18" rx="4.5"/><rect class="cls-19" x="378" y="792" width="9" height="18" rx="4.5"/><rect class="cls-4" x="387" y="810" width="9" height="9" rx="4.5" transform="translate(783 1629) rotate(180)"/><rect class="cls-4" x="351" y="810" width="9" height="9" rx="4.5" transform="translate(711 1629) rotate(180)"/></g><g id="papers"><rect class="cls-10" x="333" y="900" width="90" height="9"/><rect class="cls-11" x="333" y="891" width="90" height="9"/><rect class="cls-10" x="333" y="882" width="90" height="9"/><rect class="cls-11" x="333" y="873" width="90" height="9"/></g><g id="papers-2" data-name="papers"><rect class="cls-10" x="486" y="900" width="36" height="9"/><rect class="cls-11" x="486" y="891" width="36" height="9"/><rect class="cls-10" x="486" y="882" width="36" height="9"/><rect class="cls-11" x="486" y="873" width="36" height="9"/></g></g><g id="Table"><polygon class="cls-2" points="1170 837 1170 972 1134 972 1134 855 837 855 837 972 801 972 801 837 1170 837"/><rect class="cls-12" x="1089" y="855" width="36" height="90"/><rect class="cls-12" x="846" y="855" width="36" height="90"/><rect class="cls-5" x="801" y="774" width="369" height="63"/></g><g id="paper"><rect class="cls-10" x="1017" y="783" width="99" height="45"/><rect class="cls-6" x="1026" y="792" width="27" height="9"/><rect class="cls-6" x="1080" y="810" width="27" height="9"/><rect class="cls-6" x="1080" y="792" width="18" height="9"/><rect class="cls-6" x="1053" y="810" width="18" height="9"/><rect class="cls-6" x="1026" y="810" width="18" height="9"/><rect class="cls-6" x="1062" y="792" width="9" height="9"/></g><g id="pencil"><rect class="cls-16" x="980.1" y="792.52" width="9" height="27" transform="translate(-271.1 600.29) rotate(-30)"/><rect class="cls-10" x="971.1" y="785.93" width="9" height="9" transform="translate(-264.51 593.7) rotate(-30)"/><path class="cls-6" d="M989.1,817.11h9a0,0,0,0,1,0,0v4.5a4.5,4.5,0,0,1-4.5,4.5h0a4.5,4.5,0,0,1-4.5-4.5v-4.5A0,0,0,0,1,989.1,817.11Z" transform="translate(-277.69 606.87) rotate(-30)"/></g><g id="pencil-2" data-name="pencil"><rect class="cls-18" x="1141.35" y="792" width="9" height="27" transform="translate(556.27 -465.01) rotate(30)"/><rect class="cls-10" x="1150.35" y="785.41" width="9" height="9" transform="translate(549.68 -471.6) rotate(30)"/><path class="cls-6" d="M1132.35,816.59h9a0,0,0,0,1,0,0v4.5a4.5,4.5,0,0,1-4.5,4.5h0a4.5,4.5,0,0,1-4.5-4.5v-4.5A0,0,0,0,1,1132.35,816.59Z" transform="translate(562.85 -458.42) rotate(30)"/></g><g id="BNC"><rect class="cls-20" x="837" y="756" width="9" height="63"/><rect class="cls-20" x="828" y="630" width="9" height="99"/><rect class="cls-20" x="855" y="756" width="9" height="63"/><rect class="cls-20" x="891" y="756" width="9" height="63"/><rect class="cls-19" x="828" y="729" width="99" height="27"/><rect class="cls-20" x="927" y="729" width="9" height="36"/><rect class="cls-6" x="927" y="765" width="9" height="9"/><rect class="cls-6" x="909" y="819" width="9" height="9"/><rect class="cls-6" x="891" y="819" width="9" height="9"/><rect class="cls-6" x="855" y="819" width="9" height="9"/><rect class="cls-6" x="837" y="819" width="9" height="9"/><rect class="cls-19" x="792" y="603" width="54" height="27"/><rect class="cls-20" x="837" y="585" width="9" height="18"/><rect class="cls-20" x="819" y="585" width="9" height="18"/><rect class="cls-20" x="909" y="756" width="9" height="63"/></g><g id="chair"><polygon class="cls-2" points="1350 774 1350 963 1332 963 1332 873 1242 873 1242 963 1224 963 1224 855 1332 855 1332 774 1350 774"/><rect class="cls-12" x="1305" y="873" width="18" height="63"/><rect class="cls-12" x="1251" y="873" width="18" height="63" transform="translate(2520 1809) rotate(180)"/><rect class="cls-5" x="1224" y="810" width="108" height="45"/><rect class="cls-5" x="1332" y="729" width="18" height="45"/></g><g id="chair-2" data-name="chair"><polygon class="cls-2" points="639 774 639 963 657 963 657 873 747 873 747 963 765 963 765 855 657 855 657 774 639 774"/><rect class="cls-12" x="666" y="873" width="18" height="63" transform="translate(1350 1809) rotate(180)"/><rect class="cls-12" x="720" y="873" width="18" height="63"/><rect class="cls-5" x="657" y="810" width="108" height="45" transform="translate(1422 1665) rotate(180)"/><rect class="cls-5" x="639" y="729" width="18" height="45" transform="translate(1296 1503) rotate(180)"/></g></g><g id="Maket"><g id="Transparent" class="cls-21"><path class="cls-22" d="M54,1V1080H1440V1ZM1395,981H99V126H1395Z"/><path class="cls-7" d="M1386,126H99V981H1395V126Zm0,846H108V135H1386Z"/><g id="_4" data-name="4"><polygon class="cls-23" points="396 990 388.8 981 372 981 378 999 450 1008 477 1044 495 1044 468 999 396 990"/><polygon class="cls-23" points="1050 126 1068.75 126 1089 99 972 54 909 54 1062 108 1050 126"/></g></g><g id="Not_transparent" data-name="Not transparent"><rect class="cls-24" x="1440" width="18" height="1079"/><rect class="cls-24" x="36" width="18" height="1079"/><rect class="cls-2" x="18" y="1026" width="1458" height="9"/><rect class="cls-7" width="1494" height="81"/><rect class="cls-5" x="18" y="1035" width="1458" height="36"/><rect class="cls-6" y="1071" width="1494" height="9"/></g><g id="Bricks_transparent" data-name="Bricks transparent" class="cls-21"><rect class="cls-25" x="747" y="981" width="171" height="36"/><rect class="cls-5" x="927" y="981" width="99" height="36"/><g id="Side"><rect class="cls-26" x="18" y="135" width="54" height="72"/><rect class="cls-27" x="18" y="126" width="54" height="9"/><rect class="cls-5" x="27" y="225" width="72" height="72"/><rect class="cls-2" x="27" y="216" width="72" height="9"/><rect class="cls-5" x="1395" y="198" width="72" height="72"/><rect class="cls-2" x="1395" y="189" width="72" height="9"/><rect class="cls-25" x="18" y="315" width="81" height="72"/><rect class="cls-28" x="18" y="306" width="81" height="9"/><rect class="cls-28" x="18" y="657" width="54" height="9"/><rect class="cls-25" x="18" y="666" width="54" height="72"/><rect class="cls-27" x="1422" y="279" width="54" height="9"/><rect class="cls-26" x="1422" y="288" width="54" height="72"/><rect class="cls-27" x="18" y="837" width="72" height="9"/><rect class="cls-26" x="18" y="846" width="72" height="72"/><rect class="cls-2" x="27" y="747" width="72" height="9"/><rect class="cls-5" x="27" y="756" width="72" height="72"/><rect class="cls-27" x="1395" y="846" width="81" height="9"/><rect class="cls-26" x="1395" y="855" width="81" height="72"/><rect class="cls-2" x="27" y="927" width="72" height="9"/><polygon class="cls-5" points="99 981 99 936 27 936 27 1008 144 1008 144 981 99 981"/><rect class="cls-2" x="1395" y="936" width="72" height="9"/><polygon class="cls-5" points="1395 945 1395 981 1314 981 1314 1017 1467 1017 1467 945 1395 945"/><rect class="cls-28" x="1377" y="99" width="99" height="9"/><polygon class="cls-25" points="1377 108 1377 126 1395 126 1395 180 1476 180 1476 108 1377 108"/></g></g></g></g></g></g></svg>