<svg xmlns="http://www.w3.org/2000/svg" xmlns:xlink="http://www.w3.org/1999/xlink" viewBox="0 0 1494 1080"><defs><style>.cls-1{fill:url(#Новый_образец_градиентной_зал_2);}.cls-2{fill:#594763;}.cls-3{fill:#1e1528;}.cls-4{fill:#07060a;}.cls-5{fill:#1a1423;}.cls-6{fill:#372549;}.cls-7{fill:#70587c;}.cls-8{fill:#774c60;}.cls-9{fill:#4f3341;}.cls-10{fill:#483a51;}.cls-11{fill:#5e548e;}.cls-12{fill:#9f86c0;}</style><linearGradient id="Новый_образец_градиентной_зал_2" x1="747" y1="1" x2="747" y2="1080" gradientUnits="userSpaceOnUse"><stop offset="0"/><stop offset="0.05" stop-color="#15111f"/><stop offset="0.11" stop-color="#2e2544"/><stop offset="0.18" stop-color="#423663"/><stop offset="0.25" stop-color="#52437b"/><stop offset="0.32" stop-color="#5d4c8c"/><stop offset="0.4" stop-color="#645196"/><stop offset="0.5" stop-color="#665399"/><stop offset="0.6" stop-color="#645196"/><stop offset="0.68" stop-color="#5d4c8c"/><stop offset="0.75" stop-color="#52437b"/><stop offset="0.82" stop-color="#423663"/><stop offset="0.89" stop-color="#2e2544"/><stop offset="0.95" stop-color="#15111f"/><stop offset="1"/></linearGradient></defs><g id="Layer_2" data-name="Layer 2"><g id="Final_outside" data-name="Final outside"><g id="_3_-_Roadmap_-_Outside" data-name="3 - Roadmap - Outside"><g id="level"><g id="wall"><path class="cls-1" d="M54,1V1080H1440V1ZM476.71,900H171V351H476.71Zm423,0H594V351H899.71Zm423,0H1017V351h305.71Z"/><rect class="cls-2" x="36" width="18" height="1079"/><rect class="cls-2" x="1440" width="18" height="1079"/><rect class="cls-3" x="18" y="1026" width="1458" height="9"/><g id="_4" data-name="4"><polygon class="cls-4" points="909 54 1062 108 1044 135 1071 153 1026 207 1089 153 1062 135 1089 99 972 54 909 54"/><polygon class="cls-4" points="414 126 387 171 423 198 396 261 441 189 405 171 414 126"/><polygon class="cls-4" points="477 1044 450 1008 378 999 360 945 396 990 468 999 495 1044 477 1044"/></g><rect class="cls-5" width="1494" height="81"/><rect class="cls-6" x="18" y="1035" width="1458" height="45"/></g><g id="Bricks"><rect class="cls-6" x="27" y="225" width="162" height="72"/><rect class="cls-6" x="693" y="162" width="162" height="72"/><rect class="cls-6" x="1314" y="198" width="153" height="72"/><rect class="cls-6" x="1314" y="945" width="153" height="72"/><rect class="cls-7" x="18" y="315" width="99" height="72"/><rect class="cls-8" x="18" y="135" width="54" height="72"/><rect class="cls-9" x="1422" y="279" width="54" height="9"/><rect class="cls-10" x="1377" y="99" width="99" height="9"/><rect class="cls-9" x="18" y="126" width="54" height="9"/><rect class="cls-3" x="27" y="216" width="162" height="9"/><rect class="cls-3" x="1314" y="189" width="153" height="9"/><rect class="cls-10" x="18" y="306" width="99" height="9"/><rect class="cls-10" x="18" y="657" width="54" height="9"/><rect class="cls-3" x="27" y="927" width="117" height="9"/><rect class="cls-9" x="18" y="837" width="72" height="9"/><rect class="cls-3" x="1314" y="936" width="153" height="9"/><rect class="cls-9" x="1377" y="846" width="99" height="9"/><rect class="cls-4" y="1071" width="1494" height="9"/><rect class="cls-3" x="27" y="747" width="90" height="9"/><rect class="cls-7" x="18" y="666" width="54" height="72"/><rect class="cls-8" x="1422" y="288" width="54" height="72"/><rect class="cls-6" x="27" y="936" width="117" height="72"/><rect class="cls-7" x="747" y="945" width="171" height="72"/><rect class="cls-8" x="18" y="846" width="72" height="72"/><rect class="cls-7" x="630" y="252" width="126" height="72"/><rect class="cls-8" x="558" y="162" width="126" height="72"/><rect class="cls-9" x="558" y="153" width="126" height="9"/><rect class="cls-3" x="693" y="153" width="162" height="9"/><rect class="cls-10" x="630" y="243" width="126" height="9"/><rect class="cls-3" x="522" y="243" width="99" height="9"/><rect class="cls-6" x="522" y="252" width="99" height="72"/><rect class="cls-6" x="927" y="945" width="99" height="72"/><rect class="cls-3" x="927" y="936" width="99" height="9"/><rect class="cls-10" x="747" y="936" width="171" height="9"/><rect class="cls-6" x="27" y="756" width="90" height="72"/><rect class="cls-7" x="1377" y="108" width="99" height="72"/><rect class="cls-8" x="1377" y="855" width="99" height="72"/></g></g><g id="Window"><rect class="cls-3" x="171" y="351" width="306" height="18"/><rect class="cls-3" x="189" y="837" width="270" height="18"/><path class="cls-6" d="M459,369H171V900H477V369Zm0,486H189V675H459Zm0-216H189V423H459Z"/><rect class="cls-11" x="189" y="603" width="270" height="36"/><rect class="cls-12" x="189" y="567" width="270" height="36"/><rect class="cls-11" x="189" y="531" width="270" height="36"/><rect class="cls-12" x="189" y="495" width="270" height="36"/><rect class="cls-11" x="189" y="459" width="270" height="36"/><rect class="cls-12" x="189" y="423" width="270" height="36"/><rect class="cls-3" x="189" y="630" width="270" height="9"/></g><g id="Window-2" data-name="Window"><rect class="cls-3" x="594" y="351" width="306" height="18"/><rect class="cls-3" x="612" y="837" width="270" height="18"/><path class="cls-6" d="M882,369H594V900H900V369Zm0,486H612V783H882Zm0-108H612V423H882Z"/><rect class="cls-11" x="612" y="711" width="270" height="36"/><rect class="cls-12" x="612" y="675" width="270" height="36"/><rect class="cls-11" x="612" y="639" width="270" height="36"/><rect class="cls-12" x="612" y="603" width="270" height="36"/><rect class="cls-11" x="612" y="567" width="270" height="36"/><rect class="cls-12" x="612" y="531" width="270" height="36"/><rect class="cls-11" x="612" y="495" width="270" height="36"/><rect class="cls-12" x="612" y="459" width="270" height="36"/><rect class="cls-11" x="612" y="423" width="270" height="36"/><rect class="cls-3" x="612" y="738" width="270" height="9"/></g><g id="Window-3" data-name="Window"><rect class="cls-3" x="1017" y="351" width="306" height="18"/><rect class="cls-3" x="1035" y="837" width="270" height="18"/><rect class="cls-11" x="1035" y="423" width="270" height="36"/><rect class="cls-12" x="1035" y="459" width="270" height="36"/><rect class="cls-11" x="1035" y="495" width="270" height="36"/><path class="cls-6" d="M1305,369H1017V900h306V369Zm0,486H1035V567h270Zm0-324H1035V423h270Z"/><rect class="cls-3" x="1035" y="522" width="270" height="9"/></g></g></g></g></svg>