<svg xmlns="http://www.w3.org/2000/svg" xmlns:xlink="http://www.w3.org/1999/xlink" viewBox="0 0 1719 1080"><defs><style>.cls-1{fill:#110b11;}.cls-2{fill:#352034;}.cls-10,.cls-3,.cls-5{fill:none;stroke-width:5px;}.cls-3,.cls-5{stroke:#352034;}.cls-3{stroke-miterlimit:10;}.cls-4{fill:#302030;}.cls-5{stroke-linecap:round;}.cls-10,.cls-5{stroke-linejoin:round;}.cls-6{fill:#502f4c;}.cls-7{fill:#f72585;}.cls-8{fill:#70587c;}.cls-9{fill:#594763;}.cls-10{stroke:#502f4c;stroke-linecap:square;}.cls-11{fill:url(#Новый_образец_градиентной_зал_2);}.cls-12{fill:#1e1528;}.cls-13{fill:#07060a;}.cls-14{fill:#1a1423;}.cls-15{fill:#372549;}.cls-16{fill:#774c60;}.cls-17{fill:#4f3341;}.cls-18{fill:#483a51;}.cls-19{fill:#5e548e;}.cls-20{fill:#9f86c0;}</style><linearGradient id="Новый_образец_градиентной_зал_2" x1="900" y1="1" x2="900" y2="1080" gradientUnits="userSpaceOnUse"><stop offset="0"/><stop offset="0.05" stop-color="#15111f"/><stop offset="0.11" stop-color="#2e2544"/><stop offset="0.18" stop-color="#423663"/><stop offset="0.25" stop-color="#52437b"/><stop offset="0.32" stop-color="#5d4c8c"/><stop offset="0.4" stop-color="#645196"/><stop offset="0.5" stop-color="#665399"/><stop offset="0.6" stop-color="#645196"/><stop offset="0.68" stop-color="#5d4c8c"/><stop offset="0.75" stop-color="#52437b"/><stop offset="0.82" stop-color="#423663"/><stop offset="0.89" stop-color="#2e2544"/><stop offset="0.95" stop-color="#15111f"/><stop offset="1"/></linearGradient></defs><g id="Layer_2" data-name="Layer 2"><g id="Final_outside" data-name="Final outside"><g id="_3_-_Roadmap_-_Outside" data-name="3 - Roadmap - Outside"><g id="Side_billboard" data-name="Side billboard"><g id="top"><rect class="cls-1" x="162" y="432" width="81" height="9"/><rect class="cls-1" x="162" y="396" width="90" height="9"/><polygon class="cls-2" points="243 405 243 405 162 405 162 414 243 414 243 441 162 441 162 450 243 450 243 450 252 450 252 405 243 405"/><line class="cls-3" x1="243" y1="441" x2="216" y2="414"/><line class="cls-3" x1="243" y1="414" x2="216" y2="441"/><line class="cls-3" x1="216" y1="441" x2="189" y2="414"/><line class="cls-3" x1="216" y1="414" x2="189" y2="441"/><line class="cls-3" x1="189" y1="441" x2="162" y2="414"/><line class="cls-3" x1="189" y1="414" x2="162" y2="441"/></g><g id="bot"><rect class="cls-1" x="162" y="630" width="81" height="9"/><rect class="cls-1" x="162" y="594" width="90" height="9"/><polygon class="cls-2" points="243 603 243 603 162 603 162 612 243 612 243 639 162 639 162 648 243 648 243 648 252 648 252 603 243 603"/><line class="cls-3" x1="243" y1="639" x2="216" y2="612"/><line class="cls-3" x1="243" y1="612" x2="216" y2="639"/><line class="cls-3" x1="216" y1="639" x2="189" y2="612"/><line class="cls-3" x1="216" y1="612" x2="189" y2="639"/><line class="cls-3" x1="189" y1="639" x2="162" y2="612"/><line class="cls-3" x1="189" y1="612" x2="162" y2="639"/></g><rect class="cls-1" x="126" y="216" width="36" height="9"/><rect class="cls-1" x="135" y="837" width="18" height="9"/><rect class="cls-4" y="216" width="126" height="9"/><line class="cls-5" x1="134.5" y1="432.5" x2="152.5" y2="414.5"/><line class="cls-5" x1="134.5" y1="414.5" x2="152.5" y2="432.5"/><line class="cls-5" x1="134.5" y1="450.5" x2="152.5" y2="432.5"/><line class="cls-5" x1="134.5" y1="432.5" x2="152.5" y2="450.5"/><line class="cls-5" x1="134.5" y1="468.5" x2="152.5" y2="450.5"/><line class="cls-5" x1="134.5" y1="450.5" x2="152.5" y2="468.5"/><line class="cls-5" x1="134.5" y1="486.5" x2="152.5" y2="468.5"/><line class="cls-5" x1="134.5" y1="468.5" x2="152.5" y2="486.5"/><line class="cls-5" x1="134.5" y1="504.5" x2="152.5" y2="486.5"/><line class="cls-5" x1="134.5" y1="486.5" x2="152.5" y2="504.5"/><line class="cls-5" x1="134.5" y1="522.5" x2="152.5" y2="504.5"/><line class="cls-5" x1="134.5" y1="504.5" x2="152.5" y2="522.5"/><line class="cls-5" x1="134.5" y1="323.5" x2="152.5" y2="305.5"/><line class="cls-5" x1="134.5" y1="305.5" x2="152.5" y2="323.5"/><line class="cls-5" x1="134.5" y1="341.5" x2="152.5" y2="323.5"/><line class="cls-5" x1="134.5" y1="323.5" x2="152.5" y2="341.5"/><line class="cls-5" x1="134.5" y1="359.5" x2="152.5" y2="341.5"/><line class="cls-5" x1="134.5" y1="341.5" x2="152.5" y2="359.5"/><line class="cls-5" x1="134.5" y1="377.5" x2="152.5" y2="359.5"/><line class="cls-5" x1="134.5" y1="359.5" x2="152.5" y2="377.5"/><line class="cls-5" x1="135.5" y1="269.5" x2="153.5" y2="251.5"/><line class="cls-5" x1="135.5" y1="251.5" x2="153.5" y2="269.5"/><line class="cls-5" x1="135.5" y1="287.5" x2="153.5" y2="269.5"/><line class="cls-5" x1="135.5" y1="269.5" x2="153.5" y2="287.5"/><line class="cls-5" x1="135.5" y1="305.5" x2="153.5" y2="287.5"/><line class="cls-5" x1="135.5" y1="287.5" x2="153.5" y2="305.5"/><line class="cls-5" x1="134.5" y1="395.5" x2="152.5" y2="377.5"/><line class="cls-5" x1="134.5" y1="377.5" x2="152.5" y2="395.5"/><line class="cls-5" x1="134.5" y1="413.5" x2="152.5" y2="395.5"/><line class="cls-5" x1="134.5" y1="395.5" x2="152.5" y2="413.5"/><line class="cls-5" x1="134.5" y1="540.5" x2="152.5" y2="522.5"/><line class="cls-5" x1="134.5" y1="522.5" x2="152.5" y2="540.5"/><line class="cls-5" x1="134.5" y1="558.5" x2="152.5" y2="540.5"/><line class="cls-5" x1="134.5" y1="540.5" x2="152.5" y2="558.5"/><line class="cls-5" x1="134.5" y1="576.5" x2="152.5" y2="558.5"/><line class="cls-5" x1="134.5" y1="558.5" x2="152.5" y2="576.5"/><line class="cls-5" x1="134.5" y1="594.5" x2="152.5" y2="576.5"/><line class="cls-5" x1="134.5" y1="576.5" x2="152.5" y2="594.5"/><line class="cls-5" x1="134.5" y1="612.5" x2="152.5" y2="594.5"/><line class="cls-5" x1="134.5" y1="594.5" x2="152.5" y2="612.5"/><line class="cls-5" x1="134.5" y1="630.5" x2="152.5" y2="612.5"/><line class="cls-5" x1="134.5" y1="612.5" x2="152.5" y2="630.5"/><line class="cls-5" x1="134.5" y1="648.5" x2="152.5" y2="630.5"/><line class="cls-5" x1="134.5" y1="630.5" x2="152.5" y2="648.5"/><line class="cls-5" x1="134.5" y1="666.5" x2="152.5" y2="648.5"/><line class="cls-5" x1="134.5" y1="648.5" x2="152.5" y2="666.5"/><line class="cls-5" x1="134.5" y1="684.5" x2="152.5" y2="666.5"/><line class="cls-5" x1="134.5" y1="666.5" x2="152.5" y2="684.5"/><line class="cls-5" x1="134.5" y1="702.5" x2="152.5" y2="684.5"/><line class="cls-5" x1="134.5" y1="684.5" x2="152.5" y2="702.5"/><line class="cls-5" x1="134.5" y1="720.5" x2="152.5" y2="702.5"/><line class="cls-5" x1="134.5" y1="702.5" x2="152.5" y2="720.5"/><line class="cls-5" x1="134.5" y1="738.5" x2="152.5" y2="720.5"/><line class="cls-5" x1="134.5" y1="720.5" x2="152.5" y2="738.5"/><line class="cls-5" x1="134.5" y1="756.5" x2="152.5" y2="738.5"/><line class="cls-5" x1="134.5" y1="738.5" x2="152.5" y2="756.5"/><line class="cls-5" x1="134.5" y1="774.5" x2="152.5" y2="756.5"/><line class="cls-5" x1="134.5" y1="756.5" x2="152.5" y2="774.5"/><line class="cls-5" x1="134.5" y1="792.5" x2="152.5" y2="774.5"/><line class="cls-5" x1="134.5" y1="774.5" x2="152.5" y2="792.5"/><line class="cls-5" x1="134.5" y1="810.5" x2="152.5" y2="792.5"/><line class="cls-5" x1="134.5" y1="792.5" x2="152.5" y2="810.5"/><line class="cls-5" x1="134.5" y1="828.5" x2="152.5" y2="810.5"/><line class="cls-5" x1="134.5" y1="810.5" x2="152.5" y2="828.5"/><path class="cls-6" d="M0,225V855H126V225ZM117,846H9V234H117Z"/><path class="cls-2" d="M126,225v9h.07V846H126v9h36V225Zm27,621H135.07V234H153Z"/><rect class="cls-7" x="9" y="234" width="108" height="612" transform="translate(126 1080) rotate(180)"/></g><g id="Air"><rect class="cls-2" x="1611" y="522" width="27" height="36"/><rect class="cls-2" x="1611" y="621" width="27" height="36"/><rect class="cls-8" x="1638" y="486" width="72" height="207"/><rect class="cls-9" x="1638" y="459" width="72" height="27"/><rect class="cls-2" x="1710" y="459" width="9" height="27"/><rect x="1656" y="504" width="54" height="171"/><path class="cls-6" d="M1710,486v18h-63V684h63v9h9V486Zm0,189h-54V513h54Z"/><line class="cls-10" x1="1656.5" y1="674.5" x2="1674.5" y2="656.5"/><line class="cls-10" x1="1655.5" y1="657.5" x2="1673.5" y2="675.5"/><line class="cls-10" x1="1674.5" y1="674.5" x2="1692.5" y2="656.5"/><line class="cls-10" x1="1674.5" y1="656.5" x2="1692.5" y2="674.5"/><line class="cls-10" x1="1692.5" y1="674.5" x2="1710.5" y2="656.5"/><line class="cls-10" x1="1692.5" y1="656.5" x2="1710.5" y2="674.5"/><line class="cls-10" x1="1692.5" y1="656.5" x2="1710.5" y2="638.5"/><line class="cls-10" x1="1692.5" y1="638.5" x2="1710.5" y2="656.5"/><line class="cls-10" x1="1692.5" y1="638.5" x2="1710.5" y2="620.5"/><line class="cls-10" x1="1692.5" y1="620.5" x2="1710.5" y2="638.5"/><line class="cls-10" x1="1692.5" y1="620.5" x2="1710.5" y2="602.5"/><line class="cls-10" x1="1692.5" y1="602.5" x2="1710.5" y2="620.5"/><line class="cls-10" x1="1692.5" y1="602.5" x2="1710.5" y2="584.5"/><line class="cls-10" x1="1692.5" y1="584.5" x2="1710.5" y2="602.5"/><line class="cls-10" x1="1692.5" y1="584.5" x2="1710.5" y2="566.5"/><line class="cls-10" x1="1692.5" y1="566.5" x2="1710.5" y2="584.5"/><line class="cls-10" x1="1692.5" y1="566.5" x2="1710.5" y2="548.5"/><line class="cls-10" x1="1692.5" y1="548.5" x2="1710.5" y2="566.5"/><line class="cls-10" x1="1692.5" y1="548.5" x2="1710.5" y2="530.5"/><line class="cls-10" x1="1692.5" y1="530.5" x2="1710.5" y2="548.5"/><line class="cls-10" x1="1692.5" y1="530.5" x2="1710.5" y2="512.5"/><line class="cls-10" x1="1692.5" y1="512.5" x2="1710.5" y2="530.5"/><line class="cls-10" x1="1673.5" y1="656.5" x2="1691.5" y2="638.5"/><line class="cls-10" x1="1673.5" y1="638.5" x2="1691.5" y2="656.5"/><line class="cls-10" x1="1673.5" y1="638.5" x2="1691.5" y2="620.5"/><line class="cls-10" x1="1673.5" y1="620.5" x2="1691.5" y2="638.5"/><line class="cls-10" x1="1673.5" y1="620.5" x2="1691.5" y2="602.5"/><line class="cls-10" x1="1673.5" y1="602.5" x2="1691.5" y2="620.5"/><line class="cls-10" x1="1673.5" y1="602.5" x2="1691.5" y2="584.5"/><line class="cls-10" x1="1673.5" y1="584.5" x2="1691.5" y2="602.5"/><line class="cls-10" x1="1673.5" y1="584.5" x2="1691.5" y2="566.5"/><line class="cls-10" x1="1673.5" y1="566.5" x2="1691.5" y2="584.5"/><line class="cls-10" x1="1673.5" y1="566.5" x2="1691.5" y2="548.5"/><line class="cls-10" x1="1673.5" y1="548.5" x2="1691.5" y2="566.5"/><line class="cls-10" x1="1673.5" y1="548.5" x2="1691.5" y2="530.5"/><line class="cls-10" x1="1673.5" y1="530.5" x2="1691.5" y2="548.5"/><line class="cls-10" x1="1673.5" y1="530.5" x2="1691.5" y2="512.5"/><line class="cls-10" x1="1673.5" y1="512.5" x2="1691.5" y2="530.5"/><line class="cls-10" x1="1655.5" y1="656.5" x2="1673.5" y2="638.5"/><line class="cls-10" x1="1655.5" y1="638.5" x2="1673.5" y2="656.5"/><line class="cls-10" x1="1655.5" y1="638.5" x2="1673.5" y2="620.5"/><line class="cls-10" x1="1655.5" y1="620.5" x2="1673.5" y2="638.5"/><line class="cls-10" x1="1655.5" y1="620.5" x2="1673.5" y2="602.5"/><line class="cls-10" x1="1655.5" y1="602.5" x2="1673.5" y2="620.5"/><line class="cls-10" x1="1655.5" y1="602.5" x2="1673.5" y2="584.5"/><line class="cls-10" x1="1655.5" y1="584.5" x2="1673.5" y2="602.5"/><line class="cls-10" x1="1655.5" y1="584.5" x2="1673.5" y2="566.5"/><line class="cls-10" x1="1655.5" y1="566.5" x2="1673.5" y2="584.5"/><line class="cls-10" x1="1655.5" y1="566.5" x2="1673.5" y2="548.5"/><line class="cls-10" x1="1655.5" y1="548.5" x2="1673.5" y2="566.5"/><line class="cls-10" x1="1655.5" y1="548.5" x2="1673.5" y2="530.5"/><line class="cls-10" x1="1655.5" y1="530.5" x2="1673.5" y2="548.5"/><line class="cls-10" x1="1655.5" y1="530.5" x2="1673.5" y2="512.5"/><line class="cls-10" x1="1655.5" y1="512.5" x2="1673.5" y2="530.5"/><rect class="cls-1" x="1611" y="513" width="27" height="9"/><rect class="cls-1" x="1611" y="612" width="27" height="9"/></g><g id="level"><g id="wall"><path class="cls-11" d="M207,1V1080H1593V1ZM629.71,900H324V351H629.71Zm423,0H747V351h305.71Zm423,0H1170V351h305.71Z"/><rect class="cls-9" x="189" width="18" height="1079"/><rect class="cls-9" x="1593" width="18" height="1079"/><rect class="cls-12" x="171" y="1026" width="1458" height="9"/><g id="_4" data-name="4"><polygon class="cls-13" points="1062 54 1215 108 1197 135 1224 153 1179 207 1242 153 1215 135 1242 99 1125 54 1062 54"/><polygon class="cls-13" points="567 126 540 171 576 198 549 261 594 189 558 171 567 126"/><polygon class="cls-13" points="630 1044 603 1008 531 999 513 945 549 990 621 999 648 1044 630 1044"/></g><rect class="cls-14" x="153" width="1494" height="81"/><rect class="cls-15" x="171" y="1035" width="1458" height="45"/></g><g id="Bricks"><rect class="cls-15" x="180" y="225" width="162" height="72"/><rect class="cls-15" x="846" y="162" width="162" height="72"/><rect class="cls-15" x="1467" y="198" width="153" height="72"/><rect class="cls-15" x="1467" y="945" width="153" height="72"/><rect class="cls-8" x="171" y="315" width="99" height="72"/><rect class="cls-16" x="171" y="135" width="54" height="72"/><rect class="cls-17" x="1575" y="279" width="54" height="9"/><rect class="cls-18" x="1530" y="99" width="99" height="9"/><rect class="cls-17" x="171" y="126" width="54" height="9"/><rect class="cls-12" x="180" y="216" width="162" height="9"/><rect class="cls-12" x="1467" y="189" width="153" height="9"/><rect class="cls-18" x="171" y="306" width="99" height="9"/><rect class="cls-18" x="171" y="657" width="54" height="9"/><rect class="cls-12" x="180" y="927" width="117" height="9"/><rect class="cls-17" x="171" y="837" width="72" height="9"/><rect class="cls-12" x="1467" y="936" width="153" height="9"/><rect class="cls-17" x="1530" y="846" width="99" height="9"/><rect class="cls-13" x="153" y="1071" width="1494" height="9"/><rect class="cls-12" x="180" y="747" width="90" height="9"/><rect class="cls-8" x="171" y="666" width="54" height="72"/><rect class="cls-16" x="1575" y="288" width="54" height="72"/><rect class="cls-15" x="180" y="936" width="117" height="72"/><rect class="cls-8" x="900" y="945" width="171" height="72"/><rect class="cls-16" x="171" y="846" width="72" height="72"/><rect class="cls-8" x="783" y="252" width="126" height="72"/><rect class="cls-16" x="711" y="162" width="126" height="72"/><rect class="cls-17" x="711" y="153" width="126" height="9"/><rect class="cls-12" x="846" y="153" width="162" height="9"/><rect class="cls-18" x="783" y="243" width="126" height="9"/><rect class="cls-12" x="675" y="243" width="99" height="9"/><rect class="cls-15" x="675" y="252" width="99" height="72"/><rect class="cls-15" x="1080" y="945" width="99" height="72"/><rect class="cls-12" x="1080" y="936" width="99" height="9"/><rect class="cls-18" x="900" y="936" width="171" height="9"/><rect class="cls-15" x="180" y="756" width="90" height="72"/><rect class="cls-8" x="1530" y="108" width="99" height="72"/><rect class="cls-16" x="1530" y="855" width="99" height="72"/></g></g><g id="Window"><rect class="cls-12" x="324" y="351" width="306" height="18"/><rect class="cls-12" x="342" y="837" width="270" height="18"/><path class="cls-15" d="M612,369H324V900H630V369Zm0,486H342V675H612Zm0-216H342V423H612Z"/><rect class="cls-19" x="342" y="603" width="270" height="36"/><rect class="cls-20" x="342" y="567" width="270" height="36"/><rect class="cls-19" x="342" y="531" width="270" height="36"/><rect class="cls-20" x="342" y="495" width="270" height="36"/><rect class="cls-19" x="342" y="459" width="270" height="36"/><rect class="cls-20" x="342" y="423" width="270" height="36"/><rect class="cls-12" x="342" y="630" width="270" height="9"/></g><g id="Window-2" data-name="Window"><rect class="cls-12" x="747" y="351" width="306" height="18"/><rect class="cls-12" x="765" y="837" width="270" height="18"/><path class="cls-15" d="M1035,369H747V900h306V369Zm0,486H765V783h270Zm0-108H765V423h270Z"/><rect class="cls-19" x="765" y="711" width="270" height="36"/><rect class="cls-20" x="765" y="675" width="270" height="36"/><rect class="cls-19" x="765" y="639" width="270" height="36"/><rect class="cls-20" x="765" y="603" width="270" height="36"/><rect class="cls-19" x="765" y="567" width="270" height="36"/><rect class="cls-20" x="765" y="531" width="270" height="36"/><rect class="cls-19" x="765" y="495" width="270" height="36"/><rect class="cls-20" x="765" y="459" width="270" height="36"/><rect class="cls-19" x="765" y="423" width="270" height="36"/><rect class="cls-12" x="765" y="738" width="270" height="9"/></g><g id="Window-3" data-name="Window"><rect class="cls-12" x="1170" y="351" width="306" height="18"/><rect class="cls-12" x="1188" y="837" width="270" height="18"/><rect class="cls-19" x="1188" y="423" width="270" height="36"/><rect class="cls-20" x="1188" y="459" width="270" height="36"/><rect class="cls-19" x="1188" y="495" width="270" height="36"/><path class="cls-15" d="M1458,369H1170V900h306V369Zm0,486H1188V567h270Zm0-324H1188V423h270Z"/><rect class="cls-12" x="1188" y="522" width="270" height="9"/></g></g></g></g></svg>