<svg xmlns="http://www.w3.org/2000/svg" xmlns:xlink="http://www.w3.org/1999/xlink" viewBox="0 0 1719 1080"><defs><style>.cls-1{fill:#110b11;}.cls-2{fill:#352034;}.cls-10,.cls-3,.cls-5{fill:none;stroke-width:5px;}.cls-3,.cls-5{stroke:#352034;}.cls-3{stroke-miterlimit:10;}.cls-4{fill:#302030;}.cls-5{stroke-linecap:round;}.cls-10,.cls-5{stroke-linejoin:round;}.cls-6{fill:#502f4c;}.cls-7{fill:#f72585;}.cls-8{fill:#70587c;}.cls-9{fill:#594763;}.cls-10{stroke:#502f4c;stroke-linecap:square;}.cls-11{fill:url(#Безымянный_градиент_50);}.cls-12{fill:#1e1528;}.cls-13{fill:#5e548e;}.cls-14{fill:#9f86c0;}.cls-15{fill:#372549;}.cls-16{fill:#07060a;}.cls-17{fill:#1a1423;}.cls-18{fill:#efdce5;}.cls-19{fill:#ada6aa;}.cls-20{fill:#120d19;}.cls-21{fill:#1b4332;}.cls-22{fill:#2d6a4f;}.cls-23{fill:#00296b;}.cls-24{fill:#00509d;}.cls-25{fill:#370617;}.cls-26{fill:#6a040f;}.cls-27{fill:#f86624;}.cls-28{fill:#6d3925;}.cls-29{opacity:0.25;}.cls-30{fill:url(#Новый_образец_градиентной_зал_2);}.cls-31{fill:#03071e;}.cls-32{fill:#774c60;}.cls-33{fill:#4f3341;}.cls-34{fill:#483a51;}</style><linearGradient id="Безымянный_градиент_50" x1="900" y1="864" x2="900" y2="81" gradientUnits="userSpaceOnUse"><stop offset="0"/><stop offset="0.05" stop-color="#0b080f"/><stop offset="0.12" stop-color="#140f1a"/><stop offset="0.22" stop-color="#191321"/><stop offset="0.5" stop-color="#1a1423"/><stop offset="0.78" stop-color="#191321"/><stop offset="0.88" stop-color="#140f1a"/><stop offset="0.95" stop-color="#0b080f"/><stop offset="1"/></linearGradient><linearGradient id="Новый_образец_градиентной_зал_2" x1="900" y1="1" x2="900" y2="1080" gradientUnits="userSpaceOnUse"><stop offset="0"/><stop offset="0.05" stop-color="#15111f"/><stop offset="0.11" stop-color="#2e2544"/><stop offset="0.18" stop-color="#423663"/><stop offset="0.25" stop-color="#52437b"/><stop offset="0.32" stop-color="#5d4c8c"/><stop offset="0.4" stop-color="#645196"/><stop offset="0.5" stop-color="#665399"/><stop offset="0.6" stop-color="#645196"/><stop offset="0.68" stop-color="#5d4c8c"/><stop offset="0.75" stop-color="#52437b"/><stop offset="0.82" stop-color="#423663"/><stop offset="0.89" stop-color="#2e2544"/><stop offset="0.95" stop-color="#15111f"/><stop offset="1"/></linearGradient></defs><g id="Layer_2" data-name="Layer 2"><g id="Final_Inside" data-name="Final Inside"><g id="_3_-_Roadmap_-_Inside" data-name="3 - Roadmap - Inside"><g id="Side_billboard" data-name="Side billboard"><g id="top"><rect class="cls-1" x="162" y="432" width="81" height="9"/><rect class="cls-1" x="162" y="396" width="90" height="9"/><polygon class="cls-2" points="243 405 243 405 162 405 162 414 243 414 243 441 162 441 162 450 243 450 243 450 252 450 252 405 243 405"/><line class="cls-3" x1="243" y1="441" x2="216" y2="414"/><line class="cls-3" x1="243" y1="414" x2="216" y2="441"/><line class="cls-3" x1="216" y1="441" x2="189" y2="414"/><line class="cls-3" x1="216" y1="414" x2="189" y2="441"/><line class="cls-3" x1="189" y1="441" x2="162" y2="414"/><line class="cls-3" x1="189" y1="414" x2="162" y2="441"/></g><g id="bot"><rect class="cls-1" x="162" y="630" width="81" height="9"/><rect class="cls-1" x="162" y="594" width="90" height="9"/><polygon class="cls-2" points="243 603 243 603 162 603 162 612 243 612 243 639 162 639 162 648 243 648 243 648 252 648 252 603 243 603"/><line class="cls-3" x1="243" y1="639" x2="216" y2="612"/><line class="cls-3" x1="243" y1="612" x2="216" y2="639"/><line class="cls-3" x1="216" y1="639" x2="189" y2="612"/><line class="cls-3" x1="216" y1="612" x2="189" y2="639"/><line class="cls-3" x1="189" y1="639" x2="162" y2="612"/><line class="cls-3" x1="189" y1="612" x2="162" y2="639"/></g><rect class="cls-1" x="126" y="216" width="36" height="9"/><rect class="cls-1" x="135" y="837" width="18" height="9"/><rect class="cls-4" y="216" width="126" height="9"/><line class="cls-5" x1="134.5" y1="432.5" x2="152.5" y2="414.5"/><line class="cls-5" x1="134.5" y1="414.5" x2="152.5" y2="432.5"/><line class="cls-5" x1="134.5" y1="450.5" x2="152.5" y2="432.5"/><line class="cls-5" x1="134.5" y1="432.5" x2="152.5" y2="450.5"/><line class="cls-5" x1="134.5" y1="468.5" x2="152.5" y2="450.5"/><line class="cls-5" x1="134.5" y1="450.5" x2="152.5" y2="468.5"/><line class="cls-5" x1="134.5" y1="486.5" x2="152.5" y2="468.5"/><line class="cls-5" x1="134.5" y1="468.5" x2="152.5" y2="486.5"/><line class="cls-5" x1="134.5" y1="504.5" x2="152.5" y2="486.5"/><line class="cls-5" x1="134.5" y1="486.5" x2="152.5" y2="504.5"/><line class="cls-5" x1="134.5" y1="522.5" x2="152.5" y2="504.5"/><line class="cls-5" x1="134.5" y1="504.5" x2="152.5" y2="522.5"/><line class="cls-5" x1="134.5" y1="323.5" x2="152.5" y2="305.5"/><line class="cls-5" x1="134.5" y1="305.5" x2="152.5" y2="323.5"/><line class="cls-5" x1="134.5" y1="341.5" x2="152.5" y2="323.5"/><line class="cls-5" x1="134.5" y1="323.5" x2="152.5" y2="341.5"/><line class="cls-5" x1="134.5" y1="359.5" x2="152.5" y2="341.5"/><line class="cls-5" x1="134.5" y1="341.5" x2="152.5" y2="359.5"/><line class="cls-5" x1="134.5" y1="377.5" x2="152.5" y2="359.5"/><line class="cls-5" x1="134.5" y1="359.5" x2="152.5" y2="377.5"/><line class="cls-5" x1="135.5" y1="269.5" x2="153.5" y2="251.5"/><line class="cls-5" x1="135.5" y1="251.5" x2="153.5" y2="269.5"/><line class="cls-5" x1="135.5" y1="287.5" x2="153.5" y2="269.5"/><line class="cls-5" x1="135.5" y1="269.5" x2="153.5" y2="287.5"/><line class="cls-5" x1="135.5" y1="305.5" x2="153.5" y2="287.5"/><line class="cls-5" x1="135.5" y1="287.5" x2="153.5" y2="305.5"/><line class="cls-5" x1="134.5" y1="395.5" x2="152.5" y2="377.5"/><line class="cls-5" x1="134.5" y1="377.5" x2="152.5" y2="395.5"/><line class="cls-5" x1="134.5" y1="413.5" x2="152.5" y2="395.5"/><line class="cls-5" x1="134.5" y1="395.5" x2="152.5" y2="413.5"/><line class="cls-5" x1="134.5" y1="540.5" x2="152.5" y2="522.5"/><line class="cls-5" x1="134.5" y1="522.5" x2="152.5" y2="540.5"/><line class="cls-5" x1="134.5" y1="558.5" x2="152.5" y2="540.5"/><line class="cls-5" x1="134.5" y1="540.5" x2="152.5" y2="558.5"/><line class="cls-5" x1="134.5" y1="576.5" x2="152.5" y2="558.5"/><line class="cls-5" x1="134.5" y1="558.5" x2="152.5" y2="576.5"/><line class="cls-5" x1="134.5" y1="594.5" x2="152.5" y2="576.5"/><line class="cls-5" x1="134.5" y1="576.5" x2="152.5" y2="594.5"/><line class="cls-5" x1="134.5" y1="612.5" x2="152.5" y2="594.5"/><line class="cls-5" x1="134.5" y1="594.5" x2="152.5" y2="612.5"/><line class="cls-5" x1="134.5" y1="630.5" x2="152.5" y2="612.5"/><line class="cls-5" x1="134.5" y1="612.5" x2="152.5" y2="630.5"/><line class="cls-5" x1="134.5" y1="648.5" x2="152.5" y2="630.5"/><line class="cls-5" x1="134.5" y1="630.5" x2="152.5" y2="648.5"/><line class="cls-5" x1="134.5" y1="666.5" x2="152.5" y2="648.5"/><line class="cls-5" x1="134.5" y1="648.5" x2="152.5" y2="666.5"/><line class="cls-5" x1="134.5" y1="684.5" x2="152.5" y2="666.5"/><line class="cls-5" x1="134.5" y1="666.5" x2="152.5" y2="684.5"/><line class="cls-5" x1="134.5" y1="702.5" x2="152.5" y2="684.5"/><line class="cls-5" x1="134.5" y1="684.5" x2="152.5" y2="702.5"/><line class="cls-5" x1="134.5" y1="720.5" x2="152.5" y2="702.5"/><line class="cls-5" x1="134.5" y1="702.5" x2="152.5" y2="720.5"/><line class="cls-5" x1="134.5" y1="738.5" x2="152.5" y2="720.5"/><line class="cls-5" x1="134.5" y1="720.5" x2="152.5" y2="738.5"/><line class="cls-5" x1="134.5" y1="756.5" x2="152.5" y2="738.5"/><line class="cls-5" x1="134.5" y1="738.5" x2="152.5" y2="756.5"/><line class="cls-5" x1="134.5" y1="774.5" x2="152.5" y2="756.5"/><line class="cls-5" x1="134.5" y1="756.5" x2="152.5" y2="774.5"/><line class="cls-5" x1="134.5" y1="792.5" x2="152.5" y2="774.5"/><line class="cls-5" x1="134.5" y1="774.5" x2="152.5" y2="792.5"/><line class="cls-5" x1="134.5" y1="810.5" x2="152.5" y2="792.5"/><line class="cls-5" x1="134.5" y1="792.5" x2="152.5" y2="810.5"/><line class="cls-5" x1="134.5" y1="828.5" x2="152.5" y2="810.5"/><line class="cls-5" x1="134.5" y1="810.5" x2="152.5" y2="828.5"/><path class="cls-6" d="M0,225V855H126V225ZM117,846H9V234H117Z"/><path class="cls-2" d="M126,225v9h.07V846H126v9h36V225Zm27,621H135.07V234H153Z"/><rect class="cls-7" x="9" y="234" width="108" height="612" transform="translate(126 1080) rotate(180)"/></g><g id="Air"><rect class="cls-2" x="1611" y="522" width="27" height="36"/><rect class="cls-2" x="1611" y="621" width="27" height="36"/><rect class="cls-8" x="1638" y="486" width="72" height="207"/><rect class="cls-9" x="1638" y="459" width="72" height="27"/><rect class="cls-2" x="1710" y="459" width="9" height="27"/><rect x="1656" y="504" width="54" height="171"/><path class="cls-6" d="M1710,486v18h-63V684h63v9h9V486Zm0,189h-54V513h54Z"/><line class="cls-10" x1="1656.5" y1="674.5" x2="1674.5" y2="656.5"/><line class="cls-10" x1="1655.5" y1="657.5" x2="1673.5" y2="675.5"/><line class="cls-10" x1="1674.5" y1="674.5" x2="1692.5" y2="656.5"/><line class="cls-10" x1="1674.5" y1="656.5" x2="1692.5" y2="674.5"/><line class="cls-10" x1="1692.5" y1="674.5" x2="1710.5" y2="656.5"/><line class="cls-10" x1="1692.5" y1="656.5" x2="1710.5" y2="674.5"/><line class="cls-10" x1="1692.5" y1="656.5" x2="1710.5" y2="638.5"/><line class="cls-10" x1="1692.5" y1="638.5" x2="1710.5" y2="656.5"/><line class="cls-10" x1="1692.5" y1="638.5" x2="1710.5" y2="620.5"/><line class="cls-10" x1="1692.5" y1="620.5" x2="1710.5" y2="638.5"/><line class="cls-10" x1="1692.5" y1="620.5" x2="1710.5" y2="602.5"/><line class="cls-10" x1="1692.5" y1="602.5" x2="1710.5" y2="620.5"/><line class="cls-10" x1="1692.5" y1="602.5" x2="1710.5" y2="584.5"/><line class="cls-10" x1="1692.5" y1="584.5" x2="1710.5" y2="602.5"/><line class="cls-10" x1="1692.5" y1="584.5" x2="1710.5" y2="566.5"/><line class="cls-10" x1="1692.5" y1="566.5" x2="1710.5" y2="584.5"/><line class="cls-10" x1="1692.5" y1="566.5" x2="1710.5" y2="548.5"/><line class="cls-10" x1="1692.5" y1="548.5" x2="1710.5" y2="566.5"/><line class="cls-10" x1="1692.5" y1="548.5" x2="1710.5" y2="530.5"/><line class="cls-10" x1="1692.5" y1="530.5" x2="1710.5" y2="548.5"/><line class="cls-10" x1="1692.5" y1="530.5" x2="1710.5" y2="512.5"/><line class="cls-10" x1="1692.5" y1="512.5" x2="1710.5" y2="530.5"/><line class="cls-10" x1="1673.5" y1="656.5" x2="1691.5" y2="638.5"/><line class="cls-10" x1="1673.5" y1="638.5" x2="1691.5" y2="656.5"/><line class="cls-10" x1="1673.5" y1="638.5" x2="1691.5" y2="620.5"/><line class="cls-10" x1="1673.5" y1="620.5" x2="1691.5" y2="638.5"/><line class="cls-10" x1="1673.5" y1="620.5" x2="1691.5" y2="602.5"/><line class="cls-10" x1="1673.5" y1="602.5" x2="1691.5" y2="620.5"/><line class="cls-10" x1="1673.5" y1="602.5" x2="1691.5" y2="584.5"/><line class="cls-10" x1="1673.5" y1="584.5" x2="1691.5" y2="602.5"/><line class="cls-10" x1="1673.5" y1="584.5" x2="1691.5" y2="566.5"/><line class="cls-10" x1="1673.5" y1="566.5" x2="1691.5" y2="584.5"/><line class="cls-10" x1="1673.5" y1="566.5" x2="1691.5" y2="548.5"/><line class="cls-10" x1="1673.5" y1="548.5" x2="1691.5" y2="566.5"/><line class="cls-10" x1="1673.5" y1="548.5" x2="1691.5" y2="530.5"/><line class="cls-10" x1="1673.5" y1="530.5" x2="1691.5" y2="548.5"/><line class="cls-10" x1="1673.5" y1="530.5" x2="1691.5" y2="512.5"/><line class="cls-10" x1="1673.5" y1="512.5" x2="1691.5" y2="530.5"/><line class="cls-10" x1="1655.5" y1="656.5" x2="1673.5" y2="638.5"/><line class="cls-10" x1="1655.5" y1="638.5" x2="1673.5" y2="656.5"/><line class="cls-10" x1="1655.5" y1="638.5" x2="1673.5" y2="620.5"/><line class="cls-10" x1="1655.5" y1="620.5" x2="1673.5" y2="638.5"/><line class="cls-10" x1="1655.5" y1="620.5" x2="1673.5" y2="602.5"/><line class="cls-10" x1="1655.5" y1="602.5" x2="1673.5" y2="620.5"/><line class="cls-10" x1="1655.5" y1="602.5" x2="1673.5" y2="584.5"/><line class="cls-10" x1="1655.5" y1="584.5" x2="1673.5" y2="602.5"/><line class="cls-10" x1="1655.5" y1="584.5" x2="1673.5" y2="566.5"/><line class="cls-10" x1="1655.5" y1="566.5" x2="1673.5" y2="584.5"/><line class="cls-10" x1="1655.5" y1="566.5" x2="1673.5" y2="548.5"/><line class="cls-10" x1="1655.5" y1="548.5" x2="1673.5" y2="566.5"/><line class="cls-10" x1="1655.5" y1="548.5" x2="1673.5" y2="530.5"/><line class="cls-10" x1="1655.5" y1="530.5" x2="1673.5" y2="548.5"/><line class="cls-10" x1="1655.5" y1="530.5" x2="1673.5" y2="512.5"/><line class="cls-10" x1="1655.5" y1="512.5" x2="1673.5" y2="530.5"/><rect class="cls-1" x="1611" y="513" width="27" height="9"/><rect class="cls-1" x="1611" y="612" width="27" height="9"/></g><g id="Roadmap_room" data-name="Roadmap room"><path id="Wall" class="cls-11" d="M207,81V864H1593V81Zm845.71,621H747V153h305.71Z"/><g id="Window"><rect class="cls-12" x="747" y="153" width="306" height="18"/><rect class="cls-12" x="765" y="639" width="270" height="18"/><rect class="cls-13" x="765" y="225" width="270" height="36"/><rect class="cls-14" x="765" y="261" width="270" height="36"/><rect class="cls-13" x="765" y="297" width="270" height="36"/><path class="cls-15" d="M1035,171H747V702h306V171Zm0,486H765V369h270Zm0-324H765V225h270Z"/><rect class="cls-12" x="765" y="324" width="270" height="9"/></g><g id="Floor"><rect class="cls-16" x="207" y="864" width="1386" height="27"/><g id="floor-2" data-name="floor"><rect class="cls-17" x="261" y="945" width="108" height="27"/><rect class="cls-12" x="369" y="945" width="108" height="27"/><rect class="cls-12" x="207" y="945" width="54" height="27"/><rect class="cls-17" x="477" y="945" width="108" height="27"/><rect class="cls-12" x="585" y="945" width="108" height="27"/><rect class="cls-17" x="693" y="945" width="108" height="27"/><rect class="cls-12" x="801" y="945" width="108" height="27"/><rect class="cls-17" x="909" y="945" width="108" height="27"/><rect class="cls-12" x="1017" y="945" width="108" height="27"/><rect class="cls-17" x="1125" y="945" width="108" height="27"/><rect class="cls-12" x="1233" y="945" width="108" height="27"/><rect class="cls-17" x="1341" y="945" width="108" height="27"/><rect class="cls-12" x="1449" y="945" width="108" height="27"/><rect class="cls-17" x="1557" y="945" width="36" height="27"/><rect class="cls-4" x="1404" y="918" width="108" height="27"/><rect class="cls-4" x="324" y="918" width="108" height="27"/><rect class="cls-4" x="207" y="918" width="9" height="27"/><rect class="cls-2" x="432" y="918" width="108" height="27"/><rect class="cls-2" x="216" y="918" width="108" height="27"/><rect class="cls-4" x="540" y="918" width="108" height="27"/><rect class="cls-2" x="648" y="918" width="108" height="27"/><rect class="cls-4" x="756" y="918" width="108" height="27"/><rect class="cls-2" x="864" y="918" width="108" height="27"/><rect class="cls-4" x="972" y="918" width="108" height="27"/><rect class="cls-2" x="1080" y="918" width="108" height="27"/><rect class="cls-4" x="1188" y="918" width="108" height="27"/><rect class="cls-2" x="1296" y="918" width="108" height="27"/><rect class="cls-2" x="1512" y="918" width="81" height="27"/><rect class="cls-4" x="1404" y="999" width="108" height="27"/><rect class="cls-4" x="324" y="999" width="108" height="27"/><rect class="cls-4" x="207" y="999" width="9" height="27"/><rect class="cls-2" x="432" y="999" width="108" height="27"/><rect class="cls-2" x="216" y="999" width="108" height="27"/><rect class="cls-4" x="540" y="999" width="108" height="27"/><rect class="cls-2" x="648" y="999" width="108" height="27"/><rect class="cls-4" x="756" y="999" width="108" height="27"/><rect class="cls-2" x="864" y="999" width="108" height="27"/><rect class="cls-4" x="972" y="999" width="108" height="27"/><rect class="cls-2" x="1080" y="999" width="108" height="27"/><rect class="cls-4" x="1188" y="999" width="108" height="27"/><rect class="cls-2" x="1296" y="999" width="108" height="27"/><rect class="cls-2" x="1512" y="999" width="81" height="27"/><rect class="cls-12" x="279" y="891" width="108" height="27"/><rect class="cls-17" x="387" y="891" width="108" height="27"/><rect class="cls-17" x="207" y="891" width="72" height="27"/><rect class="cls-12" x="495" y="891" width="108" height="27"/><rect class="cls-17" x="603" y="891" width="108" height="27"/><rect class="cls-12" x="711" y="891" width="108" height="27"/><rect class="cls-17" x="819" y="891" width="108" height="27"/><rect class="cls-12" x="927" y="891" width="108" height="27"/><rect class="cls-17" x="1035" y="891" width="108" height="27"/><rect class="cls-12" x="1143" y="891" width="108" height="27"/><rect class="cls-12" x="1359" y="891" width="108" height="27"/><rect class="cls-12" x="1575" y="891" width="18" height="27"/><rect class="cls-17" x="1467" y="891" width="108" height="27"/><rect class="cls-17" x="1251" y="891" width="108" height="27"/><rect class="cls-12" x="279" y="972" width="108" height="27"/><rect class="cls-17" x="387" y="972" width="108" height="27"/><rect class="cls-17" x="207" y="972" width="72" height="27"/><rect class="cls-12" x="495" y="972" width="108" height="27"/><rect class="cls-17" x="603" y="972" width="108" height="27"/><rect class="cls-12" x="711" y="972" width="108" height="27"/><rect class="cls-17" x="819" y="972" width="108" height="27"/><rect class="cls-12" x="927" y="972" width="108" height="27"/><rect class="cls-17" x="1035" y="972" width="108" height="27"/><rect class="cls-12" x="1143" y="972" width="108" height="27"/><rect class="cls-12" x="1359" y="972" width="108" height="27"/><rect class="cls-12" x="1575" y="972" width="18" height="27"/><rect class="cls-17" x="1467" y="972" width="108" height="27"/><rect class="cls-17" x="1251" y="972" width="108" height="27"/></g></g><g id="Whiteboard"><path class="cls-15" d="M1089,189V720h423V189Zm414,522H1098V198h405Z"/><rect class="cls-18" x="1098" y="198" width="405" height="513"/><rect class="cls-12" x="1089" y="180" width="423" height="9"/><rect class="cls-19" x="1116" y="207" width="279" height="144"/><rect class="cls-12" x="1116" y="207" width="27" height="27"/><rect class="cls-19" x="1116" y="360" width="279" height="144"/><rect class="cls-12" x="1116" y="360" width="27" height="27"/><rect class="cls-19" x="1116" y="513" width="279" height="144"/><rect class="cls-12" x="1116" y="513" width="27" height="27"/><g id="road"><rect class="cls-12" x="1413" y="207" width="45" height="495"/><rect class="cls-18" x="1431" y="216" width="9" height="27"/><rect class="cls-18" x="1431" y="261" width="9" height="27"/><rect class="cls-18" x="1431" y="306" width="9" height="27"/><rect class="cls-18" x="1431" y="351" width="9" height="27"/><rect class="cls-18" x="1431" y="396" width="9" height="27"/><rect class="cls-18" x="1431" y="441" width="9" height="27"/><rect class="cls-18" x="1431" y="486" width="9" height="27"/><rect class="cls-18" x="1431" y="531" width="9" height="27"/><rect class="cls-18" x="1431" y="576" width="9" height="27"/><rect class="cls-18" x="1431" y="621" width="9" height="27"/><rect class="cls-18" x="1431" y="666" width="9" height="27"/></g></g><g id="Whiteboard-2" data-name="Whiteboard"><path class="cls-15" d="M288,189V720H711V189ZM702,711H297V198H702Z"/><rect class="cls-18" x="297" y="198" width="405" height="513"/><rect class="cls-12" x="288" y="180" width="423" height="9"/><rect class="cls-19" x="306" y="207" width="162" height="180"/><rect class="cls-12" x="306" y="207" width="27" height="27"/><rect class="cls-19" x="531" y="207" width="162" height="279"/><rect class="cls-12" x="531" y="207" width="27" height="27"/><rect class="cls-19" x="306" y="396" width="162" height="306"/><rect class="cls-12" x="306" y="396" width="27" height="27"/><rect class="cls-19" x="531" y="495" width="162" height="207"/><rect class="cls-12" x="531" y="495" width="27" height="27"/><g id="road-2" data-name="road"><rect class="cls-12" x="477" y="207" width="45" height="495"/><rect class="cls-18" x="495" y="216" width="9" height="27"/><rect class="cls-18" x="495" y="261" width="9" height="27"/><rect class="cls-18" x="495" y="306" width="9" height="27"/><rect class="cls-18" x="495" y="351" width="9" height="27"/><rect class="cls-18" x="495" y="396" width="9" height="27"/><rect class="cls-18" x="495" y="441" width="9" height="27"/><rect class="cls-18" x="495" y="486" width="9" height="27"/><rect class="cls-18" x="495" y="531" width="9" height="27"/><rect class="cls-18" x="495" y="576" width="9" height="27"/><rect class="cls-18" x="495" y="621" width="9" height="27"/><rect class="cls-18" x="495" y="666" width="9" height="27"/></g></g><g id="Shelf"><path class="cls-12" d="M297,756V936H738V756Zm306,18H720v63H603Zm-126,0H585v63H477ZM315,918V774H459V918Zm162,0V855H585v63Zm126,0V855H720v63Z"/><rect class="cls-15" x="315" y="900" width="144" height="18"/><rect class="cls-15" x="477" y="900" width="108" height="18"/><rect class="cls-15" x="477" y="819" width="108" height="18"/><rect class="cls-15" x="297" y="738" width="441" height="18"/><rect class="cls-15" x="603" y="819" width="117" height="18"/><rect class="cls-20" x="477" y="855" width="108" height="45"/><rect class="cls-20" x="603" y="855" width="117" height="45"/><rect class="cls-20" x="603" y="774" width="117" height="45"/><rect class="cls-20" x="477" y="774" width="108" height="45"/><rect class="cls-15" x="603" y="900" width="117" height="18"/><rect class="cls-20" x="315" y="774" width="144" height="126"/><g id="green_book" data-name="green book"><rect class="cls-21" x="324" y="810" width="18" height="99"/><rect class="cls-22" x="342" y="810" width="9" height="99"/></g><g id="green_book-2" data-name="green book"><rect class="cls-13" x="417.5" y="809.36" width="18" height="99" transform="translate(-207.76 139.65) rotate(-15)"/><rect class="cls-14" x="435.04" y="805.86" width="9" height="99" transform="translate(-206.41 142.91) rotate(-15)"/></g><g id="blue_book" data-name="blue book"><rect class="cls-23" x="351" y="810" width="18" height="99"/><rect class="cls-24" x="369" y="810" width="9" height="99"/></g><g id="blue_book-2" data-name="blue book"><rect class="cls-23" x="612" y="783" width="18" height="45"/><rect class="cls-24" x="630" y="783" width="9" height="45"/></g><g id="blue_book-3" data-name="blue book"><rect class="cls-21" x="639" y="783" width="18" height="45"/><rect class="cls-22" x="657" y="783" width="9" height="45"/></g><g id="blue_book-4" data-name="blue book"><rect class="cls-21" x="612" y="864" width="18" height="45"/><rect class="cls-22" x="630" y="864" width="9" height="45"/></g><g id="blue_book-5" data-name="blue book"><rect class="cls-13" x="684" y="864" width="18" height="45"/><rect class="cls-14" x="702" y="864" width="9" height="45"/></g><g id="blue_book-6" data-name="blue book"><rect class="cls-25" x="684" y="783" width="18" height="45"/><rect class="cls-26" x="702" y="783" width="9" height="45"/></g><g id="red_book" data-name="red book"><rect class="cls-25" x="378" y="810" width="18" height="99"/><rect class="cls-26" x="396" y="810" width="9" height="99"/></g><g id="robot"><path class="cls-26" d="M516,783h21a12,12,0,0,1,12,12v33a0,0,0,0,1,0,0H504a0,0,0,0,1,0,0V795A12,12,0,0,1,516,783Z"/><path class="cls-25" d="M549,810h9a0,0,0,0,1,0,0v9a9,9,0,0,1-9,9h0a9,9,0,0,1-9-9v0a9,9,0,0,1,9-9Z" transform="translate(1098 1638) rotate(180)"/><path class="cls-18" d="M522,819h9a0,0,0,0,1,0,0v4.5a4.5,4.5,0,0,1-4.5,4.5h0a4.5,4.5,0,0,1-4.5-4.5V819a0,0,0,0,1,0,0Z" transform="translate(1053 1647) rotate(180)"/><path class="cls-25" d="M495,810h9a9,9,0,0,1,9,9v0a9,9,0,0,1-9,9h0a9,9,0,0,1-9-9v-9A0,0,0,0,1,495,810Z" transform="translate(1008 1638) rotate(180)"/><rect class="cls-25" x="513" y="792" width="27" height="18" rx="4.5"/><rect class="cls-27" x="513" y="792" width="9" height="18" rx="4.5"/><rect class="cls-27" x="531" y="792" width="9" height="18" rx="4.5"/><rect class="cls-14" x="540" y="810" width="9" height="9" rx="4.5" transform="translate(1089 1629) rotate(180)"/><rect class="cls-14" x="504" y="810" width="9" height="9" rx="4.5" transform="translate(1017 1629) rotate(180)"/></g><g id="papers"><rect class="cls-18" x="486" y="900" width="90" height="9"/><rect class="cls-19" x="486" y="891" width="90" height="9"/><rect class="cls-18" x="486" y="882" width="90" height="9"/><rect class="cls-19" x="486" y="873" width="90" height="9"/></g><g id="papers-2" data-name="papers"><rect class="cls-18" x="639" y="900" width="36" height="9"/><rect class="cls-19" x="639" y="891" width="36" height="9"/><rect class="cls-18" x="639" y="882" width="36" height="9"/><rect class="cls-19" x="639" y="873" width="36" height="9"/></g></g><g id="Table"><polygon class="cls-12" points="1323 837 1323 972 1287 972 1287 855 990 855 990 972 954 972 954 837 1323 837"/><rect class="cls-20" x="1242" y="855" width="36" height="90"/><rect class="cls-20" x="999" y="855" width="36" height="90"/><rect class="cls-15" x="954" y="774" width="369" height="63"/></g><g id="paper"><rect class="cls-18" x="1170" y="783" width="99" height="45"/><rect class="cls-16" x="1179" y="792" width="27" height="9"/><rect class="cls-16" x="1233" y="810" width="27" height="9"/><rect class="cls-16" x="1233" y="792" width="18" height="9"/><rect class="cls-16" x="1206" y="810" width="18" height="9"/><rect class="cls-16" x="1179" y="810" width="18" height="9"/><rect class="cls-16" x="1215" y="792" width="9" height="9"/></g><g id="pencil"><rect class="cls-24" x="1133.1" y="792.52" width="9" height="27" transform="translate(-250.6 676.79) rotate(-30)"/><rect class="cls-18" x="1124.1" y="785.93" width="9" height="9" transform="translate(-244.01 670.2) rotate(-30)"/><path class="cls-16" d="M1142.1,817.11h9a0,0,0,0,1,0,0v4.5a4.5,4.5,0,0,1-4.5,4.5h0a4.5,4.5,0,0,1-4.5-4.5v-4.5a0,0,0,0,1,0,0Z" transform="translate(-257.19 683.37) rotate(-30)"/></g><g id="pencil-2" data-name="pencil"><rect class="cls-26" x="1294.35" y="792" width="9" height="27" transform="translate(576.76 -541.51) rotate(30)"/><rect class="cls-18" x="1303.35" y="785.41" width="9" height="9" transform="translate(570.17 -548.1) rotate(30)"/><path class="cls-16" d="M1285.35,816.59h9a0,0,0,0,1,0,0v4.5a4.5,4.5,0,0,1-4.5,4.5h0a4.5,4.5,0,0,1-4.5-4.5v-4.5A0,0,0,0,1,1285.35,816.59Z" transform="translate(583.35 -534.92) rotate(30)"/></g><g id="BNC"><rect class="cls-28" x="990" y="756" width="9" height="63"/><rect class="cls-28" x="981" y="630" width="9" height="99"/><rect class="cls-28" x="1008" y="756" width="9" height="63"/><rect class="cls-28" x="1044" y="756" width="9" height="63"/><rect class="cls-27" x="981" y="729" width="99" height="27"/><rect class="cls-28" x="1080" y="729" width="9" height="36"/><rect class="cls-16" x="1080" y="765" width="9" height="9"/><rect class="cls-16" x="1062" y="819" width="9" height="9"/><rect class="cls-16" x="1044" y="819" width="9" height="9"/><rect class="cls-16" x="1008" y="819" width="9" height="9"/><rect class="cls-16" x="990" y="819" width="9" height="9"/><rect class="cls-27" x="945" y="603" width="54" height="27"/><rect class="cls-28" x="990" y="585" width="9" height="18"/><rect class="cls-28" x="972" y="585" width="9" height="18"/><rect class="cls-28" x="1062" y="756" width="9" height="63"/></g><g id="chair"><polygon class="cls-12" points="1503 774 1503 963 1485 963 1485 873 1395 873 1395 963 1377 963 1377 855 1485 855 1485 774 1503 774"/><rect class="cls-20" x="1458" y="873" width="18" height="63"/><rect class="cls-20" x="1404" y="873" width="18" height="63" transform="translate(2826 1809) rotate(180)"/><rect class="cls-15" x="1377" y="810" width="108" height="45"/><rect class="cls-15" x="1485" y="729" width="18" height="45"/></g><g id="chair-2" data-name="chair"><polygon class="cls-12" points="792 774 792 963 810 963 810 873 900 873 900 963 918 963 918 855 810 855 810 774 792 774"/><rect class="cls-20" x="819" y="873" width="18" height="63" transform="translate(1656 1809) rotate(180)"/><rect class="cls-20" x="873" y="873" width="18" height="63"/><rect class="cls-15" x="810" y="810" width="108" height="45" transform="translate(1728 1665) rotate(180)"/><rect class="cls-15" x="792" y="729" width="18" height="45" transform="translate(1602 1503) rotate(180)"/></g></g><g id="Maket"><g id="Transparent" class="cls-29"><path class="cls-30" d="M207,1V1080H1593V1ZM1548,981H252V126H1548Z"/><path class="cls-17" d="M1539,126H252V981H1548V126Zm0,846H261V135H1539Z"/><g id="_4" data-name="4"><polygon class="cls-31" points="549 990 541.8 981 525 981 531 999 603 1008 630 1044 648 1044 621 999 549 990"/><polygon class="cls-31" points="1203 126 1221.75 126 1242 99 1125 54 1062 54 1215 108 1203 126"/></g></g><g id="Not_transparent" data-name="Not transparent"><rect class="cls-9" x="1593" width="18" height="1079"/><rect class="cls-9" x="189" width="18" height="1079"/><rect class="cls-12" x="171" y="1026" width="1458" height="9"/><rect class="cls-17" x="153" width="1494" height="81"/><rect class="cls-15" x="171" y="1035" width="1458" height="36"/><rect class="cls-16" x="153" y="1071" width="1494" height="9"/></g><g id="Bricks_transparent" data-name="Bricks transparent" class="cls-29"><rect class="cls-8" x="900" y="981" width="171" height="36"/><rect class="cls-15" x="1080" y="981" width="99" height="36"/><g id="Side"><rect class="cls-32" x="171" y="135" width="54" height="72"/><rect class="cls-33" x="171" y="126" width="54" height="9"/><rect class="cls-15" x="180" y="225" width="72" height="72"/><rect class="cls-12" x="180" y="216" width="72" height="9"/><rect class="cls-15" x="1548" y="198" width="72" height="72"/><rect class="cls-12" x="1548" y="189" width="72" height="9"/><rect class="cls-8" x="171" y="315" width="81" height="72"/><rect class="cls-34" x="171" y="306" width="81" height="9"/><rect class="cls-34" x="171" y="657" width="54" height="9"/><rect class="cls-8" x="171" y="666" width="54" height="72"/><rect class="cls-33" x="1575" y="279" width="54" height="9"/><rect class="cls-32" x="1575" y="288" width="54" height="72"/><rect class="cls-33" x="171" y="837" width="72" height="9"/><rect class="cls-32" x="171" y="846" width="72" height="72"/><rect class="cls-12" x="180" y="747" width="72" height="9"/><rect class="cls-15" x="180" y="756" width="72" height="72"/><rect class="cls-33" x="1548" y="846" width="81" height="9"/><rect class="cls-32" x="1548" y="855" width="81" height="72"/><rect class="cls-12" x="180" y="927" width="72" height="9"/><polygon class="cls-15" points="252 981 252 936 180 936 180 1008 297 1008 297 981 252 981"/><rect class="cls-12" x="1548" y="936" width="72" height="9"/><polygon class="cls-15" points="1548 945 1548 981 1467 981 1467 1017 1620 1017 1620 945 1548 945"/><rect class="cls-34" x="1530" y="99" width="99" height="9"/><polygon class="cls-8" points="1530 108 1530 126 1548 126 1548 180 1629 180 1629 108 1530 108"/></g></g></g></g></g></g></svg>