<svg xmlns="http://www.w3.org/2000/svg" viewBox="0 0 161 4662"><defs><style>.cls-1{fill:#594763;}.cls-2{fill:#1a1423;}.cls-3{fill:#372549;}.cls-4{fill:#70587c;}.cls-5{fill:#774c60;}.cls-6{fill:#1e1528;}.cls-7{fill:#07060a;}.cls-8{fill:#483a51;}.cls-9{fill:#4f3341;}.cls-10{fill:#502f4c;}.cls-11{fill:#352034;}.cls-12{fill:#300101;}.cls-13{fill:#5b0101;}</style></defs><g id="Layer_2" data-name="Layer 2"><g id="Background_elements" data-name="Background elements"><g id="R_side_parallax" data-name="R side parallax"><g id="side_wall" data-name="side wall"><rect class="cls-1" x="143" y="423" width="18" height="945" transform="translate(304 1791) rotate(180)"/><rect class="cls-1" x="143" y="1503" width="18" height="945" transform="translate(304 3951) rotate(180)"/><rect class="cls-1" x="143" y="2583" width="18" height="945" transform="translate(304 6111) rotate(180)"/><rect class="cls-1" x="143" y="3663" width="18" height="945" transform="translate(304 8271) rotate(180)"/><rect class="cls-2" x="107" y="342" width="54" height="81" transform="translate(268 765) rotate(180)"/><rect class="cls-2" x="107" y="1422" width="54" height="81" transform="translate(268 2925) rotate(180)"/><rect class="cls-3" x="125" y="1368" width="36" height="54" transform="translate(286 2790) rotate(180)"/><rect class="cls-3" x="125" y="2448" width="36" height="54" transform="translate(286 4950) rotate(180)"/><rect class="cls-2" x="107" y="2502" width="54" height="81" transform="translate(268 5085) rotate(180)"/><rect class="cls-3" x="125" y="3528" width="36" height="54" transform="translate(286 7110) rotate(180)"/><rect class="cls-2" x="107" y="3582" width="54" height="81" transform="translate(268 7245) rotate(180)"/><rect class="cls-3" x="125" y="4608" width="36" height="54" transform="translate(286 9270) rotate(180)"/><rect class="cls-4" x="125" y="495" width="36" height="72" transform="translate(286 1062) rotate(180)"/><rect class="cls-3" x="134" y="585" width="27" height="72" transform="translate(295 1242) rotate(180)"/><rect class="cls-4" x="125" y="1530" width="36" height="72" transform="translate(286 3132) rotate(180)"/><rect class="cls-3" x="131" y="1890" width="30" height="72" transform="translate(292 3852) rotate(180)"/><rect class="cls-5" x="125" y="1710" width="36" height="72" transform="translate(286 3492) rotate(180)"/><rect class="cls-3" x="134" y="1800" width="27" height="72" transform="translate(295 3672) rotate(180)"/><rect class="cls-3" x="125" y="774" width="36" height="72" transform="translate(286 1620) rotate(180)"/><rect class="cls-3" x="134" y="1044" width="27" height="72" transform="translate(295 2160) rotate(180)"/><rect class="cls-6" x="134" y="1035" width="27" height="9" transform="translate(295 2079) rotate(180)"/><rect class="cls-6" x="125" y="1359" width="36" height="9" transform="translate(286 2727) rotate(180)"/><rect class="cls-7" x="107" y="1413" width="54" height="9" transform="translate(268 2835) rotate(180)"/><rect class="cls-8" x="125" y="1521" width="36" height="9" transform="translate(286 3051) rotate(180)"/><rect class="cls-8" x="122" y="1998" width="39" height="9" transform="translate(283 4005) rotate(180)"/><rect class="cls-6" x="131" y="1881" width="30" height="9"/><rect class="cls-9" x="125" y="1701" width="36" height="9" transform="translate(286 3411) rotate(180)"/><rect class="cls-9" x="134" y="2205" width="27" height="9" transform="translate(295 4419) rotate(180)"/><rect class="cls-6" x="134" y="1791" width="27" height="9" transform="translate(295 3591) rotate(180)"/><rect class="cls-6" x="134" y="2097" width="27" height="9" transform="translate(295 4203) rotate(180)"/><rect class="cls-6" x="125" y="2439" width="36" height="9" transform="translate(286 4887) rotate(180)"/><rect class="cls-7" x="107" y="2493" width="54" height="9" transform="translate(268 4995) rotate(180)"/><rect class="cls-6" x="125" y="3519" width="36" height="9" transform="translate(286 7047) rotate(180)"/><rect class="cls-7" x="107" y="3573" width="54" height="9" transform="translate(268 7155) rotate(180)"/><rect class="cls-6" x="125" y="4599" width="36" height="9" transform="translate(286 9207) rotate(180)"/><rect class="cls-6" x="125" y="765" width="36" height="9" transform="translate(286 1539) rotate(180)"/><rect class="cls-6" x="134" y="576" width="27" height="9" transform="translate(295 1161) rotate(180)"/><rect class="cls-8" x="125" y="486" width="36" height="9" transform="translate(286 981) rotate(180)"/><rect class="cls-4" x="116" y="945" width="45" height="72" transform="translate(277 1962) rotate(180)"/><rect class="cls-8" x="116" y="936" width="45" height="9" transform="translate(277 1881) rotate(180)"/><rect class="cls-3" x="134" y="2106" width="27" height="72" transform="translate(295 4284) rotate(180)"/><rect class="cls-4" x="122" y="2007" width="39" height="72" transform="translate(283 4086) rotate(180)"/><rect class="cls-5" x="125" y="2754" width="36" height="72" transform="translate(286 5580) rotate(180)"/><rect class="cls-3" x="134" y="2844" width="27" height="72" transform="translate(295 5760) rotate(180)"/><rect class="cls-8" x="134" y="3042" width="27" height="9" transform="translate(295 6093) rotate(180)"/><rect class="cls-9" x="125" y="2745" width="36" height="9" transform="translate(286 5499) rotate(180)"/><rect class="cls-6" x="134" y="2835" width="27" height="9" transform="translate(295 5679) rotate(180)"/><rect class="cls-4" x="134" y="3051" width="27" height="72" transform="translate(295 6174) rotate(180)"/><rect class="cls-5" x="116" y="3141" width="45" height="72" transform="translate(277 6354) rotate(180)"/><rect class="cls-3" x="125" y="3231" width="36" height="72" transform="translate(286 6534) rotate(180)"/><rect class="cls-8" x="134" y="3429" width="27" height="9" transform="translate(295 6867) rotate(180)"/><rect class="cls-9" x="116" y="3132" width="45" height="9" transform="translate(277 6273) rotate(180)"/><rect class="cls-6" x="125" y="3222" width="36" height="9" transform="translate(286 6453) rotate(180)"/><rect class="cls-3" x="125" y="3813" width="36" height="72" transform="translate(286 7698) rotate(180)"/><rect class="cls-6" x="125" y="3804" width="36" height="9" transform="translate(286 7617) rotate(180)"/><rect class="cls-4" x="116" y="3906" width="45" height="69" transform="translate(277 7881) rotate(180)"/><rect class="cls-8" x="116" y="3897" width="45" height="9" transform="translate(277 7803) rotate(180)"/><rect class="cls-5" x="116" y="4482" width="45" height="72" transform="translate(277 9036) rotate(180)"/><rect class="cls-9" x="116" y="4473" width="45" height="9" transform="translate(277 8955) rotate(180)"/><rect class="cls-3" x="125" y="4392" width="36" height="72" transform="translate(286 8856) rotate(180)"/><rect class="cls-6" x="125" y="4383" width="36" height="9"/><rect class="cls-4" x="134" y="3438" width="27" height="72" transform="translate(295 6948) rotate(180)"/><rect class="cls-5" x="134" y="2214" width="27" height="72" transform="translate(295 4500) rotate(180)"/><rect class="cls-3" x="71" y="243" width="90" height="99" transform="translate(232 585) rotate(180)"/><rect class="cls-4" x="107" y="9" width="54" height="234" transform="translate(268 252) rotate(180)"/><rect class="cls-8" x="107" width="54" height="9" transform="translate(268 9) rotate(180)"/><rect class="cls-6" x="71" y="234" width="90" height="9" transform="translate(232 477) rotate(180)"/></g><g id="tube"><rect class="cls-4" x="47" y="2331" width="36" height="351" transform="translate(130 5013) rotate(180)"/><rect class="cls-4" x="83" y="2655" width="63" height="27" transform="translate(229 5337) rotate(180)"/><rect class="cls-1" x="83" y="2637" width="63" height="18" transform="translate(229 5292) rotate(180)"/><rect class="cls-4" x="83" y="2331" width="63" height="27" transform="translate(229 4689) rotate(180)"/><rect class="cls-1" x="83" y="2313" width="63" height="18" transform="translate(229 4644) rotate(180)"/><rect class="cls-1" x="47" y="2313" width="36" height="18" transform="translate(130 4644) rotate(180)"/><rect class="cls-10" x="137" y="2331" width="9" height="36" transform="translate(283 4698) rotate(180)"/><rect class="cls-11" x="137" y="2304" width="9" height="27"/><rect class="cls-10" x="83" y="2331" width="9" height="36" transform="translate(175 4698) rotate(180)"/><rect class="cls-10" x="60.5" y="2587.5" width="9" height="54" transform="translate(-2549.5 2679.5) rotate(-90)"/><rect class="cls-10" x="38" y="2484" width="9" height="54" transform="translate(85 5022) rotate(-180)"/><rect class="cls-11" x="83" y="2304" width="9" height="27"/><rect class="cls-11" x="38" y="2457" width="9" height="27"/><rect class="cls-11" x="38" y="2583" width="9" height="27"/><rect class="cls-11" x="29" y="2484" width="9" height="9"/><rect class="cls-11" x="20" y="2493" width="9" height="9"/><rect class="cls-12" x="11" y="2493" width="9" height="9" transform="translate(31 4995) rotate(180)"/><rect class="cls-12" x="2" y="2466" width="9" height="9" transform="translate(13 4941) rotate(180)"/><rect class="cls-10" x="29" y="2493" width="9" height="27" transform="translate(67 5013) rotate(180)"/><rect class="cls-13" x="2" y="2475" width="9" height="63" transform="translate(13 5013) rotate(180)"/><rect class="cls-10" x="20" y="2502" width="9" height="9" transform="translate(49 5013) rotate(180)"/><rect class="cls-13" x="11" y="2502" width="9" height="9" transform="translate(31 5013) rotate(180)"/><rect class="cls-11" x="83" y="2583" width="9" height="27"/><rect class="cls-10" x="60.5" y="2380.5" width="9" height="54" transform="translate(-2342.5 2472.5) rotate(-90)"/><rect class="cls-11" x="38" y="2376" width="9" height="27"/><rect class="cls-11" x="83" y="2376" width="9" height="27"/><rect class="cls-10" x="83" y="2655" width="9" height="36" transform="translate(175 5346) rotate(180)"/><rect class="cls-11" x="83" y="2628" width="9" height="27"/><rect class="cls-10" x="137" y="2655" width="9" height="36" transform="translate(283 5346) rotate(180)"/><rect class="cls-11" x="137" y="2628" width="9" height="27"/></g><g id="tube-2" data-name="tube"><rect class="cls-4" x="45" y="4014" width="36" height="351" transform="translate(126 8379) rotate(180)"/><rect class="cls-4" x="81" y="4176" width="63" height="27" transform="translate(225 8379) rotate(180)"/><rect class="cls-1" x="81" y="4158" width="63" height="18" transform="translate(225 8334) rotate(180)"/><rect class="cls-4" x="81" y="4338" width="63" height="27" transform="translate(225 8703) rotate(180)"/><rect class="cls-1" x="81" y="4320" width="63" height="18" transform="translate(225 8658) rotate(180)"/><rect class="cls-4" x="81" y="4014" width="63" height="27" transform="translate(225 8055) rotate(180)"/><rect class="cls-1" x="81" y="3996" width="63" height="18" transform="translate(225 8010) rotate(180)"/><rect class="cls-1" x="45" y="3996" width="36" height="18" transform="translate(126 8010) rotate(180)"/><rect class="cls-10" x="135" y="4014" width="9" height="36" transform="translate(279 8064) rotate(180)"/><rect class="cls-11" x="135" y="3987" width="9" height="27"/><rect class="cls-10" x="81" y="4014" width="9" height="36" transform="translate(171 8064) rotate(180)"/><rect class="cls-10" x="58.5" y="4270.5" width="9" height="54" transform="translate(-4234.5 4360.5) rotate(-90)"/><rect class="cls-10" x="36" y="4167" width="9" height="54" transform="translate(81 8388) rotate(-180)"/><rect class="cls-11" x="81" y="3987" width="9" height="27"/><rect class="cls-10" x="81" y="4176" width="9" height="36" transform="translate(171 8388) rotate(180)"/><rect class="cls-11" x="81" y="4149" width="9" height="27"/><rect class="cls-11" x="36" y="4140" width="9" height="27"/><rect class="cls-11" x="36" y="4266" width="9" height="27"/><rect class="cls-11" x="27" y="4167" width="9" height="9"/><rect class="cls-11" x="18" y="4176" width="9" height="9"/><rect class="cls-12" x="9" y="4176" width="9" height="9" transform="translate(27 8361) rotate(180)"/><rect class="cls-12" y="4149" width="9" height="9" transform="translate(9 8307) rotate(180)"/><rect class="cls-10" x="27" y="4176" width="9" height="27" transform="translate(63 8379) rotate(180)"/><rect class="cls-13" y="4158" width="9" height="63" transform="translate(9 8379) rotate(180)"/><rect class="cls-10" x="18" y="4185" width="9" height="9" transform="translate(45 8379) rotate(180)"/><rect class="cls-13" x="9" y="4185" width="9" height="9" transform="translate(27 8379) rotate(180)"/><rect class="cls-11" x="81" y="4266" width="9" height="27"/><rect class="cls-10" x="58.5" y="4063.5" width="9" height="54" transform="translate(-4027.5 4153.5) rotate(-90)"/><rect class="cls-11" x="36" y="4059" width="9" height="27"/><rect class="cls-11" x="81" y="4059" width="9" height="27"/><rect class="cls-10" x="81" y="4338" width="9" height="36" transform="translate(171 8712) rotate(180)"/><rect class="cls-11" x="81" y="4311" width="9" height="27"/><rect class="cls-10" x="135" y="4338" width="9" height="36" transform="translate(279 8712) rotate(180)"/><rect class="cls-11" x="135" y="4311" width="9" height="27"/><rect class="cls-10" x="135" y="4176" width="9" height="36" transform="translate(279 8388) rotate(180)"/><rect class="cls-11" x="135" y="4149" width="9" height="27"/></g><g id="tube-3" data-name="tube"><rect class="cls-4" x="47" y="1278" width="36" height="387" transform="translate(130 2943) rotate(180)"/><rect class="cls-4" x="83" y="1638" width="63" height="27" transform="translate(229 3303) rotate(180)"/><rect class="cls-1" x="83" y="1620" width="63" height="18" transform="translate(229 3258) rotate(180)"/><rect class="cls-4" x="83" y="1278" width="63" height="27" transform="translate(229 2583) rotate(180)"/><rect class="cls-1" x="83" y="1260" width="63" height="18" transform="translate(229 2538) rotate(180)"/><rect class="cls-1" x="47" y="1260" width="36" height="18" transform="translate(130 2538) rotate(180)"/><rect class="cls-10" x="137" y="1278" width="9" height="36" transform="translate(283 2592) rotate(180)"/><rect class="cls-11" x="137" y="1251" width="9" height="27"/><rect class="cls-10" x="83" y="1278" width="9" height="36" transform="translate(175 2592) rotate(180)"/><rect class="cls-10" x="60.5" y="1570.5" width="9" height="54" transform="translate(-1532.5 1662.5) rotate(-90)"/><rect class="cls-10" x="60.5" y="1516.5" width="9" height="54" transform="translate(-1478.5 1608.5) rotate(-90)"/><rect class="cls-11" x="83" y="1251" width="9" height="27"/><rect class="cls-11" x="38" y="1512" width="9" height="27"/><rect class="cls-11" x="38" y="1566" width="9" height="27"/><rect class="cls-11" x="83" y="1512" width="9" height="27"/><rect class="cls-11" x="83" y="1566" width="9" height="27"/><rect class="cls-10" x="60.5" y="1372.5" width="9" height="54" transform="translate(-1334.5 1464.5) rotate(-90)"/><rect class="cls-11" x="38" y="1368" width="9" height="27"/><rect class="cls-11" x="83" y="1368" width="9" height="27"/><rect class="cls-10" x="60.5" y="1327.5" width="9" height="54" transform="translate(-1289.5 1419.5) rotate(-90)"/><rect class="cls-11" x="38" y="1323" width="9" height="27"/><rect class="cls-11" x="83" y="1323" width="9" height="27"/><rect class="cls-10" x="83" y="1638" width="9" height="36" transform="translate(175 3312) rotate(180)"/><rect class="cls-11" x="83" y="1611" width="9" height="27"/><rect class="cls-10" x="137" y="1638" width="9" height="36" transform="translate(283 3312) rotate(180)"/><rect class="cls-11" x="137" y="1611" width="9" height="27"/></g></g></g></g></svg>