<svg xmlns="http://www.w3.org/2000/svg" viewBox="0 0 162 4806"><defs><style>.cls-1{fill:#594763;}.cls-2{fill:#1a1423;}.cls-3{fill:#372549;}.cls-4{fill:#70587c;}.cls-5{fill:#774c60;}.cls-6{fill:#1e1528;}.cls-7{fill:#07060a;}.cls-8{fill:#483a51;}.cls-9{fill:#4f3341;}.cls-10{fill:#110a11;}.cls-11{fill:#352034;}.cls-12{fill:#502f4c;}.cls-13{fill:#300101;}.cls-14{fill:#5b0101;}.cls-15{fill:none;stroke:#502f4c;stroke-linecap:square;stroke-linejoin:round;stroke-width:5px;}.cls-16{fill:#110b11;}</style></defs><g id="Layer_2" data-name="Layer 2"><g id="Background_elements" data-name="Background elements"><g id="L_side_parallax" data-name="L side parallax"><g id="side_wall" data-name="side wall"><rect class="cls-1" y="567" width="18" height="945"/><rect class="cls-1" y="1647" width="18" height="945"/><rect class="cls-1" y="2727" width="18" height="945"/><rect class="cls-1" y="3807" width="18" height="945"/><rect class="cls-2" y="486" width="54" height="81"/><rect class="cls-2" y="1566" width="54" height="81"/><rect class="cls-3" y="1512" width="36" height="54"/><rect class="cls-3" y="2592" width="36" height="54"/><rect class="cls-2" y="2646" width="54" height="81"/><rect class="cls-3" y="3672" width="36" height="54"/><rect class="cls-2" y="3726" width="54" height="81"/><rect class="cls-3" y="4752" width="36" height="54"/><rect class="cls-4" y="639" width="36" height="72"/><rect class="cls-3" y="729" width="27" height="72"/><rect class="cls-4" y="1674" width="36" height="72"/><rect class="cls-3" y="1764" width="27" height="72"/><rect class="cls-5" y="1854" width="36" height="72"/><rect class="cls-3" y="1944" width="27" height="72"/><rect class="cls-5" y="918" width="36" height="72"/><rect class="cls-3" y="1188" width="27" height="72"/><rect class="cls-6" y="1179" width="27" height="9"/><rect class="cls-6" y="1503" width="36" height="9"/><rect class="cls-7" y="1557" width="54" height="9"/><rect class="cls-8" y="1665" width="36" height="9"/><rect class="cls-8" y="2142" width="27" height="9"/><rect class="cls-6" y="1755" width="27" height="9"/><rect class="cls-9" y="1845" width="36" height="9"/><rect class="cls-9" y="2349" width="27" height="9"/><rect class="cls-6" y="1935" width="27" height="9"/><rect class="cls-6" y="2241" width="27" height="9"/><rect class="cls-6" y="2583" width="36" height="9"/><rect class="cls-7" y="2637" width="54" height="9"/><rect class="cls-6" y="3663" width="36" height="9"/><rect class="cls-7" y="3717" width="54" height="9"/><rect class="cls-6" y="4743" width="36" height="9"/><rect class="cls-9" y="909" width="36" height="9"/><rect class="cls-6" y="720" width="27" height="9"/><rect class="cls-8" y="630" width="36" height="9"/><rect class="cls-4" y="1350" width="45" height="72"/><rect class="cls-8" y="1341" width="45" height="9"/><rect class="cls-3" y="2250" width="27" height="72"/><rect class="cls-4" y="2151" width="27" height="72"/><rect class="cls-5" y="2898" width="36" height="72"/><rect class="cls-3" y="2988" width="27" height="72"/><rect class="cls-8" y="3186" width="27" height="9"/><rect class="cls-9" y="2889" width="36" height="9"/><rect class="cls-6" y="2979" width="27" height="9"/><rect class="cls-4" y="3195" width="27" height="72"/><rect class="cls-5" y="3285" width="45" height="72"/><rect class="cls-3" y="3375" width="36" height="72"/><rect class="cls-8" y="3573" width="27" height="9"/><rect class="cls-9" y="3276" width="45" height="9"/><rect class="cls-6" y="3366" width="36" height="9"/><rect class="cls-5" y="4032" width="36" height="72"/><rect class="cls-3" y="4302" width="36" height="72"/><rect class="cls-9" y="4023" width="36" height="9"/><rect class="cls-6" y="4293" width="36" height="9"/><rect class="cls-4" y="4392" width="45" height="72"/><rect class="cls-8" y="4383" width="45" height="9"/><rect class="cls-5" y="4626" width="45" height="72"/><rect class="cls-9" y="4617" width="45" height="9"/><rect class="cls-3" y="4536" width="36" height="72"/><rect class="cls-6" y="4527" width="36" height="9"/><rect class="cls-4" y="3582" width="27" height="72"/><rect class="cls-5" y="2358" width="27" height="72"/><rect class="cls-3" y="261" width="90" height="225"/><rect class="cls-4" y="153" width="108" height="108"/><rect class="cls-8" y="144" width="108" height="9"/><rect class="cls-10" width="36" height="9"/><rect class="cls-10" x="27" y="108" width="45" height="9"/><polygon class="cls-11" points="27 117 27 36 36 36 36 9 0 9 0 144 72 144 72 117 27 117"/></g><g id="tube"><rect class="cls-4" x="81" y="1134" width="36" height="351"/><rect class="cls-4" x="18" y="1296" width="63" height="27"/><rect class="cls-1" x="18" y="1278" width="63" height="18"/><rect class="cls-4" x="18" y="1458" width="63" height="27"/><rect class="cls-1" x="18" y="1440" width="63" height="18"/><rect class="cls-4" x="18" y="1134" width="63" height="27"/><rect class="cls-1" x="18" y="1116" width="63" height="18"/><rect class="cls-1" x="81" y="1116" width="36" height="18"/><rect class="cls-12" x="18" y="1134" width="9" height="36"/><rect class="cls-11" x="18" y="1107" width="9" height="27"/><rect class="cls-12" x="72" y="1134" width="9" height="36"/><rect class="cls-12" x="94.5" y="1390.5" width="9" height="54" transform="translate(-1318.5 1516.5) rotate(-90)"/><rect class="cls-12" x="117" y="1287" width="9" height="54"/><rect class="cls-11" x="72" y="1107" width="9" height="27"/><rect class="cls-12" x="72" y="1296" width="9" height="36"/><rect class="cls-11" x="72" y="1269" width="9" height="27"/><rect class="cls-11" x="117" y="1260" width="9" height="27"/><rect class="cls-11" x="117" y="1386" width="9" height="27"/><rect class="cls-11" x="126" y="1287" width="9" height="9"/><rect class="cls-11" x="135" y="1296" width="9" height="9"/><rect class="cls-13" x="144" y="1296" width="9" height="9"/><rect class="cls-13" x="153" y="1269" width="9" height="9"/><rect class="cls-12" x="126" y="1296" width="9" height="27"/><rect class="cls-14" x="153" y="1278" width="9" height="63"/><rect class="cls-12" x="135" y="1305" width="9" height="9"/><rect class="cls-14" x="144" y="1305" width="9" height="9"/><rect class="cls-11" x="72" y="1386" width="9" height="27"/><rect class="cls-12" x="94.5" y="1183.5" width="9" height="54" transform="translate(-1111.5 1309.5) rotate(-90)"/><rect class="cls-11" x="117" y="1179" width="9" height="27"/><rect class="cls-11" x="72" y="1179" width="9" height="27"/><rect class="cls-12" x="72" y="1458" width="9" height="36"/><rect class="cls-11" x="72" y="1431" width="9" height="27"/><rect class="cls-12" x="18" y="1458" width="9" height="36"/><rect class="cls-11" x="18" y="1431" width="9" height="27"/><rect class="cls-12" x="18" y="1296" width="9" height="36"/><rect class="cls-11" x="18" y="1269" width="9" height="27"/></g><g id="tube-2" data-name="tube"><rect class="cls-4" x="81" y="2466" width="36" height="387"/><rect class="cls-4" x="18" y="2826" width="63" height="27"/><rect class="cls-1" x="18" y="2808" width="63" height="18"/><rect class="cls-4" x="18" y="2466" width="63" height="27"/><rect class="cls-1" x="18" y="2448" width="63" height="18"/><rect class="cls-1" x="81" y="2448" width="36" height="18"/><rect class="cls-12" x="18" y="2466" width="9" height="36"/><rect class="cls-11" x="18" y="2439" width="9" height="27"/><rect class="cls-12" x="72" y="2466" width="9" height="36"/><rect class="cls-12" x="94.5" y="2758.5" width="9" height="54" transform="translate(-2686.5 2884.5) rotate(-90)"/><rect class="cls-12" x="94.5" y="2704.5" width="9" height="54" transform="translate(-2632.5 2830.5) rotate(-90)"/><rect class="cls-11" x="72" y="2439" width="9" height="27"/><rect class="cls-11" x="117" y="2700" width="9" height="27"/><rect class="cls-11" x="117" y="2754" width="9" height="27"/><rect class="cls-11" x="72" y="2700" width="9" height="27"/><rect class="cls-11" x="72" y="2754" width="9" height="27"/><rect class="cls-12" x="94.5" y="2560.5" width="9" height="54" transform="translate(-2488.5 2686.5) rotate(-90)"/><rect class="cls-11" x="117" y="2556" width="9" height="27"/><rect class="cls-11" x="72" y="2556" width="9" height="27"/><rect class="cls-12" x="94.5" y="2515.5" width="9" height="54" transform="translate(-2443.5 2641.5) rotate(-90)"/><rect class="cls-11" x="117" y="2511" width="9" height="27"/><rect class="cls-11" x="72" y="2511" width="9" height="27"/><rect class="cls-12" x="72" y="2826" width="9" height="36"/><rect class="cls-11" x="72" y="2799" width="9" height="27"/><rect class="cls-12" x="18" y="2826" width="9" height="36"/><rect class="cls-11" x="18" y="2799" width="9" height="27"/></g><g id="Air"><rect class="cls-11" x="18" y="3879" width="27" height="36"/><rect class="cls-11" x="18" y="3978" width="27" height="36"/><rect class="cls-4" x="45" y="3843" width="72" height="207"/><rect class="cls-1" x="45" y="3816" width="72" height="27"/><rect class="cls-11" x="117" y="3816" width="9" height="27"/><rect x="63" y="3861" width="54" height="171"/><path class="cls-12" d="M117,3843v18H54v180h63v9h9V3843Zm0,189H63V3870h54Z"/><line class="cls-15" x1="63.5" y1="4031.5" x2="81.5" y2="4013.5"/><line class="cls-15" x1="62.5" y1="4014.5" x2="80.5" y2="4032.5"/><line class="cls-15" x1="81.5" y1="4031.5" x2="99.5" y2="4013.5"/><line class="cls-15" x1="81.5" y1="4013.5" x2="99.5" y2="4031.5"/><line class="cls-15" x1="99.5" y1="4031.5" x2="117.5" y2="4013.5"/><line class="cls-15" x1="99.5" y1="4013.5" x2="117.5" y2="4031.5"/><line class="cls-15" x1="99.5" y1="4013.5" x2="117.5" y2="3995.5"/><line class="cls-15" x1="99.5" y1="3995.5" x2="117.5" y2="4013.5"/><line class="cls-15" x1="99.5" y1="3995.5" x2="117.5" y2="3977.5"/><line class="cls-15" x1="99.5" y1="3977.5" x2="117.5" y2="3995.5"/><line class="cls-15" x1="99.5" y1="3977.5" x2="117.5" y2="3959.5"/><line class="cls-15" x1="99.5" y1="3959.5" x2="117.5" y2="3977.5"/><line class="cls-15" x1="99.5" y1="3959.5" x2="117.5" y2="3941.5"/><line class="cls-15" x1="99.5" y1="3941.5" x2="117.5" y2="3959.5"/><line class="cls-15" x1="99.5" y1="3941.5" x2="117.5" y2="3923.5"/><line class="cls-15" x1="99.5" y1="3923.5" x2="117.5" y2="3941.5"/><line class="cls-15" x1="99.5" y1="3923.5" x2="117.5" y2="3905.5"/><line class="cls-15" x1="99.5" y1="3905.5" x2="117.5" y2="3923.5"/><line class="cls-15" x1="99.5" y1="3905.5" x2="117.5" y2="3887.5"/><line class="cls-15" x1="99.5" y1="3887.5" x2="117.5" y2="3905.5"/><line class="cls-15" x1="99.5" y1="3887.5" x2="117.5" y2="3869.5"/><line class="cls-15" x1="99.5" y1="3869.5" x2="117.5" y2="3887.5"/><line class="cls-15" x1="80.5" y1="4013.5" x2="98.5" y2="3995.5"/><line class="cls-15" x1="80.5" y1="3995.5" x2="98.5" y2="4013.5"/><line class="cls-15" x1="80.5" y1="3995.5" x2="98.5" y2="3977.5"/><line class="cls-15" x1="80.5" y1="3977.5" x2="98.5" y2="3995.5"/><line class="cls-15" x1="80.5" y1="3977.5" x2="98.5" y2="3959.5"/><line class="cls-15" x1="80.5" y1="3959.5" x2="98.5" y2="3977.5"/><line class="cls-15" x1="80.5" y1="3959.5" x2="98.5" y2="3941.5"/><line class="cls-15" x1="80.5" y1="3941.5" x2="98.5" y2="3959.5"/><line class="cls-15" x1="80.5" y1="3941.5" x2="98.5" y2="3923.5"/><line class="cls-15" x1="80.5" y1="3923.5" x2="98.5" y2="3941.5"/><line class="cls-15" x1="80.5" y1="3923.5" x2="98.5" y2="3905.5"/><line class="cls-15" x1="80.5" y1="3905.5" x2="98.5" y2="3923.5"/><line class="cls-15" x1="80.5" y1="3905.5" x2="98.5" y2="3887.5"/><line class="cls-15" x1="80.5" y1="3887.5" x2="98.5" y2="3905.5"/><line class="cls-15" x1="80.5" y1="3887.5" x2="98.5" y2="3869.5"/><line class="cls-15" x1="80.5" y1="3869.5" x2="98.5" y2="3887.5"/><line class="cls-15" x1="62.5" y1="4013.5" x2="80.5" y2="3995.5"/><line class="cls-15" x1="62.5" y1="3995.5" x2="80.5" y2="4013.5"/><line class="cls-15" x1="62.5" y1="3995.5" x2="80.5" y2="3977.5"/><line class="cls-15" x1="62.5" y1="3977.5" x2="80.5" y2="3995.5"/><line class="cls-15" x1="62.5" y1="3977.5" x2="80.5" y2="3959.5"/><line class="cls-15" x1="62.5" y1="3959.5" x2="80.5" y2="3977.5"/><line class="cls-15" x1="62.5" y1="3959.5" x2="80.5" y2="3941.5"/><line class="cls-15" x1="62.5" y1="3941.5" x2="80.5" y2="3959.5"/><line class="cls-15" x1="62.5" y1="3941.5" x2="80.5" y2="3923.5"/><line class="cls-15" x1="62.5" y1="3923.5" x2="80.5" y2="3941.5"/><line class="cls-15" x1="62.5" y1="3923.5" x2="80.5" y2="3905.5"/><line class="cls-15" x1="62.5" y1="3905.5" x2="80.5" y2="3923.5"/><line class="cls-15" x1="62.5" y1="3905.5" x2="80.5" y2="3887.5"/><line class="cls-15" x1="62.5" y1="3887.5" x2="80.5" y2="3905.5"/><line class="cls-15" x1="62.5" y1="3887.5" x2="80.5" y2="3869.5"/><line class="cls-15" x1="62.5" y1="3869.5" x2="80.5" y2="3887.5"/><rect class="cls-16" x="18" y="3870" width="27" height="9"/><rect class="cls-16" x="18" y="3969" width="27" height="9"/></g><g id="Air-2" data-name="Air"><rect class="cls-11" x="18" y="4131" width="27" height="36"/><rect class="cls-11" x="18" y="4230" width="27" height="36"/><rect class="cls-4" x="45" y="4095" width="72" height="207"/><rect class="cls-1" x="45" y="4068" width="72" height="27"/><rect class="cls-11" x="117" y="4068" width="9" height="27"/><rect x="63" y="4113" width="54" height="171"/><path class="cls-12" d="M117,4095v18H54v180h63v9h9V4095Zm0,189H63V4122h54Z"/><line class="cls-15" x1="63.5" y1="4283.5" x2="81.5" y2="4265.5"/><line class="cls-15" x1="62.5" y1="4266.5" x2="80.5" y2="4284.5"/><line class="cls-15" x1="81.5" y1="4283.5" x2="99.5" y2="4265.5"/><line class="cls-15" x1="81.5" y1="4265.5" x2="99.5" y2="4283.5"/><line class="cls-15" x1="99.5" y1="4283.5" x2="117.5" y2="4265.5"/><line class="cls-15" x1="99.5" y1="4265.5" x2="117.5" y2="4283.5"/><line class="cls-15" x1="99.5" y1="4265.5" x2="117.5" y2="4247.5"/><line class="cls-15" x1="99.5" y1="4247.5" x2="117.5" y2="4265.5"/><line class="cls-15" x1="99.5" y1="4247.5" x2="117.5" y2="4229.5"/><line class="cls-15" x1="99.5" y1="4229.5" x2="117.5" y2="4247.5"/><line class="cls-15" x1="99.5" y1="4229.5" x2="117.5" y2="4211.5"/><line class="cls-15" x1="99.5" y1="4211.5" x2="117.5" y2="4229.5"/><line class="cls-15" x1="99.5" y1="4211.5" x2="117.5" y2="4193.5"/><line class="cls-15" x1="99.5" y1="4193.5" x2="117.5" y2="4211.5"/><line class="cls-15" x1="99.5" y1="4193.5" x2="117.5" y2="4175.5"/><line class="cls-15" x1="99.5" y1="4175.5" x2="117.5" y2="4193.5"/><line class="cls-15" x1="99.5" y1="4175.5" x2="117.5" y2="4157.5"/><line class="cls-15" x1="99.5" y1="4157.5" x2="117.5" y2="4175.5"/><line class="cls-15" x1="99.5" y1="4157.5" x2="117.5" y2="4139.5"/><line class="cls-15" x1="99.5" y1="4139.5" x2="117.5" y2="4157.5"/><line class="cls-15" x1="99.5" y1="4139.5" x2="117.5" y2="4121.5"/><line class="cls-15" x1="99.5" y1="4121.5" x2="117.5" y2="4139.5"/><line class="cls-15" x1="80.5" y1="4265.5" x2="98.5" y2="4247.5"/><line class="cls-15" x1="80.5" y1="4247.5" x2="98.5" y2="4265.5"/><line class="cls-15" x1="80.5" y1="4247.5" x2="98.5" y2="4229.5"/><line class="cls-15" x1="80.5" y1="4229.5" x2="98.5" y2="4247.5"/><line class="cls-15" x1="80.5" y1="4229.5" x2="98.5" y2="4211.5"/><line class="cls-15" x1="80.5" y1="4211.5" x2="98.5" y2="4229.5"/><line class="cls-15" x1="80.5" y1="4211.5" x2="98.5" y2="4193.5"/><line class="cls-15" x1="80.5" y1="4193.5" x2="98.5" y2="4211.5"/><line class="cls-15" x1="80.5" y1="4193.5" x2="98.5" y2="4175.5"/><line class="cls-15" x1="80.5" y1="4175.5" x2="98.5" y2="4193.5"/><line class="cls-15" x1="80.5" y1="4175.5" x2="98.5" y2="4157.5"/><line class="cls-15" x1="80.5" y1="4157.5" x2="98.5" y2="4175.5"/><line class="cls-15" x1="80.5" y1="4157.5" x2="98.5" y2="4139.5"/><line class="cls-15" x1="80.5" y1="4139.5" x2="98.5" y2="4157.5"/><line class="cls-15" x1="80.5" y1="4139.5" x2="98.5" y2="4121.5"/><line class="cls-15" x1="80.5" y1="4121.5" x2="98.5" y2="4139.5"/><line class="cls-15" x1="62.5" y1="4265.5" x2="80.5" y2="4247.5"/><line class="cls-15" x1="62.5" y1="4247.5" x2="80.5" y2="4265.5"/><line class="cls-15" x1="62.5" y1="4247.5" x2="80.5" y2="4229.5"/><line class="cls-15" x1="62.5" y1="4229.5" x2="80.5" y2="4247.5"/><line class="cls-15" x1="62.5" y1="4229.5" x2="80.5" y2="4211.5"/><line class="cls-15" x1="62.5" y1="4211.5" x2="80.5" y2="4229.5"/><line class="cls-15" x1="62.5" y1="4211.5" x2="80.5" y2="4193.5"/><line class="cls-15" x1="62.5" y1="4193.5" x2="80.5" y2="4211.5"/><line class="cls-15" x1="62.5" y1="4193.5" x2="80.5" y2="4175.5"/><line class="cls-15" x1="62.5" y1="4175.5" x2="80.5" y2="4193.5"/><line class="cls-15" x1="62.5" y1="4175.5" x2="80.5" y2="4157.5"/><line class="cls-15" x1="62.5" y1="4157.5" x2="80.5" y2="4175.5"/><line class="cls-15" x1="62.5" y1="4157.5" x2="80.5" y2="4139.5"/><line class="cls-15" x1="62.5" y1="4139.5" x2="80.5" y2="4157.5"/><line class="cls-15" x1="62.5" y1="4139.5" x2="80.5" y2="4121.5"/><line class="cls-15" x1="62.5" y1="4121.5" x2="80.5" y2="4139.5"/><rect class="cls-16" x="18" y="4122" width="27" height="9"/><rect class="cls-16" x="18" y="4221" width="27" height="9"/></g></g></g></g></svg>