<svg xmlns="http://www.w3.org/2000/svg" viewBox="0 0 1674 891"><defs><style>.cls-1{fill:#352034;}.cls-2,.cls-7{fill:none;stroke:#352034;}.cls-2{stroke-miterlimit:10;stroke-width:7px;}.cls-3{fill:#502f4c;}.cls-4{fill:#302030;}.cls-5{fill:#150025;}.cls-6{fill:#110b11;}.cls-7{stroke-linecap:round;stroke-linejoin:round;stroke-width:5px;}.cls-8{fill:#c8b8db;}.cls-9{fill:#372549;}.cls-10{fill:#70587c;}.cls-11{fill:#483a51;}.cls-12{fill:#110a11;}.cls-13{fill:#594763;}.cls-14{fill:#1e1528;}</style></defs><g id="Layer_2" data-name="Layer 2"><g id="Final_outside" data-name="Final outside"><g id="Roof_-_Outside" data-name="Roof - Outside"><g id="Billboard"><polygon class="cls-1" points="432 702 432 720 459 720 459 765 477 765 477 720 603 720 603 765 621 765 621 720 648 720 648 702 432 702"/><line class="cls-2" x1="477" y1="765" x2="603" y2="720"/><line class="cls-2" x1="603" y1="765" x2="477" y2="720"/><polygon class="cls-1" points="1026 702 1026 720 1053 720 1053 765 1071 765 1071 720 1197 720 1197 765 1215 765 1215 720 1242 720 1242 702 1026 702"/><line class="cls-2" x1="1071" y1="765" x2="1197" y2="720"/><line class="cls-2" x1="1197" y1="765" x2="1071" y2="720"/><polygon class="cls-3" points="252 81 252 90 252 693 252 702 1422 702 1422 693 1422 90 1422 81 252 81"/><rect class="cls-4" x="252" y="72" width="1170" height="9"/><polygon class="cls-5" points="1125 90 837 90 549 90 261 90 261 693 549 693 837 693 1125 693 1413 693 1413 90 1125 90"/><path class="cls-1" d="M207,81V702h45V81Zm36,612H216V90h27Z"/><rect class="cls-6" x="207" y="72" width="45" height="9"/><rect class="cls-6" x="216" y="684" width="27" height="9"/><line class="cls-7" x1="216" y1="693" x2="243" y2="666"/><line class="cls-7" x1="243" y1="693" x2="216" y2="666"/><line class="cls-7" x1="216" y1="666" x2="243" y2="639"/><line class="cls-7" x1="243" y1="666" x2="216" y2="639"/><line class="cls-7" x1="216" y1="639" x2="243" y2="612"/><line class="cls-7" x1="243" y1="639" x2="216" y2="612"/><line class="cls-7" x1="216" y1="612" x2="243" y2="585"/><line class="cls-7" x1="243" y1="612" x2="216" y2="585"/><line class="cls-7" x1="216" y1="585" x2="243" y2="558"/><line class="cls-7" x1="243" y1="585" x2="216" y2="558"/><line class="cls-7" x1="216" y1="558" x2="243" y2="531"/><line class="cls-7" x1="243" y1="558" x2="216" y2="531"/><line class="cls-7" x1="216" y1="531" x2="243" y2="504"/><line class="cls-7" x1="243" y1="531" x2="216" y2="504"/><line class="cls-7" x1="216" y1="504" x2="243" y2="477"/><line class="cls-7" x1="243" y1="504" x2="216" y2="477"/><line class="cls-7" x1="216" y1="477" x2="243" y2="450"/><line class="cls-7" x1="243" y1="477" x2="216" y2="450"/><line class="cls-7" x1="216" y1="450" x2="243" y2="423"/><line class="cls-7" x1="243" y1="450" x2="216" y2="423"/><line class="cls-7" x1="216" y1="423" x2="243" y2="396"/><line class="cls-7" x1="243" y1="423" x2="216" y2="396"/><line class="cls-7" x1="216" y1="396" x2="243" y2="369"/><line class="cls-7" x1="243" y1="396" x2="216" y2="369"/><line class="cls-7" x1="216" y1="369" x2="243" y2="342"/><line class="cls-7" x1="243" y1="369" x2="216" y2="342"/><line class="cls-7" x1="216" y1="342" x2="243" y2="315"/><line class="cls-7" x1="243" y1="342" x2="216" y2="315"/><line class="cls-7" x1="216" y1="315" x2="243" y2="288"/><line class="cls-7" x1="243" y1="315" x2="216" y2="288"/><line class="cls-7" x1="216" y1="288" x2="243" y2="261"/><line class="cls-7" x1="243" y1="288" x2="216" y2="261"/><line class="cls-7" x1="216" y1="261" x2="243" y2="234"/><line class="cls-7" x1="243" y1="261" x2="216" y2="234"/><line class="cls-7" x1="216" y1="234" x2="243" y2="207"/><line class="cls-7" x1="243" y1="234" x2="216" y2="207"/><line class="cls-7" x1="216" y1="207" x2="243" y2="180"/><line class="cls-7" x1="243" y1="207" x2="216" y2="180"/><line class="cls-7" x1="216" y1="180" x2="243" y2="153"/><line class="cls-7" x1="243" y1="180" x2="216" y2="153"/><line class="cls-7" x1="216" y1="153" x2="243" y2="126"/><line class="cls-7" x1="243" y1="153" x2="216" y2="126"/><line class="cls-7" x1="216" y1="126" x2="243.5" y2="98.5"/><line class="cls-7" x1="243" y1="126" x2="215.5" y2="98.5"/><path class="cls-1" d="M1422,81V702h45V81Zm36,612h-27V90h27Z"/><rect class="cls-6" x="1422" y="72" width="45" height="9"/><rect class="cls-6" x="1431" y="684" width="27" height="9"/><line class="cls-7" x1="1431" y1="693" x2="1458" y2="666"/><line class="cls-7" x1="1458" y1="693" x2="1431" y2="666"/><line class="cls-7" x1="1431" y1="666" x2="1458" y2="639"/><line class="cls-7" x1="1458" y1="666" x2="1431" y2="639"/><line class="cls-7" x1="1431" y1="639" x2="1458" y2="612"/><line class="cls-7" x1="1458" y1="639" x2="1431" y2="612"/><line class="cls-7" x1="1431" y1="612" x2="1458" y2="585"/><line class="cls-7" x1="1458" y1="612" x2="1431" y2="585"/><line class="cls-7" x1="1431" y1="585" x2="1458" y2="558"/><line class="cls-7" x1="1458" y1="585" x2="1431" y2="558"/><line class="cls-7" x1="1431" y1="558" x2="1458" y2="531"/><line class="cls-7" x1="1458" y1="558" x2="1431" y2="531"/><line class="cls-7" x1="1431" y1="531" x2="1458" y2="504"/><line class="cls-7" x1="1458" y1="531" x2="1431" y2="504"/><line class="cls-7" x1="1431" y1="504" x2="1458" y2="477"/><line class="cls-7" x1="1458" y1="504" x2="1431" y2="477"/><line class="cls-7" x1="1431" y1="477" x2="1458" y2="450"/><line class="cls-7" x1="1458" y1="477" x2="1431" y2="450"/><line class="cls-7" x1="1431" y1="450" x2="1458" y2="423"/><line class="cls-7" x1="1458" y1="450" x2="1431" y2="423"/><line class="cls-7" x1="1431" y1="423" x2="1458" y2="396"/><line class="cls-7" x1="1458" y1="423" x2="1431" y2="396"/><line class="cls-7" x1="1431" y1="396" x2="1458" y2="369"/><line class="cls-7" x1="1458" y1="396" x2="1431" y2="369"/><line class="cls-7" x1="1431" y1="369" x2="1458" y2="342"/><line class="cls-7" x1="1458" y1="369" x2="1431" y2="342"/><line class="cls-7" x1="1431" y1="342" x2="1458" y2="315"/><line class="cls-7" x1="1458" y1="342" x2="1431" y2="315"/><line class="cls-7" x1="1431" y1="315" x2="1458" y2="288"/><line class="cls-7" x1="1458" y1="315" x2="1431" y2="288"/><line class="cls-7" x1="1431" y1="288" x2="1458" y2="261"/><line class="cls-7" x1="1458" y1="288" x2="1431" y2="261"/><line class="cls-7" x1="1431" y1="261" x2="1458" y2="234"/><line class="cls-7" x1="1458" y1="261" x2="1431" y2="234"/><line class="cls-7" x1="1431" y1="234" x2="1458" y2="207"/><line class="cls-7" x1="1458" y1="234" x2="1431" y2="207"/><line class="cls-7" x1="1431" y1="207" x2="1458" y2="180"/><line class="cls-7" x1="1458" y1="207" x2="1431" y2="180"/><line class="cls-7" x1="1431" y1="180" x2="1458" y2="153"/><line class="cls-7" x1="1458" y1="180" x2="1431" y2="153"/><line class="cls-7" x1="1431" y1="153" x2="1458" y2="126"/><line class="cls-7" x1="1458" y1="153" x2="1431" y2="126"/><line class="cls-7" x1="1431" y1="126" x2="1458.5" y2="98.5"/><line class="cls-7" x1="1458" y1="126" x2="1430.5" y2="98.5"/><rect class="cls-4" x="432" y="54" width="90" height="9"/><rect class="cls-4" x="558" y="54" width="90" height="9"/><rect class="cls-4" x="459" width="162" height="9"/><polygon class="cls-1" points="558 63 558 45 522 45 522 63 432 63 432 81 648 81 648 63 558 63"/><polygon class="cls-3" points="648 45 432 45 459 9 621 9 648 45"/><rect class="cls-8" x="459" y="27" width="162" height="9"/><rect class="cls-4" x="1026" y="54" width="90" height="9"/><rect class="cls-4" x="1152" y="54" width="90" height="9"/><rect class="cls-4" x="1053" width="162" height="9"/><polygon class="cls-1" points="1152 63 1152 45 1116 45 1116 63 1026 63 1026 81 1242 81 1242 63 1152 63"/><polygon class="cls-3" points="1242 45 1026 45 1053 9 1215 9 1242 45"/><rect class="cls-8" x="1053" y="27" width="162" height="9"/></g><g id="Roof_top" data-name="Roof top"><rect class="cls-9" x="18" y="855" width="1638" height="36"/><rect class="cls-10" y="747" width="261" height="117"/><rect class="cls-11" y="738" width="261" height="9"/><rect class="cls-11" x="594" y="738" width="486" height="9"/><rect class="cls-11" x="324" y="738" width="207" height="9"/><rect class="cls-11" x="1143" y="738" width="207" height="9"/><rect class="cls-11" x="1413" y="738" width="261" height="9"/><rect class="cls-10" x="324" y="747" width="207" height="117"/><polygon class="cls-10" points="837 747 594 747 594 864 837 864 1080 864 1080 747 837 747"/><rect class="cls-10" x="1143" y="747" width="207" height="117"/><rect class="cls-10" x="1413" y="747" width="261" height="117"/><rect class="cls-1" x="1350" y="765" width="63" height="18"/><rect class="cls-1" x="1080" y="765" width="63" height="18"/><rect class="cls-1" x="531" y="765" width="63" height="18"/><rect class="cls-1" x="261" y="765" width="63" height="18"/><rect class="cls-12" x="261" y="756" width="63" height="9"/><rect class="cls-12" x="531" y="756" width="63" height="9"/><rect class="cls-12" x="1080" y="756" width="63" height="9"/><rect class="cls-12" x="1350" y="756" width="63" height="9"/><rect class="cls-13" x="1350" y="783" width="63" height="63"/><rect class="cls-13" x="1080" y="783" width="63" height="63"/><rect class="cls-13" x="531" y="783" width="63" height="63"/><rect class="cls-13" x="261" y="783" width="63" height="63"/><rect class="cls-14" x="261" y="846" width="63" height="9"/><rect class="cls-14" x="531" y="846" width="63" height="9"/><rect class="cls-14" x="1080" y="846" width="63" height="9"/><rect class="cls-14" x="1350" y="846" width="63" height="9"/></g></g></g></g></svg>