<svg xmlns="http://www.w3.org/2000/svg" viewBox="0 0 1920 252"><defs><linearGradient id="a" x1="274.93" y1="117" x2="274.93" y2="72" gradientUnits="userSpaceOnUse"><stop offset="0" stop-color="#7f47dd" stop-opacity=".25"/><stop offset="1" stop-color="#00ae17" stop-opacity="0"/></linearGradient></defs><g data-name="Layer 2"><g data-name="Background elements"><g data-name="1"><path fill="url(#a)" d="M189.3 72h171.27v45H189.3z"/><path data-name="1" d="M1911 90V54h-18v36h-27v54h-27.05v-18a18 18 0 00-18-18v9h-9v-9a18 18 0 00-18 18v18h-54.08v-18h9v-9h-9v-9h9v-9h-9V81a9 9 0 00-9-9h-9v9h9v18h-9v9h9v36h-27v-27a9 9 0 00-9-9h-27V90a9 9 0 00-9-9h-18a18 18 0 00-18 18v36h-27v18h-9v-18h-9V90h-9v45h-9v-18h-9v18h-9V63h-9v72h-9V99h-9v9h-9v9h-9v9h-9v9h-9v18h-54.08v-18h-36.06v-27a9 9 0 00-9-9h-18a9 9 0 00-9 9v27h-36v18h-18v-45h-108.87v36h-9V90a27 27 0 00-27 27v27h-9v-9a27 27 0 00-27-27v36h-9V99h-9V81h-45.07v18h-9V63h-9v36h-9V27h-9v72h-9v90h-117.4A63.06 63.06 0 00830 243h-37.9a36.06 36.06 0 00-34.92-27H703.1v-63h-9v-18h9v-18h-9v-9h-18v9h-9v18h9v9H531.83V63h-9a18 18 0 00-36.06 0h-18v18h-9v-9h-9V36h-9v36h-9V54h-9v18h-9v36.5h-45.19V63h-189.3v18h-44.57V63H54.08V36h-9v27H27V45h9v-9h-9V18h9V9h-9V0h-9v9H9v9h9v45H0v189h1920V90zM234.37 108h-9V81h9zm18 0h-9V81h9zm18 0h-9V81h9zm18 0h-9V81h9zm18 0h-9V81h9zm18 0h-9V81h9zm261.41 54h90.14v9h-90zm-54.09 0h36.06v27h-18v-9h-18zm0 27h9v9h-9zm0 27v-9h18v-9h18v18zm45.07 0v-27h27v27zm36.24 0v-27h27v27zm36 0v-27h27v27zm667.05 18h-18v-9h18zm0-36h-18v-18h18zm45.07-90h18v9h-18zm0 27v-9h18v9zm117.18 99h-54.08v-9h54.08zm0-36h-54.08v-18h54.08zm171.27-63V90h9v45zm18 0v-18h9v18zm18 0v-18h9v18z" fill="#07060a"/><path d="M1018.59 18h9.01v9h-9.01zM45.07 27h9.01v9h-9.01z" fill="#ff0"/><path fill="red" d="M1036.62 54h9.01v9h-9.01z"/><path d="M441.69 27h9.01v9h-9.01zm1108.73 81h9.01v9h-9.01z" fill="#0f0"/><path d="M423.66 45h9.01v9h-9.01zm1144.79 36h9.01v9h-9.01z" fill="#f0f"/></g></g></g></svg>