<svg xmlns="http://www.w3.org/2000/svg" xmlns:xlink="http://www.w3.org/1999/xlink" viewBox="0 0 1920 549"><defs><linearGradient id="Безымянный_градиент_14" x1="1721.69" y1="549" x2="1721.69" y2="99" gradientUnits="userSpaceOnUse"><stop offset="0" stop-color="#7f47dd" stop-opacity=".25"/><stop offset="1" stop-color="#fbae17" stop-opacity="0"/></linearGradient><linearGradient id="Безымянный_градиент_14-2" x1="1509.86" x2="1509.86" y2="234" xlink:href="#Безымянный_градиент_14"/><linearGradient id="Безымянный_градиент_14-3" x1="946.48" x2="946.48" y2="342" xlink:href="#Безымянный_градиент_14"/><linearGradient id="Безымянный_градиент_21" x1="220.85" y1="378" x2="220.85" y2="153" gradientUnits="userSpaceOnUse"><stop offset="0" stop-color="#feff00" stop-opacity=".25"/><stop offset="1" stop-color="#fbae17" stop-opacity="0"/></linearGradient><linearGradient id="Безымянный_градиент_14-4" x1="1117.75" x2="1117.75" y2="216" xlink:href="#Безымянный_градиент_14"/><linearGradient id="Безымянный_градиент_17" x1="1320.56" y1="549" x2="1320.56" y2="270" gradientUnits="userSpaceOnUse"><stop offset="0" stop-color="#7f47dd" stop-opacity=".25"/><stop offset="1" stop-color="#00ae17" stop-opacity="0"/></linearGradient><linearGradient id="Безымянный_градиент_17-2" x1="635.49" x2="635.49" y2="108" xlink:href="#Безымянный_градиент_17"/><style>.cls-2{fill:#d8aa90}.cls-3{fill:#d3d096}.cls-4{fill:#a48cbd}.cls-5{fill:#d9c899}.cls-6{fill:#a28eb9}.cls-8{fill:#96c6b9}.cls-16{fill:#ff0}.cls-17{fill:red}</style></defs><g id="Layer_2" data-name="Layer 2"><g id="Background_elements" data-name="Background elements"><g id="_2" data-name="2"><path id="_2-2" data-name="2" d="M1856.9 279v-45h-18v-45h-9v27h-9v-63h-9v63h-9v63h-27V81h18a27 27 0 00-27-27v-9a45.07 45.07 0 00-90.14 0v9a27 27 0 00-27 27h18v198h-54.09v-72h-54.08v9h-18v-18h-63.1v18h-18v-9h-54.29v99h-36.06v-45h-9v-9h9V144a18 18 0 00-18-18V54h-9v90h-9v-36h-9V72h-9v36h-9V18h-9v72a18 18 0 00-18 18h-9v144h9v9h-9v54h-9v-27h-27v-9h9v-18a27 27 0 00-54.08 0v18h9v9h-27v27h-9V198H1127v9h-18v-9h-36v279h-81.45V324h-36.06v9h-18v-9h-36.08v153h-63.1v-18a27 27 0 00-27-27v-27h-9v27h-9v-36h-9v36a45 45 0 00-45.08 45h-54.16V288h18v-63h-18v-9h-9v-9h9v-9h18v-63h-18V99h-9V63h-9V18h-9v63h-9v18h-9V81h-9V36h-9v45h-9V63h-9v18h-9v18h-9v36h-18v63h18v9h9v9h-9v9h-18v63h18v189h-81.28v-90H342.54v-54a27 27 0 00-27.05-27v-99h-18v9h-36v-27h-9a18 18 0 00-18-18v-54h-9v54h-9V90h-9v81h-9v-27h-9v27a18 18 0 00-18 18h-18a18 18 0 00-18-18v-45h-9v45a18 18 0 00-18 18h-27v198H0v162h1920V279zM685.07 234h9v18h-9zm0 27h9v18h-9zm0-117h9v18h-9zm0 27h9v18h-9zm-99.15 18h-9v-18h9zm0-27h-9v-18h9zM297.46 306h-36v-45h36zm0-54h-36v-9h36zm0-18h-36v-9h36zm288.46 45h-9v-18h9zm0-27h-9v-18h9zm216.33 225v-18h9v18zm910.43-396h-18V54h18zm36 0h-18V54h18z" fill="#1a1423"/><g id="lights_2" data-name="lights 2"><path class="cls-2" d="M1081.69 216h18.03v9h-18.03z"/><path class="cls-3" d="M1081.69 234h18.03v9h-18.03z"/><path class="cls-4" d="M1081.69 252h18.03v9h-18.03zm0 18h18.03v9h-18.03z"/><path class="cls-2" d="M1081.69 288h18.03v9h-18.03zm0 18h18.03v9h-18.03zm54.08-54h18.03v9h-18.03zm0 18h18.03v9h-18.03z"/><path class="cls-3" d="M1135.77 288h18.03v9h-18.03z"/><path class="cls-4" d="M1135.77 306h18.03v9h-18.03zm0 18h18.03v9h-18.03zm0 18h18.03v9h-18.03zm-27.04-108h18.03v9h-18.03z"/><path class="cls-2" d="M1108.73 252h18.03v9h-18.03z"/><path class="cls-4" d="M1108.73 270h18.03v9h-18.03z"/><path class="cls-3" d="M1108.73 288h18.03v9h-18.03zm0 18h18.03v9h-18.03z"/><path class="cls-4" d="M1108.73 324h18.03v9h-18.03zm-198.31 18h18.03v9h-18.03zm0 18h18.03v9h-18.03z"/><path class="cls-5" d="M910.42 378h18.03v9h-18.03zm0 18h18.03v9h-18.03zm0 18h18.03v9h-18.03z"/><path class="cls-2" d="M910.42 432h18.03v9h-18.03z"/><path class="cls-5" d="M964.51 342h18.03v9h-18.03zm-27.05 18h18.03v9h-18.03z"/><path class="cls-2" d="M937.46 378h18.03v9h-18.03z"/><path class="cls-4" d="M937.46 396h18.03v9h-18.03z"/><path class="cls-5" d="M937.46 414h18.03v9h-18.03zm0 18h18.03v9h-18.03z"/><path class="cls-2" d="M937.46 450h18.03v9h-18.03z"/><path class="cls-4" d="M964.51 360h18.03v9h-18.03z"/><path class="cls-2" d="M964.51 378h18.03v9h-18.03z"/><path class="cls-4" d="M964.51 396h18.03v9h-18.03z"/><path class="cls-2" d="M964.51 414h18.03v9h-18.03z"/><path class="cls-5" d="M964.51 432h18.03v9h-18.03z"/><path class="cls-6" d="M1320.51 162h.1a31.5 31.5 0 0131.5 31.5V207H1289v-13.5a31.5 31.5 0 0131.5-31.5z"/><path d="M1298 216h45.07v4.5a22.5 22.5 0 01-22.5 22.5h-.07a22.5 22.5 0 01-22.5-22.5V216z" fill="#92b393"/><path class="cls-8" d="M603.94 225h27.04v9h-27.04zm36.06 0h27.04v9H640zm-18.03 27h45.07v9h-45.07zm-18.03 0h9.01v9h-9.01zm0 27h45.07v9h-45.07zm54.09 0h9.01v9h-9.01zm-54.09 27h27.04v9h-27.04zm36.06 0h27.04v9H640zm-18.03 27h45.07v9h-45.07zm-18.03 0h9.01v9h-9.01zm0-225h27.04v9h-27.04zm0 27h45.07v9h-45.07zm820.29 99h45.07v9h-45.07z"/><path class="cls-5" d="M1424.23 252h45.07v9h-45.07z"/><path class="cls-8" d="M1424.23 270h45.07v9h-45.07z"/><path class="cls-2" d="M1424.23 288h45.07v9h-45.07zm0 18h45.07v9h-45.07z"/><path class="cls-8" d="M1424.23 324h45.07v9h-45.07zM1280 270h45.07v9H1280zm36.06 18h45.07v9h-45.07zM1280 306h45.07v9H1280zm54.08 0h27.04v9h-27.04zM1280 288h27.04v9H1280zm54.08-18h27.04v9h-27.04z"/><path class="cls-6" d="M1487.32 270h45.07v9h-45.07z"/><path class="cls-5" d="M1487.32 288h45.07v9h-45.07zm0 18h45.07v9h-45.07z"/><path class="cls-2" d="M1487.32 324h45.07v9h-45.07z"/><path class="cls-8" d="M1487.32 342h45.07v9h-45.07z"/><path class="cls-5" d="M1550.42 270h45.07v9h-45.07z"/><path class="cls-2" d="M1550.42 288h45.07v9h-45.07z"/><path class="cls-8" d="M1550.42 306h45.07v9h-45.07zm0 18h45.07v9h-45.07z"/><path class="cls-6" d="M1487.32 252h45.07v9h-45.07z"/><path class="cls-2" d="M1550.42 252h45.07v9h-45.07zm-63.1-18h45.07v9h-45.07z"/><rect class="cls-8" x="1739.72" y="99" width="18.03" height="18" rx="9"/><rect class="cls-8" x="1712.68" y="99" width="18.03" height="18" rx="9"/><rect class="cls-8" x="1685.63" y="99" width="18.03" height="18" rx="9"/><rect class="cls-5" x="1739.72" y="126" width="18.03" height="18" rx="9"/><rect class="cls-2" x="1712.68" y="126" width="18.03" height="18" rx="9"/><rect class="cls-8" x="1685.63" y="126" width="18.03" height="18" rx="9"/><rect class="cls-5" x="1739.72" y="153" width="18.03" height="18" rx="9"/><rect class="cls-6" x="1712.68" y="153" width="18.03" height="18" rx="9"/><rect class="cls-2" x="1739.72" y="180" width="18.03" height="18" rx="9"/><rect class="cls-6" x="1739.72" y="207" width="18.03" height="18" rx="9"/><rect class="cls-8" x="1712.68" y="180" width="18.03" height="18" rx="9"/><rect class="cls-5" x="1685.63" y="153" width="18.03" height="18" rx="9"/><path class="cls-6" d="M1550.42 234h45.07v9h-45.07z"/><path class="cls-8" d="M658.03 135h9.01v9h-9.01zm-54.09 27h27.04v9h-27.04zm36.06 0h27.04v9H640zm-18.03 27h45.07v9h-45.07zm-18.03 0h9.01v9h-9.01zm0 171h45.07v9h-45.07zm0 45h9.01v63h-9.01zm27.05-18H640v81h-9.01zm27.04 9h9.01v72h-9.01zm0-36h9.01v9h-9.01z"/><path fill="url(#Безымянный_градиент_14)" d="M1685.63 99h72.11v450h-72.11z"/><path fill="url(#Безымянный_градиент_14-2)" d="M1424.23 234h171.27v315h-171.27z"/><path fill="url(#Безымянный_градиент_14-3)" d="M910.42 342h72.11v207h-72.11z"/><path fill="url(#Безымянный_градиент_21)" d="M72.11 153h297.46v225H72.11z"/><path fill="url(#Безымянный_градиент_14-4)" d="M1081.69 216h72.11v333h-72.11z"/><path fill="url(#Безымянный_градиент_17)" d="M1280 270h81.13v279H1280z"/><path fill="url(#Безымянный_градиент_17-2)" d="M594.93 108h81.13v441h-81.13z"/><path class="cls-16" d="M658.03 9h9.01v9h-9.01zm658.03 54h9.01v9h-9.01z"/><path class="cls-17" d="M603.94 54h9.01v9h-9.01zm1225.92 126h9.01v9h-9.01zM1298.03 9h9.01v9h-9.01z"/><path d="M126.2 117h9.01v9h-9.01zm676.05 279h9.01v9h-9.01z" fill="#0f0"/><path fill="#f0f" d="M1811.83 144h9.01v9h-9.01z"/><path class="cls-17" d="M207.32 81h9.01v9h-9.01z"/><ellipse class="cls-17" cx="157.75" cy="283.5" rx="55.09" ry="55"/><path class="cls-16" d="M157.75 232a51.5 51.5 0 11-51.6 51.5 51.61 51.61 0 0151.6-51.5m0-7a58.5 58.5 0 1058.59 58.5 58.55 58.55 0 00-58.59-58.5z"/><path class="cls-17" d="M167.26 288.66v-17.32l15.02-8.66 15.03 8.66v17.32l-15.03 8.66-15.02-8.66z"/><path class="cls-16" d="M182.28 265l13 7.51v15l-13 7.51-13-7.51v-15l13-7.51m0-4.62l-17 9.82v19.62l17 9.82 17-9.82v-19.63l-17-9.82z"/></g></g></g></g></svg>