<svg xmlns="http://www.w3.org/2000/svg" xmlns:xlink="http://www.w3.org/1999/xlink" viewBox="0 0 1920 621"><defs><linearGradient id="Безымянный_градиент_17" x1="504.54" y1="314.5" x2="504.54" y2="593.5" gradientUnits="userSpaceOnUse"><stop offset="0" stop-color="#7f47dd" stop-opacity=".25"/><stop offset="1" stop-color="#00ae17" stop-opacity="0"/></linearGradient><linearGradient id="Безымянный_градиент_17-2" x1="324.26" y1="314.5" x2="324.26" y2="593.5" xlink:href="#Безымянный_градиент_17"/><linearGradient id="Безымянный_градиент_17-3" x1="143.97" y1="314.5" x2="143.97" y2="593.5" xlink:href="#Безымянный_градиент_17"/><linearGradient id="Безымянный_градиент_17-4" x1="684.82" y1="314.5" x2="684.82" y2="593.5" xlink:href="#Безымянный_градиент_17"/><linearGradient id="Безымянный_градиент_17-5" x1="865.1" y1="315.5" x2="865.1" y2="594.5" xlink:href="#Безымянный_градиент_17"/><linearGradient id="Безымянный_градиент_17-6" x1="1045.38" y1="314.5" x2="1045.38" y2="593.5" xlink:href="#Безымянный_градиент_17"/><linearGradient id="Безымянный_градиент_17-7" x1="1225.67" y1="315.5" x2="1225.67" y2="594.5" xlink:href="#Безымянный_градиент_17"/><linearGradient id="Безымянный_градиент_17-8" x1="1405.95" y1="314.5" x2="1405.95" y2="593.5" xlink:href="#Безымянный_градиент_17"/><linearGradient id="Безымянный_градиент_17-9" x1="1586.23" y1="314.5" x2="1586.23" y2="593.5" xlink:href="#Безымянный_градиент_17"/><linearGradient id="Безымянный_градиент_17-10" x1="1767.51" y1="314.5" x2="1767.51" y2="593.5" xlink:href="#Безымянный_градиент_17"/><linearGradient id="Безымянный_градиент_17-11" x1="797.75" y1="441" x2="797.75" y2="351" xlink:href="#Безымянный_градиент_17"/><style>.cls-4{fill:#9f86c0}</style></defs><g id="Layer_2" data-name="Layer 2"><g id="Background_elements" data-name="Background elements"><g id="_3" data-name="3"><path d="M99.15 198l36.06 54m54.09-54l36.05 54m54.09-54l36.05 54m54.09-54l36.05 54m54.09-54l36.05 54m54.09-54l36.06 54M640 198l36.06 54m54.08-54l36.06 54m54.08-54l36.06 54m54.08-54l36.06 54m54.08-54l36.06 54m54.08-54l36.06 54m54.09-54l36.05 54m54.09-54l36.05 54m54.09-54l36.05 54m54.09-54l36.05 54m54.09-54l36.05 54m54.09-54l36.06 54m54.08-54l36.06 54M180.28 198l-36.05 54m126.19-54l-36.05 54m126.19-54l-36.05 54m126.19-54l-36.05 54m126.2-54l-36.06 54m126.2-54l-36.06 54m126.2-54l-36.06 54m126.2-54l-36.06 54m126.2-54l-36.06 54m126.2-54l-36.06 54m126.2-54l-36.06 54m126.2-54l-36.06 54m126.2-54l-36.05 54m126.19-54l-36.05 54m126.19-54l-36.05 54m126.19-54l-36.05 54m126.2-54l-36.06 54m126.2-54l-36.06 54m126.2-54l-36.06 54" fill="none" stroke="#372549" stroke-linecap="round" stroke-linejoin="round" stroke-width="10" id="elements"/><path id="Группа" d="M1911 0c-69.7 0-126.2 56.41-126.2 126a54 54 0 01-54.09 54H189.3a54 54 0 01-54.09-54C135.21 56.41 78.71 0 9 0H0v621h1920V0zM189.3 315H99.15v-45h90.15zm180.28 0h-90.14v-45h90.14zm180.28 0h-90.14v-45h90.14zm180.28 0H640v-45h90.14zm180.28 0h-90.14v-45h90.14zm180.28 0h-90.14v-45h90.14zm180.3 0h-90.14v-45H1271zm180.28 0h-90.14v-45h90.14zm180.28 0h-90.14v-45h90.14zm180.28 0h-90.14v-45h90.14zm0-63H54.08a54 54 0 0154.09-54h1649.58a54 54 0 0154.08 54z" fill="#372549"/><rect x="730.14" y="333" width="135.21" height="126" rx="23" fill="#1e1528"/><path class="cls-4" d="M748.17 351h36.06v36h-36.06zm63.1 0h36.06v36h-36.06zm-27.04 36v18H766.2v36h18.03v-18h27.04v18h18.03v-36h-18.03v-18h-27.04z"/><g id="lights_3" data-name="lights 3"><path class="cls-4" d="M18 27h.14a90 90 0 0190 90H18V27z"/><path class="cls-4" d="M1811.83 27H1902a90 90 0 01-90 90h-.14V27h-.03z" transform="rotate(-180 1856.9 72)"/><path class="cls-4" d="M18.03 126h90.14v9H18.03zm0 18h90.14v9H18.03zm0 18h90.14v9H18.03z"/><path fill="url(#Безымянный_градиент_17)" d="M459.72 314.5h89.64v279h-89.64z"/><path fill="url(#Безымянный_градиент_17-2)" d="M279.44 314.5h89.64v279h-89.64z"/><path fill="url(#Безымянный_градиент_17-3)" d="M99.15 314.5h89.64v279H99.15z"/><path fill="url(#Безымянный_градиент_17-4)" d="M640 314.5h89.64v279H640z"/><path fill="url(#Безымянный_градиент_17-5)" d="M820.28 315.5h89.64v279h-89.64z"/><path fill="url(#Безымянный_градиент_17-6)" d="M1000.56 314.5h89.64v279h-89.64z"/><path fill="url(#Безымянный_градиент_17-7)" d="M1180.85 315.5h89.64v279h-89.64z"/><path fill="url(#Безымянный_градиент_17-8)" d="M1361.13 314.5h89.64v279h-89.64z"/><path fill="url(#Безымянный_градиент_17-9)" d="M1541.41 314.5h89.64v279h-89.64z"/><path fill="url(#Безымянный_градиент_17-10)" d="M1722.69 314.5h89.64v279h-89.64z"/><path class="cls-4" d="M1811.83 126h90.14v9h-90.14zm0 18h90.14v9h-90.14zm0 18h90.14v9h-90.14z"/><rect x="748.17" y="351" width="99.15" height="90" rx="7.5" fill="url(#Безымянный_градиент_17-11)"/></g></g></g></g></svg>