<svg xmlns="http://www.w3.org/2000/svg" xmlns:xlink="http://www.w3.org/1999/xlink" viewBox="0 0 1791 945"><defs><linearGradient id="Безымянный_градиент_103" x1="1657.05" y1="234" x2="1762.95" y2="234" gradientUnits="userSpaceOnUse"><stop offset="0" stop-color="#d86fff"/><stop offset="1" stop-color="#7ffdff"/></linearGradient><linearGradient id="Безымянный_градиент_103-2" x1="1657.05" y1="264.32" x2="1762.95" y2="264.32" xlink:href="#Безымянный_градиент_103"/><linearGradient id="Безымянный_градиент_103-3" x1="1657.05" y1="203.68" x2="1762.95" y2="203.68" xlink:href="#Безымянный_градиент_103"/><linearGradient id="Безымянный_градиент_17" x1="270" y1="432" x2="405" y2="432" gradientUnits="userSpaceOnUse"><stop offset="0" stop-color="#7f47dd" stop-opacity=".25"/><stop offset="1" stop-color="#00ae17" stop-opacity="0"/></linearGradient><linearGradient id="Безымянный_градиент_14" x1="21" y1="103.25" x2="162" y2="103.25" gradientUnits="userSpaceOnUse"><stop offset="0" stop-color="#7f47dd" stop-opacity=".25"/><stop offset="1" stop-color="#fbae17" stop-opacity="0"/></linearGradient><linearGradient id="Безымянный_градиент_14-2" x1="1106.5" y1="101.32" x2="1260.5" y2="101.32" xlink:href="#Безымянный_градиент_14"/><style>.cls-1{fill:#150025}.cls-5{fill:#f3c7d9}.cls-6{fill:#c5639e}</style></defs><g id="Layer_2" data-name="Layer 2"><g id="Background_elements" data-name="Background elements"><g id="_4" data-name="4"><path class="cls-1" d="M999 356v-81h-27v-81h-9v81h-18v18h-9v-18h-18v-36h-9v36h-9v18h-9v-18h-9v-18h-9v-81h-9v81h-9v-54h-9v54h-9v18h-9v670h153V581h18V401h-18v-45h18zM432 189v-27h-18v-27h-18v-27h-18V81h-18V54h-18V9h4.5a4.49 4.49 0 004.5-4.5 4.49 4.49 0 00-4.5-4.5h-18a4.49 4.49 0 00-4.5 4.5 4.49 4.49 0 004.5 4.5h4.5v45h-18v27h-18v27h-18v27h-18v27h-18v27h9v27h-9v36h9v36h-9v36h9v36h-9v585h189V360h-9v-36h9v-36h-9v-36h9v-36h-9v-27zm1089 27v-63a54 54 0 00-54-54v27h-9V90h9v-9h-9V63h-9v18h-9V36h-9v54h9v36h-9V99a54 54 0 00-54 54v63h-27v99h27v81h-27v99h27v108h-9v342h162V603h-9V495h27v-99h-27v-81h27v-99zm-63-72h9v76.76a44.38 44.38 0 00-8.94-2.85s-.06 0-.06-.07zm-27 0h9v73.84s0 .07-.06.07a44.38 44.38 0 00-8.94 2.85zm-63 90h9v9h31.21a44.45 44.45 0 00-3.08 9H1368zm0 63v-27h36.72a44.59 44.59 0 002.61 9H1377v18zm0 117h9v9h30.76a44.38 44.38 0 00-2.85 8.94s0 .06-.07.06H1368zm0 63v-27h36.84s.07 0 .07.06a44.38 44.38 0 002.85 8.94H1377v18zm162 0h-9v-18h-30.76a44.38 44.38 0 002.85-8.94s0-.06.07-.06H1530zm0-63v18h-36.84s-.07 0-.07-.06a44.38 44.38 0 00-2.85-8.94H1521v-9zm0-117h-9v-18h-30.33a44.59 44.59 0 002.61-9H1530zm0-45h-37.13a44.45 44.45 0 00-3.08-9H1521v-9h9z"/><g id="Solana"><path class="cls-1" d="M1791 236.86c0-46.32-36.26-83.86-81-83.86s-81 37.54-81 83.86c0 32.92 18.33 61.4 45 75.12v8.74h18V330h9v615h18V330h9v-9.32h18V312c26.67-13.74 45-42.22 45-75.14z"/><path d="M1758.46 245.37h-87.74a4.51 4.51 0 01-3.74-2l-9.17-13.76a4.49 4.49 0 013.73-7h87.74a4.51 4.51 0 013.74 2l9.17 13.76a4.49 4.49 0 01-3.73 7z" fill="url(#Безымянный_градиент_103)"/><path d="M1661.54 275.68h87.74a4.52 4.52 0 003.74-2l9.17-13.77a4.48 4.48 0 00-3.73-7h-87.74a4.51 4.51 0 00-3.74 2l-9.17 13.76a4.48 4.48 0 003.73 7.01z" fill="url(#Безымянный_градиент_103-2)"/><path d="M1661.54 215.05h87.74a4.51 4.51 0 003.74-2l9.17-13.76a4.48 4.48 0 00-3.73-7h-87.74a4.52 4.52 0 00-3.74 2l-9.17 13.77a4.48 4.48 0 003.73 6.99z" fill="url(#Безымянный_градиент_103-3)"/></g><g id="lights_4" data-name="lights 4"><path class="cls-5" d="M279 189h9v27h-9zm27 0h9v27h-9zm27 0h9v27h-9zm27 0h9v27h-9z"/><path class="cls-6" d="M387 189h9v27h-9z"/><path class="cls-5" d="M279 252h9v27h-9zm27 0h9v27h-9z"/><path class="cls-6" d="M333 252h9v27h-9zm27 0h9v27h-9z"/><path class="cls-5" d="M387 252h9v27h-9z"/><path class="cls-6" d="M279 324h9v27h-9z"/><path class="cls-5" d="M306 324h9v27h-9zm27 0h9v27h-9zm27 0h9v27h-9zm27 0h9v27h-9z"/><path class="cls-6" d="M846 320h9v27h-9z"/><path class="cls-5" d="M873 320h9v27h-9zm27 0h9v27h-9z"/><rect class="cls-5" x="1422" y="243" width="10.8" height="36" rx="5.4"/><rect class="cls-6" x="1443.6" y="243" width="10.8" height="36" rx="5.4"/><rect class="cls-5" x="1465.2" y="243" width="10.8" height="36" rx="5.4"/><rect class="cls-5" x="1422" y="423" width="10.8" height="36" rx="5.4"/><rect class="cls-5" x="1443.6" y="423" width="10.8" height="36" rx="5.4"/><rect class="cls-6" x="1465.2" y="423" width="10.8" height="36" rx="5.4"/><path class="cls-6" d="M927 320h9v27h-9z"/><path class="cls-5" d="M873 410h9v27h-9z"/><path class="cls-6" d="M927 455h9v27h-9zm27 0h9v27h-9zm0-45h9v27h-9z"/><path class="cls-5" d="M927 410h9v27h-9zm27-90h9v27h-9z"/><path class="cls-6" d="M900 365h9v27h-9z"/><path class="cls-5" d="M954 365h9v27h-9zm-108 90h9v27h-9zm27 0h9v27h-9zm27 45h9v27h-9zm0 45h9v27h-9z"/><path class="cls-6" d="M927 545h9v27h-9z"/><path class="cls-5" d="M954 500h9v27h-9z"/><rect x="270" y="378" width="135" height="108" rx="16" fill="url(#Безымянный_градиент_17)"/><rect class="cls-5" x="1395" y="297" width="108" height="108" rx="54"/><rect class="cls-6" x="1413" y="315" width="72" height="72" rx="36"/></g><g id="L"><path class="cls-5" d="M63 144h27v18H63z"/><path class="cls-1" d="M180 99h-9.35c-3.72-25.23-38.4-45-80.65-45-37.07 0-68.31 15.23-77.93 36A12.08 12.08 0 000 102.07v2.86A12.08 12.08 0 0012.07 117c6.27 13.53 21.69 24.69 41.93 30.84V162a9 9 0 009 9h63a9 9 0 009-9v-17.34c19.79-8.1 33.4-21.38 35.65-36.66H180a9 9 0 009 9V90a9 9 0 00-9 9zM63 162v-11.71l9 1.53V162zm27 0h-9v-9.23l9 .3z"/><ellipse cx="91.5" cy="103.25" rx="70.5" ry="40.25" fill="url(#Безымянный_градиент_14)"/></g><g id="R"><path class="cls-5" d="M1179 153h36v18h-36z"/><path class="cls-1" d="M1081.14 98.71h10.54C1095.87 70.28 1135 48 1182.57 48c41.78 0 77 17.16 87.82 40.57a13.61 13.61 0 0113.61 13.61v3.21a13.61 13.61 0 01-13.61 13.61c-7.06 15.24-24.44 27.83-47.25 34.76v16a10.14 10.14 0 01-10.14 10.1h-71a10.14 10.14 0 01-10.14-10.15v-19.54c-22.3-9.12-37.64-24.09-40.18-41.31h-10.54A10.14 10.14 0 011071 119V88.57a10.14 10.14 0 0110.14 10.14zm131.86 71v-13.19l-10.13 1.71v11.45zm-30.43 0h10.14v-10.4l-10.14.34z"/><ellipse cx="1183.5" cy="101.32" rx="77" ry="42.18" fill="url(#Безымянный_градиент_14-2)"/></g></g></g></g></svg>