<svg xmlns="http://www.w3.org/2000/svg" viewBox="0 0 1494 1080"><defs><linearGradient id="Новый_образец_градиентной_зал_2" x1="747" y1="1" x2="747" y2="1080" gradientUnits="userSpaceOnUse"><stop offset="0"/><stop offset=".05" stop-color="#15111f"/><stop offset=".11" stop-color="#2e2544"/><stop offset=".18" stop-color="#423663"/><stop offset=".25" stop-color="#52437b"/><stop offset=".32" stop-color="#5d4c8c"/><stop offset=".4" stop-color="#645196"/><stop offset=".5" stop-color="#665399"/><stop offset=".6" stop-color="#645196"/><stop offset=".68" stop-color="#5d4c8c"/><stop offset=".75" stop-color="#52437b"/><stop offset=".82" stop-color="#423663"/><stop offset=".89" stop-color="#2e2544"/><stop offset=".95" stop-color="#15111f"/><stop offset="1"/></linearGradient><style>.cls-3{fill:#07060a}.cls-5{fill:#372549}.cls-6{fill:#1e1528}.cls-7{fill:#70587c}.cls-8{fill:#774c60}.cls-9{fill:#483a51}.cls-10{fill:#4f3341}.cls-11{fill:#1b4332}.cls-12{fill:#2d6a4f}</style></defs><g id="Layer_2" data-name="Layer 2"><g id="Final_outside" data-name="Final outside"><g id="_2_-_Collection_-_Outside" data-name="2 - Collection - Outside"><g id="level"><g id="wall"><path d="M54 1v1079h1386V1zm422.71 899H171V351h305.71zm423 0H594V351h305.71zm423 0H1017V351h305.71z" fill="url(#Новый_образец_градиентной_зал_2)"/><path d="M1440 1h18v1079h-18zM36 1h18v1079H36z" fill="#594763"/><path class="cls-3" d="M567 54l27 45-18 27 36-27-27-45h-18zm387 216l-45 63 54 36-27 90 45-99-54-27 27-63zm-648 783l27-81v45l45 36h-72z" id="_3" data-name="3"/><path fill="#1a1423" d="M0 0h1494v81H0z"/><path class="cls-5" d="M18 1035h1458v45H18z"/><path class="cls-6" d="M18 1026h1458v9H18z"/><path class="cls-3" d="M0 1071h1494v9H0z"/></g><g id="Bricks"><path class="cls-5" d="M27 225h162v72H27z"/><path class="cls-5" transform="rotate(180 486 198)" d="M405 162h162v72H405z"/><path class="cls-5" transform="rotate(180 792 198)" d="M711 162h162v72H711z"/><path class="cls-5" d="M1314 189h153v72h-153zm0 756h153v72h-153z"/><path class="cls-7" d="M18 315h99v72H18z"/><path class="cls-8" d="M18 135h54v72H18z"/><path class="cls-7" transform="rotate(180 1440 738)" d="M1404 702h72v72h-72z"/><path class="cls-7" transform="rotate(180 1440 558)" d="M1404 522h72v72h-72z"/><path class="cls-5" d="M27 405h54v72H27zm0 540h117v72H27z"/><path class="cls-7" transform="rotate(180 751.5 981)" d="M666 945h171v72H666z"/><path class="cls-9" transform="rotate(180 751.5 940.5)" d="M666 936h171v9H666z"/><path class="cls-6" transform="rotate(180 607.5 940.5)" d="M558 936h99v9h-99z"/><path class="cls-7" d="M18 855h72v72H18z"/><path class="cls-8" transform="rotate(180 576 288)" d="M513 252h126v72H513z"/><path class="cls-10" transform="rotate(180 576 247.5)" d="M513 243h126v9H513z"/><path class="cls-6" transform="rotate(180 486 157.5)" d="M405 153h162v9H405z"/><path class="cls-6" transform="rotate(180 792 157.5)" d="M711 153h162v9H711z"/><path class="cls-9" transform="rotate(180 639 157.5)" d="M576 153h126v9H576z"/><path class="cls-6" transform="rotate(180 697.5 247.5)" d="M648 243h99v9h-99z"/><path class="cls-7" transform="rotate(180 639 198)" d="M576 162h126v72H576z"/><path class="cls-5" transform="rotate(180 697.5 288)" d="M648 252h99v72h-99z"/><path class="cls-5" transform="rotate(180 607.5 981)" d="M558 945h99v72h-99z"/><path class="cls-5" transform="rotate(180 1422 648)" d="M1377 612h90v72h-90z"/><path class="cls-8" d="M1377 99h99v72h-99z"/><path class="cls-10" d="M1377 90h99v9h-99z"/><path class="cls-6" d="M1314 180h153v9h-153zm63 423h90v9h-90zm-63 333h153v9h-153z"/><path class="cls-9" d="M18 846h72v9H18z"/><path class="cls-6" d="M27 396h54v9H27z"/><path class="cls-9" d="M18 306h99v9H18z"/><path class="cls-10" d="M18 126h54v9H18z"/><path class="cls-6" d="M27 216h162v9H27zm0 720h117v9H27z"/><path class="cls-9" d="M1404 513h72v9h-72zm0 180h72v9h-72z"/><path class="cls-10" d="M1377 846h99v9h-99z"/><path class="cls-8" d="M1377 855h99v72h-99z"/></g></g><g id="Window"><path class="cls-6" d="M1017 351h306v18h-306zm18 486h270v18h-270z"/><path class="cls-11" d="M1035 567h270v36h-270z"/><path class="cls-12" d="M1035 531h270v36h-270z"/><path class="cls-11" d="M1035 495h270v36h-270z"/><path class="cls-12" d="M1035 459h270v36h-270z"/><path class="cls-11" d="M1035 423h270v36h-270z"/><path class="cls-5" d="M1305 369h-288v531h306V369zm0 486h-270V639h270zm0-252h-270V423h270z"/><path class="cls-6" d="M1035 594h270v9h-270z"/></g><g id="Window-2" data-name="Window"><path class="cls-6" d="M171 351h306v18H171zm18 486h270v18H189z"/><path class="cls-11" d="M189 711h270v36H189z"/><path class="cls-12" d="M189 675h270v36H189z"/><path class="cls-11" d="M189 639h270v36H189z"/><path class="cls-12" d="M189 603h270v36H189z"/><path class="cls-11" d="M189 567h270v36H189z"/><path class="cls-12" d="M189 531h270v36H189z"/><path class="cls-11" d="M189 495h270v36H189z"/><path class="cls-12" d="M189 459h270v36H189z"/><path class="cls-11" d="M189 423h270v36H189z"/><path class="cls-5" d="M459 369H171v531h306V369zm0 486H189v-72h270zm0-108H189V423h270z"/><path class="cls-6" d="M189 738h270v9H189z"/></g><g id="Window-3" data-name="Window"><path class="cls-6" d="M594 351h306v18H594zm18 486h270v18H612z"/><path class="cls-11" d="M612 495h270v36H612z"/><path class="cls-12" d="M612 459h270v36H612z"/><path class="cls-11" d="M612 423h270v36H612z"/><path class="cls-5" d="M882 369H594v531h306V369zm0 486H612V567h270zm0-324H612V423h270z"/><path class="cls-6" d="M612 522h270v9H612z"/></g></g></g></g></svg>