<svg xmlns="http://www.w3.org/2000/svg" viewBox="0 0 1494 1080"><defs><linearGradient id="Безымянный_градиент_50" x1="747" y1="864" x2="747" y2="81" gradientUnits="userSpaceOnUse"><stop offset="0"/><stop offset=".05" stop-color="#0b080f"/><stop offset=".12" stop-color="#140f1a"/><stop offset=".22" stop-color="#191321"/><stop offset=".5" stop-color="#1a1423"/><stop offset=".78" stop-color="#191321"/><stop offset=".88" stop-color="#140f1a"/><stop offset=".95" stop-color="#0b080f"/><stop offset="1"/></linearGradient><linearGradient id="Новый_образец_градиентной_зал_2" x1="747" y1="1" x2="747" y2="1080" gradientUnits="userSpaceOnUse"><stop offset="0"/><stop offset=".05" stop-color="#15111f"/><stop offset=".11" stop-color="#2e2544"/><stop offset=".18" stop-color="#423663"/><stop offset=".25" stop-color="#52437b"/><stop offset=".32" stop-color="#5d4c8c"/><stop offset=".4" stop-color="#645196"/><stop offset=".5" stop-color="#665399"/><stop offset=".6" stop-color="#645196"/><stop offset=".68" stop-color="#5d4c8c"/><stop offset=".75" stop-color="#52437b"/><stop offset=".82" stop-color="#423663"/><stop offset=".89" stop-color="#2e2544"/><stop offset=".95" stop-color="#15111f"/><stop offset="1"/></linearGradient><style>.cls-2{fill:#1e1528}.cls-3{fill:#1b4332}.cls-4{fill:#2d6a4f}.cls-5{fill:#372549}.cls-6{fill:#07060a}.cls-7{fill:#1a1423}.cls-8{fill:#302030}.cls-9{fill:#352034}.cls-10{fill:#120d19}.cls-12{fill:#efdce5}.cls-13{fill:#361b42}.cls-14{fill:#9a37a0}.cls-15{opacity:.25}.cls-19{fill:#70587c}.cls-20{fill:#483a51}.cls-21{fill:#774c60}.cls-22{fill:#4f3341}</style></defs><g id="Layer_2" data-name="Layer 2"><g id="Final_Inside" data-name="Final Inside"><g id="_2_-_Collection-_Inside" data-name="2 - Collection- Inside"><g id="Collection_room" data-name="Collection room"><path id="Wall" d="M54 81v783h1386V81zm422.71 621H171V153h305.71z" fill="url(#Безымянный_градиент_50)"/><g id="Window"><path class="cls-2" d="M171 153h306v18H171zm18 486h270v18H189z"/><path class="cls-3" d="M189 225h270v36H189z"/><path class="cls-4" d="M189 261h270v36H189z"/><path class="cls-3" d="M189 297h270v36H189z"/><path class="cls-5" d="M459 171H171v531h306V171zm0 486H189V369h270zm0-324H189V225h270z"/><path class="cls-2" d="M189 324h270v9H189z"/></g><g id="Floor"><path class="cls-6" d="M54 864h1386v27H54z"/><g id="floor-2" data-name="floor"><path class="cls-7" d="M108 945h108v27H108z"/><path class="cls-2" d="M216 945h108v27H216zm-162 0h54v27H54z"/><path class="cls-7" d="M324 945h108v27H324z"/><path class="cls-2" d="M432 945h108v27H432z"/><path class="cls-7" d="M540 945h108v27H540z"/><path class="cls-2" d="M648 945h108v27H648z"/><path class="cls-7" d="M756 945h108v27H756z"/><path class="cls-2" d="M864 945h108v27H864z"/><path class="cls-7" d="M972 945h108v27H972z"/><path class="cls-2" d="M1080 945h108v27h-108z"/><path class="cls-7" d="M1188 945h108v27h-108z"/><path class="cls-2" d="M1296 945h108v27h-108z"/><path class="cls-7" d="M1404 945h36v27h-36z"/><path class="cls-8" d="M1251 918h108v27h-108zm-1080 0h108v27H171zm-117 0h9v27h-9z"/><path class="cls-9" d="M279 918h108v27H279zm-216 0h108v27H63z"/><path class="cls-8" d="M387 918h108v27H387z"/><path class="cls-9" d="M495 918h108v27H495z"/><path class="cls-8" d="M603 918h108v27H603z"/><path class="cls-9" d="M711 918h108v27H711z"/><path class="cls-8" d="M819 918h108v27H819z"/><path class="cls-9" d="M927 918h108v27H927z"/><path class="cls-8" d="M1035 918h108v27h-108z"/><path class="cls-9" d="M1143 918h108v27h-108zm216 0h81v27h-81z"/><path class="cls-8" d="M1251 999h108v27h-108zm-1080 0h108v27H171zm-117 0h9v27h-9z"/><path class="cls-9" d="M279 999h108v27H279zm-216 0h108v27H63z"/><path class="cls-8" d="M387 999h108v27H387z"/><path class="cls-9" d="M495 999h108v27H495z"/><path class="cls-8" d="M603 999h108v27H603z"/><path class="cls-9" d="M711 999h108v27H711z"/><path class="cls-8" d="M819 999h108v27H819z"/><path class="cls-9" d="M927 999h108v27H927z"/><path class="cls-8" d="M1035 999h108v27h-108z"/><path class="cls-9" d="M1143 999h108v27h-108zm216 0h81v27h-81z"/><path class="cls-2" d="M126 891h108v27H126z"/><path class="cls-7" d="M234 891h108v27H234zm-180 0h72v27H54z"/><path class="cls-2" d="M342 891h108v27H342z"/><path class="cls-7" d="M450 891h108v27H450z"/><path class="cls-2" d="M558 891h108v27H558z"/><path class="cls-7" d="M666 891h108v27H666z"/><path class="cls-2" d="M774 891h108v27H774z"/><path class="cls-7" d="M882 891h108v27H882z"/><path class="cls-2" d="M990 891h108v27H990zm216 0h108v27h-108zm216 0h18v27h-18z"/><path class="cls-7" d="M1314 891h108v27h-108zm-216 0h108v27h-108z"/><path class="cls-2" d="M126 972h108v27H126z"/><path class="cls-7" d="M234 972h108v27H234zm-180 0h72v27H54z"/><path class="cls-2" d="M342 972h108v27H342z"/><path class="cls-7" d="M450 972h108v27H450z"/><path class="cls-2" d="M558 972h108v27H558z"/><path class="cls-7" d="M666 972h108v27H666z"/><path class="cls-2" d="M774 972h108v27H774z"/><path class="cls-7" d="M882 972h108v27H882z"/><path class="cls-2" d="M990 972h108v27H990zm216 0h108v27h-108zm216 0h18v27h-18z"/><path class="cls-7" d="M1314 972h108v27h-108zm-216 0h108v27h-108z"/></g></g><g id="shelf"><path class="cls-10" transform="rotate(-90 940.5 603)" d="M652.5 202.5h576v801h-576z"/><path class="cls-2" d="M522 297v666h837V297zm819 648H540V801h801zm0-162H540V639h801zm0-162H540V477h801zm0-162H540V315h801z"/><path class="cls-5" transform="rotate(-90 940.5 918)" d="M913.5 517.5h54v801h-54z"/><path class="cls-5" transform="rotate(-90 940.5 756)" d="M913.5 355.5h54v801h-54z"/><path class="cls-5" transform="rotate(-90 940.5 594)" d="M913.5 193.5h54v801h-54z"/><path class="cls-5" transform="rotate(-90 940.5 432)" d="M913.5 31.5h54v801h-54z"/><path class="cls-5" transform="rotate(-90 940.5 270)" d="M913.5-148.5h54v837h-54z"/></g><g id="Wire"><path class="cls-3" d="M990 297h9v162h-9zM864 459h9v162h-9zm0 324h9v162h-9zm126 162h9v18h-9zm0-324h9v162h-9z"/><path class="cls-4" d="M864 450h126v9H864zm135-162v9H729v-54h9v45h261zM873 612h126v9H873zm-9 162h126v9H864zm9 162h126v9H873zm567 36v9H990v-18h9v9h441z"/></g><g id="table"><path class="cls-2" d="M504 828v135h-36V846H297v117h-36V828h243z"/><path class="cls-5" d="M261 765h243v63H261z"/><path class="cls-10" d="M306 846h36v90h-36zm117 0h36v90h-36z"/></g><g id="pencil"><path transform="rotate(-30 294.15 798.917)" fill="#00509d" d="M289.65 785.41h9v27h-9z"/><path class="cls-12" transform="rotate(-30 285.149 783.325)" d="M280.65 778.82h9v9h-9z"/><path class="cls-6" d="M298.65 810h9v4.5a4.5 4.5 0 01-4.5 4.5 4.5 4.5 0 01-4.5-4.5V810z" transform="rotate(-30 303.153 814.51)"/></g><g id="paper"><path class="cls-12" d="M396 774h99v45h-99z"/><path class="cls-6" d="M405 783h27v9h-27zm54 18h27v9h-27zm0-18h18v9h-18zm-27 18h18v9h-18zm-27 0h18v9h-18zm36-18h9v9h-9z"/></g><g id="BNC"><path class="cls-13" d="M333 738h9v63h-9zm-9-126h9v99h-9zm27 126h9v63h-9zm36 0h9v63h-9z"/><path class="cls-14" d="M324 711h99v27h-99z"/><path class="cls-13" d="M423 711h9v36h-9z"/><path class="cls-6" d="M423 747h9v9h-9zm-18 54h9v9h-9zm-18 0h9v9h-9zm-36 0h9v9h-9zm-18 0h9v9h-9z"/><path class="cls-14" d="M288 585h54v27h-54z"/><path class="cls-13" d="M333 567h9v18h-9zm-18 0h9v18h-9zm90 171h9v63h-9z"/></g><g id="chair"><path class="cls-2" d="M117 765v189h18v-90h90v90h18V846H135v-81h-18z"/><path class="cls-10" transform="rotate(180 153 895.5)" d="M144 864h18v63h-18z"/><path class="cls-10" d="M198 864h18v63h-18z"/><path class="cls-5" transform="rotate(180 189 823.5)" d="M135 801h108v45H135z"/><path class="cls-5" transform="rotate(180 126 742.5)" d="M117 720h18v45h-18z"/></g></g><g id="Maket"><g id="Transparent" class="cls-15"><path d="M54 1v1079h1386V1zm1341 980H99V126h1296z" fill="url(#Новый_образец_градиентной_зал_2)"/><path d="M567 54l27 45-18 27 36-27-27-45h-18zm-261 999l27-81v45l45 36h-72z" fill="#03071e" id="_3" data-name="3"/><path class="cls-7" d="M1386 126H99v855h1296V126zm0 846H108V135h1278z"/></g><g id="Not_transparent" data-name="Not transparent"><path d="M1440 0h18v1079h-18zM36 0h18v1079H36z" fill="#594763"/><path class="cls-2" d="M18 1026h1458v9H18z"/><path class="cls-7" d="M0 0h1494v81H0z"/><path class="cls-5" d="M18 1035h1458v45H18z"/><path class="cls-6" d="M0 1071h1494v9H0z"/></g><g id="Bricks_transparent" data-name="Bricks transparent" class="cls-15"><path class="cls-19" d="M666 981h171v36H666z"/><path class="cls-5" d="M558 981h99v36h-99z"/><g id="Side"><path class="cls-19" d="M18 855h72v72H18z"/><path class="cls-20" d="M18 846h72v9H18z"/><path class="cls-5" d="M27 405h54v72H27z"/><path class="cls-2" d="M27 396h54v9H27z"/><path class="cls-21" d="M18 135h54v72H18z"/><path class="cls-22" d="M18 126h54v9H18z"/><path class="cls-19" transform="rotate(180 1440 558)" d="M1404 522h72v72h-72z"/><path class="cls-20" d="M1404 513h72v9h-72z"/><path class="cls-19" transform="rotate(180 1440 738)" d="M1404 702h72v72h-72z"/><path class="cls-20" d="M1404 693h72v9h-72z"/><path class="cls-22" d="M1377 90h99v9h-99z"/><path class="cls-21" d="M1377 99v27h18v45h81V99h-99z"/><path class="cls-2" d="M1395 180h72v9h-72z"/><path class="cls-5" d="M1395 189h72v72h-72zm0 423h72v72h-72z"/><path class="cls-2" d="M1395 603h72v9h-72z"/><path class="cls-21" d="M1395 855h81v72h-81z"/><path class="cls-22" d="M1395 846h81v9h-81z"/><path class="cls-5" d="M1395 945v36h-81v36h153v-72h-72z"/><path class="cls-2" d="M1395 936h72v9h-72z"/><path class="cls-5" d="M99 981v-36H27v72h117v-36H99z"/><path class="cls-2" d="M27 936h72v9H27z"/><path class="cls-19" d="M18 315h81v72H18z"/><path class="cls-20" d="M18 306h81v9H18z"/><path class="cls-5" d="M27 225h72v72H27z"/><path class="cls-2" d="M27 216h72v9H27z"/></g></g></g></g></g></g></svg>