<svg xmlns="http://www.w3.org/2000/svg" viewBox="0 0 1494 1080"><defs><linearGradient id="Новый_образец_градиентной_зал_2" x1="747" y1="1" x2="747" y2="1080" gradientUnits="userSpaceOnUse"><stop offset="0"/><stop offset=".05" stop-color="#15111f"/><stop offset=".11" stop-color="#2e2544"/><stop offset=".18" stop-color="#423663"/><stop offset=".25" stop-color="#52437b"/><stop offset=".32" stop-color="#5d4c8c"/><stop offset=".4" stop-color="#645196"/><stop offset=".5" stop-color="#665399"/><stop offset=".6" stop-color="#645196"/><stop offset=".68" stop-color="#5d4c8c"/><stop offset=".75" stop-color="#52437b"/><stop offset=".82" stop-color="#423663"/><stop offset=".89" stop-color="#2e2544"/><stop offset=".95" stop-color="#15111f"/><stop offset="1"/></linearGradient><style>.cls-2{fill:#594763}.cls-4{fill:#372549}.cls-5{fill:#1e1528}.cls-7{fill:#774c60}.cls-8{fill:#4f3341}.cls-9{fill:#70587c}.cls-10{fill:#483a51}.cls-12{fill:#6a040f}.cls-13{fill:#370617}.cls-14{fill:#110b11}.cls-15{fill:none;stroke-linecap:round;stroke-linejoin:round;stroke:#352034;stroke-width:5px}.cls-16{fill:#352034}.cls-20{fill:#fff}</style></defs><g id="Layer_2" data-name="Layer 2"><g id="Final_outside" data-name="Final outside"><g id="Entrance_-_Outside" data-name="Entrance - Outside"><g id="level"><g id="wall"><path d="M54 1v1079h1386V1zm422.71 899H171V351h305.71zm846 0H1017V351h305.71z" fill="url(#Новый_образец_градиентной_зал_2)"/><path class="cls-2" d="M1440 1h18v1079h-18zM36 1h18v1079H36z"/><path d="M1080 72l72 36-36 45 72 63-54-63 36-45 81 18-9 36 27-45-108-27-18-27-63 9zm90 972l27-27-18-45 45 45v27h-54z" fill="#07060a" id="_1" data-name="1"/><path class="cls-4" d="M18 1035h1458v45H18z"/><path class="cls-5" d="M18 1026h1458v9H18z"/><path fill="#1a1423" d="M0 0h1494v81H0z"/></g><g id="Bricks"><path class="cls-7" d="M27 225h162v72H27z"/><path class="cls-8" d="M27 216h162v9H27z"/><path class="cls-9" transform="rotate(180 1237.5 297)" d="M1161 261h153v72h-153z"/><path class="cls-10" transform="rotate(180 1237.5 256.5)" d="M1161 252h153v9h-153z"/><path class="cls-7" d="M855 261h162v72H855z"/><path class="cls-8" d="M855 252h162v9H855z"/><path class="cls-4" d="M1323 99h153v72h-153z"/><path class="cls-5" d="M1323 90h153v9h-153z"/><path class="cls-7" d="M1314 945h153v72h-153z"/><path class="cls-8" d="M1314 936h153v9h-153z"/><path class="cls-4" d="M18 315h99v72H18z"/><path class="cls-5" d="M18 306h99v9H18z"/><path class="cls-4" d="M18 135h54v72H18z"/><path class="cls-5" d="M18 126h54v9H18z"/><path class="cls-4" transform="rotate(180 1440 738)" d="M1404 702h72v72h-72z"/><path class="cls-5" transform="rotate(180 1440 697.5)" d="M1404 693h72v9h-72z"/><path class="cls-4" transform="rotate(180 1440 558)" d="M1404 522h72v72h-72z"/><path class="cls-5" transform="rotate(180 1440 517.5)" d="M1404 513h72v9h-72z"/><path class="cls-9" d="M27 405h54v72H27z"/><path class="cls-10" d="M27 396h54v9H27z"/><path class="cls-7" d="M27 945h117v72H27z"/><path class="cls-8" d="M27 936h117v9H27z"/><path class="cls-9" d="M333 945h171v72H333z"/><path class="cls-10" d="M333 936h171v9H333z"/><path class="cls-4" d="M18 855h72v72H18z"/><path class="cls-5" d="M18 846h72v9H18z"/><path class="cls-4" transform="rotate(180 886.5 207)" d="M801 171h171v72H801z"/><path class="cls-5" transform="rotate(180 886.5 166.5)" d="M801 162h171v9H801z"/><path class="cls-4" d="M1026 261h126v72h-126z"/><path class="cls-5" d="M1026 252h126v9h-126z"/><path class="cls-9" d="M981 171h99v72h-99z"/><path class="cls-10" d="M981 162h99v9h-99z"/><path class="cls-9" d="M1035 945h99v72h-99z"/><path class="cls-10" d="M1035 936h99v9h-99z"/><path class="cls-9" transform="rotate(180 1422 648)" d="M1377 612h90v72h-90z"/><path class="cls-10" transform="rotate(180 1422 607.5)" d="M1377 603h90v9h-90z"/><path class="cls-7" d="M1368 189h99v72h-99z"/><path class="cls-8" d="M1368 180h99v9h-99z"/><path class="cls-4" d="M1377 855h99v72h-99z"/><path class="cls-5" d="M1377 846h99v9h-99z"/></g></g><g id="Door"><path fill="#edf2f4" d="M567 387h360v648H567z"/><path class="cls-5" transform="rotate(180 747 360.445)" d="M549 351h396v18.89H549z"/><path class="cls-4" d="M945 387v-17.06H549V1035h18v-53h54.13v35h18v-35h216v35h18v-35H927v-18h-53.79V720.89H927v-19h-53.79V460H927v-18h-53.8v-54h53.94v647h18V387zm-305.82 1h216v54h-216zm0 72h216v241.89h-216zm-72.13-72h54.13v54h-54.13zm0 72h54.13v241.89h-54.13zm0 504V720.89h54.13v243.05zm72.14 0V720.89h216v243.05z"/><path class="cls-9" transform="rotate(180 747 1066.5)" d="M477 1053h540v27H477z"/><path class="cls-2" transform="rotate(180 747 1035)" d="M522 1017h450v36H522z"/><path class="cls-4" transform="rotate(180 747.005 1012.5)" d="M522 1008h450v9H522z"/><path class="cls-10" transform="rotate(180 747 1048.5)" d="M477 1044h540v9H477z"/></g><g id="Window"><path class="cls-5" d="M1017 351h306v18h-306zm18 486h270v18h-270z"/><path class="cls-12" d="M1035 423h270v36h-270z"/><path class="cls-13" d="M1035 459h270v36h-270z"/><path class="cls-4" d="M1305 369h-288v531h306V369zm0 486h-270V531h270zm0-360h-270v-72h270z"/><path class="cls-5" d="M1035 486h270v9h-270z"/></g><g id="Window-2" data-name="Window"><path class="cls-5" d="M171 351h306v18H171zm18 486h270v18H189z"/><path class="cls-13" d="M189 567h270v36H189z"/><path class="cls-12" d="M189 531h270v36H189z"/><path class="cls-13" d="M189 495h270v36H189z"/><path class="cls-12" d="M189 459h270v36H189z"/><path class="cls-13" d="M189 423h270v36H189z"/><path class="cls-4" d="M459 369H171v531h306V369zm0 486H189V639h270zm0-252H189V423h270z"/><path class="cls-5" d="M189 594h270v9H189z"/></g><g id="Banner"><path class="cls-14" d="M252.05 81H261v45h-8.95zm27 0H288v45h-8.95z"/><path class="cls-15" d="M270.5 127.5l18-20m-18 0l18 20m-18-18l18-20m-18 0l18 20"/><path class="cls-16" d="M261.05 81h9v45h-9zm27 0h9v45h-9z"/><path class="cls-14" d="M765.11 81h9v45h-9zm26.94 0h9v45h-9z"/><path class="cls-15" d="M765.5 89.5l17 20m-17-2l18 20m-18 0l18-20m-18 2l18-20"/><path class="cls-16" d="M783.11 81h9v45h-9zm-27 0h9v45h-9z"/><path d="M198 126h9v216h-9zm639 0h9v216h-9z" fill="#302030"/><path d="M837 135v-9H207v216h630V135zm-18 198H225V135h594z" fill="#502f4c"/><path transform="rotate(180 522 234)" fill="#ea3546" d="M225 135h594v198H225z"/><path class="cls-20" d="M486.52 189.53v6.88a6.88 6.88 0 01-6.88 6.88 6.89 6.89 0 01-6.89-6.88v-6.88H348.87v6.88a6.88 6.88 0 01-6.88 6.88 6.88 6.88 0 01-6.88-6.88v-6.88H335a13.77 13.77 0 0113.76-13.77h55.17v-6.88a6.88 6.88 0 016.88-6.88 6.89 6.89 0 016.89 6.88v6.88h54.95a13.77 13.77 0 0113.76 13.77h.11z"/><rect class="cls-20" x="431.22" y="274.63" width="32.76" height="14.93" rx="4.88" transform="rotate(-135 447.599 282.091)"/><path class="cls-20" d="M481.91 299.65h-64.23v-41.3h36.7a4.49 4.49 0 004.5-4.5v-4.76a4.49 4.49 0 00-4.5-4.5h-36.7v-27.53h36.7a4.5 4.5 0 004.5-4.5v-4.77a4.5 4.5 0 00-4.5-4.5H367a4.5 4.5 0 00-4.5 4.5v4.77a4.5 4.5 0 004.5 4.5h36.88v27.53H367a4.49 4.49 0 00-4.5 4.5v4.76a4.49 4.49 0 004.5 4.5h36.88v41.3H339.5a4.5 4.5 0 00-4.5 4.5v4.76a4.5 4.5 0 004.5 4.5h142.41a4.49 4.49 0 004.5-4.5v-4.76a4.49 4.49 0 00-4.5-4.5z"/><rect class="cls-20" x="646.81" y="276.63" width="32.76" height="14.93" rx="4.88" transform="rotate(135 663.183 284.095)"/><rect class="cls-20" x="571.87" y="276.63" width="32.76" height="14.93" rx="4.88" transform="rotate(45 588.243 284.098)"/><path class="cls-20" d="M697.5 260.35a4.49 4.49 0 004.5-4.5v-4.76a4.49 4.49 0 00-4.5-4.5h-64.24v-27.53h22.94a4.51 4.51 0 004.51-4.5v-4.77a4.51 4.51 0 00-4.51-4.5h-59.82a4.51 4.51 0 00-4.5 4.5v4.77a4.51 4.51 0 004.5 4.5h23.12v27.53h-64.41a4.49 4.49 0 00-4.5 4.5v4.76a4.49 4.49 0 004.5 4.5h64.41v41.3h-64.41a4.49 4.49 0 00-4.5 4.5v4.76a4.49 4.49 0 004.5 4.5H697.5a4.49 4.49 0 004.5-4.5v-4.76a4.49 4.49 0 00-4.5-4.5h-64.24v-41.3z"/><path d="M630.5 153.5l-27 26c-1.57 1.69-21.4 22.33-46 17m72-35l17 18c1.57 1.69 21.4 22.33 46 17" stroke="#fff" stroke-width="12" fill="none" stroke-linecap="round" stroke-linejoin="round"/></g></g></g></g></svg>