<svg xmlns="http://www.w3.org/2000/svg" viewBox="0 0 1494 1080"><defs><linearGradient id="Безымянный_градиент_50" x1="747" y1="864" x2="747" y2="81" gradientUnits="userSpaceOnUse"><stop offset="0"/><stop offset=".05" stop-color="#0b080f"/><stop offset=".12" stop-color="#140f1a"/><stop offset=".22" stop-color="#191321"/><stop offset=".5" stop-color="#1a1423"/><stop offset=".78" stop-color="#191321"/><stop offset=".88" stop-color="#140f1a"/><stop offset=".95" stop-color="#0b080f"/><stop offset="1"/></linearGradient><linearGradient id="Новый_образец_градиентной_зал_2" x1="747" y1="1" x2="747" y2="1080" gradientUnits="userSpaceOnUse"><stop offset="0"/><stop offset=".05" stop-color="#15111f"/><stop offset=".11" stop-color="#2e2544"/><stop offset=".18" stop-color="#423663"/><stop offset=".25" stop-color="#52437b"/><stop offset=".32" stop-color="#5d4c8c"/><stop offset=".4" stop-color="#645196"/><stop offset=".5" stop-color="#665399"/><stop offset=".6" stop-color="#645196"/><stop offset=".68" stop-color="#5d4c8c"/><stop offset=".75" stop-color="#52437b"/><stop offset=".82" stop-color="#423663"/><stop offset=".89" stop-color="#2e2544"/><stop offset=".95" stop-color="#15111f"/><stop offset="1"/></linearGradient><style>.cls-3{fill:#1a1423}.cls-4{fill:#1e1528}.cls-5{fill:#302030}.cls-6{fill:#352034}.cls-7{opacity:.25}.cls-10{fill:#594763}.cls-11{fill:#372549}.cls-12{fill:#70587c}.cls-13{fill:#483a51}.cls-14{fill:#774c60}.cls-15{fill:#4f3341}.cls-16{fill:#110b11}.cls-17{fill:none;stroke-linecap:round;stroke-linejoin:round;stroke:#352034;stroke-width:5px}.cls-20{fill:#fff}</style></defs><g id="Layer_2" data-name="Layer 2"><g id="Final_Inside" data-name="Final Inside"><g id="Entrance_-_Inside" data-name="Entrance - Inside"><g id="Entrance_room" data-name="Entrance room"><path fill="url(#Безымянный_градиент_50)" d="M54 81h1386v783H54z"/><g id="Floor"><path fill="#07060a" d="M54 864h1386v27H54z"/><g id="floor-2" data-name="floor"><path class="cls-3" d="M108 945h108v27H108z"/><path class="cls-4" d="M216 945h108v27H216zm-162 0h54v27H54z"/><path class="cls-3" d="M324 945h108v27H324z"/><path class="cls-4" d="M432 945h108v27H432z"/><path class="cls-3" d="M540 945h108v27H540z"/><path class="cls-4" d="M648 945h108v27H648z"/><path class="cls-3" d="M756 945h108v27H756z"/><path class="cls-4" d="M864 945h108v27H864z"/><path class="cls-3" d="M972 945h108v27H972z"/><path class="cls-4" d="M1080 945h108v27h-108z"/><path class="cls-3" d="M1188 945h108v27h-108z"/><path class="cls-4" d="M1296 945h108v27h-108z"/><path class="cls-3" d="M1404 945h36v27h-36z"/><path class="cls-5" d="M1251 918h108v27h-108zm-1080 0h108v27H171zm-117 0h9v27h-9z"/><path class="cls-6" d="M279 918h108v27H279zm-216 0h108v27H63z"/><path class="cls-5" d="M387 918h108v27H387z"/><path class="cls-6" d="M495 918h108v27H495z"/><path class="cls-5" d="M603 918h108v27H603z"/><path class="cls-6" d="M711 918h108v27H711z"/><path class="cls-5" d="M819 918h108v27H819z"/><path class="cls-6" d="M927 918h108v27H927z"/><path class="cls-5" d="M1035 918h108v27h-108z"/><path class="cls-6" d="M1143 918h108v27h-108zm216 0h81v27h-81z"/><path class="cls-5" d="M1251 999h108v27h-108zm-1080 0h108v27H171zm-117 0h9v27h-9z"/><path class="cls-6" d="M279 999h108v27H279zm-216 0h108v27H63z"/><path class="cls-5" d="M387 999h108v27H387z"/><path class="cls-6" d="M495 999h108v27H495z"/><path class="cls-5" d="M603 999h108v27H603z"/><path class="cls-6" d="M711 999h108v27H711z"/><path class="cls-5" d="M819 999h108v27H819z"/><path class="cls-6" d="M927 999h108v27H927z"/><path class="cls-5" d="M1035 999h108v27h-108z"/><path class="cls-6" d="M1143 999h108v27h-108zm216 0h81v27h-81z"/><path class="cls-4" d="M126 891h108v27H126z"/><path class="cls-3" d="M234 891h108v27H234zm-180 0h72v27H54z"/><path class="cls-4" d="M342 891h108v27H342z"/><path class="cls-3" d="M450 891h108v27H450z"/><path class="cls-4" d="M558 891h108v27H558z"/><path class="cls-3" d="M666 891h108v27H666z"/><path class="cls-4" d="M774 891h108v27H774z"/><path class="cls-3" d="M882 891h108v27H882z"/><path class="cls-4" d="M990 891h108v27H990zm216 0h108v27h-108zm216 0h18v27h-18z"/><path class="cls-3" d="M1314 891h108v27h-108zm-216 0h108v27h-108z"/><path class="cls-4" d="M126 972h108v27H126z"/><path class="cls-3" d="M234 972h108v27H234zm-180 0h72v27H54z"/><path class="cls-4" d="M342 972h108v27H342z"/><path class="cls-3" d="M450 972h108v27H450z"/><path class="cls-4" d="M558 972h108v27H558z"/><path class="cls-3" d="M666 972h108v27H666z"/><path class="cls-4" d="M774 972h108v27H774z"/><path class="cls-3" d="M882 972h108v27H882z"/><path class="cls-4" d="M990 972h108v27H990zm216 0h108v27h-108zm216 0h18v27h-18z"/><path class="cls-3" d="M1314 972h108v27h-108zm-216 0h108v27h-108z"/></g></g></g><g id="Maket"><g id="Transparent" class="cls-7"><path d="M54 1v1079h1386V1zm1278 899H954v108H540V900H162V351h1170z" fill="url(#Новый_образец_градиентной_зал_2)"/><path d="M1080 72l72 36-36 45 72 63-54-63 36-45 81 18-9 36 27-45-108-27-18-27-63 9zm90 972l27-27-18-45 45 45v27h-54z" fill="#03071e" id="_1" data-name="1"/><path class="cls-3" d="M1332 351v549H954v108h-9V891h378V360H171v531h378v117h-9V900H162V351h1170z"/></g><g id="Not_transparent" data-name="Not transparent"><path class="cls-10" d="M1440 1h18v1079h-18zM36 1h18v1079H36z"/><path class="cls-11" d="M18 1035h1458v45H18z"/><path class="cls-4" d="M18 1026h1458v9H18z"/><path class="cls-3" d="M0 0h1494v81H0z"/><g id="Door_step" data-name="Door step"><path class="cls-12" transform="rotate(180 747 1066.5)" d="M477 1053h540v27H477z"/><path class="cls-10" transform="rotate(180 747 1035)" d="M522 1017h450v36H522z"/><path class="cls-11" transform="rotate(180 747.005 1012.5)" d="M522 1008h450v9H522z"/><path class="cls-13" transform="rotate(180 747 1048.5)" d="M477 1044h540v9H477z"/></g></g><g id="Bricks_transparent" data-name="Bricks transparent" class="cls-7"><path class="cls-12" transform="rotate(180 1237.5 297)" d="M1161 261h153v72h-153z"/><path class="cls-13" transform="rotate(180 1237.5 256.5)" d="M1161 252h153v9h-153z"/><path class="cls-14" d="M855 261h162v72H855z"/><path class="cls-15" d="M855 252h162v9H855z"/><path class="cls-12" d="M333 945h171v72H333z"/><path class="cls-13" d="M333 936h171v9H333z"/><path class="cls-11" transform="rotate(180 909 207)" d="M846 171h126v72H846z"/><path class="cls-4" transform="rotate(180 909 166.5)" d="M846 162h126v9H846z"/><path class="cls-11" d="M1026 261h126v72h-126z"/><path class="cls-4" d="M1026 252h126v9h-126z"/><path class="cls-12" d="M981 171h99v72h-99z"/><path class="cls-13" d="M981 162h99v9h-99z"/><path class="cls-12" d="M1035 945h99v72h-99z"/><path class="cls-13" d="M1035 936h99v9h-99z"/><g id="Sides"><path class="cls-14" d="M27 225h162v72H27z"/><path class="cls-15" d="M27 216h162v9H27z"/><path class="cls-11" d="M1323 99h153v72h-153z"/><path class="cls-4" d="M1323 90h153v9h-153z"/><path class="cls-14" d="M1314 945h153v72h-153z"/><path class="cls-15" d="M1314 936h153v9h-153z"/><path class="cls-11" d="M18 315h99v72H18z"/><path class="cls-4" d="M18 306h99v9H18z"/><path class="cls-11" d="M18 135h54v72H18z"/><path class="cls-4" d="M18 126h54v9H18z"/><path class="cls-11" transform="rotate(180 1440 738)" d="M1404 702h72v72h-72z"/><path class="cls-4" transform="rotate(180 1440 697.5)" d="M1404 693h72v9h-72z"/><path class="cls-11" transform="rotate(180 1440 558)" d="M1404 522h72v72h-72z"/><path class="cls-4" transform="rotate(180 1440 517.5)" d="M1404 513h72v9h-72z"/><path class="cls-12" d="M27 405h54v72H27z"/><path class="cls-13" d="M27 396h54v9H27z"/><path class="cls-14" d="M27 945h117v72H27z"/><path class="cls-15" d="M27 936h117v9H27z"/><path class="cls-11" d="M18 855h72v72H18z"/><path class="cls-4" d="M18 846h72v9H18z"/><path class="cls-12" transform="rotate(180 1422 648)" d="M1377 612h90v72h-90z"/><path class="cls-13" transform="rotate(180 1422 607.5)" d="M1377 603h90v9h-90z"/><path class="cls-14" d="M1368 189h99v72h-99z"/><path class="cls-15" d="M1368 180h99v9h-99z"/><path class="cls-11" d="M1377 855h99v72h-99z"/><path class="cls-4" d="M1377 846h99v9h-99z"/></g></g><g id="Banner" class="cls-7"><path class="cls-16" d="M252.05 81H261v45h-8.95zm27 0H288v45h-8.95z"/><path class="cls-17" d="M270.5 127.5l18-20m-18 0l18 20m-18-18l18-20m-18 0l18 20"/><path class="cls-6" d="M261.05 81h9v45h-9zm27 0h9v45h-9z"/><path class="cls-16" d="M765.11 81h9v45h-9zm26.94 0h9v45h-9z"/><path class="cls-17" d="M765.5 89.5l17 20m-17-2l18 20m-18 0l18-20m-18 2l18-20"/><path class="cls-6" d="M783.11 81h9v45h-9zm-27 0h9v45h-9z"/><path class="cls-5" d="M198 126h9v216h-9zm639 0h9v216h-9z"/><path d="M837 135v-9H207v216h630V135zm-18 198H225V135h594z" fill="#502f4c"/><path transform="rotate(180 522 234)" fill="#ea3546" d="M225 135h594v198H225z"/><path class="cls-20" d="M486.52 189.53v6.88a6.88 6.88 0 01-6.88 6.88 6.89 6.89 0 01-6.89-6.88v-6.88H348.87v6.88a6.88 6.88 0 01-6.88 6.88 6.88 6.88 0 01-6.88-6.88v-6.88H335a13.77 13.77 0 0113.76-13.77h55.17v-6.88a6.88 6.88 0 016.88-6.88 6.89 6.89 0 016.89 6.88v6.88h54.95a13.77 13.77 0 0113.76 13.77h.11z"/><rect class="cls-20" x="431.22" y="274.63" width="32.76" height="14.93" rx="4.88" transform="rotate(-135 447.599 282.091)"/><path class="cls-20" d="M481.91 299.65h-64.23v-41.3h36.7a4.49 4.49 0 004.5-4.5v-4.76a4.49 4.49 0 00-4.5-4.5h-36.7v-27.53h36.7a4.5 4.5 0 004.5-4.5v-4.77a4.5 4.5 0 00-4.5-4.5H367a4.5 4.5 0 00-4.5 4.5v4.77a4.5 4.5 0 004.5 4.5h36.88v27.53H367a4.49 4.49 0 00-4.5 4.5v4.76a4.49 4.49 0 004.5 4.5h36.88v41.3H339.5a4.5 4.5 0 00-4.5 4.5v4.76a4.5 4.5 0 004.5 4.5h142.41a4.49 4.49 0 004.5-4.5v-4.76a4.49 4.49 0 00-4.5-4.5z"/><rect class="cls-20" x="646.81" y="276.63" width="32.76" height="14.93" rx="4.88" transform="rotate(135 663.183 284.095)"/><rect class="cls-20" x="571.87" y="276.63" width="32.76" height="14.93" rx="4.88" transform="rotate(45 588.243 284.098)"/><path class="cls-20" d="M697.5 260.35a4.49 4.49 0 004.5-4.5v-4.76a4.49 4.49 0 00-4.5-4.5h-64.24v-27.53h22.94a4.51 4.51 0 004.51-4.5v-4.77a4.51 4.51 0 00-4.51-4.5h-59.82a4.51 4.51 0 00-4.5 4.5v4.77a4.51 4.51 0 004.5 4.5h23.12v27.53h-64.41a4.49 4.49 0 00-4.5 4.5v4.76a4.49 4.49 0 004.5 4.5h64.41v41.3h-64.41a4.49 4.49 0 00-4.5 4.5v4.76a4.49 4.49 0 004.5 4.5H697.5a4.49 4.49 0 004.5-4.5v-4.76a4.49 4.49 0 00-4.5-4.5h-64.24v-41.3z"/><path d="M630.5 153.5l-27 26c-1.57 1.69-21.4 22.33-46 17m72-35l17 18c1.57 1.69 21.4 22.33 46 17" stroke="#fff" stroke-width="12" fill="none" stroke-linecap="round" stroke-linejoin="round"/></g></g></g></g></g></svg>