<svg xmlns="http://www.w3.org/2000/svg" viewBox="0 0 1494 1080"><defs><linearGradient id="Новый_образец_градиентной_зал_2" x1="747" y1="1" x2="747" y2="1080" gradientUnits="userSpaceOnUse"><stop offset="0"/><stop offset=".05" stop-color="#15111f"/><stop offset=".11" stop-color="#2e2544"/><stop offset=".18" stop-color="#423663"/><stop offset=".25" stop-color="#52437b"/><stop offset=".32" stop-color="#5d4c8c"/><stop offset=".4" stop-color="#645196"/><stop offset=".5" stop-color="#665399"/><stop offset=".6" stop-color="#645196"/><stop offset=".68" stop-color="#5d4c8c"/><stop offset=".75" stop-color="#52437b"/><stop offset=".82" stop-color="#423663"/><stop offset=".89" stop-color="#2e2544"/><stop offset=".95" stop-color="#15111f"/><stop offset="1"/></linearGradient><style>.cls-3{fill:#07060a}.cls-4{fill:#372549}.cls-5{fill:#1e1528}.cls-7{fill:#70587c}.cls-8{fill:#483a51}.cls-9{fill:#774c60}.cls-10{fill:#4f3341}.cls-11{fill:#00509d}.cls-12{fill:#00296b}</style></defs><g id="Layer_2" data-name="Layer 2"><g id="Final_outside" data-name="Final outside"><g id="_1_-_FAQ_-_Outside" data-name="1 - FAQ - Outside"><g id="level"><g id="wall"><path d="M54 1v1079h1386V1zm422.71 899H171V351h305.71zm423 0H594V351h305.71zm423 0H1017V351h305.71z" fill="url(#Новый_образец_градиентной_зал_2)"/><path d="M1440 1h18v1079h-18zM36 1h18v1079H36z" fill="#594763"/><path class="cls-3" d="M657 81l-81 54-90-36-63 63 63-45 90 36 54-27 27 36-18 54 27-54-18-45 45-45-36-18v27zm-279 963l-54-36 9-36v27l72 45h-27z" id="_2" data-name="2"/><path class="cls-4" d="M18 1035h1458v45H18z"/><path class="cls-3" d="M0 1071h1494v9H0z"/><path class="cls-5" d="M18 1026h1458v9H18z"/><path fill="#1a1423" d="M0 0h1494v81H0z"/></g><g id="Bricks"><path class="cls-4" d="M27 225h162v72H27z"/><path class="cls-5" d="M27 216h162v9H27z"/><path class="cls-7" transform="rotate(180 859.5 288)" d="M783 252h153v72H783z"/><path class="cls-8" transform="rotate(180 859.5 247.5)" d="M783 243h153v9H783z"/><path class="cls-4" d="M1314 180h153v72h-153z"/><path class="cls-5" d="M1314 171h153v9h-153z"/><path class="cls-4" d="M1314 936h153v72h-153z"/><path class="cls-5" d="M1314 927h153v9h-153z"/><path class="cls-9" d="M18 315h99v72H18z"/><path class="cls-10" d="M18 306h99v9H18z"/><path class="cls-7" d="M18 135h54v72H18z"/><path class="cls-8" d="M18 126h54v9H18z"/><path class="cls-7" d="M18 675h54v72H18z"/><path class="cls-8" d="M18 666h54v9H18z"/><path class="cls-9" d="M1422 270h54v72h-54z"/><path class="cls-10" d="M1422 261h54v9h-54z"/><path class="cls-4" d="M27 945h117v72H27z"/><path class="cls-5" d="M27 936h117v9H27z"/><path class="cls-4" d="M738 945h171v72H738z"/><path class="cls-5" d="M738 936h171v9H738z"/><path class="cls-9" d="M18 855h72v72H18z"/><path class="cls-10" d="M18 846h72v9H18z"/><path class="cls-9" transform="rotate(180 931.5 198)" d="M882 162h99v72h-99z"/><path class="cls-10" transform="rotate(180 931.5 157.5)" d="M882 153h99v9h-99z"/><path class="cls-4" transform="rotate(180 1008 288)" d="M945 252h126v72H945z"/><path class="cls-5" transform="rotate(180 1008 247.5)" d="M945 243h126v9H945z"/><path class="cls-4" transform="rotate(180 796.5 198)" d="M720 162h153v72H720z"/><path class="cls-5" transform="rotate(180 796.5 157.5)" d="M720 153h153v9H720z"/><path class="cls-7" d="M918 945h99v72h-99z"/><path class="cls-8" d="M918 936h99v9h-99z"/><path class="cls-4" d="M27 765h90v72H27z"/><path class="cls-5" d="M27 756h90v9H27z"/><path class="cls-7" d="M1377 99h99v63h-99z"/><path class="cls-8" d="M1377 90h99v9h-99z"/><path class="cls-7" d="M1377 846h99v72h-99z"/><path class="cls-8" d="M1377 837h99v9h-99z"/></g></g><g id="wall-2" data-name="wall"><path class="cls-5" d="M594 351h306v18H594z"/><path class="cls-11" d="M612 423h270v36H612z"/><path class="cls-12" d="M612 459h270v36H612z"/><path class="cls-11" d="M612 495h270v36H612z"/><path class="cls-12" d="M612 531h270v36H612z"/><path class="cls-4" d="M882 369H594v531h306V369zm0 486H612V603h270zm0-288H612V423h270z"/><path class="cls-5" d="M612 837h270v18H612zm0-279h270v9H612z"/></g><g id="Window"><path class="cls-5" d="M171 351h306v18H171zm18 486h270v18H189z"/><path class="cls-11" d="M189 423h270v36H189z"/><path class="cls-12" d="M189 459h270v36H189z"/><path class="cls-4" d="M459 369H171v531h306V369zm0 486H189V531h270zm0-360H189v-72h270z"/><path class="cls-5" d="M189 486h270v9H189z"/></g><g id="Window-2" data-name="Window"><path class="cls-5" d="M1017 351h306v18h-306z"/><path class="cls-11" d="M1035 423h270v36h-270z"/><path class="cls-12" d="M1035 459h270v36h-270z"/><path class="cls-11" d="M1035 495h270v36h-270z"/><path class="cls-12" d="M1035 531h270v36h-270z"/><path class="cls-11" d="M1035 567h270v36h-270z"/><path class="cls-12" d="M1035 603h270v36h-270z"/><path class="cls-11" d="M1035 639h270v36h-270z"/><path class="cls-12" d="M1035 675h270v36h-270z"/><path class="cls-4" d="M1305 369h-288v531h306V369zm0 486h-270V747h270zm0-144h-270V423h270z"/><path class="cls-5" d="M1035 837h270v18h-270zm0-135h270v9h-270z"/></g></g></g></g></svg>