<svg xmlns="http://www.w3.org/2000/svg" viewBox="0 0 1494 1080"><defs><linearGradient id="Безымянный_градиент_50" x1="747" y1="864" x2="747" y2="81" gradientUnits="userSpaceOnUse"><stop offset="0"/><stop offset=".05" stop-color="#0b080f"/><stop offset=".12" stop-color="#140f1a"/><stop offset=".22" stop-color="#191321"/><stop offset=".5" stop-color="#1a1423"/><stop offset=".78" stop-color="#191321"/><stop offset=".88" stop-color="#140f1a"/><stop offset=".95" stop-color="#0b080f"/><stop offset="1"/></linearGradient><linearGradient id="Новый_образец_градиентной_зал_2" x1="747" y1="1" x2="747" y2="1080" gradientUnits="userSpaceOnUse"><stop offset="0"/><stop offset=".05" stop-color="#15111f"/><stop offset=".11" stop-color="#2e2544"/><stop offset=".18" stop-color="#423663"/><stop offset=".25" stop-color="#52437b"/><stop offset=".32" stop-color="#5d4c8c"/><stop offset=".4" stop-color="#645196"/><stop offset=".5" stop-color="#665399"/><stop offset=".6" stop-color="#645196"/><stop offset=".68" stop-color="#5d4c8c"/><stop offset=".75" stop-color="#52437b"/><stop offset=".82" stop-color="#423663"/><stop offset=".89" stop-color="#2e2544"/><stop offset=".95" stop-color="#15111f"/><stop offset="1"/></linearGradient><style>.cls-2{fill:#1e1528}.cls-3{fill:#00296b}.cls-4{fill:#00509d}.cls-5{fill:#372549}.cls-6{fill:#07060a}.cls-7{fill:#1a1423}.cls-8{fill:#302030}.cls-9{fill:#352034}.cls-10{fill:#efdce5}.cls-11{fill:#ada6aa}.cls-12{fill:#120d19}.cls-13{fill:#1b4332}.cls-14{fill:#2d6a4f}.cls-15{fill:#370617}.cls-16{fill:#6a040f}.cls-17{fill:#6d3925}.cls-18{fill:#f86624}.cls-20{fill:#361b42}.cls-21{fill:#9f86c0}.cls-22{opacity:.25}.cls-26{fill:#70587c}.cls-27{fill:#483a51}.cls-28{fill:#774c60}.cls-29{fill:#4f3341}</style></defs><g id="Layer_2" data-name="Layer 2"><g id="Final_Inside" data-name="Final Inside"><g id="_1-_FAQ_-_Inside" data-name="1- FAQ - Inside"><g id="FAQ_room" data-name="FAQ room"><path id="Wall" d="M54 81v783h1386V81zm1268.71 621H1017V153h305.71z" fill="url(#Безымянный_градиент_50)"/><g id="Window"><path class="cls-2" d="M1017 153h306v18h-306zm18 486h270v18h-270z"/><path class="cls-3" d="M1035 225h270v36h-270z"/><path class="cls-4" d="M1035 261h270v36h-270z"/><path class="cls-3" d="M1035 297h270v36h-270z"/><path class="cls-5" d="M1305 171h-288v531h306V171zm0 486h-270V369h270zm0-324h-270V225h270z"/><path class="cls-2" d="M1035 324h270v9h-270z"/></g><g id="Floor"><path class="cls-6" d="M54 864h1386v27H54z"/><g id="floor-2" data-name="floor"><path class="cls-7" d="M108 945h108v27H108z"/><path class="cls-2" d="M216 945h108v27H216zm-162 0h54v27H54z"/><path class="cls-7" d="M324 945h108v27H324z"/><path class="cls-2" d="M432 945h108v27H432z"/><path class="cls-7" d="M540 945h108v27H540z"/><path class="cls-2" d="M648 945h108v27H648z"/><path class="cls-7" d="M756 945h108v27H756z"/><path class="cls-2" d="M864 945h108v27H864z"/><path class="cls-7" d="M972 945h108v27H972z"/><path class="cls-2" d="M1080 945h108v27h-108z"/><path class="cls-7" d="M1188 945h108v27h-108z"/><path class="cls-2" d="M1296 945h108v27h-108z"/><path class="cls-7" d="M1404 945h36v27h-36z"/><path class="cls-8" d="M1251 918h108v27h-108zm-1080 0h108v27H171zm-117 0h9v27h-9z"/><path class="cls-9" d="M279 918h108v27H279zm-216 0h108v27H63z"/><path class="cls-8" d="M387 918h108v27H387z"/><path class="cls-9" d="M495 918h108v27H495z"/><path class="cls-8" d="M603 918h108v27H603z"/><path class="cls-9" d="M711 918h108v27H711z"/><path class="cls-8" d="M819 918h108v27H819z"/><path class="cls-9" d="M927 918h108v27H927z"/><path class="cls-8" d="M1035 918h108v27h-108z"/><path class="cls-9" d="M1143 918h108v27h-108zm216 0h81v27h-81z"/><path class="cls-8" d="M1251 999h108v27h-108zm-1080 0h108v27H171zm-117 0h9v27h-9z"/><path class="cls-9" d="M279 999h108v27H279zm-216 0h108v27H63z"/><path class="cls-8" d="M387 999h108v27H387z"/><path class="cls-9" d="M495 999h108v27H495z"/><path class="cls-8" d="M603 999h108v27H603z"/><path class="cls-9" d="M711 999h108v27H711z"/><path class="cls-8" d="M819 999h108v27H819z"/><path class="cls-9" d="M927 999h108v27H927z"/><path class="cls-8" d="M1035 999h108v27h-108z"/><path class="cls-9" d="M1143 999h108v27h-108zm216 0h81v27h-81z"/><path class="cls-2" d="M126 891h108v27H126z"/><path class="cls-7" d="M234 891h108v27H234zm-180 0h72v27H54z"/><path class="cls-2" d="M342 891h108v27H342z"/><path class="cls-7" d="M450 891h108v27H450z"/><path class="cls-2" d="M558 891h108v27H558z"/><path class="cls-7" d="M666 891h108v27H666z"/><path class="cls-2" d="M774 891h108v27H774z"/><path class="cls-7" d="M882 891h108v27H882z"/><path class="cls-2" d="M990 891h108v27H990zm216 0h108v27h-108zm216 0h18v27h-18z"/><path class="cls-7" d="M1314 891h108v27h-108zm-216 0h108v27h-108z"/><path class="cls-2" d="M126 972h108v27H126z"/><path class="cls-7" d="M234 972h108v27H234zm-180 0h72v27H54z"/><path class="cls-2" d="M342 972h108v27H342z"/><path class="cls-7" d="M450 972h108v27H450z"/><path class="cls-2" d="M558 972h108v27H558z"/><path class="cls-7" d="M666 972h108v27H666z"/><path class="cls-2" d="M774 972h108v27H774z"/><path class="cls-7" d="M882 972h108v27H882z"/><path class="cls-2" d="M990 972h108v27H990zm216 0h108v27h-108zm216 0h18v27h-18z"/><path class="cls-7" d="M1314 972h108v27h-108zm-216 0h108v27h-108z"/></g></g><g id="Whiteboard"><path class="cls-5" d="M144 198v531h818V198zm414 522H153V207h405z"/><path class="cls-10" d="M153 207h800v513H153z"/><path class="cls-2" d="M144 189h818v9H144z"/><g id="road"><path class="cls-2" d="M891 216h45v495h-45z"/><path class="cls-10" d="M909 225h9v27h-9zm0 45h9v27h-9zm0 45h9v27h-9zm0 45h9v27h-9zm0 45h9v27h-9zm0 45h9v27h-9zm0 45h9v27h-9zm0 45h9v27h-9zm0 45h9v27h-9zm0 45h9v27h-9zm0 45h9v27h-9z"/></g><path class="cls-11" d="M162 216h711v63H162zm0 72h711v63H162zm0 72h711v63H162zm0 72h711v63H162zm0 72h711v63H162zm0 72h711v63H162z"/></g><g id="chair"><path class="cls-2" d="M1368 765v189h-18v-90h-90v90h-18V846h108v-81h18z"/><path class="cls-12" d="M1323 864h18v63h-18z"/><path class="cls-12" transform="rotate(180 1278 895.5)" d="M1269 864h18v63h-18z"/><path class="cls-5" d="M1242 801h108v45h-108zm108-81h18v45h-18z"/></g><g id="table"><path class="cls-12" d="M963 846h36v90h-36zm180 0h36v90h-36z"/><path class="cls-5" d="M918 765h306v63H918z"/><path class="cls-2" d="M918 828v126h36V846h234v108h36V828H918z"/></g><g id="shelf"><path class="cls-5" d="M162 900h720v18H162z"/><path class="cls-12" d="M162 819h720v81H162z"/><path class="cls-5" d="M144 783h756v18H144z"/><path class="cls-2" d="M882 801H144v135h756V801zM162 918v-99h90v99zm108 0v-99h90v99zm108 0v-99h396v99zm504 0h-90v-99h90z"/></g><g id="papers"><path class="cls-10" d="M684 900h72v9h-72z"/><path class="cls-11" d="M684 891h72v9h-72z"/><path class="cls-10" d="M684 882h72v9h-72zm0-18h72v9h-72zm0-18h72v9h-72z"/><path class="cls-11" d="M684 873h72v9h-72zm0-18h72v9h-72z"/></g><g id="papers-2" data-name="papers"><path class="cls-10" d="M477 900h36v9h-36z"/><path class="cls-11" d="M477 891h36v9h-36z"/><path class="cls-10" d="M477 882h36v9h-36zm0-18h36v9h-36z"/><path class="cls-11" d="M477 873h36v9h-36z"/></g><g id="green_book" data-name="green book"><path class="cls-13" d="M387 828h18v81h-18z"/><path class="cls-14" d="M405 828h9v81h-9z"/></g><g id="green_book-2" data-name="green book"><path class="cls-15" transform="rotate(-90 567 900)" d="M558 864h18v72h-18z"/><path class="cls-16" transform="rotate(-90 567 886.5)" d="M562.5 850.5h9v72h-9z"/></g><g id="green_book-3" data-name="green book"><path class="cls-13" transform="rotate(-90 576 873)" d="M567 837h18v72h-18z"/><path class="cls-14" transform="rotate(-90 576 859.5)" d="M571.5 823.5h9v72h-9z"/></g><g id="green_book-4" data-name="green book"><path class="cls-3" transform="rotate(-90 567 846)" d="M558 810h18v72h-18z"/><path class="cls-4" transform="rotate(-90 567 832.5)" d="M562.5 796.5h9v72h-9z"/></g><g id="blue_book" data-name="blue book"><path class="cls-3" d="M414 828h18v81h-18z"/><path class="cls-4" d="M432 828h9v81h-9z"/></g><g id="red_book" data-name="red book"><path class="cls-15" d="M441 828h18v81h-18z"/><path class="cls-16" d="M459 828h9v81h-9z"/></g><g id="red_book-2" data-name="red book"><path class="cls-17" d="M648 828h18v81h-18z"/><path class="cls-18" d="M666 828h9v81h-9z"/></g><path class="cls-4" d="M297 882h27v27h-27z"/><path class="cls-3" d="M297 873h27v9h-27z"/><path fill="#9a37a0" d="M324 855h27v54h-27z"/><path class="cls-20" d="M324 846h27v9h-27z"/><rect class="cls-17" x="171" y="837" width="72" height="72" rx="12.03"/><path class="cls-18" d="M171 882h27v9h-27z"/><path class="cls-20" d="M171 873h27v9h-27z"/><path class="cls-18" d="M225 864h18v9h-18z"/><path class="cls-20" d="M225 855h18v9h-18z"/><path class="cls-18" d="M225 882h18v9h-18z"/><path class="cls-20" d="M225 873h18v9h-18z"/><path class="cls-18" d="M189 837h36v9h-36z"/><path class="cls-20" d="M216 900v-18h-9v18h-18v9h36v-9h-9z"/><path class="cls-18" d="M171 864h45v9h-45z"/><path class="cls-20" d="M171 855h45v9h-45z"/><rect class="cls-3" x="981" y="684" width="72" height="72" rx="12.03" transform="rotate(180 1017 720)"/><path class="cls-14" transform="rotate(180 1039.5 706.5)" d="M1026 702h27v9h-27z"/><path class="cls-13" transform="rotate(180 1039.5 715.5)" d="M1026 711h27v9h-27z"/><path class="cls-14" transform="rotate(180 990 724.5)" d="M981 720h18v9h-18z"/><path class="cls-13" transform="rotate(180 990 733.5)" d="M981 729h18v9h-18z"/><path class="cls-14" transform="rotate(180 990 706.5)" d="M981 702h18v9h-18z"/><path class="cls-13" transform="rotate(180 990 715.5)" d="M981 711h18v9h-18z"/><path class="cls-4" transform="rotate(180 1017 751.5)" d="M999 747h36v9h-36z"/><path class="cls-4" transform="rotate(180 1012.5 697.5)" d="M1008 684h9v27h-9z"/><path class="cls-4" transform="rotate(180 1026 688.5)" d="M1017 684h18v9h-18z"/><path class="cls-4" transform="rotate(180 1003.5 688.5)" d="M999 684h9v9h-9z"/><path class="cls-14" transform="rotate(180 1030.5 724.5)" d="M1008 720h45v9h-45z"/><path class="cls-13" transform="rotate(180 1030.5 733.5)" d="M1008 729h45v9h-45z"/><path class="cls-17" transform="rotate(180 1017 765)" d="M1008 756h18v18h-18z"/><path class="cls-18" transform="rotate(180 1017 778.5)" d="M999 774h36v9h-36z"/><g id="robot"><path class="cls-4" d="M822 864h21a12 12 0 0112 12v33h-45v-33a12 12 0 0112-12z"/><path class="cls-3" d="M855 891h9v9a9 9 0 01-9 9 9 9 0 01-9-9 9 9 0 019-9z" transform="rotate(180 855 900)"/><path class="cls-10" d="M828 900h9v4.5a4.5 4.5 0 01-4.5 4.5 4.5 4.5 0 01-4.5-4.5V900z" transform="rotate(180 832.5 904.5)"/><path class="cls-3" d="M801 891h9a9 9 0 019 9 9 9 0 01-9 9 9 9 0 01-9-9v-9z" transform="rotate(-180 810 900)"/><rect class="cls-3" x="819" y="873" width="27" height="18" rx="4.5"/><rect class="cls-18" x="819" y="873" width="9" height="18" rx="4.5"/><rect class="cls-18" x="837" y="873" width="9" height="18" rx="4.5"/><rect class="cls-21" x="846" y="891" width="9" height="9" rx="4.5" transform="rotate(-180 850.5 895.5)"/><rect class="cls-21" x="810" y="891" width="9" height="9" rx="4.5" transform="rotate(180 814.5 895.5)"/></g><g id="pencil"><path class="cls-4" transform="rotate(-150 1093.5 795.734)" d="M1089 782.24h9v27h-9z"/><path class="cls-10" transform="rotate(-150 1102.5 780.145)" d="M1098 775.65h9v9h-9z"/><path class="cls-6" d="M1084.5 806.82a4.5 4.5 0 014.5 4.5v4.5h-9v-4.5a4.5 4.5 0 014.5-4.5z" transform="rotate(-150 1084.504 811.322)"/></g><g id="pencil-2" data-name="pencil"><path class="cls-16" transform="rotate(150 952.351 795.737)" d="M947.85 782.24h9v27h-9z"/><path class="cls-10" transform="rotate(150 943.35 780.148)" d="M938.85 775.65h9v9h-9z"/><path class="cls-6" d="M961.35 806.82a4.5 4.5 0 014.5 4.5v4.5h-9v-4.5a4.5 4.5 0 014.5-4.5z" transform="rotate(150 961.352 811.327)"/></g><g id="paper"><path class="cls-10" d="M1125 774h90v45h-90z"/><path class="cls-6" d="M1134 801h18v9h-18zm0-18h27v9h-27zm27 18h27v9h-27zm9-18h36v9h-36zm27 18h9v9h-9z"/></g></g><g id="Maket"><g id="Transparent" class="cls-22"><path d="M54 1v1079h1386V1zm1341 980H99V126h1296z" fill="url(#Новый_образец_градиентной_зал_2)"/><path d="M651.6 126l-3.6-9 45-45-36-18v27l-67.5 45h62.1zm-178.2 0l12.6-9 22.5 9h45L486 99l-27 27h14.4zM333 981h-2.25l-6.75 27 54 36h27l-72-45v-18z" fill="#03071e" id="_1" data-name="1"/><path class="cls-7" d="M1386 126H99v855h1296V126zm0 846H108V135h1278z"/></g><g id="Not_transparent" data-name="Not transparent"><path d="M1440 1h18v1079h-18zM36 1h18v1079H36z" fill="#594763"/><path class="cls-5" d="M18 1035h1458v45H18z"/><path class="cls-6" d="M0 1071h1494v9H0z"/><path class="cls-2" d="M18 1026h1458v9H18z"/><path class="cls-7" d="M0 0h1494v81H0z"/></g><g id="Bricks_transparent" data-name="Bricks transparent" class="cls-22"><path class="cls-26" d="M918 981h99v36h-99z"/><path class="cls-5" d="M738 981h171v36H738z"/><g id="Side"><path class="cls-26" d="M18 135h54v72H18z"/><path class="cls-27" d="M18 126h54v9H18z"/><path class="cls-26" d="M18 675h54v72H18z"/><path class="cls-27" d="M18 666h54v9H18z"/><path class="cls-28" d="M1422 270h54v72h-54z"/><path class="cls-29" d="M1422 261h54v9h-54z"/><path class="cls-28" d="M18 855h72v72H18z"/><path class="cls-29" d="M18 846h72v9H18z"/><path class="cls-27" d="M1377 90h99v9h-99z"/><path class="cls-26" d="M1377 99v27h18v36h81V99h-99z"/><path class="cls-5" d="M1395 180h72v72h-72z"/><path class="cls-2" d="M1395 171h72v9h-72z"/><path class="cls-26" d="M1395 846h81v72h-81z"/><path class="cls-27" d="M1395 837h81v9h-81z"/><path class="cls-5" d="M1395 936v45h-81v27h153v-72h-72z"/><path class="cls-2" d="M1395 927h72v9h-72z"/><path class="cls-5" d="M99 981v-36H27v72h117v-36H99z"/><path class="cls-2" d="M27 936h72v9H27z"/><path class="cls-5" d="M27 765h72v72H27z"/><path class="cls-2" d="M27 756h72v9H27z"/><path class="cls-28" d="M18 315h81v72H18z"/><path class="cls-29" d="M18 306h81v9H18z"/><path class="cls-5" d="M27 225h72v72H27z"/><path class="cls-2" d="M27 216h72v9H27z"/></g></g></g></g></g></g></svg>