<svg xmlns="http://www.w3.org/2000/svg" viewBox="0 0 1494 1080"><defs><linearGradient id="Безымянный_градиент_50" x1="747" y1="864" x2="747" y2="81" gradientUnits="userSpaceOnUse"><stop offset="0"/><stop offset=".05" stop-color="#0b080f"/><stop offset=".12" stop-color="#140f1a"/><stop offset=".22" stop-color="#191321"/><stop offset=".5" stop-color="#1a1423"/><stop offset=".78" stop-color="#191321"/><stop offset=".88" stop-color="#140f1a"/><stop offset=".95" stop-color="#0b080f"/><stop offset="1"/></linearGradient><linearGradient id="Новый_образец_градиентной_зал_2" x1="747" y1="1" x2="747" y2="1080" gradientUnits="userSpaceOnUse"><stop offset="0"/><stop offset=".05" stop-color="#15111f"/><stop offset=".11" stop-color="#2e2544"/><stop offset=".18" stop-color="#423663"/><stop offset=".25" stop-color="#52437b"/><stop offset=".32" stop-color="#5d4c8c"/><stop offset=".4" stop-color="#645196"/><stop offset=".5" stop-color="#665399"/><stop offset=".6" stop-color="#645196"/><stop offset=".68" stop-color="#5d4c8c"/><stop offset=".75" stop-color="#52437b"/><stop offset=".82" stop-color="#423663"/><stop offset=".89" stop-color="#2e2544"/><stop offset=".95" stop-color="#15111f"/><stop offset="1"/></linearGradient><style>.cls-2{fill:#1e1528}.cls-3{fill:#5e548e}.cls-4{fill:#9f86c0}.cls-5{fill:#372549}.cls-6{fill:#07060a}.cls-7{fill:#1a1423}.cls-8{fill:#302030}.cls-9{fill:#352034}.cls-10{fill:#efdce5}.cls-11{fill:#ada6aa}.cls-12{fill:#120d19}.cls-13{fill:#1b4332}.cls-14{fill:#2d6a4f}.cls-15{fill:#00296b}.cls-16{fill:#00509d}.cls-17{fill:#370617}.cls-18{fill:#6a040f}.cls-19{fill:#f86624}.cls-20{fill:#6d3925}.cls-21{opacity:.25}.cls-25{fill:#70587c}.cls-26{fill:#774c60}.cls-27{fill:#4f3341}.cls-28{fill:#483a51}</style></defs><g id="Layer_2" data-name="Layer 2"><g id="Final_Inside" data-name="Final Inside"><g id="_3_-_Roadmap_-_Inside" data-name="3 - Roadmap - Inside"><g id="Roadmap_room" data-name="Roadmap room"><path id="Wall" d="M54 81v783h1386V81zm845.71 621H594V153h305.71z" fill="url(#Безымянный_градиент_50)"/><g id="Window"><path class="cls-2" d="M594 153h306v18H594zm18 486h270v18H612z"/><path class="cls-3" d="M612 225h270v36H612z"/><path class="cls-4" d="M612 261h270v36H612z"/><path class="cls-3" d="M612 297h270v36H612z"/><path class="cls-5" d="M882 171H594v531h306V171zm0 486H612V369h270zm0-324H612V225h270z"/><path class="cls-2" d="M612 324h270v9H612z"/></g><g id="Floor"><path class="cls-6" d="M54 864h1386v27H54z"/><g id="floor-2" data-name="floor"><path class="cls-7" d="M108 945h108v27H108z"/><path class="cls-2" d="M216 945h108v27H216zm-162 0h54v27H54z"/><path class="cls-7" d="M324 945h108v27H324z"/><path class="cls-2" d="M432 945h108v27H432z"/><path class="cls-7" d="M540 945h108v27H540z"/><path class="cls-2" d="M648 945h108v27H648z"/><path class="cls-7" d="M756 945h108v27H756z"/><path class="cls-2" d="M864 945h108v27H864z"/><path class="cls-7" d="M972 945h108v27H972z"/><path class="cls-2" d="M1080 945h108v27h-108z"/><path class="cls-7" d="M1188 945h108v27h-108z"/><path class="cls-2" d="M1296 945h108v27h-108z"/><path class="cls-7" d="M1404 945h36v27h-36z"/><path class="cls-8" d="M1251 918h108v27h-108zm-1080 0h108v27H171zm-117 0h9v27h-9z"/><path class="cls-9" d="M279 918h108v27H279zm-216 0h108v27H63z"/><path class="cls-8" d="M387 918h108v27H387z"/><path class="cls-9" d="M495 918h108v27H495z"/><path class="cls-8" d="M603 918h108v27H603z"/><path class="cls-9" d="M711 918h108v27H711z"/><path class="cls-8" d="M819 918h108v27H819z"/><path class="cls-9" d="M927 918h108v27H927z"/><path class="cls-8" d="M1035 918h108v27h-108z"/><path class="cls-9" d="M1143 918h108v27h-108zm216 0h81v27h-81z"/><path class="cls-8" d="M1251 999h108v27h-108zm-1080 0h108v27H171zm-117 0h9v27h-9z"/><path class="cls-9" d="M279 999h108v27H279zm-216 0h108v27H63z"/><path class="cls-8" d="M387 999h108v27H387z"/><path class="cls-9" d="M495 999h108v27H495z"/><path class="cls-8" d="M603 999h108v27H603z"/><path class="cls-9" d="M711 999h108v27H711z"/><path class="cls-8" d="M819 999h108v27H819z"/><path class="cls-9" d="M927 999h108v27H927z"/><path class="cls-8" d="M1035 999h108v27h-108z"/><path class="cls-9" d="M1143 999h108v27h-108zm216 0h81v27h-81z"/><path class="cls-2" d="M126 891h108v27H126z"/><path class="cls-7" d="M234 891h108v27H234zm-180 0h72v27H54z"/><path class="cls-2" d="M342 891h108v27H342z"/><path class="cls-7" d="M450 891h108v27H450z"/><path class="cls-2" d="M558 891h108v27H558z"/><path class="cls-7" d="M666 891h108v27H666z"/><path class="cls-2" d="M774 891h108v27H774z"/><path class="cls-7" d="M882 891h108v27H882z"/><path class="cls-2" d="M990 891h108v27H990zm216 0h108v27h-108zm216 0h18v27h-18z"/><path class="cls-7" d="M1314 891h108v27h-108zm-216 0h108v27h-108z"/><path class="cls-2" d="M126 972h108v27H126z"/><path class="cls-7" d="M234 972h108v27H234zm-180 0h72v27H54z"/><path class="cls-2" d="M342 972h108v27H342z"/><path class="cls-7" d="M450 972h108v27H450z"/><path class="cls-2" d="M558 972h108v27H558z"/><path class="cls-7" d="M666 972h108v27H666z"/><path class="cls-2" d="M774 972h108v27H774z"/><path class="cls-7" d="M882 972h108v27H882z"/><path class="cls-2" d="M990 972h108v27H990zm216 0h108v27h-108zm216 0h18v27h-18z"/><path class="cls-7" d="M1314 972h108v27h-108zm-216 0h108v27h-108z"/></g></g><g id="Whiteboard"><path class="cls-5" d="M936 189v531h423V189zm414 522H945V198h405z"/><path class="cls-10" d="M945 198h405v513H945z"/><path class="cls-2" d="M936 180h423v9H936z"/><path class="cls-11" d="M963 207h279v144H963z"/><path class="cls-2" d="M963 207h27v27h-27z"/><path class="cls-11" d="M963 360h279v144H963z"/><path class="cls-2" d="M963 360h27v27h-27z"/><path class="cls-11" d="M963 513h279v144H963z"/><path class="cls-2" d="M963 513h27v27h-27z"/><g id="road"><path class="cls-2" d="M1260 207h45v495h-45z"/><path class="cls-10" d="M1278 216h9v27h-9zm0 45h9v27h-9zm0 45h9v27h-9zm0 45h9v27h-9zm0 45h9v27h-9zm0 45h9v27h-9zm0 45h9v27h-9zm0 45h9v27h-9zm0 45h9v27h-9zm0 45h9v27h-9zm0 45h9v27h-9z"/></g></g><g id="Whiteboard-2" data-name="Whiteboard"><path class="cls-5" d="M135 189v531h423V189zm414 522H144V198h405z"/><path class="cls-10" d="M144 198h405v513H144z"/><path class="cls-2" d="M135 180h423v9H135z"/><path class="cls-11" d="M153 207h162v180H153z"/><path class="cls-2" d="M153 207h27v27h-27z"/><path class="cls-11" d="M378 207h162v279H378z"/><path class="cls-2" d="M378 207h27v27h-27z"/><path class="cls-11" d="M153 396h162v306H153z"/><path class="cls-2" d="M153 396h27v27h-27z"/><path class="cls-11" d="M378 495h162v207H378z"/><path class="cls-2" d="M378 495h27v27h-27z"/><g id="road-2" data-name="road"><path class="cls-2" d="M324 207h45v495h-45z"/><path class="cls-10" d="M342 216h9v27h-9zm0 45h9v27h-9zm0 45h9v27h-9zm0 45h9v27h-9zm0 45h9v27h-9zm0 45h9v27h-9zm0 45h9v27h-9zm0 45h9v27h-9zm0 45h9v27h-9zm0 45h9v27h-9zm0 45h9v27h-9z"/></g></g><g id="Shelf"><path class="cls-2" d="M144 756v180h441V756zm306 18h117v63H450zm-126 0h108v63H324zM162 918V774h144v144zm162 0v-63h108v63zm126 0v-63h117v63z"/><path class="cls-5" d="M162 900h144v18H162zm162 0h108v18H324zm0-81h108v18H324zm-180-81h441v18H144zm306 81h117v18H450z"/><path class="cls-12" d="M324 855h108v45H324zm126 0h117v45H450zm0-81h117v45H450zm-126 0h108v45H324z"/><path class="cls-5" d="M450 900h117v18H450z"/><path class="cls-12" d="M162 774h144v126H162z"/><g id="green_book" data-name="green book"><path class="cls-13" d="M171 810h18v99h-18z"/><path class="cls-14" d="M189 810h9v99h-9z"/></g><g id="green_book-2" data-name="green book"><path class="cls-3" transform="rotate(-15 273.493 858.859)" d="M264.5 809.36h18v99h-18z"/><path class="cls-4" transform="rotate(-15 286.549 855.362)" d="M282.04 805.86h9v99h-9z"/></g><g id="blue_book" data-name="blue book"><path class="cls-15" d="M198 810h18v99h-18z"/><path class="cls-16" d="M216 810h9v99h-9z"/></g><g id="blue_book-2" data-name="blue book"><path class="cls-15" d="M459 783h18v45h-18z"/><path class="cls-16" d="M477 783h9v45h-9z"/></g><g id="blue_book-3" data-name="blue book"><path class="cls-13" d="M486 783h18v45h-18z"/><path class="cls-14" d="M504 783h9v45h-9z"/></g><g id="blue_book-4" data-name="blue book"><path class="cls-13" d="M459 864h18v45h-18z"/><path class="cls-14" d="M477 864h9v45h-9z"/></g><g id="blue_book-5" data-name="blue book"><path class="cls-3" d="M531 864h18v45h-18z"/><path class="cls-4" d="M549 864h9v45h-9z"/></g><g id="blue_book-6" data-name="blue book"><path class="cls-17" d="M531 783h18v45h-18z"/><path class="cls-18" d="M549 783h9v45h-9z"/></g><g id="red_book" data-name="red book"><path class="cls-17" d="M225 810h18v99h-18z"/><path class="cls-18" d="M243 810h9v99h-9z"/></g><g id="robot"><path class="cls-18" d="M363 783h21a12 12 0 0112 12v33h-45v-33a12 12 0 0112-12z"/><path class="cls-17" d="M396 810h9v9a9 9 0 01-9 9 9 9 0 01-9-9 9 9 0 019-9z" transform="rotate(180 396 819)"/><path class="cls-10" d="M369 819h9v4.5a4.5 4.5 0 01-4.5 4.5 4.5 4.5 0 01-4.5-4.5V819z" transform="rotate(180 373.5 823.5)"/><path class="cls-17" d="M342 810h9a9 9 0 019 9 9 9 0 01-9 9 9 9 0 01-9-9v-9z" transform="rotate(180 351 819)"/><rect class="cls-17" x="360" y="792" width="27" height="18" rx="4.5"/><rect class="cls-19" x="360" y="792" width="9" height="18" rx="4.5"/><rect class="cls-19" x="378" y="792" width="9" height="18" rx="4.5"/><rect class="cls-4" x="387" y="810" width="9" height="9" rx="4.5" transform="rotate(180 391.5 814.5)"/><rect class="cls-4" x="351" y="810" width="9" height="9" rx="4.5" transform="rotate(180 355.5 814.5)"/></g><g id="papers"><path class="cls-10" d="M333 900h90v9h-90z"/><path class="cls-11" d="M333 891h90v9h-90z"/><path class="cls-10" d="M333 882h90v9h-90z"/><path class="cls-11" d="M333 873h90v9h-90z"/></g><g id="papers-2" data-name="papers"><path class="cls-10" d="M486 900h36v9h-36z"/><path class="cls-11" d="M486 891h36v9h-36z"/><path class="cls-10" d="M486 882h36v9h-36z"/><path class="cls-11" d="M486 873h36v9h-36z"/></g></g><g id="Table"><path class="cls-2" d="M1170 837v135h-36V855H837v117h-36V837h369z"/><path class="cls-12" d="M1089 855h36v90h-36zm-243 0h36v90h-36z"/><path class="cls-5" d="M801 774h369v63H801z"/></g><g id="paper"><path class="cls-10" d="M1017 783h99v45h-99z"/><path class="cls-6" d="M1026 792h27v9h-27zm54 18h27v9h-27zm0-18h18v9h-18zm-27 18h18v9h-18zm-27 0h18v9h-18zm36-18h9v9h-9z"/></g><g id="pencil"><path class="cls-16" transform="rotate(-30 984.606 806.024)" d="M980.1 792.52h9v27h-9z"/><path class="cls-10" transform="rotate(-30 975.604 790.432)" d="M971.1 785.93h9v9h-9z"/><path class="cls-6" d="M989.1 817.11h9v4.5a4.5 4.5 0 01-4.5 4.5 4.5 4.5 0 01-4.5-4.5v-4.5z" transform="rotate(-30 993.59 821.612)"/></g><g id="pencil-2" data-name="pencil"><path class="cls-18" transform="rotate(30 1145.855 805.509)" d="M1141.35 792h9v27h-9z"/><path class="cls-10" transform="rotate(30 1154.858 789.917)" d="M1150.35 785.41h9v9h-9z"/><path class="cls-6" d="M1132.35 816.59h9v4.5a4.5 4.5 0 01-4.5 4.5 4.5 4.5 0 01-4.5-4.5v-4.5z" transform="rotate(30 1136.848 821.082)"/></g><g id="BNC"><path class="cls-20" d="M837 756h9v63h-9zm-9-126h9v99h-9zm27 126h9v63h-9zm36 0h9v63h-9z"/><path class="cls-19" d="M828 729h99v27h-99z"/><path class="cls-20" d="M927 729h9v36h-9z"/><path class="cls-6" d="M927 765h9v9h-9zm-18 54h9v9h-9zm-18 0h9v9h-9zm-36 0h9v9h-9zm-18 0h9v9h-9z"/><path class="cls-19" d="M792 603h54v27h-54z"/><path class="cls-20" d="M837 585h9v18h-9zm-18 0h9v18h-9zm90 171h9v63h-9z"/></g><g id="chair"><path class="cls-2" d="M1350 774v189h-18v-90h-90v90h-18V855h108v-81h18z"/><path class="cls-12" d="M1305 873h18v63h-18z"/><path class="cls-12" transform="rotate(180 1260 904.5)" d="M1251 873h18v63h-18z"/><path class="cls-5" d="M1224 810h108v45h-108zm108-81h18v45h-18z"/></g><g id="chair-2" data-name="chair"><path class="cls-2" d="M639 774v189h18v-90h90v90h18V855H657v-81h-18z"/><path class="cls-12" transform="rotate(180 675 904.5)" d="M666 873h18v63h-18z"/><path class="cls-12" d="M720 873h18v63h-18z"/><path class="cls-5" transform="rotate(180 711 832.5)" d="M657 810h108v45H657z"/><path class="cls-5" transform="rotate(180 648 751.5)" d="M639 729h18v45h-18z"/></g></g><g id="Maket"><g id="Transparent" class="cls-21"><path d="M54 1v1079h1386V1zm1341 980H99V126h1296z" fill="url(#Новый_образец_градиентной_зал_2)"/><path class="cls-7" d="M1386 126H99v855h1296V126zm0 846H108V135h1278z"/><path d="M396 990l-7.2-9H372l6 18 72 9 27 36h18l-27-45-72-9zm654-864h18.75L1089 99 972 54h-63l153 54-12 18z" fill="#03071e" id="_4" data-name="4"/></g><g id="Not_transparent" data-name="Not transparent"><path d="M1440 0h18v1079h-18zM36 0h18v1079H36z" fill="#594763"/><path class="cls-2" d="M18 1026h1458v9H18z"/><path class="cls-7" d="M0 0h1494v81H0z"/><path class="cls-5" d="M18 1035h1458v36H18z"/><path class="cls-6" d="M0 1071h1494v9H0z"/></g><g id="Bricks_transparent" data-name="Bricks transparent" class="cls-21"><path class="cls-25" d="M747 981h171v36H747z"/><path class="cls-5" d="M927 981h99v36h-99z"/><g id="Side"><path class="cls-26" d="M18 135h54v72H18z"/><path class="cls-27" d="M18 126h54v9H18z"/><path class="cls-5" d="M27 225h72v72H27z"/><path class="cls-2" d="M27 216h72v9H27z"/><path class="cls-5" d="M1395 198h72v72h-72z"/><path class="cls-2" d="M1395 189h72v9h-72z"/><path class="cls-25" d="M18 315h81v72H18z"/><path class="cls-28" d="M18 306h81v9H18zm0 351h54v9H18z"/><path class="cls-25" d="M18 666h54v72H18z"/><path class="cls-27" d="M1422 279h54v9h-54z"/><path class="cls-26" d="M1422 288h54v72h-54z"/><path class="cls-27" d="M18 837h72v9H18z"/><path class="cls-26" d="M18 846h72v72H18z"/><path class="cls-2" d="M27 747h72v9H27z"/><path class="cls-5" d="M27 756h72v72H27z"/><path class="cls-27" d="M1395 846h81v9h-81z"/><path class="cls-26" d="M1395 855h81v72h-81z"/><path class="cls-2" d="M27 927h72v9H27z"/><path class="cls-5" d="M99 981v-45H27v72h117v-27H99z"/><path class="cls-2" d="M1395 936h72v9h-72z"/><path class="cls-5" d="M1395 945v36h-81v36h153v-72h-72z"/><path class="cls-28" d="M1377 99h99v9h-99z"/><path class="cls-25" d="M1377 108v18h18v54h81v-72h-99z"/></g></g></g></g></g></g></svg>