<svg xmlns="http://www.w3.org/2000/svg" viewBox="0 0 1494 1080"><defs><linearGradient id="Новый_образец_градиентной_зал_2" x1="747" y1="1" x2="747" y2="1080" gradientUnits="userSpaceOnUse"><stop offset="0"/><stop offset=".05" stop-color="#15111f"/><stop offset=".11" stop-color="#2e2544"/><stop offset=".18" stop-color="#423663"/><stop offset=".25" stop-color="#52437b"/><stop offset=".32" stop-color="#5d4c8c"/><stop offset=".4" stop-color="#645196"/><stop offset=".5" stop-color="#665399"/><stop offset=".6" stop-color="#645196"/><stop offset=".68" stop-color="#5d4c8c"/><stop offset=".75" stop-color="#52437b"/><stop offset=".82" stop-color="#423663"/><stop offset=".89" stop-color="#2e2544"/><stop offset=".95" stop-color="#15111f"/><stop offset="1"/></linearGradient><style>.cls-3{fill:#1e1528}.cls-4{fill:#07060a}.cls-6{fill:#372549}.cls-7{fill:#70587c}.cls-8{fill:#774c60}.cls-9{fill:#4f3341}.cls-10{fill:#483a51}.cls-11{fill:#5e548e}.cls-12{fill:#9f86c0}</style></defs><g id="Layer_2" data-name="Layer 2"><g id="Final_outside" data-name="Final outside"><g id="_3_-_Roadmap_-_Outside" data-name="3 - Roadmap - Outside"><g id="level"><g id="wall"><path d="M54 1v1079h1386V1zm422.71 899H171V351h305.71zm423 0H594V351h305.71zm423 0H1017V351h305.71z" fill="url(#Новый_образец_градиентной_зал_2)"/><path d="M36 0h18v1079H36zm1404 0h18v1079h-18z" fill="#594763"/><path class="cls-3" d="M18 1026h1458v9H18z"/><path class="cls-4" d="M909 54l153 54-18 27 27 18-45 54 63-54-27-18 27-36-117-45h-63zm-495 72l-27 45 36 27-27 63 45-72-36-18 9-45zm63 918l-27-36-72-9-18-54 36 45 72 9 27 45h-18z" id="_4" data-name="4"/><path fill="#1a1423" d="M0 0h1494v81H0z"/><path class="cls-6" d="M18 1035h1458v45H18z"/></g><g id="Bricks"><path class="cls-6" d="M27 225h162v72H27zm666-63h162v72H693zm621 36h153v72h-153zm0 747h153v72h-153z"/><path class="cls-7" d="M18 315h99v72H18z"/><path class="cls-8" d="M18 135h54v72H18z"/><path class="cls-9" d="M1422 279h54v9h-54z"/><path class="cls-10" d="M1377 99h99v9h-99z"/><path class="cls-9" d="M18 126h54v9H18z"/><path class="cls-3" d="M27 216h162v9H27zm1287-27h153v9h-153z"/><path class="cls-10" d="M18 306h99v9H18zm0 351h54v9H18z"/><path class="cls-3" d="M27 927h117v9H27z"/><path class="cls-9" d="M18 837h72v9H18z"/><path class="cls-3" d="M1314 936h153v9h-153z"/><path class="cls-9" d="M1377 846h99v9h-99z"/><path class="cls-4" d="M0 1071h1494v9H0z"/><path class="cls-3" d="M27 747h90v9H27z"/><path class="cls-7" d="M18 666h54v72H18z"/><path class="cls-8" d="M1422 288h54v72h-54z"/><path class="cls-6" d="M27 936h117v72H27z"/><path class="cls-7" d="M747 945h171v72H747z"/><path class="cls-8" d="M18 846h72v72H18z"/><path class="cls-7" d="M630 252h126v72H630z"/><path class="cls-8" d="M558 162h126v72H558z"/><path class="cls-9" d="M558 153h126v9H558z"/><path class="cls-3" d="M693 153h162v9H693z"/><path class="cls-10" d="M630 243h126v9H630z"/><path class="cls-3" d="M522 243h99v9h-99z"/><path class="cls-6" d="M522 252h99v72h-99zm405 693h99v72h-99z"/><path class="cls-3" d="M927 936h99v9h-99z"/><path class="cls-10" d="M747 936h171v9H747z"/><path class="cls-6" d="M27 756h90v72H27z"/><path class="cls-7" d="M1377 108h99v72h-99z"/><path class="cls-8" d="M1377 855h99v72h-99z"/></g></g><g id="Window"><path class="cls-3" d="M171 351h306v18H171zm18 486h270v18H189z"/><path class="cls-6" d="M459 369H171v531h306V369zm0 486H189V675h270zm0-216H189V423h270z"/><path class="cls-11" d="M189 603h270v36H189z"/><path class="cls-12" d="M189 567h270v36H189z"/><path class="cls-11" d="M189 531h270v36H189z"/><path class="cls-12" d="M189 495h270v36H189z"/><path class="cls-11" d="M189 459h270v36H189z"/><path class="cls-12" d="M189 423h270v36H189z"/><path class="cls-3" d="M189 630h270v9H189z"/></g><g id="Window-2" data-name="Window"><path class="cls-3" d="M594 351h306v18H594zm18 486h270v18H612z"/><path class="cls-6" d="M882 369H594v531h306V369zm0 486H612v-72h270zm0-108H612V423h270z"/><path class="cls-11" d="M612 711h270v36H612z"/><path class="cls-12" d="M612 675h270v36H612z"/><path class="cls-11" d="M612 639h270v36H612z"/><path class="cls-12" d="M612 603h270v36H612z"/><path class="cls-11" d="M612 567h270v36H612z"/><path class="cls-12" d="M612 531h270v36H612z"/><path class="cls-11" d="M612 495h270v36H612z"/><path class="cls-12" d="M612 459h270v36H612z"/><path class="cls-11" d="M612 423h270v36H612z"/><path class="cls-3" d="M612 738h270v9H612z"/></g><g id="Window-3" data-name="Window"><path class="cls-3" d="M1017 351h306v18h-306zm18 486h270v18h-270z"/><path class="cls-11" d="M1035 423h270v36h-270z"/><path class="cls-12" d="M1035 459h270v36h-270z"/><path class="cls-11" d="M1035 495h270v36h-270z"/><path class="cls-6" d="M1305 369h-288v531h306V369zm0 486h-270V567h270zm0-324h-270V423h270z"/><path class="cls-3" d="M1035 522h270v9h-270z"/></g></g></g></g></svg>