<svg xmlns="http://www.w3.org/2000/svg" viewBox="0 0 161 4662"><defs><style>.cls-1{fill:#594763}.cls-2{fill:#1a1423}.cls-3{fill:#372549}.cls-4{fill:#70587c}.cls-5{fill:#774c60}.cls-6{fill:#1e1528}.cls-7{fill:#07060a}.cls-8{fill:#483a51}.cls-9{fill:#4f3341}.cls-10{fill:#502f4c}.cls-11{fill:#352034}.cls-12{fill:#300101}.cls-13{fill:#5b0101}</style></defs><g id="Layer_2" data-name="Layer 2"><g id="Background_elements" data-name="Background elements"><g id="R_side_parallax" data-name="R side parallax"><g id="side_wall" data-name="side wall"><path class="cls-1" transform="rotate(180 152 895.5)" d="M143 423h18v945h-18z"/><path class="cls-1" transform="rotate(180 152 1975.5)" d="M143 1503h18v945h-18z"/><path class="cls-1" transform="rotate(180 152 3055.5)" d="M143 2583h18v945h-18z"/><path class="cls-1" transform="rotate(180 152 4135.5)" d="M143 3663h18v945h-18z"/><path class="cls-2" transform="rotate(180 134 382.5)" d="M107 342h54v81h-54z"/><path class="cls-2" transform="rotate(180 134 1462.5)" d="M107 1422h54v81h-54z"/><path class="cls-3" transform="rotate(180 143 1395)" d="M125 1368h36v54h-36z"/><path class="cls-3" transform="rotate(180 143 2475)" d="M125 2448h36v54h-36z"/><path class="cls-2" transform="rotate(180 134 2542.5)" d="M107 2502h54v81h-54z"/><path class="cls-3" transform="rotate(180 143 3555)" d="M125 3528h36v54h-36z"/><path class="cls-2" transform="rotate(180 134 3622.5)" d="M107 3582h54v81h-54z"/><path class="cls-3" transform="rotate(180 143 4635)" d="M125 4608h36v54h-36z"/><path class="cls-4" transform="rotate(180 143 531)" d="M125 495h36v72h-36z"/><path class="cls-3" transform="rotate(180 147.5 621)" d="M134 585h27v72h-27z"/><path class="cls-4" transform="rotate(180 143 1566)" d="M125 1530h36v72h-36z"/><path class="cls-3" transform="rotate(180 146 1926)" d="M131 1890h30v72h-30z"/><path class="cls-5" transform="rotate(180 143 1746)" d="M125 1710h36v72h-36z"/><path class="cls-3" transform="rotate(180 147.5 1836)" d="M134 1800h27v72h-27z"/><path class="cls-3" transform="rotate(180 143 810)" d="M125 774h36v72h-36z"/><path class="cls-3" transform="rotate(180 147.5 1080)" d="M134 1044h27v72h-27z"/><path class="cls-6" transform="rotate(180 147.5 1039.5)" d="M134 1035h27v9h-27z"/><path class="cls-6" transform="rotate(180 143 1363.5)" d="M125 1359h36v9h-36z"/><path class="cls-7" transform="rotate(180 134 1417.5)" d="M107 1413h54v9h-54z"/><path class="cls-8" transform="rotate(180 143 1525.5)" d="M125 1521h36v9h-36z"/><path class="cls-8" transform="rotate(180 141.5 2002.5)" d="M122 1998h39v9h-39z"/><path class="cls-6" d="M131 1881h30v9h-30z"/><path class="cls-9" transform="rotate(180 143 1705.5)" d="M125 1701h36v9h-36z"/><path class="cls-9" transform="rotate(180 147.5 2209.5)" d="M134 2205h27v9h-27z"/><path class="cls-6" transform="rotate(180 147.5 1795.5)" d="M134 1791h27v9h-27z"/><path class="cls-6" transform="rotate(180 147.5 2101.5)" d="M134 2097h27v9h-27z"/><path class="cls-6" transform="rotate(180 143 2443.5)" d="M125 2439h36v9h-36z"/><path class="cls-7" transform="rotate(180 134 2497.5)" d="M107 2493h54v9h-54z"/><path class="cls-6" transform="rotate(180 143 3523.5)" d="M125 3519h36v9h-36z"/><path class="cls-7" transform="rotate(180 134 3577.5)" d="M107 3573h54v9h-54z"/><path class="cls-6" transform="rotate(180 143 4603.5)" d="M125 4599h36v9h-36z"/><path class="cls-6" transform="rotate(180 143 769.5)" d="M125 765h36v9h-36z"/><path class="cls-6" transform="rotate(180 147.5 580.5)" d="M134 576h27v9h-27z"/><path class="cls-8" transform="rotate(180 143 490.5)" d="M125 486h36v9h-36z"/><path class="cls-4" transform="rotate(180 138.5 981)" d="M116 945h45v72h-45z"/><path class="cls-8" transform="rotate(180 138.5 940.5)" d="M116 936h45v9h-45z"/><path class="cls-3" transform="rotate(180 147.5 2142)" d="M134 2106h27v72h-27z"/><path class="cls-4" transform="rotate(180 141.5 2043)" d="M122 2007h39v72h-39z"/><path class="cls-5" transform="rotate(180 143 2790)" d="M125 2754h36v72h-36z"/><path class="cls-3" transform="rotate(180 147.5 2880)" d="M134 2844h27v72h-27z"/><path class="cls-8" transform="rotate(180 147.5 3046.5)" d="M134 3042h27v9h-27z"/><path class="cls-9" transform="rotate(180 143 2749.5)" d="M125 2745h36v9h-36z"/><path class="cls-6" transform="rotate(180 147.5 2839.5)" d="M134 2835h27v9h-27z"/><path class="cls-4" transform="rotate(180 147.5 3087)" d="M134 3051h27v72h-27z"/><path class="cls-5" transform="rotate(180 138.5 3177)" d="M116 3141h45v72h-45z"/><path class="cls-3" transform="rotate(180 143 3267)" d="M125 3231h36v72h-36z"/><path class="cls-8" transform="rotate(180 147.5 3433.5)" d="M134 3429h27v9h-27z"/><path class="cls-9" transform="rotate(180 138.5 3136.5)" d="M116 3132h45v9h-45z"/><path class="cls-6" transform="rotate(180 143 3226.5)" d="M125 3222h36v9h-36z"/><path class="cls-3" transform="rotate(180 143 3849)" d="M125 3813h36v72h-36z"/><path class="cls-6" transform="rotate(180 143 3808.5)" d="M125 3804h36v9h-36z"/><path class="cls-4" transform="rotate(180 138.5 3940.5)" d="M116 3906h45v69h-45z"/><path class="cls-8" transform="rotate(180 138.5 3901.5)" d="M116 3897h45v9h-45z"/><path class="cls-5" transform="rotate(180 138.5 4518)" d="M116 4482h45v72h-45z"/><path class="cls-9" transform="rotate(180 138.5 4477.5)" d="M116 4473h45v9h-45z"/><path class="cls-3" transform="rotate(180 143 4428)" d="M125 4392h36v72h-36z"/><path class="cls-6" d="M125 4383h36v9h-36z"/><path class="cls-4" transform="rotate(180 147.5 3474)" d="M134 3438h27v72h-27z"/><path class="cls-5" transform="rotate(180 147.5 2250)" d="M134 2214h27v72h-27z"/><path class="cls-3" transform="rotate(180 116 292.5)" d="M71 243h90v99H71z"/><path class="cls-4" transform="rotate(180 134 126)" d="M107 9h54v234h-54z"/><path class="cls-8" transform="rotate(180 134 4.5)" d="M107 0h54v9h-54z"/><path class="cls-6" transform="rotate(180 116 238.5)" d="M71 234h90v9H71z"/></g><g id="tube"><path class="cls-4" transform="rotate(180 65 2506.5)" d="M47 2331h36v351H47z"/><path class="cls-4" transform="rotate(180 114.5 2668.5)" d="M83 2655h63v27H83z"/><path class="cls-1" transform="rotate(180 114.5 2646)" d="M83 2637h63v18H83z"/><path class="cls-4" transform="rotate(180 114.5 2344.5)" d="M83 2331h63v27H83z"/><path class="cls-1" transform="rotate(180 114.5 2322)" d="M83 2313h63v18H83z"/><path class="cls-1" transform="rotate(180 65 2322)" d="M47 2313h36v18H47z"/><path class="cls-10" transform="rotate(180 141.5 2349)" d="M137 2331h9v36h-9z"/><path class="cls-11" d="M137 2304h9v27h-9z"/><path class="cls-10" transform="rotate(180 87.5 2349)" d="M83 2331h9v36h-9z"/><path class="cls-10" transform="rotate(-90 65 2614.5)" d="M60.5 2587.5h9v54h-9z"/><path class="cls-10" transform="rotate(-180 42.5 2511)" d="M38 2484h9v54h-9z"/><path class="cls-11" d="M83 2304h9v27h-9zm-45 153h9v27h-9zm0 126h9v27h-9zm-9-99h9v9h-9zm-9 9h9v9h-9z"/><path class="cls-12" transform="rotate(180 15.5 2497.5)" d="M11 2493h9v9h-9z"/><path class="cls-12" transform="rotate(180 6.5 2470.5)" d="M2 2466h9v9H2z"/><path class="cls-10" transform="rotate(180 33.5 2506.5)" d="M29 2493h9v27h-9z"/><path class="cls-13" transform="rotate(180 6.5 2506.5)" d="M2 2475h9v63H2z"/><path class="cls-10" transform="rotate(180 24.5 2506.5)" d="M20 2502h9v9h-9z"/><path class="cls-13" transform="rotate(180 15.5 2506.5)" d="M11 2502h9v9h-9z"/><path class="cls-11" d="M83 2583h9v27h-9z"/><path class="cls-10" transform="rotate(-90 65 2407.5)" d="M60.5 2380.5h9v54h-9z"/><path class="cls-11" d="M38 2376h9v27h-9zm45 0h9v27h-9z"/><path class="cls-10" transform="rotate(180 87.5 2673)" d="M83 2655h9v36h-9z"/><path class="cls-11" d="M83 2628h9v27h-9z"/><path class="cls-10" transform="rotate(180 141.5 2673)" d="M137 2655h9v36h-9z"/><path class="cls-11" d="M137 2628h9v27h-9z"/></g><g id="tube-2" data-name="tube"><path class="cls-4" transform="rotate(180 63 4189.5)" d="M45 4014h36v351H45z"/><path class="cls-4" transform="rotate(180 112.5 4189.5)" d="M81 4176h63v27H81z"/><path class="cls-1" transform="rotate(180 112.5 4167)" d="M81 4158h63v18H81z"/><path class="cls-4" transform="rotate(180 112.5 4351.5)" d="M81 4338h63v27H81z"/><path class="cls-1" transform="rotate(180 112.5 4329)" d="M81 4320h63v18H81z"/><path class="cls-4" transform="rotate(180 112.5 4027.5)" d="M81 4014h63v27H81z"/><path class="cls-1" transform="rotate(180 112.5 4005)" d="M81 3996h63v18H81z"/><path class="cls-1" transform="rotate(180 63 4005)" d="M45 3996h36v18H45z"/><path class="cls-10" transform="rotate(180 139.5 4032)" d="M135 4014h9v36h-9z"/><path class="cls-11" d="M135 3987h9v27h-9z"/><path class="cls-10" transform="rotate(180 85.5 4032)" d="M81 4014h9v36h-9z"/><path class="cls-10" transform="rotate(-90 63 4297.5)" d="M58.5 4270.5h9v54h-9z"/><path class="cls-10" transform="rotate(-180 40.5 4194)" d="M36 4167h9v54h-9z"/><path class="cls-11" d="M81 3987h9v27h-9z"/><path class="cls-10" transform="rotate(180 85.5 4194)" d="M81 4176h9v36h-9z"/><path class="cls-11" d="M81 4149h9v27h-9zm-45-9h9v27h-9zm0 126h9v27h-9zm-9-99h9v9h-9zm-9 9h9v9h-9z"/><path class="cls-12" transform="rotate(180 13.5 4180.5)" d="M9 4176h9v9H9z"/><path class="cls-12" transform="rotate(180 4.5 4153.5)" d="M0 4149h9v9H0z"/><path class="cls-10" transform="rotate(180 31.5 4189.5)" d="M27 4176h9v27h-9z"/><path class="cls-13" transform="rotate(180 4.5 4189.5)" d="M0 4158h9v63H0z"/><path class="cls-10" transform="rotate(180 22.5 4189.5)" d="M18 4185h9v9h-9z"/><path class="cls-13" transform="rotate(180 13.5 4189.5)" d="M9 4185h9v9H9z"/><path class="cls-11" d="M81 4266h9v27h-9z"/><path class="cls-10" transform="rotate(-90 63 4090.5)" d="M58.5 4063.5h9v54h-9z"/><path class="cls-11" d="M36 4059h9v27h-9zm45 0h9v27h-9z"/><path class="cls-10" transform="rotate(180 85.5 4356)" d="M81 4338h9v36h-9z"/><path class="cls-11" d="M81 4311h9v27h-9z"/><path class="cls-10" transform="rotate(180 139.5 4356)" d="M135 4338h9v36h-9z"/><path class="cls-11" d="M135 4311h9v27h-9z"/><path class="cls-10" transform="rotate(180 139.5 4194)" d="M135 4176h9v36h-9z"/><path class="cls-11" d="M135 4149h9v27h-9z"/></g><g id="tube-3" data-name="tube"><path class="cls-4" transform="rotate(180 65 1471.5)" d="M47 1278h36v387H47z"/><path class="cls-4" transform="rotate(180 114.5 1651.5)" d="M83 1638h63v27H83z"/><path class="cls-1" transform="rotate(180 114.5 1629)" d="M83 1620h63v18H83z"/><path class="cls-4" transform="rotate(180 114.5 1291.5)" d="M83 1278h63v27H83z"/><path class="cls-1" transform="rotate(180 114.5 1269)" d="M83 1260h63v18H83z"/><path class="cls-1" transform="rotate(180 65 1269)" d="M47 1260h36v18H47z"/><path class="cls-10" transform="rotate(180 141.5 1296)" d="M137 1278h9v36h-9z"/><path class="cls-11" d="M137 1251h9v27h-9z"/><path class="cls-10" transform="rotate(180 87.5 1296)" d="M83 1278h9v36h-9z"/><path class="cls-10" transform="rotate(-90 65 1597.5)" d="M60.5 1570.5h9v54h-9z"/><path class="cls-10" transform="rotate(-90 65 1543.5)" d="M60.5 1516.5h9v54h-9z"/><path class="cls-11" d="M83 1251h9v27h-9zm-45 261h9v27h-9zm0 54h9v27h-9zm45-54h9v27h-9zm0 54h9v27h-9z"/><path class="cls-10" transform="rotate(-90 65 1399.5)" d="M60.5 1372.5h9v54h-9z"/><path class="cls-11" d="M38 1368h9v27h-9zm45 0h9v27h-9z"/><path class="cls-10" transform="rotate(-90 65 1354.5)" d="M60.5 1327.5h9v54h-9z"/><path class="cls-11" d="M38 1323h9v27h-9zm45 0h9v27h-9z"/><path class="cls-10" transform="rotate(180 87.5 1656)" d="M83 1638h9v36h-9z"/><path class="cls-11" d="M83 1611h9v27h-9z"/><path class="cls-10" transform="rotate(180 141.5 1656)" d="M137 1638h9v36h-9z"/><path class="cls-11" d="M137 1611h9v27h-9z"/></g></g></g></g></svg>