<svg xmlns="http://www.w3.org/2000/svg" viewBox="0 0 162 4806"><defs><style>.cls-1{fill:#594763}.cls-2{fill:#1a1423}.cls-3{fill:#372549}.cls-4{fill:#70587c}.cls-5{fill:#774c60}.cls-6{fill:#1e1528}.cls-7{fill:#07060a}.cls-8{fill:#483a51}.cls-9{fill:#4f3341}.cls-11{fill:#352034}.cls-12{fill:#502f4c}.cls-14{fill:#5b0101}.cls-15{fill:none;stroke:#502f4c;stroke-linecap:square;stroke-linejoin:round;stroke-width:5px}.cls-16{fill:#110b11}</style></defs><g id="Layer_2" data-name="Layer 2"><g id="Background_elements" data-name="Background elements"><g id="L_side_parallax" data-name="L side parallax"><g id="side_wall" data-name="side wall"><path class="cls-1" d="M0 567h18v945H0zm0 1080h18v945H0zm0 1080h18v945H0zm0 1080h18v945H0z"/><path class="cls-2" d="M0 486h54v81H0zm0 1080h54v81H0z"/><path class="cls-3" d="M0 1512h36v54H0zm0 1080h36v54H0z"/><path class="cls-2" d="M0 2646h54v81H0z"/><path class="cls-3" d="M0 3672h36v54H0z"/><path class="cls-2" d="M0 3726h54v81H0z"/><path class="cls-3" d="M0 4752h36v54H0z"/><path class="cls-4" d="M0 639h36v72H0z"/><path class="cls-3" d="M0 729h27v72H0z"/><path class="cls-4" d="M0 1674h36v72H0z"/><path class="cls-3" d="M0 1764h27v72H0z"/><path class="cls-5" d="M0 1854h36v72H0z"/><path class="cls-3" d="M0 1944h27v72H0z"/><path class="cls-5" d="M0 918h36v72H0z"/><path class="cls-3" d="M0 1188h27v72H0z"/><path class="cls-6" d="M0 1179h27v9H0zm0 324h36v9H0z"/><path class="cls-7" d="M0 1557h54v9H0z"/><path class="cls-8" d="M0 1665h36v9H0zm0 477h27v9H0z"/><path class="cls-6" d="M0 1755h27v9H0z"/><path class="cls-9" d="M0 1845h36v9H0zm0 504h27v9H0z"/><path class="cls-6" d="M0 1935h27v9H0zm0 306h27v9H0zm0 342h36v9H0z"/><path class="cls-7" d="M0 2637h54v9H0z"/><path class="cls-6" d="M0 3663h36v9H0z"/><path class="cls-7" d="M0 3717h54v9H0z"/><path class="cls-6" d="M0 4743h36v9H0z"/><path class="cls-9" d="M0 909h36v9H0z"/><path class="cls-6" d="M0 720h27v9H0z"/><path class="cls-8" d="M0 630h36v9H0z"/><path class="cls-4" d="M0 1350h45v72H0z"/><path class="cls-8" d="M0 1341h45v9H0z"/><path class="cls-3" d="M0 2250h27v72H0z"/><path class="cls-4" d="M0 2151h27v72H0z"/><path class="cls-5" d="M0 2898h36v72H0z"/><path class="cls-3" d="M0 2988h27v72H0z"/><path class="cls-8" d="M0 3186h27v9H0z"/><path class="cls-9" d="M0 2889h36v9H0z"/><path class="cls-6" d="M0 2979h27v9H0z"/><path class="cls-4" d="M0 3195h27v72H0z"/><path class="cls-5" d="M0 3285h45v72H0z"/><path class="cls-3" d="M0 3375h36v72H0z"/><path class="cls-8" d="M0 3573h27v9H0z"/><path class="cls-9" d="M0 3276h45v9H0z"/><path class="cls-6" d="M0 3366h36v9H0z"/><path class="cls-5" d="M0 4032h36v72H0z"/><path class="cls-3" d="M0 4302h36v72H0z"/><path class="cls-9" d="M0 4023h36v9H0z"/><path class="cls-6" d="M0 4293h36v9H0z"/><path class="cls-4" d="M0 4392h45v72H0z"/><path class="cls-8" d="M0 4383h45v9H0z"/><path class="cls-5" d="M0 4626h45v72H0z"/><path class="cls-9" d="M0 4617h45v9H0z"/><path class="cls-3" d="M0 4536h36v72H0z"/><path class="cls-6" d="M0 4527h36v9H0z"/><path class="cls-4" d="M0 3582h27v72H0z"/><path class="cls-5" d="M0 2358h27v72H0z"/><path class="cls-3" d="M0 261h90v225H0z"/><path class="cls-4" d="M0 153h108v108H0z"/><path class="cls-8" d="M0 144h108v9H0z"/><path d="M0 0h36v9H0zm27 108h45v9H27z" fill="#110a11"/><path class="cls-11" d="M27 117V36h9V9H0v135h72v-27H27z"/></g><g id="tube"><path class="cls-4" d="M81 1134h36v351H81zm-63 162h63v27H18z"/><path class="cls-1" d="M18 1278h63v18H18z"/><path class="cls-4" d="M18 1458h63v27H18z"/><path class="cls-1" d="M18 1440h63v18H18z"/><path class="cls-4" d="M18 1134h63v27H18z"/><path class="cls-1" d="M18 1116h63v18H18zm63 0h36v18H81z"/><path class="cls-12" d="M18 1134h9v36h-9z"/><path class="cls-11" d="M18 1107h9v27h-9z"/><path class="cls-12" d="M72 1134h9v36h-9z"/><path class="cls-12" transform="rotate(-90 99 1417.5)" d="M94.5 1390.5h9v54h-9z"/><path class="cls-12" d="M117 1287h9v54h-9z"/><path class="cls-11" d="M72 1107h9v27h-9z"/><path class="cls-12" d="M72 1296h9v36h-9z"/><path class="cls-11" d="M72 1269h9v27h-9zm45-9h9v27h-9zm0 126h9v27h-9zm9-99h9v9h-9zm9 9h9v9h-9z"/><path d="M144 1296h9v9h-9zm9-27h9v9h-9z" fill="#300101"/><path class="cls-12" d="M126 1296h9v27h-9z"/><path class="cls-14" d="M153 1278h9v63h-9z"/><path class="cls-12" d="M135 1305h9v9h-9z"/><path class="cls-14" d="M144 1305h9v9h-9z"/><path class="cls-11" d="M72 1386h9v27h-9z"/><path class="cls-12" transform="rotate(-90 99 1210.5)" d="M94.5 1183.5h9v54h-9z"/><path class="cls-11" d="M117 1179h9v27h-9zm-45 0h9v27h-9z"/><path class="cls-12" d="M72 1458h9v36h-9z"/><path class="cls-11" d="M72 1431h9v27h-9z"/><path class="cls-12" d="M18 1458h9v36h-9z"/><path class="cls-11" d="M18 1431h9v27h-9z"/><path class="cls-12" d="M18 1296h9v36h-9z"/><path class="cls-11" d="M18 1269h9v27h-9z"/></g><g id="tube-2" data-name="tube"><path class="cls-4" d="M81 2466h36v387H81zm-63 360h63v27H18z"/><path class="cls-1" d="M18 2808h63v18H18z"/><path class="cls-4" d="M18 2466h63v27H18z"/><path class="cls-1" d="M18 2448h63v18H18zm63 0h36v18H81z"/><path class="cls-12" d="M18 2466h9v36h-9z"/><path class="cls-11" d="M18 2439h9v27h-9z"/><path class="cls-12" d="M72 2466h9v36h-9z"/><path class="cls-12" transform="rotate(-90 99 2785.5)" d="M94.5 2758.5h9v54h-9z"/><path class="cls-12" transform="rotate(-90 99 2731.5)" d="M94.5 2704.5h9v54h-9z"/><path class="cls-11" d="M72 2439h9v27h-9zm45 261h9v27h-9zm0 54h9v27h-9zm-45-54h9v27h-9zm0 54h9v27h-9z"/><path class="cls-12" transform="rotate(-90 99 2587.5)" d="M94.5 2560.5h9v54h-9z"/><path class="cls-11" d="M117 2556h9v27h-9zm-45 0h9v27h-9z"/><path class="cls-12" transform="rotate(-90 99 2542.5)" d="M94.5 2515.5h9v54h-9z"/><path class="cls-11" d="M117 2511h9v27h-9zm-45 0h9v27h-9z"/><path class="cls-12" d="M72 2826h9v36h-9z"/><path class="cls-11" d="M72 2799h9v27h-9z"/><path class="cls-12" d="M18 2826h9v36h-9z"/><path class="cls-11" d="M18 2799h9v27h-9z"/></g><g id="Air"><path class="cls-11" d="M18 3879h27v36H18zm0 99h27v36H18z"/><path class="cls-4" d="M45 3843h72v207H45z"/><path class="cls-1" d="M45 3816h72v27H45z"/><path class="cls-11" d="M117 3816h9v27h-9z"/><path d="M63 3861h54v171H63z"/><path class="cls-12" d="M117 3843v18H54v180h63v9h9v-207zm0 189H63v-162h54z"/><path class="cls-15" d="M63.5 4031.5l18-18m-19 1l18 18m1-1l18-18m-18 0l18 18m0 0l18-18m-18 0l18 18m-18-18l18-18m-18 0l18 18m-18-18l18-18m-18 0l18 18m-18-18l18-18m-18 0l18 18m-18-18l18-18m-18 0l18 18m-18-18l18-18m-18 0l18 18m-18-18l18-18m-18 0l18 18m-18-18l18-18m-18 0l18 18m-18-18l18-18m-18 0l18 18m-37 126l18-18m-18 0l18 18m-18-18l18-18m-18 0l18 18m-18-18l18-18m-18 0l18 18m-18-18l18-18m-18 0l18 18m-18-18l18-18m-18 0l18 18m-18-18l18-18m-18 0l18 18m-18-18l18-18m-18 0l18 18m-18-18l18-18m-18 0l18 18m-36 126l18-18m-18 0l18 18m-18-18l18-18m-18 0l18 18m-18-18l18-18m-18 0l18 18m-18-18l18-18m-18 0l18 18m-18-18l18-18m-18 0l18 18m-18-18l18-18m-18 0l18 18m-18-18l18-18m-18 0l18 18m-18-18l18-18m-18 0l18 18"/><path class="cls-16" d="M18 3870h27v9H18zm0 99h27v9H18z"/></g><g id="Air-2" data-name="Air"><path class="cls-11" d="M18 4131h27v36H18zm0 99h27v36H18z"/><path class="cls-4" d="M45 4095h72v207H45z"/><path class="cls-1" d="M45 4068h72v27H45z"/><path class="cls-11" d="M117 4068h9v27h-9z"/><path d="M63 4113h54v171H63z"/><path class="cls-12" d="M117 4095v18H54v180h63v9h9v-207zm0 189H63v-162h54z"/><path class="cls-15" d="M63.5 4283.5l18-18m-19 1l18 18m1-1l18-18m-18 0l18 18m0 0l18-18m-18 0l18 18m-18-18l18-18m-18 0l18 18m-18-18l18-18m-18 0l18 18m-18-18l18-18m-18 0l18 18m-18-18l18-18m-18 0l18 18m-18-18l18-18m-18 0l18 18m-18-18l18-18m-18 0l18 18m-18-18l18-18m-18 0l18 18m-18-18l18-18m-18 0l18 18m-37 126l18-18m-18 0l18 18m-18-18l18-18m-18 0l18 18m-18-18l18-18m-18 0l18 18m-18-18l18-18m-18 0l18 18m-18-18l18-18m-18 0l18 18m-18-18l18-18m-18 0l18 18m-18-18l18-18m-18 0l18 18m-18-18l18-18m-18 0l18 18m-36 126l18-18m-18 0l18 18m-18-18l18-18m-18 0l18 18m-18-18l18-18m-18 0l18 18m-18-18l18-18m-18 0l18 18m-18-18l18-18m-18 0l18 18m-18-18l18-18m-18 0l18 18m-18-18l18-18m-18 0l18 18m-18-18l18-18m-18 0l18 18"/><path class="cls-16" d="M18 4122h27v9H18zm0 99h27v9H18z"/></g></g></g></g></svg>