<svg xmlns="http://www.w3.org/2000/svg" viewBox="0 0 1674 891"><defs><style>.cls-1{fill:#352034}.cls-2,.cls-7{fill:none;stroke:#352034}.cls-2{stroke-miterlimit:10;stroke-width:7px}.cls-3{fill:#502f4c}.cls-4{fill:#302030}.cls-6{fill:#110b11}.cls-7{stroke-linecap:round;stroke-linejoin:round;stroke-width:5px}.cls-8{fill:#c8b8db}.cls-10{fill:#70587c}</style></defs><g id="Layer_2" data-name="Layer 2"><g id="Final_outside" data-name="Final outside"><g id="Roof_-_Outside" data-name="Roof - Outside"><g id="Billboard"><path class="cls-1" d="M432 702v18h27v45h18v-45h126v45h18v-45h27v-18H432z"/><path class="cls-2" d="M477 765l126-45m0 45l-126-45"/><path class="cls-1" d="M1026 702v18h27v45h18v-45h126v45h18v-45h27v-18h-216z"/><path class="cls-2" d="M1071 765l126-45m0 45l-126-45"/><path class="cls-3" d="M252 81v621h1170V81H252z"/><path class="cls-4" d="M252 72h1170v9H252z"/><path fill="#150025" d="M1125 90H261v603h1152V90h-288z"/><path class="cls-1" d="M207 81v621h45V81zm36 612h-27V90h27z"/><path class="cls-6" d="M207 72h45v9h-45zm9 612h27v9h-27z"/><path class="cls-7" d="M216 693l27-27m0 27l-27-27m0 0l27-27m0 27l-27-27m0 0l27-27m0 27l-27-27m0 0l27-27m0 27l-27-27m0 0l27-27m0 27l-27-27m0 0l27-27m0 27l-27-27m0 0l27-27m0 27l-27-27m0 0l27-27m0 27l-27-27m0 0l27-27m0 27l-27-27m0 0l27-27m0 27l-27-27m0 0l27-27m0 27l-27-27m0 0l27-27m0 27l-27-27m0 0l27-27m0 27l-27-27m0 0l27-27m0 27l-27-27m0 0l27-27m0 27l-27-27m0 0l27-27m0 27l-27-27m0 0l27-27m0 27l-27-27m0 0l27-27m0 27l-27-27m0 0l27-27m0 27l-27-27m0 0l27-27m0 27l-27-27m0 0l27-27m0 27l-27-27m0 0l27.5-27.5M243 126l-27.5-27.5"/><path class="cls-1" d="M1422 81v621h45V81zm36 612h-27V90h27z"/><path class="cls-6" d="M1422 72h45v9h-45zm9 612h27v9h-27z"/><path class="cls-7" d="M1431 693l27-27m0 27l-27-27m0 0l27-27m0 27l-27-27m0 0l27-27m0 27l-27-27m0 0l27-27m0 27l-27-27m0 0l27-27m0 27l-27-27m0 0l27-27m0 27l-27-27m0 0l27-27m0 27l-27-27m0 0l27-27m0 27l-27-27m0 0l27-27m0 27l-27-27m0 0l27-27m0 27l-27-27m0 0l27-27m0 27l-27-27m0 0l27-27m0 27l-27-27m0 0l27-27m0 27l-27-27m0 0l27-27m0 27l-27-27m0 0l27-27m0 27l-27-27m0 0l27-27m0 27l-27-27m0 0l27-27m0 27l-27-27m0 0l27-27m0 27l-27-27m0 0l27-27m0 27l-27-27m0 0l27-27m0 27l-27-27m0 0l27-27m0 27l-27-27m0 0l27.5-27.5m-.5 27.5l-27.5-27.5"/><path class="cls-4" d="M432 54h90v9h-90zm126 0h90v9h-90zM459 0h162v9H459z"/><path class="cls-1" d="M558 63V45h-36v18h-90v18h216V63h-90z"/><path class="cls-3" d="M648 45H432l27-36h162l27 36z"/><path class="cls-8" d="M459 27h162v9H459z"/><path class="cls-4" d="M1026 54h90v9h-90zm126 0h90v9h-90zm-99-54h162v9h-162z"/><path class="cls-1" d="M1152 63V45h-36v18h-90v18h216V63h-90z"/><path class="cls-3" d="M1242 45h-216l27-36h162l27 36z"/><path class="cls-8" d="M1053 27h162v9h-162z"/></g><g id="Roof_top" data-name="Roof top"><path fill="#372549" d="M18 855h1638v36H18z"/><path class="cls-10" d="M0 747h261v117H0z"/><path d="M0 738h261v9H0zm594 0h486v9H594zm-270 0h207v9H324zm819 0h207v9h-207zm270 0h261v9h-261z" fill="#483a51"/><path class="cls-10" d="M324 747h207v117H324zm513 0H594v117h486V747H837zm306 0h207v117h-207zm270 0h261v117h-261z"/><path class="cls-1" d="M1350 765h63v18h-63zm-270 0h63v18h-63zm-549 0h63v18h-63zm-270 0h63v18h-63z"/><path d="M261 756h63v9h-63zm270 0h63v9h-63zm549 0h63v9h-63zm270 0h63v9h-63z" fill="#110a11"/><path d="M1350 783h63v63h-63zm-270 0h63v63h-63zm-549 0h63v63h-63zm-270 0h63v63h-63z" fill="#594763"/><path d="M261 846h63v9h-63zm270 0h63v9h-63zm549 0h63v9h-63zm270 0h63v9h-63z" fill="#1e1528"/></g></g></g></g></svg>