<svg width="594" height="75" fill="none" xmlns="http://www.w3.org/2000/svg"><circle cx="27.5" cy="37.5" r="22.5" fill="#BE085B" stroke="#000" stroke-width="10"/><circle cx="566.5" cy="37.5" r="22.5" fill="#4CC5EE" stroke="#000" stroke-width="10"/><path d="M28 27c-5.523 0-10 4.477-10 10s4.477 10 10 10V27zm49 0H28v20h49V27zm490 0c5.523 0 10 4.477 10 10s-4.477 10-10 10V27zm-52.5 0H567v20h-52.5V27z" fill="#fff"/><path d="M90.188 39.031H78.5l-.063-6.437h9.813c1.73 0 3.146-.219 4.25-.657 1.104-.458 1.927-1.114 2.469-1.968.562-.875.844-1.938.844-3.188 0-1.416-.271-2.562-.813-3.437-.52-.875-1.344-1.51-2.469-1.907-1.104-.395-2.531-.593-4.281-.593h-6.5V59h-9.375V13.5H88.25c2.646 0 5.01.25 7.094.75 2.104.5 3.885 1.26 5.344 2.281a10.154 10.154 0 013.343 3.875c.771 1.542 1.157 3.375 1.157 5.5 0 1.875-.428 3.604-1.282 5.188-.833 1.583-2.156 2.875-3.969 3.875-1.791 1-4.135 1.552-7.03 1.656l-2.72 2.406zM89.78 59H75.937l3.657-7.313H89.78c1.646 0 2.99-.26 4.031-.78 1.042-.542 1.813-1.272 2.313-2.188.5-.917.75-1.969.75-3.157 0-1.333-.23-2.49-.688-3.468-.437-.98-1.145-1.73-2.124-2.25-.98-.542-2.271-.813-3.876-.813h-9.03l.062-6.437h11.25l2.156 2.531c2.77-.042 5 .448 6.687 1.469 1.709 1 2.948 2.302 3.719 3.906a11.49 11.49 0 011.188 5.156c0 2.917-.636 5.375-1.907 7.375-1.27 1.98-3.135 3.469-5.593 4.469-2.438 1-5.417 1.5-8.938 1.5zm33.438-45.5V59h-9.344V13.5h9.344zm44.843 21.719V53.25c-.708.854-1.802 1.781-3.281 2.781-1.479.98-3.385 1.823-5.719 2.532-2.333.708-5.156 1.062-8.468 1.062-2.938 0-5.615-.48-8.032-1.438a17.36 17.36 0 01-6.25-4.28c-1.729-1.876-3.062-4.167-4-6.876-.937-2.729-1.406-5.843-1.406-9.343v-2.844c0-3.5.448-6.615 1.344-9.344.917-2.73 2.219-5.031 3.906-6.906a16.721 16.721 0 016.032-4.282c2.333-.979 4.927-1.468 7.781-1.468 3.958 0 7.208.646 9.75 1.937 2.541 1.271 4.479 3.042 5.812 5.313 1.354 2.25 2.188 4.833 2.5 7.75h-9.093c-.23-1.542-.667-2.886-1.313-4.032-.646-1.145-1.573-2.041-2.781-2.687-1.188-.646-2.729-.969-4.625-.969-1.563 0-2.959.323-4.188.969-1.208.625-2.229 1.552-3.062 2.781-.834 1.23-1.469 2.75-1.907 4.563-.437 1.812-.656 3.916-.656 6.312v2.907c0 2.374.229 4.479.688 6.312.458 1.813 1.135 3.344 2.031 4.594.917 1.229 2.042 2.156 3.375 2.781 1.333.625 2.885.938 4.656.938 1.479 0 2.709-.126 3.688-.376 1-.25 1.802-.552 2.406-.906.625-.375 1.104-.729 1.438-1.062v-8.063h-8.563V35.22h17.937zM228.594 13.5V59h-9.375l-18.281-30.5V59h-9.376V13.5h9.376l18.312 30.531V13.5h9.344zm38.687 38.188V59h-24.219v-7.313h24.219zM246.125 13.5V59h-9.375V13.5h9.375zm18 18.531v7.125h-21.063v-7.125h21.063zM267.25 13.5v7.344h-24.188V13.5h24.188zm31.875 30.406h9.344c-.188 3.063-1.031 5.782-2.531 8.157-1.48 2.374-3.553 4.229-6.219 5.562-2.646 1.333-5.834 2-9.563 2-2.916 0-5.531-.5-7.844-1.5a16.695 16.695 0 01-5.937-4.375c-1.625-1.896-2.865-4.188-3.719-6.875-.854-2.688-1.281-5.698-1.281-9.031v-3.157c0-3.333.437-6.343 1.313-9.03.895-2.71 2.166-5.011 3.812-6.907a16.99 16.99 0 015.969-4.375c2.312-1.02 4.896-1.531 7.75-1.531 3.791 0 6.989.687 9.593 2.062 2.626 1.375 4.657 3.271 6.094 5.688 1.459 2.416 2.334 5.166 2.625 8.25h-9.375c-.104-1.834-.468-3.386-1.094-4.657a6.199 6.199 0 00-2.843-2.906c-1.25-.666-2.917-1-5-1-1.563 0-2.927.292-4.094.875-1.167.584-2.146 1.469-2.937 2.657-.792 1.187-1.386 2.687-1.782 4.5-.375 1.791-.562 3.895-.562 6.312v3.219c0 2.354.177 4.427.531 6.218.354 1.771.896 3.271 1.625 4.5.75 1.209 1.708 2.126 2.875 2.75 1.187.605 2.615.907 4.281.907 1.959 0 3.573-.313 4.844-.938a6.47 6.47 0 002.906-2.781c.688-1.23 1.094-2.76 1.219-4.594zM324 13.5V59h-9.375V13.5H324zm27.25 0l-18.031 22.469-10.407 11.187-1.687-8.875 7.031-9.625L339.75 13.5h11.5zM340.594 59l-13.406-21.031 6.937-5.813L351.688 59h-11.094zm57.031-15.094h9.344c-.188 3.063-1.031 5.782-2.531 8.157-1.48 2.374-3.553 4.229-6.219 5.562-2.646 1.333-5.834 2-9.563 2-2.916 0-5.531-.5-7.844-1.5a16.695 16.695 0 01-5.937-4.375c-1.625-1.896-2.865-4.188-3.719-6.875-.854-2.688-1.281-5.698-1.281-9.031v-3.157c0-3.333.437-6.343 1.313-9.03.895-2.71 2.166-5.011 3.812-6.907a16.99 16.99 0 015.969-4.375c2.312-1.02 4.896-1.531 7.75-1.531 3.791 0 6.989.687 9.593 2.062 2.626 1.375 4.657 3.271 6.094 5.688 1.459 2.416 2.334 5.166 2.625 8.25h-9.375c-.104-1.834-.468-3.386-1.094-4.657a6.199 6.199 0 00-2.843-2.906c-1.25-.666-2.917-1-5-1-1.563 0-2.927.292-4.094.875-1.167.584-2.146 1.469-2.937 2.657-.792 1.187-1.386 2.687-1.782 4.5-.375 1.791-.562 3.895-.562 6.312v3.219c0 2.354.177 4.427.531 6.218.354 1.771.896 3.271 1.625 4.5.75 1.209 1.708 2.126 2.875 2.75 1.187.605 2.615.907 4.281.907 1.959 0 3.573-.313 4.844-.938a6.47 6.47 0 002.906-2.781c.688-1.23 1.094-2.76 1.219-4.594zm44.75 7.782V59h-22.906v-7.313h22.906zM422.5 13.5V59h-9.375V13.5h9.375zm49.312 0h9.344v30.063c0 3.5-.75 6.447-2.25 8.843-1.479 2.396-3.531 4.198-6.156 5.407-2.604 1.208-5.604 1.812-9 1.812s-6.417-.604-9.062-1.813c-2.626-1.208-4.688-3.01-6.188-5.406-1.479-2.396-2.219-5.343-2.219-8.843V13.5h9.375v30.063c0 2.041.323 3.708.969 5 .646 1.291 1.573 2.24 2.781 2.843 1.229.604 2.677.907 4.344.907 1.708 0 3.156-.303 4.344-.907 1.208-.604 2.125-1.552 2.75-2.843.646-1.292.968-2.959.968-5V13.5zm34.876 25.531H495l-.062-6.437h9.812c1.729 0 3.146-.219 4.25-.657 1.104-.458 1.927-1.114 2.469-1.968.562-.875.843-1.938.843-3.188 0-1.416-.27-2.562-.812-3.437-.521-.875-1.344-1.51-2.469-1.907-1.104-.395-2.531-.593-4.281-.593h-6.5V59h-9.375V13.5h15.875c2.646 0 5.01.25 7.094.75 2.104.5 3.885 1.26 5.344 2.281a10.154 10.154 0 013.343 3.875c.771 1.542 1.157 3.375 1.157 5.5 0 1.875-.428 3.604-1.282 5.188-.833 1.583-2.156 2.875-3.968 3.875-1.792 1-4.136 1.552-7.032 1.656l-2.718 2.406zM506.281 59h-13.843l3.656-7.313h10.187c1.646 0 2.99-.26 4.031-.78 1.042-.542 1.813-1.272 2.313-2.188.5-.917.75-1.969.75-3.157 0-1.333-.229-2.49-.687-3.468-.438-.98-1.146-1.73-2.126-2.25-.979-.542-2.27-.813-3.874-.813h-9.032l.063-6.437h11.25l2.156 2.531c2.771-.042 5 .448 6.687 1.469 1.709 1 2.948 2.302 3.719 3.906a11.49 11.49 0 011.188 5.156c0 2.917-.636 5.375-1.907 7.375-1.27 1.98-3.135 3.469-5.593 4.469-2.438 1-5.417 1.5-8.938 1.5z" fill="#fff"/></svg>