<svg width="709" height="313" fill="none" xmlns="http://www.w3.org/2000/svg"><rect width="709" height="313" rx="60" fill="#333"/><path d="M337.592 176.28c-1.536 0-2.731-.256-3.584-.768a4.35 4.35 0 01-1.664-2.048c-.341-.939-.512-1.963-.512-3.072V92.568c0-1.11.171-2.048.512-2.816.341-.853.939-1.536 1.792-2.048.853-.512 2.091-.768 3.712-.768 1.28 0 2.304.085 3.072.256.768.17 1.365.427 1.792.768.512.256 1.024.683 1.536 1.28l33.408 48.384h-3.968l33.792-48.768c.512-.597 1.024-1.024 1.536-1.28s1.152-.427 1.92-.512a29.94 29.94 0 012.944-.128c1.621 0 2.816.256 3.584.768a4.1 4.1 0 011.792 2.176c.341.853.512 1.835.512 2.944v77.824c0 1.024-.171 1.963-.512 2.816-.341.853-.939 1.536-1.792 2.048-.853.512-2.091.768-3.712.768-1.536 0-2.731-.256-3.584-.768a4.35 4.35 0 01-1.664-2.048c-.256-.939-.384-1.963-.384-3.072v-64.256l-27.392 40.32a6.717 6.717 0 01-1.024 1.28c-.427.341-.981.64-1.664.896-.597.256-1.365.384-2.304.384-1.024 0-1.835-.128-2.432-.384a7.933 7.933 0 01-1.408-.896 21.107 21.107 0 01-1.28-1.408l-27.264-40.064v64.384c0 1.024-.171 1.963-.512 2.816-.256.853-.811 1.536-1.664 2.048-.768.512-1.963.768-3.584.768zm105.369 0c-1.621 0-2.859-.256-3.712-.768-.768-.427-1.28-1.067-1.536-1.92s-.384-1.877-.384-3.072v-50.56c0-1.195.128-2.219.384-3.072.256-.853.768-1.493 1.536-1.92.853-.427 2.133-.64 3.84-.64 1.621 0 2.816.256 3.584.768.768.427 1.28 1.067 1.536 1.92s.384 1.92.384 3.2v50.432c0 1.195-.128 2.219-.384 3.072-.256.853-.811 1.493-1.664 1.92-.768.427-1.963.64-3.584.64zm0-77.312c-1.877 0-3.285-.256-4.224-.768-.939-.597-1.579-1.408-1.92-2.432-.256-1.024-.384-2.219-.384-3.584 0-1.365.171-2.517.512-3.456.341-1.024.981-1.75 1.92-2.176.939-.512 2.347-.768 4.224-.768 1.792 0 3.157.256 4.096.768.939.512 1.536 1.28 1.792 2.304.341 1.024.512 2.219.512 3.584 0 1.365-.171 2.56-.512 3.584-.256.939-.853 1.664-1.792 2.176-.939.512-2.347.768-4.224.768zm27.985 77.312c-1.621 0-2.859-.256-3.712-.768-.768-.427-1.28-1.067-1.536-1.92-.171-.939-.256-2.005-.256-3.2V119.96c0-1.28.128-2.347.384-3.2.256-.853.768-1.451 1.536-1.792.768-.427 2.005-.64 3.712-.64 1.536 0 2.688.213 3.456.64.853.341 1.408.896 1.664 1.664.341.683.512 1.493.512 2.432l-.512 3.84a34.967 34.967 0 012.048-3.328 14.396 14.396 0 013.072-2.944c1.28-.939 2.773-1.707 4.48-2.304 1.792-.597 3.968-.896 6.528-.896 1.28 0 2.475.128 3.584.384 1.195.171 2.304.469 3.328.896 1.109.427 2.048.939 2.816 1.536.768.512 1.365 1.109 1.792 1.792.512.597.768 1.323.768 2.176 0 1.877-.597 3.499-1.792 4.864-1.195 1.28-2.432 1.92-3.712 1.92-1.109 0-1.92-.128-2.432-.384l-1.536-1.024c-.427-.341-1.067-.64-1.92-.896-.853-.341-2.219-.512-4.096-.512-1.28 0-2.645.256-4.096.768-1.365.512-2.688 1.28-3.968 2.304-1.28.939-2.347 2.176-3.2 3.712-.768 1.536-1.152 3.328-1.152 5.376v34.304c0 1.195-.128 2.219-.384 3.072-.256.853-.811 1.493-1.664 1.92-.768.427-2.005.64-3.712.64zm93.354-.128c-1.877 0-3.243-.384-4.096-1.152-.768-.768-1.237-1.963-1.408-3.584l.512-6.4c-.853 1.365-2.176 2.944-3.968 4.736-1.792 1.707-4.139 3.243-7.04 4.608-2.901 1.28-6.443 1.92-10.624 1.92-4.096 0-7.936-.811-11.52-2.432-3.499-1.621-6.613-3.883-9.344-6.784-2.645-2.901-4.736-6.229-6.272-9.984-1.451-3.755-2.176-7.765-2.176-12.032 0-4.181.725-8.107 2.176-11.776 1.536-3.755 3.669-7.04 6.4-9.856 2.731-2.816 5.845-5.035 9.344-6.656 3.584-1.621 7.381-2.432 11.392-2.432 3.755 0 6.955.512 9.6 1.536 2.645.939 4.907 2.219 6.784 3.84a27.083 27.083 0 015.12 5.248l-.256-5.376c-.085-1.877.299-3.2 1.152-3.968.939-.853 2.389-1.28 4.352-1.28 1.621 0 2.773.256 3.456.768.768.512 1.28 1.237 1.536 2.176.256.939.384 2.091.384 3.456v49.408c0 1.195-.128 2.261-.384 3.2-.256.939-.768 1.621-1.536 2.048-.768.512-1.963.768-3.584.768zm-24.704-10.624c3.413 0 6.528-.896 9.344-2.688 2.901-1.792 5.163-4.181 6.784-7.168 1.707-3.072 2.56-6.571 2.56-10.496 0-4.011-.896-7.509-2.688-10.496-1.707-3.072-4.011-5.461-6.912-7.168-2.816-1.792-5.931-2.688-9.344-2.688-4.011 0-7.509.939-10.496 2.816-2.901 1.792-5.205 4.224-6.912 7.296-1.707 3.072-2.56 6.571-2.56 10.496 0 3.84.853 7.296 2.56 10.368 1.707 2.987 4.053 5.376 7.04 7.168 3.072 1.707 6.613 2.56 10.624 2.56zm51.1 10.624c-1.621 0-2.859-.256-3.712-.768-.768-.427-1.28-1.067-1.536-1.92-.171-.853-.256-1.877-.256-3.072v-50.816c0-1.109.128-2.048.384-2.816.256-.768.768-1.365 1.536-1.792.853-.427 2.091-.64 3.712-.64 1.28 0 2.261.171 2.944.512.768.256 1.28.64 1.536 1.152.341.512.555 1.067.64 1.664.085.597.128 1.152.128 1.664l-.256 5.888a20.462 20.462 0 013.2-4.096 20.68 20.68 0 014.48-3.584 21.573 21.573 0 015.504-2.56c2.048-.597 4.224-.896 6.528-.896 3.755 0 7.211.683 10.368 2.048a20.927 20.927 0 018.064 5.76c2.304 2.475 4.053 5.461 5.248 8.96 1.28 3.499 1.92 7.467 1.92 11.904v27.776c0 1.195-.128 2.219-.384 3.072-.171.853-.683 1.493-1.536 1.92-.768.427-1.963.64-3.584.64-1.707 0-2.987-.256-3.84-.768-.768-.427-1.28-1.067-1.536-1.92s-.384-1.877-.384-3.072v-27.776c0-3.584-.597-6.699-1.792-9.344-1.195-2.645-2.987-4.693-5.376-6.144-2.389-1.536-5.419-2.304-9.088-2.304-3.499 0-6.571.768-9.216 2.304-2.56 1.451-4.565 3.499-6.016 6.144-1.365 2.645-2.048 5.76-2.048 9.344v27.904c0 1.195-.128 2.219-.384 3.072-.256.853-.811 1.493-1.664 1.92-.768.427-1.963.64-3.584.64z" fill="#F3F0EB"/><path d="M471.784 249.408c.256.48.384.896.384 1.248.032.32-.064.624-.288.912-.224.256-.576.496-1.056.72-.768.352-1.376.432-1.824.24-.416-.192-.8-.656-1.152-1.392l-12-25.536-11.904 25.488c-.352.736-.752 1.2-1.2 1.392-.416.192-1.024.112-1.824-.24-.48-.192-.832-.432-1.056-.72-.192-.288-.272-.64-.24-1.056.064-.416.224-.896.48-1.44l13.776-28.752c.192-.384.464-.688.816-.912a2.133 2.133 0 011.2-.384c.288 0 .56.048.816.144.256.096.48.24.672.432.192.192.352.448.48.768l13.92 29.088zm-24.96-6.48l1.632-3.696h14.88l1.584 3.696h-18.096zm31.733 9.552c-.608 0-1.072-.096-1.392-.288-.32-.16-.528-.4-.624-.72a6.753 6.753 0 01-.096-1.2v-29.184c0-.416.048-.768.144-1.056.128-.32.336-.576.624-.768.32-.192.784-.288 1.392-.288h10.608c1.568 0 2.992.24 4.272.72 1.312.448 2.448 1.12 3.408 2.016.96.896 1.696 2.032 2.208 3.408.544 1.344.816 2.912.816 4.704 0 1.12-.176 2.288-.528 3.504a11.663 11.663 0 01-1.632 3.36 8.988 8.988 0 01-2.736 2.64c-1.12.704-2.48 1.104-4.08 1.2h-10.176v9.792c0 .448-.064.832-.192 1.152-.096.32-.304.56-.624.72-.288.192-.752.288-1.392.288zm20.592-.528c-.672.448-1.248.592-1.728.432-.448-.16-.88-.544-1.296-1.152l-7.68-12.288 4.752-.72 6.624 10.56c.32.512.512.944.576 1.296a1.04 1.04 0 01-.192.96c-.192.288-.544.592-1.056.912zm-18.384-15.648h9.504c.736 0 1.424-.128 2.064-.384.64-.288 1.2-.704 1.68-1.248s.864-1.216 1.152-2.016c.288-.8.432-1.76.432-2.88 0-1.376-.256-2.544-.768-3.504a4.71 4.71 0 00-2.16-2.16c-.96-.512-2.144-.768-3.552-.768h-8.352v12.96zm48.239-17.328c.416 0 .752.048 1.008.144.288.096.512.288.672.576.16.256.24.688.24 1.296 0 .576-.096 1.008-.288 1.296-.16.288-.384.48-.672.576-.288.064-.64.096-1.056.096h-9.936v27.408c0 .416-.064.784-.192 1.104-.096.32-.304.56-.624.72-.288.192-.736.288-1.344.288-.64 0-1.12-.096-1.44-.288-.288-.16-.48-.4-.576-.72a6.45 6.45 0 01-.096-1.152v-27.36h-10.08c-.416 0-.768-.032-1.056-.096a1.182 1.182 0 01-.672-.576c-.16-.288-.24-.72-.24-1.296 0-.608.064-1.04.192-1.296.16-.288.384-.48.672-.576.32-.096.672-.144 1.056-.144h24.432z" fill="#666"/><g clip-path="url(#clip0_903_119)"><g filter="url(#filter0_i_903_119)"><path d="M260 56a199.745 199.745 0 00-58.926 8.852A99.998 99.998 0 0060 156a99.443 99.443 0 008.852 41.074A199.745 199.745 0 0060 256a199.728 199.728 0 0058.926-8.852 99.994 99.994 0 0095.342-7.181A100.006 100.006 0 00260 156a99.426 99.426 0 00-8.852-41.074A199.728 199.728 0 00260 56z" fill="#F3F0EB"/></g><g filter="url(#filter1_i_903_119)"><path d="M223 219a128.57 128.57 0 01-75.115-26.679l-1.608-1.236-1.903.692a86 86 0 01-25.097 4.946 86 86 0 014.946-25.097l.692-1.903-1.236-1.608A128.567 128.567 0 0197 93a128.567 128.567 0 0175.115 26.679l1.608 1.236 1.903-.692a86 86 0 0125.097-4.946 85.837 85.837 0 01-4.946 25.097l-.692 1.903 1.236 1.608A128.57 128.57 0 01223 219z" fill="#D83844"/></g><g filter="url(#filter2_i_903_119)"><path d="M171.4 144.608c-6.291-6.292-16.492-6.292-22.784 0-6.292 6.292-6.292 16.493 0 22.784 6.292 6.292 16.493 6.292 22.784 0 6.292-6.291 6.292-16.492 0-22.784z" fill="#F3F0EB"/></g></g><defs><filter id="filter0_i_903_119" x="60" y="56" width="200" height="204" filterUnits="userSpaceOnUse" color-interpolation-filters="sRGB"><feFlood flood-opacity="0" result="BackgroundImageFix"/><feBlend in="SourceGraphic" in2="BackgroundImageFix" result="shape"/><feColorMatrix in="SourceAlpha" values="0 0 0 0 0 0 0 0 0 0 0 0 0 0 0 0 0 0 127 0" result="hardAlpha"/><feOffset dy="4"/><feGaussianBlur stdDeviation="2.5"/><feComposite in2="hardAlpha" operator="arithmetic" k2="-1" k3="1"/><feColorMatrix values="0 0 0 0 0 0 0 0 0 0 0 0 0 0 0 0 0 0 0.5 0"/><feBlend in2="shape" result="effect1_innerShadow_903_119"/></filter><filter id="filter1_i_903_119" x="97" y="93" width="126" height="130" filterUnits="userSpaceOnUse" color-interpolation-filters="sRGB"><feFlood flood-opacity="0" result="BackgroundImageFix"/><feBlend in="SourceGraphic" in2="BackgroundImageFix" result="shape"/><feColorMatrix in="SourceAlpha" values="0 0 0 0 0 0 0 0 0 0 0 0 0 0 0 0 0 0 127 0" result="hardAlpha"/><feOffset dy="4"/><feGaussianBlur stdDeviation="2.5"/><feComposite in2="hardAlpha" operator="arithmetic" k2="-1" k3="1"/><feColorMatrix values="0 0 0 0 0 0 0 0 0 0 0 0 0 0 0 0 0 0 0.5 0"/><feBlend in2="shape" result="effect1_innerShadow_903_119"/></filter><filter id="filter2_i_903_119" x="143.897" y="139.889" width="32.222" height="34.222" filterUnits="userSpaceOnUse" color-interpolation-filters="sRGB"><feFlood flood-opacity="0" result="BackgroundImageFix"/><feBlend in="SourceGraphic" in2="BackgroundImageFix" result="shape"/><feColorMatrix in="SourceAlpha" values="0 0 0 0 0 0 0 0 0 0 0 0 0 0 0 0 0 0 127 0" result="hardAlpha"/><feOffset dy="4"/><feGaussianBlur stdDeviation="1"/><feComposite in2="hardAlpha" operator="arithmetic" k2="-1" k3="1"/><feColorMatrix values="0 0 0 0 0 0 0 0 0 0 0 0 0 0 0 0 0 0 0.5 0"/><feBlend in2="shape" result="effect1_innerShadow_903_119"/></filter><clipPath id="clip0_903_119"><path fill="#fff" transform="translate(60 56)" d="M0 0h200v200H0z"/></clipPath></defs></svg>