<svg width="594" height="75" viewBox="0 0 594 75" fill="none" xmlns="http://www.w3.org/2000/svg">
<circle cx="27.5" cy="37.5" r="22.5" fill="#BE085B" stroke="black" stroke-width="10"/>
<circle cx="566.5" cy="37.5" r="22.5" fill="#4CC5EE" stroke="black" stroke-width="10"/>
<path d="M28 27C22.4772 27 18 31.4772 18 37C18 42.5229 22.4772 47 28 47L28 27ZM77 27L28 27L28 47L77 47L77 27Z" fill="white"/>
<path d="M567 27C572.523 27 577 31.4771 577 37C577 42.5228 572.523 47 567 47L567 27ZM514.5 27L567 27L567 47L514.5 47L514.5 27Z" fill="white"/>
<path d="M90.1875 39.0312H78.5L78.4375 32.5938H88.25C89.9792 32.5938 91.3958 32.375 92.5 31.9375C93.6042 31.4792 94.4271 30.8229 94.9688 29.9688C95.5312 29.0938 95.8125 28.0312 95.8125 26.7812C95.8125 25.3646 95.5417 24.2188 95 23.3438C94.4792 22.4688 93.6562 21.8333 92.5312 21.4375C91.4271 21.0417 90 20.8438 88.25 20.8438H81.75V59H72.375V13.5H88.25C90.8958 13.5 93.2604 13.75 95.3438 14.25C97.4479 14.75 99.2292 15.5104 100.688 16.5312C102.146 17.5521 103.26 18.8438 104.031 20.4062C104.802 21.9479 105.188 23.7812 105.188 25.9062C105.188 27.7812 104.76 29.5104 103.906 31.0938C103.073 32.6771 101.75 33.9688 99.9375 34.9688C98.1458 35.9688 95.8021 36.5208 92.9062 36.625L90.1875 39.0312ZM89.7812 59H75.9375L79.5938 51.6875H89.7812C91.4271 51.6875 92.7708 51.4271 93.8125 50.9062C94.8542 50.3646 95.625 49.6354 96.125 48.7188C96.625 47.8021 96.875 46.75 96.875 45.5625C96.875 44.2292 96.6458 43.0729 96.1875 42.0938C95.75 41.1146 95.0417 40.3646 94.0625 39.8438C93.0833 39.3021 91.7917 39.0312 90.1875 39.0312H81.1562L81.2188 32.5938H92.4688L94.625 35.125C97.3958 35.0833 99.625 35.5729 101.312 36.5938C103.021 37.5938 104.26 38.8958 105.031 40.5C105.823 42.1042 106.219 43.8229 106.219 45.6562C106.219 48.5729 105.583 51.0312 104.312 53.0312C103.042 55.0104 101.177 56.5 98.7188 57.5C96.2812 58.5 93.3021 59 89.7812 59ZM123.219 13.5V59H113.875V13.5H123.219ZM168.062 35.2188V53.25C167.354 54.1042 166.26 55.0312 164.781 56.0312C163.302 57.0104 161.396 57.8542 159.062 58.5625C156.729 59.2708 153.906 59.625 150.594 59.625C147.656 59.625 144.979 59.1458 142.562 58.1875C140.146 57.2083 138.062 55.7812 136.312 53.9062C134.583 52.0312 133.25 49.7396 132.312 47.0312C131.375 44.3021 130.906 41.1875 130.906 37.6875V34.8438C130.906 31.3438 131.354 28.2292 132.25 25.5C133.167 22.7708 134.469 20.4688 136.156 18.5938C137.844 16.7188 139.854 15.2917 142.188 14.3125C144.521 13.3333 147.115 12.8438 149.969 12.8438C153.927 12.8438 157.177 13.4896 159.719 14.7812C162.26 16.0521 164.198 17.8229 165.531 20.0938C166.885 22.3438 167.719 24.9271 168.031 27.8438H158.938C158.708 26.3021 158.271 24.9583 157.625 23.8125C156.979 22.6667 156.052 21.7708 154.844 21.125C153.656 20.4792 152.115 20.1562 150.219 20.1562C148.656 20.1562 147.26 20.4792 146.031 21.125C144.823 21.75 143.802 22.6771 142.969 23.9062C142.135 25.1354 141.5 26.6562 141.062 28.4688C140.625 30.2812 140.406 32.3854 140.406 34.7812V37.6875C140.406 40.0625 140.635 42.1667 141.094 44C141.552 45.8125 142.229 47.3438 143.125 48.5938C144.042 49.8229 145.167 50.75 146.5 51.375C147.833 52 149.385 52.3125 151.156 52.3125C152.635 52.3125 153.865 52.1875 154.844 51.9375C155.844 51.6875 156.646 51.3854 157.25 51.0312C157.875 50.6562 158.354 50.3021 158.688 49.9688V41.9062H150.125V35.2188H168.062ZM228.594 13.5V59H219.219L200.938 28.5V59H191.562V13.5H200.938L219.25 44.0312V13.5H228.594ZM267.281 51.6875V59H243.062V51.6875H267.281ZM246.125 13.5V59H236.75V13.5H246.125ZM264.125 32.0312V39.1562H243.062V32.0312H264.125ZM267.25 13.5V20.8438H243.062V13.5H267.25ZM299.125 43.9062H308.469C308.281 46.9688 307.438 49.6875 305.938 52.0625C304.458 54.4375 302.385 56.2917 299.719 57.625C297.073 58.9583 293.885 59.625 290.156 59.625C287.24 59.625 284.625 59.125 282.312 58.125C280 57.1042 278.021 55.6458 276.375 53.75C274.75 51.8542 273.51 49.5625 272.656 46.875C271.802 44.1875 271.375 41.1771 271.375 37.8438V34.6875C271.375 31.3542 271.812 28.3438 272.688 25.6562C273.583 22.9479 274.854 20.6458 276.5 18.75C278.167 16.8542 280.156 15.3958 282.469 14.375C284.781 13.3542 287.365 12.8438 290.219 12.8438C294.01 12.8438 297.208 13.5312 299.812 14.9062C302.438 16.2812 304.469 18.1771 305.906 20.5938C307.365 23.0104 308.24 25.7604 308.531 28.8438H299.156C299.052 27.0104 298.688 25.4583 298.062 24.1875C297.438 22.8958 296.49 21.9271 295.219 21.2812C293.969 20.6146 292.302 20.2812 290.219 20.2812C288.656 20.2812 287.292 20.5729 286.125 21.1562C284.958 21.7396 283.979 22.625 283.188 23.8125C282.396 25 281.802 26.5 281.406 28.3125C281.031 30.1042 280.844 32.2083 280.844 34.625V37.8438C280.844 40.1979 281.021 42.2708 281.375 44.0625C281.729 45.8333 282.271 47.3333 283 48.5625C283.75 49.7708 284.708 50.6875 285.875 51.3125C287.062 51.9167 288.49 52.2188 290.156 52.2188C292.115 52.2188 293.729 51.9062 295 51.2812C296.271 50.6562 297.24 49.7292 297.906 48.5C298.594 47.2708 299 45.7396 299.125 43.9062ZM324 13.5V59H314.625V13.5H324ZM351.25 13.5L333.219 35.9688L322.812 47.1562L321.125 38.2812L328.156 28.6562L339.75 13.5H351.25ZM340.594 59L327.188 37.9688L334.125 32.1562L351.688 59H340.594ZM397.625 43.9062H406.969C406.781 46.9688 405.938 49.6875 404.438 52.0625C402.958 54.4375 400.885 56.2917 398.219 57.625C395.573 58.9583 392.385 59.625 388.656 59.625C385.74 59.625 383.125 59.125 380.812 58.125C378.5 57.1042 376.521 55.6458 374.875 53.75C373.25 51.8542 372.01 49.5625 371.156 46.875C370.302 44.1875 369.875 41.1771 369.875 37.8438V34.6875C369.875 31.3542 370.312 28.3438 371.188 25.6562C372.083 22.9479 373.354 20.6458 375 18.75C376.667 16.8542 378.656 15.3958 380.969 14.375C383.281 13.3542 385.865 12.8438 388.719 12.8438C392.51 12.8438 395.708 13.5312 398.312 14.9062C400.938 16.2812 402.969 18.1771 404.406 20.5938C405.865 23.0104 406.74 25.7604 407.031 28.8438H397.656C397.552 27.0104 397.188 25.4583 396.562 24.1875C395.938 22.8958 394.99 21.9271 393.719 21.2812C392.469 20.6146 390.802 20.2812 388.719 20.2812C387.156 20.2812 385.792 20.5729 384.625 21.1562C383.458 21.7396 382.479 22.625 381.688 23.8125C380.896 25 380.302 26.5 379.906 28.3125C379.531 30.1042 379.344 32.2083 379.344 34.625V37.8438C379.344 40.1979 379.521 42.2708 379.875 44.0625C380.229 45.8333 380.771 47.3333 381.5 48.5625C382.25 49.7708 383.208 50.6875 384.375 51.3125C385.562 51.9167 386.99 52.2188 388.656 52.2188C390.615 52.2188 392.229 51.9062 393.5 51.2812C394.771 50.6562 395.74 49.7292 396.406 48.5C397.094 47.2708 397.5 45.7396 397.625 43.9062ZM442.375 51.6875V59H419.469V51.6875H442.375ZM422.5 13.5V59H413.125V13.5H422.5ZM471.812 13.5H481.156V43.5625C481.156 47.0625 480.406 50.0104 478.906 52.4062C477.427 54.8021 475.375 56.6042 472.75 57.8125C470.146 59.0208 467.146 59.625 463.75 59.625C460.354 59.625 457.333 59.0208 454.688 57.8125C452.062 56.6042 450 54.8021 448.5 52.4062C447.021 50.0104 446.281 47.0625 446.281 43.5625V13.5H455.656V43.5625C455.656 45.6042 455.979 47.2708 456.625 48.5625C457.271 49.8542 458.198 50.8021 459.406 51.4062C460.635 52.0104 462.083 52.3125 463.75 52.3125C465.458 52.3125 466.906 52.0104 468.094 51.4062C469.302 50.8021 470.219 49.8542 470.844 48.5625C471.49 47.2708 471.812 45.6042 471.812 43.5625V13.5ZM506.688 39.0312H495L494.938 32.5938H504.75C506.479 32.5938 507.896 32.375 509 31.9375C510.104 31.4792 510.927 30.8229 511.469 29.9688C512.031 29.0938 512.312 28.0312 512.312 26.7812C512.312 25.3646 512.042 24.2188 511.5 23.3438C510.979 22.4688 510.156 21.8333 509.031 21.4375C507.927 21.0417 506.5 20.8438 504.75 20.8438H498.25V59H488.875V13.5H504.75C507.396 13.5 509.76 13.75 511.844 14.25C513.948 14.75 515.729 15.5104 517.188 16.5312C518.646 17.5521 519.76 18.8438 520.531 20.4062C521.302 21.9479 521.688 23.7812 521.688 25.9062C521.688 27.7812 521.26 29.5104 520.406 31.0938C519.573 32.6771 518.25 33.9688 516.438 34.9688C514.646 35.9688 512.302 36.5208 509.406 36.625L506.688 39.0312ZM506.281 59H492.438L496.094 51.6875H506.281C507.927 51.6875 509.271 51.4271 510.312 50.9062C511.354 50.3646 512.125 49.6354 512.625 48.7188C513.125 47.8021 513.375 46.75 513.375 45.5625C513.375 44.2292 513.146 43.0729 512.688 42.0938C512.25 41.1146 511.542 40.3646 510.562 39.8438C509.583 39.3021 508.292 39.0312 506.688 39.0312H497.656L497.719 32.5938H508.969L511.125 35.125C513.896 35.0833 516.125 35.5729 517.812 36.5938C519.521 37.5938 520.76 38.8958 521.531 40.5C522.323 42.1042 522.719 43.8229 522.719 45.6562C522.719 48.5729 522.083 51.0312 520.812 53.0312C519.542 55.0104 517.677 56.5 515.219 57.5C512.781 58.5 509.802 59 506.281 59Z" fill="white"/>
</svg>
