<svg width="709" height="313" viewBox="0 0 709 313" fill="none" xmlns="http://www.w3.org/2000/svg">
<rect width="709" height="313" rx="60" fill="#333333"/>
<path d="M337.592 176.28C336.056 176.28 334.861 176.024 334.008 175.512C333.24 175 332.685 174.317 332.344 173.464C332.003 172.525 331.832 171.501 331.832 170.392V92.568C331.832 91.4587 332.003 90.52 332.344 89.752C332.685 88.8987 333.283 88.216 334.136 87.704C334.989 87.192 336.227 86.936 337.848 86.936C339.128 86.936 340.152 87.0213 340.92 87.192C341.688 87.3627 342.285 87.6187 342.712 87.96C343.224 88.216 343.736 88.6427 344.248 89.24L377.656 137.624H373.688L407.48 88.856C407.992 88.2587 408.504 87.832 409.016 87.576C409.528 87.32 410.168 87.1493 410.936 87.064C411.789 86.9787 412.771 86.936 413.88 86.936C415.501 86.936 416.696 87.192 417.464 87.704C418.317 88.216 418.915 88.9413 419.256 89.88C419.597 90.7333 419.768 91.7147 419.768 92.824V170.648C419.768 171.672 419.597 172.611 419.256 173.464C418.915 174.317 418.317 175 417.464 175.512C416.611 176.024 415.373 176.28 413.752 176.28C412.216 176.28 411.021 176.024 410.168 175.512C409.4 175 408.845 174.317 408.504 173.464C408.248 172.525 408.12 171.501 408.12 170.392V106.136L380.728 146.456C380.472 146.883 380.131 147.309 379.704 147.736C379.277 148.077 378.723 148.376 378.04 148.632C377.443 148.888 376.675 149.016 375.736 149.016C374.712 149.016 373.901 148.888 373.304 148.632C372.792 148.376 372.323 148.077 371.896 147.736C371.469 147.309 371.043 146.84 370.616 146.328L343.352 106.264V170.648C343.352 171.672 343.181 172.611 342.84 173.464C342.584 174.317 342.029 175 341.176 175.512C340.408 176.024 339.213 176.28 337.592 176.28ZM442.961 176.28C441.34 176.28 440.102 176.024 439.249 175.512C438.481 175.085 437.969 174.445 437.713 173.592C437.457 172.739 437.329 171.715 437.329 170.52V119.96C437.329 118.765 437.457 117.741 437.713 116.888C437.969 116.035 438.481 115.395 439.249 114.968C440.102 114.541 441.382 114.328 443.089 114.328C444.71 114.328 445.905 114.584 446.673 115.096C447.441 115.523 447.953 116.163 448.209 117.016C448.465 117.869 448.593 118.936 448.593 120.216V170.648C448.593 171.843 448.465 172.867 448.209 173.72C447.953 174.573 447.398 175.213 446.545 175.64C445.777 176.067 444.582 176.28 442.961 176.28ZM442.961 98.968C441.084 98.968 439.676 98.712 438.737 98.2C437.798 97.6027 437.158 96.792 436.817 95.768C436.561 94.744 436.433 93.5493 436.433 92.184C436.433 90.8187 436.604 89.6667 436.945 88.728C437.286 87.704 437.926 86.9787 438.865 86.552C439.804 86.04 441.212 85.784 443.089 85.784C444.881 85.784 446.246 86.04 447.185 86.552C448.124 87.064 448.721 87.832 448.977 88.856C449.318 89.88 449.489 91.0747 449.489 92.44C449.489 93.8053 449.318 95 448.977 96.024C448.721 96.9627 448.124 97.688 447.185 98.2C446.246 98.712 444.838 98.968 442.961 98.968ZM470.946 176.28C469.325 176.28 468.087 176.024 467.234 175.512C466.466 175.085 465.954 174.445 465.698 173.592C465.527 172.653 465.442 171.587 465.442 170.392V119.96C465.442 118.68 465.57 117.613 465.826 116.76C466.082 115.907 466.594 115.309 467.362 114.968C468.13 114.541 469.367 114.328 471.074 114.328C472.61 114.328 473.762 114.541 474.53 114.968C475.383 115.309 475.938 115.864 476.194 116.632C476.535 117.315 476.706 118.125 476.706 119.064L476.194 122.904C476.791 121.795 477.474 120.685 478.242 119.576C479.095 118.467 480.119 117.485 481.314 116.632C482.594 115.693 484.087 114.925 485.794 114.328C487.586 113.731 489.762 113.432 492.322 113.432C493.602 113.432 494.797 113.56 495.906 113.816C497.101 113.987 498.21 114.285 499.234 114.712C500.343 115.139 501.282 115.651 502.05 116.248C502.818 116.76 503.415 117.357 503.842 118.04C504.354 118.637 504.61 119.363 504.61 120.216C504.61 122.093 504.013 123.715 502.818 125.08C501.623 126.36 500.386 127 499.106 127C497.997 127 497.186 126.872 496.674 126.616C496.162 126.275 495.65 125.933 495.138 125.592C494.711 125.251 494.071 124.952 493.218 124.696C492.365 124.355 490.999 124.184 489.122 124.184C487.842 124.184 486.477 124.44 485.026 124.952C483.661 125.464 482.338 126.232 481.058 127.256C479.778 128.195 478.711 129.432 477.858 130.968C477.09 132.504 476.706 134.296 476.706 136.344V170.648C476.706 171.843 476.578 172.867 476.322 173.72C476.066 174.573 475.511 175.213 474.658 175.64C473.89 176.067 472.653 176.28 470.946 176.28ZM564.3 176.152C562.423 176.152 561.057 175.768 560.204 175C559.436 174.232 558.967 173.037 558.796 171.416L559.308 165.016C558.455 166.381 557.132 167.96 555.34 169.752C553.548 171.459 551.201 172.995 548.3 174.36C545.399 175.64 541.857 176.28 537.676 176.28C533.58 176.28 529.74 175.469 526.156 173.848C522.657 172.227 519.543 169.965 516.812 167.064C514.167 164.163 512.076 160.835 510.54 157.08C509.089 153.325 508.364 149.315 508.364 145.048C508.364 140.867 509.089 136.941 510.54 133.272C512.076 129.517 514.209 126.232 516.94 123.416C519.671 120.6 522.785 118.381 526.284 116.76C529.868 115.139 533.665 114.328 537.676 114.328C541.431 114.328 544.631 114.84 547.276 115.864C549.921 116.803 552.183 118.083 554.06 119.704C556.023 121.24 557.729 122.989 559.18 124.952L558.924 119.576C558.839 117.699 559.223 116.376 560.076 115.608C561.015 114.755 562.465 114.328 564.428 114.328C566.049 114.328 567.201 114.584 567.884 115.096C568.652 115.608 569.164 116.333 569.42 117.272C569.676 118.211 569.804 119.363 569.804 120.728V170.136C569.804 171.331 569.676 172.397 569.42 173.336C569.164 174.275 568.652 174.957 567.884 175.384C567.116 175.896 565.921 176.152 564.3 176.152ZM539.596 165.528C543.009 165.528 546.124 164.632 548.94 162.84C551.841 161.048 554.103 158.659 555.724 155.672C557.431 152.6 558.284 149.101 558.284 145.176C558.284 141.165 557.388 137.667 555.596 134.68C553.889 131.608 551.585 129.219 548.684 127.512C545.868 125.72 542.753 124.824 539.34 124.824C535.329 124.824 531.831 125.763 528.844 127.64C525.943 129.432 523.639 131.864 521.932 134.936C520.225 138.008 519.372 141.507 519.372 145.432C519.372 149.272 520.225 152.728 521.932 155.8C523.639 158.787 525.985 161.176 528.972 162.968C532.044 164.675 535.585 165.528 539.596 165.528ZM590.696 176.152C589.075 176.152 587.837 175.896 586.984 175.384C586.216 174.957 585.704 174.317 585.448 173.464C585.277 172.611 585.192 171.587 585.192 170.392V119.576C585.192 118.467 585.32 117.528 585.576 116.76C585.832 115.992 586.344 115.395 587.112 114.968C587.965 114.541 589.203 114.328 590.824 114.328C592.104 114.328 593.085 114.499 593.768 114.84C594.536 115.096 595.048 115.48 595.304 115.992C595.645 116.504 595.859 117.059 595.944 117.656C596.029 118.253 596.072 118.808 596.072 119.32L595.816 125.208C596.669 123.757 597.736 122.392 599.016 121.112C600.296 119.747 601.789 118.552 603.496 117.528C605.203 116.419 607.037 115.565 609 114.968C611.048 114.371 613.224 114.072 615.528 114.072C619.283 114.072 622.739 114.755 625.896 116.12C629.053 117.4 631.741 119.32 633.96 121.88C636.264 124.355 638.013 127.341 639.208 130.84C640.488 134.339 641.128 138.307 641.128 142.744V170.52C641.128 171.715 641 172.739 640.744 173.592C640.573 174.445 640.061 175.085 639.208 175.512C638.44 175.939 637.245 176.152 635.624 176.152C633.917 176.152 632.637 175.896 631.784 175.384C631.016 174.957 630.504 174.317 630.248 173.464C629.992 172.611 629.864 171.587 629.864 170.392V142.616C629.864 139.032 629.267 135.917 628.072 133.272C626.877 130.627 625.085 128.579 622.696 127.128C620.307 125.592 617.277 124.824 613.608 124.824C610.109 124.824 607.037 125.592 604.392 127.128C601.832 128.579 599.827 130.627 598.376 133.272C597.011 135.917 596.328 139.032 596.328 142.616V170.52C596.328 171.715 596.2 172.739 595.944 173.592C595.688 174.445 595.133 175.085 594.28 175.512C593.512 175.939 592.317 176.152 590.696 176.152Z" fill="#F3F0EB"/>
<path d="M471.784 249.408C472.04 249.888 472.168 250.304 472.168 250.656C472.2 250.976 472.104 251.28 471.88 251.568C471.656 251.824 471.304 252.064 470.824 252.288C470.056 252.64 469.448 252.72 469 252.528C468.584 252.336 468.2 251.872 467.848 251.136L455.848 225.6L443.944 251.088C443.592 251.824 443.192 252.288 442.744 252.48C442.328 252.672 441.72 252.592 440.92 252.24C440.44 252.048 440.088 251.808 439.864 251.52C439.672 251.232 439.592 250.88 439.624 250.464C439.688 250.048 439.848 249.568 440.104 249.024L453.88 220.272C454.072 219.888 454.344 219.584 454.696 219.36C455.08 219.104 455.48 218.976 455.896 218.976C456.184 218.976 456.456 219.024 456.712 219.12C456.968 219.216 457.192 219.36 457.384 219.552C457.576 219.744 457.736 220 457.864 220.32L471.784 249.408ZM446.824 242.928L448.456 239.232H463.336L464.92 242.928H446.824ZM478.557 252.48C477.949 252.48 477.485 252.384 477.165 252.192C476.845 252.032 476.637 251.792 476.541 251.472C476.477 251.12 476.445 250.72 476.445 250.272V221.088C476.445 220.672 476.493 220.32 476.589 220.032C476.717 219.712 476.925 219.456 477.213 219.264C477.533 219.072 477.997 218.976 478.605 218.976H489.213C490.781 218.976 492.205 219.216 493.485 219.696C494.797 220.144 495.933 220.816 496.893 221.712C497.853 222.608 498.589 223.744 499.101 225.12C499.645 226.464 499.917 228.032 499.917 229.824C499.917 230.944 499.741 232.112 499.389 233.328C499.037 234.512 498.493 235.632 497.757 236.688C497.053 237.744 496.141 238.624 495.021 239.328C493.901 240.032 492.541 240.432 490.941 240.528H480.765V250.32C480.765 250.768 480.701 251.152 480.573 251.472C480.477 251.792 480.269 252.032 479.949 252.192C479.661 252.384 479.197 252.48 478.557 252.48ZM499.149 251.952C498.477 252.4 497.901 252.544 497.421 252.384C496.973 252.224 496.541 251.84 496.125 251.232L488.445 238.944L493.197 238.224L499.821 248.784C500.141 249.296 500.333 249.728 500.397 250.08C500.493 250.432 500.429 250.752 500.205 251.04C500.013 251.328 499.661 251.632 499.149 251.952ZM480.765 236.304H490.269C491.005 236.304 491.693 236.176 492.333 235.92C492.973 235.632 493.533 235.216 494.013 234.672C494.493 234.128 494.877 233.456 495.165 232.656C495.453 231.856 495.597 230.896 495.597 229.776C495.597 228.4 495.341 227.232 494.829 226.272C494.349 225.312 493.629 224.592 492.669 224.112C491.709 223.6 490.525 223.344 489.117 223.344H480.765V236.304ZM529.004 218.976C529.42 218.976 529.756 219.024 530.012 219.12C530.3 219.216 530.524 219.408 530.684 219.696C530.844 219.952 530.924 220.384 530.924 220.992C530.924 221.568 530.828 222 530.636 222.288C530.476 222.576 530.252 222.768 529.964 222.864C529.676 222.928 529.324 222.96 528.908 222.96H518.972V250.368C518.972 250.784 518.908 251.152 518.78 251.472C518.684 251.792 518.476 252.032 518.156 252.192C517.868 252.384 517.42 252.48 516.812 252.48C516.172 252.48 515.692 252.384 515.372 252.192C515.084 252.032 514.892 251.792 514.796 251.472C514.732 251.12 514.7 250.736 514.7 250.32V222.96H504.62C504.204 222.96 503.852 222.928 503.564 222.864C503.276 222.768 503.052 222.576 502.892 222.288C502.732 222 502.652 221.568 502.652 220.992C502.652 220.384 502.716 219.952 502.844 219.696C503.004 219.408 503.228 219.216 503.516 219.12C503.836 219.024 504.188 218.976 504.572 218.976H529.004Z" fill="#666666"/>
<g clip-path="url(#clip0_903_119)">
<g filter="url(#filter0_i_903_119)">
<path d="M260 56C240.026 55.9878 220.163 58.9716 201.074 64.8519C185.847 57.9919 169.143 55.0551 152.489 56.3096C135.835 57.564 119.76 62.9698 105.732 72.0334C91.7034 81.0971 80.1687 93.5299 72.1804 108.197C64.1921 122.864 60.0046 139.299 60 156C59.9915 170.166 63.0095 184.169 68.8519 197.074C62.9716 216.163 59.9878 236.026 60 256C79.9741 256.012 99.8371 253.029 118.926 247.148C134.154 254.008 150.857 256.945 167.511 255.69C184.165 254.436 200.24 249.03 214.268 239.967C228.297 230.903 239.831 218.47 247.82 203.803C255.808 189.136 259.996 172.702 260 156C260.009 141.834 256.991 127.831 251.148 114.926C257.029 95.8371 260.012 75.9741 260 56Z" fill="#F3F0EB"/>
</g>
<g filter="url(#filter1_i_903_119)">
<path d="M223 219C195.767 218.289 169.464 208.947 147.885 192.321L146.277 191.085L144.374 191.777C136.302 194.668 127.843 196.334 119.277 196.723C119.666 188.157 121.332 179.698 124.223 171.626L124.915 169.723L123.679 168.115C107.053 146.536 97.7105 120.233 97 93C124.233 93.7105 150.536 103.053 172.115 119.679L173.723 120.915L175.626 120.223C183.698 117.332 192.157 115.666 200.723 115.277C200.337 123.843 198.67 132.302 195.777 140.374L195.085 142.277L196.321 143.885C212.947 165.464 222.289 191.767 223 219Z" fill="#D83844"/>
</g>
<g filter="url(#filter2_i_903_119)">
<path d="M171.4 144.608C165.109 138.316 154.908 138.316 148.616 144.608C142.324 150.9 142.324 161.101 148.616 167.392C154.908 173.684 165.109 173.684 171.4 167.392C177.692 161.101 177.692 150.9 171.4 144.608Z" fill="#F3F0EB"/>
</g>
</g>
<defs>
<filter id="filter0_i_903_119" x="60" y="56" width="200" height="204" filterUnits="userSpaceOnUse" color-interpolation-filters="sRGB">
<feFlood flood-opacity="0" result="BackgroundImageFix"/>
<feBlend mode="normal" in="SourceGraphic" in2="BackgroundImageFix" result="shape"/>
<feColorMatrix in="SourceAlpha" type="matrix" values="0 0 0 0 0 0 0 0 0 0 0 0 0 0 0 0 0 0 127 0" result="hardAlpha"/>
<feOffset dy="4"/>
<feGaussianBlur stdDeviation="2.5"/>
<feComposite in2="hardAlpha" operator="arithmetic" k2="-1" k3="1"/>
<feColorMatrix type="matrix" values="0 0 0 0 0 0 0 0 0 0 0 0 0 0 0 0 0 0 0.5 0"/>
<feBlend mode="normal" in2="shape" result="effect1_innerShadow_903_119"/>
</filter>
<filter id="filter1_i_903_119" x="97" y="93" width="126" height="130" filterUnits="userSpaceOnUse" color-interpolation-filters="sRGB">
<feFlood flood-opacity="0" result="BackgroundImageFix"/>
<feBlend mode="normal" in="SourceGraphic" in2="BackgroundImageFix" result="shape"/>
<feColorMatrix in="SourceAlpha" type="matrix" values="0 0 0 0 0 0 0 0 0 0 0 0 0 0 0 0 0 0 127 0" result="hardAlpha"/>
<feOffset dy="4"/>
<feGaussianBlur stdDeviation="2.5"/>
<feComposite in2="hardAlpha" operator="arithmetic" k2="-1" k3="1"/>
<feColorMatrix type="matrix" values="0 0 0 0 0 0 0 0 0 0 0 0 0 0 0 0 0 0 0.5 0"/>
<feBlend mode="normal" in2="shape" result="effect1_innerShadow_903_119"/>
</filter>
<filter id="filter2_i_903_119" x="143.897" y="139.889" width="32.2224" height="34.2222" filterUnits="userSpaceOnUse" color-interpolation-filters="sRGB">
<feFlood flood-opacity="0" result="BackgroundImageFix"/>
<feBlend mode="normal" in="SourceGraphic" in2="BackgroundImageFix" result="shape"/>
<feColorMatrix in="SourceAlpha" type="matrix" values="0 0 0 0 0 0 0 0 0 0 0 0 0 0 0 0 0 0 127 0" result="hardAlpha"/>
<feOffset dy="4"/>
<feGaussianBlur stdDeviation="1"/>
<feComposite in2="hardAlpha" operator="arithmetic" k2="-1" k3="1"/>
<feColorMatrix type="matrix" values="0 0 0 0 0 0 0 0 0 0 0 0 0 0 0 0 0 0 0.5 0"/>
<feBlend mode="normal" in2="shape" result="effect1_innerShadow_903_119"/>
</filter>
<clipPath id="clip0_903_119">
<rect width="200" height="200" fill="white" transform="translate(60 56)"/>
</clipPath>
</defs>
</svg>
